<svg xmlns="http://www.w3.org/2000/svg" width="160" height="47" fill="none" viewBox="0 0 160 47"><path fill="#000" d="M159.111 40.892c0 2.463-2.037 4.458-4.556 4.458H5.451C2.933 45.35.89 43.355.89 40.891V5.337C.889 2.874 2.933.872 5.45.872h149.103c2.52 0 4.556 2.002 4.556 4.464z"/><path fill="#fff" d="M35.707 22.862c-.034-3.725 3.128-5.537 3.273-5.621-1.791-2.546-4.567-2.894-5.542-2.921-2.332-.24-4.593 1.36-5.78 1.36-1.212 0-3.04-1.337-5.011-1.298-2.537.038-4.91 1.47-6.21 3.693-2.686 4.533-.683 11.195 1.89 14.86 1.287 1.794 2.79 3.798 4.76 3.727 1.925-.077 2.645-1.197 4.969-1.197 2.303 0 2.978 1.197 4.986 1.152 2.067-.032 3.368-1.802 4.61-3.613 1.488-2.057 2.085-4.083 2.109-4.187-.049-.016-4.015-1.492-4.054-5.956M31.915 11.91c1.036-1.264 1.744-2.982 1.548-4.726-1.5.065-3.375 1.011-4.454 2.246-.956 1.089-1.809 2.873-1.588 4.551 1.684.123 3.413-.828 4.494-2.072m26.218-.343q0 2.04-1.254 3.071-1.16.951-3.298.952-1.058 0-1.817-.09V8.068q.988-.157 2.14-.157 2.035 0 3.07.863 1.159.975 1.16 2.792m-1.31.033q0-1.323-.718-2.029t-2.098-.706q-.588-.001-1 .079v5.65q.229.033.838.033 1.426 0 2.201-.774.777-.773.778-2.253m8.253 1.155q0 1.256-.737 2.063-.77.83-2.046.83-1.23 0-1.96-.797-.73-.796-.73-2.006 0-1.267.753-2.073t2.03-.807q1.23 0 1.977.795.712.774.713 1.995m-1.289.04q0-.755-.333-1.294-.39-.651-1.114-.652-.748 0-1.139.652-.334.539-.333 1.315 0 .754.333 1.293.404.652 1.127.652.712 0 1.114-.663.345-.55.345-1.304m10.599-2.718-1.748 5.448h-1.138l-.724-2.366a17 17 0 0 1-.449-1.76h-.022a13 13 0 0 1-.45 1.76l-.769 2.366h-1.15l-1.645-5.448h1.277l.632 2.59q.229.919.379 1.748h.022q.139-.683.461-1.737l.793-2.6h1.013l.76 2.545q.274.93.447 1.793h.035q.126-.84.379-1.793l.678-2.545h1.22m6.438 5.447h-1.242v-3.12q.001-1.443-1.126-1.443-.551 0-.897.397a1.4 1.4 0 0 0-.345.934v3.23h-1.242v-3.89q0-.716-.045-1.558h1.092l.058.852h.034q.218-.397.644-.658a2.14 2.14 0 0 1 1.126-.306q.782 0 1.3.493.643.606.643 1.805zm3.425-.001h-1.24V7.576h1.24zm7.313-2.768q0 1.256-.736 2.063-.772.83-2.047.83-1.231 0-1.96-.797-.729-.796-.729-2.006 0-1.267.753-2.073t2.028-.807q1.23 0 1.979.795.712.774.712 1.995m-1.29.04q0-.755-.333-1.294-.39-.651-1.112-.652-.75 0-1.14.652-.333.539-.332 1.315 0 .754.333 1.293.402.652 1.127.652.711 0 1.113-.663.345-.55.344-1.304m7.301 2.73h-1.115l-.092-.628h-.035q-.572.75-1.632.751-.792 0-1.275-.493a1.53 1.53 0 0 1-.437-1.11q-.001-.997.857-1.524.856-.527 2.41-.515v-.102q0-1.076-1.161-1.076-.827.001-1.457.404l-.252-.795q.78-.47 1.916-.47 2.192 0 2.193 2.253v2.006q0 .816.08 1.299m-1.29-1.872v-.84q-2.054-.035-2.054 1.097-.001.427.238.64.241.212.607.212.41 0 .76-.252a1.03 1.03 0 0 0 .45-.857m8.347 1.871h-1.102l-.058-.874h-.035q-.529.998-1.794.998a2.12 2.12 0 0 1-1.678-.773q-.667-.773-.666-2.006-.001-1.323.724-2.141a2.25 2.25 0 0 1 1.724-.763q1.127 0 1.574.74h.024V7.576h1.243v6.479q0 .796.044 1.467m-1.287-2.297v-.908q0-.236-.034-.381a1.37 1.37 0 0 0-.45-.734 1.24 1.24 0 0 0-.83-.297q-.694 0-1.093.538-.397.54-.398 1.379 0 .807.381 1.312a1.29 1.29 0 0 0 1.086.537q.611 0 .981-.449.358-.414.357-.997m11.91-.471q0 1.256-.736 2.063-.77.83-2.047.83-1.228 0-1.96-.797-.729-.796-.729-2.006 0-1.267.753-2.073.752-.806 2.03-.807 1.23 0 1.977.795.712.774.712 1.995m-1.287.04q0-.755-.333-1.294-.392-.651-1.115-.652-.747 0-1.139.652-.334.539-.333 1.315 0 .754.333 1.293.402.652 1.127.652.712 0 1.115-.663.344-.55.345-1.304m7.966 2.73h-1.241v-3.12q0-1.443-1.127-1.443-.553 0-.896.397a1.38 1.38 0 0 0-.345.934v3.23h-1.244v-3.89q0-.716-.043-1.558h1.09l.058.852h.034a1.8 1.8 0 0 1 .644-.658 2.14 2.14 0 0 1 1.127-.306q.78 0 1.299.493.645.606.644 1.805zm8.359-4.54h-1.368v2.646q.001 1.008.724 1.008.335 0 .553-.056l.032.918q-.368.135-.964.136-.736 0-1.149-.437-.415-.437-.415-1.469v-2.746h-.816v-.908h.816v-.998l1.218-.358v1.355h1.367v.909zm6.575 4.539h-1.243v-3.096q0-1.466-1.125-1.466-.863 0-1.185.85-.057.178-.058.435v3.276h-1.241V7.576h1.241v3.283h.023q.588-.896 1.679-.896.771 0 1.277.494.632.616.632 1.826zm6.783-2.982q-.001.326-.047.55h-3.725q.024.807.54 1.233.472.381 1.219.381.827 0 1.507-.258l.194.842q-.793.336-1.875.336-1.299 0-2.04-.745-.741-.746-.74-2-.001-1.233.689-2.052.722-.873 1.954-.873 1.206 0 1.826.873.499.694.498 1.714m-1.186-.312q.014-.54-.24-.93-.323-.505-.989-.505-.609 0-.988.493a1.8 1.8 0 0 0-.369.942zM63.58 36.405h-2.692l-1.475-4.518H54.29l-1.405 4.517h-2.62l5.077-15.378h3.136zm-4.611-6.413-1.334-4.015q-.21-.615-.795-2.897h-.047q-.233.981-.75 2.897l-1.309 4.015zm17.667.732q0 2.83-1.568 4.47-1.405 1.462-3.486 1.462-2.247 0-3.23-1.574h-.047v5.841h-2.527V28.966q0-1.778-.094-3.65h2.222l.141 1.758h.048q1.263-1.987 3.837-1.986 2.013 0 3.358 1.551 1.346 1.553 1.346 4.085m-2.574.09q0-1.62-.749-2.67-.82-1.095-2.2-1.095-.936.002-1.696.605-.761.605-.994 1.586a3.2 3.2 0 0 0-.117.751v1.85q0 1.208.76 2.042.762.834 1.977.834 1.428-.001 2.223-1.073.796-1.072.796-2.83m15.655-.09q0 2.83-1.569 4.47-1.403 1.462-3.486 1.462-2.247 0-3.228-1.574h-.047v5.841H78.86V28.966q0-1.778-.094-3.65h2.222l.141 1.758h.048q1.261-1.987 3.837-1.986 2.01 0 3.36 1.551 1.342 1.553 1.343 4.085m-2.574.09q0-1.62-.75-2.67-.819-1.095-2.199-1.095-.936.002-1.697.605a2.8 2.8 0 0 0-.993 1.586 3.2 3.2 0 0 0-.117.751v1.85q0 1.208.758 2.042.76.833 1.98.834 1.427-.001 2.222-1.073.796-1.072.796-2.83m17.2 1.278q0 1.962-1.401 3.194-1.54 1.346-4.297 1.346-2.544 0-4.087-.958l.585-2.053a7.06 7.06 0 0 0 3.653.982q1.426 0 2.224-.628.795-.63.795-1.68 0-.937-.656-1.577-.653-.64-2.176-1.189-4.14-1.507-4.14-4.41 0-1.896 1.45-3.107 1.449-1.21 3.862-1.21 2.153 0 3.58.73l-.632 2.008q-1.333-.707-3.019-.707-1.334 0-2.081.639-.631.57-.632 1.392-.001.912.724 1.506.632.547 2.295 1.187 2.034.798 2.995 1.87.958 1.069.958 2.665m8.354-4.927h-2.785v5.384q-.001 2.054 1.474 2.053.678 0 1.123-.114l.069 1.87q-.746.273-1.965.273-1.496 0-2.34-.89-.842-.89-.843-2.989v-5.59h-1.659v-1.848h1.659v-2.03l2.482-.73v2.76h2.785zm12.566 3.604q0 2.557-1.498 4.198-1.569 1.69-4.167 1.688-2.502 0-3.988-1.619-1.486-1.62-1.486-4.083-.001-2.579 1.532-4.22 1.532-1.644 4.129-1.644 2.504 0 4.025 1.62 1.454 1.573 1.453 4.06m-2.621.08q.001-1.534-.678-2.632-.796-1.327-2.269-1.326-1.522 0-2.317 1.326-.68 1.098-.678 2.678-.001 1.535.678 2.63.819 1.327 2.295 1.327 1.448 0 2.268-1.35c.466-.745.701-1.632.701-2.653m10.835-3.366a4.5 4.5 0 0 0-.797-.069q-1.334 0-2.06.983-.63.867-.631 2.19v5.818h-2.526l.024-7.597q0-1.918-.095-3.49h2.201l.092 2.12h.07q.4-1.093 1.264-1.756a3.1 3.1 0 0 1 1.826-.594q.35.001.632.045zm11.3 2.853q.001.661-.092 1.117h-7.58q.043 1.643 1.099 2.511.958.775 2.48.775 1.684 0 3.067-.524l.396 1.71q-1.614.686-3.813.685-2.644 0-4.155-1.517-1.508-1.517-1.509-4.072 0-2.509 1.406-4.175 1.472-1.779 3.976-1.779 2.458 0 3.723 1.779 1.001 1.414 1.002 3.49m-2.409-.64q.024-1.094-.491-1.893-.656-1.029-2.013-1.028-1.24 0-2.012 1.005-.63.798-.747 1.915z"/></svg>