<svg xmlns="http://www.w3.org/2000/svg" width="28" height="27" fill="none" viewBox="0 0 28 27"><path fill="url(#a)" d="m14.689.628 3.6 7.2c.2.2.4.4.8.6l7.8 1.2c.8.2 1.2 1.2.6 1.8l-5.6 5.6c-.2.2-.4.6-.2.8l1.4 7.8c.2.8-.8 1.4-1.4 1l-7-3.6c-.2-.2-.6-.2-1 0l-7 3.6c-.8.4-1.6-.2-1.4-1l1.4-7.8c0-.4 0-.6-.2-.8l-6.2-6c-.6-.6-.2-1.6.6-1.6l7.8-1.2c.4 0 .6-.2.8-.6l3.6-7.2c.2-.6 1.4-.6 1.6.2"/><defs><linearGradient id="a" x1=".015" x2="27.763" y1="13.228" y2="13.228" gradientUnits="userSpaceOnUse"><stop stop-color="#ffc80b"/><stop offset="1" stop-color="#e89318"/></linearGradient></defs></svg>