<svg xmlns="http://www.w3.org/2000/svg" width="336" height="232" fill="none" viewBox="0 0 336 232"><path fill="#464648" d="m297.61 182.108-51.623 9.298-175.95 4.97-.401-18.838H297.61z" opacity=".3"/><path fill="#fcb002" stroke="#d07c32" stroke-miterlimit="10" stroke-width=".12" d="M84.547 191.406H63.385a3.763 3.763 0 0 1-3.768-3.767v-4.81a3.763 3.763 0 0 1 3.768-3.767h21.162a3.763 3.763 0 0 1 3.767 3.767v4.81a3.763 3.763 0 0 1-3.767 3.767Z"/><path fill="#fcb002" d="M57.375 182.91v4.81a3.763 3.763 0 0 1-3.768 3.767H3.827A3.763 3.763 0 0 1 .06 187.72v-3.607c0-2.726 2.245-4.89 4.89-4.89h48.657c2.084-.08 3.768 1.603 3.768 3.687"/><mask id="a" width="58" height="13" x="0" y="179" maskUnits="userSpaceOnUse" style="mask-type:luminance"><path fill="#fff" d="M57.376 182.911v4.809a3.764 3.764 0 0 1-3.768 3.768H3.828a3.764 3.764 0 0 1-3.767-3.768v-3.607c0-2.725 2.245-4.89 4.89-4.89h48.657c2.084-.08 3.768 1.603 3.768 3.688"/></mask><g mask="url(#a)"><path fill="#d07c32" d="M4.393 169.764c-1.924 2.485-4.73 4.168-6.172 7.054-1.363 2.645-1.283 5.771-1.043 8.657.562 6.653 4.89 10.1 10.1 13.707 2.967 2.085 5.772-2.805 2.806-4.809-4.008-2.806-7.214-5.13-7.455-10.18-.08-2.165 0-4.249 1.283-6.093 1.202-1.683 3.126-2.805 4.409-4.408 2.164-2.806-1.764-6.734-3.928-3.928"/></g><path stroke="#d07c32" stroke-miterlimit="10" stroke-width=".12" d="M57.375 182.91v4.81a3.763 3.763 0 0 1-3.768 3.767H3.827A3.763 3.763 0 0 1 .06 187.72v-3.607c0-2.726 2.245-4.89 4.89-4.89h48.657c2.084-.08 3.768 1.603 3.768 3.687Z"/><path stroke="#fce63c" stroke-miterlimit="10" stroke-width=".12" d="M64.27 180.505v9.539m4.008-9.54v9.539m3.927-9.539v9.539m3.926-9.539v9.539m4.009-9.539v9.539m3.93-9.539v9.539"/><path fill="#fcb002" d="M82.305 179.142h-49.78a3.763 3.763 0 0 1-3.767-3.767v-4.81a3.763 3.763 0 0 1 3.768-3.767h49.779a3.763 3.763 0 0 1 3.767 3.767v4.81a3.763 3.763 0 0 1-3.767 3.767"/><mask id="b" width="59" height="14" x="28" y="166" maskUnits="userSpaceOnUse" style="mask-type:luminance"><path fill="#fff" d="M82.309 179.142h-49.78a3.764 3.764 0 0 1-3.767-3.768v-4.809a3.763 3.763 0 0 1 3.767-3.768h49.78a3.763 3.763 0 0 1 3.767 3.768v4.809a3.764 3.764 0 0 1-3.767 3.768"/></mask><g mask="url(#b)"><path fill="#d07c32" d="M32.365 161.106c-3.206 2.405-5.611 4.89-5.852 9.058-.08 2.164-.24 4.649.16 6.813.321 2.004 1.444 3.608 2.486 5.291 1.603 2.645 5.69.24 4.088-2.405-.481-.801-1.283-1.844-1.604-2.725-.48-1.203-.24-3.127-.24-4.409 0-3.527.561-5.371 3.447-7.455 2.325-1.844 0-6.012-2.485-4.168"/></g><path stroke="#d07c32" stroke-miterlimit="10" stroke-width=".12" d="M82.305 179.142h-49.78a3.763 3.763 0 0 1-3.767-3.767v-4.81a3.763 3.763 0 0 1 3.768-3.767h49.779a3.763 3.763 0 0 1 3.767 3.767v4.81a3.763 3.763 0 0 1-3.767 3.767Z"/><path fill="#fcb002" d="M93.205 166.878h-49.78a3.763 3.763 0 0 1-3.767-3.768v-4.809a3.764 3.764 0 0 1 3.767-3.768h49.78a3.764 3.764 0 0 1 3.767 3.768v4.809a3.763 3.763 0 0 1-3.767 3.768"/><mask id="c" width="58" height="13" x="39" y="154" maskUnits="userSpaceOnUse" style="mask-type:luminance"><path fill="#fff" d="M93.205 166.879H43.426a3.764 3.764 0 0 1-3.768-3.768v-4.809a3.764 3.764 0 0 1 3.768-3.768h49.78a3.764 3.764 0 0 1 3.767 3.768v4.809a3.764 3.764 0 0 1-3.768 3.768"/></mask><g mask="url(#c)"><path fill="#d07c32" d="M39.98 150.365c-5.611 5.531-5.371 17.555 1.924 21.483 3.126 1.683 5.931-3.126 2.805-4.81-3.928-2.164-3.848-9.699-.802-12.745 2.566-2.485-1.362-6.413-3.927-3.928"/></g><path stroke="#d07c32" stroke-miterlimit="10" stroke-width=".12" d="M93.205 166.878h-49.78a3.763 3.763 0 0 1-3.767-3.768v-4.809a3.764 3.764 0 0 1 3.767-3.768h49.78a3.764 3.764 0 0 1 3.767 3.768v4.809a3.763 3.763 0 0 1-3.767 3.768Z"/><path fill="#fede16" stroke="#f2a93c" stroke-miterlimit="10" stroke-width=".12" d="M71.642 154.613c13.503 0 24.449-10.946 24.449-24.449s-10.946-24.449-24.449-24.449-24.449 10.946-24.449 24.449 10.946 24.449 24.45 24.449Z"/><path fill="#ffbf04" d="M92.805 130.165c0 11.703-9.459 21.162-21.162 21.162-.802 0-1.683-.08-2.485-.161-3.447-.4-6.653-1.603-9.379-3.527a23 23 0 0 1-4.168-3.687 20.54 20.54 0 0 1-4.409-8.497 22.8 22.8 0 0 1-.641-5.29c0-8.257 4.73-15.391 11.623-18.918a20.4 20.4 0 0 1 9.299-2.245h.16c1.844 0 3.607.241 5.37.722 3.367.882 6.333 2.565 8.818 4.809 4.249 3.848 6.974 9.379 6.974 15.632"/><path fill="#fff" d="m71.483 109.002-15.872 34.95a20.54 20.54 0 0 1-4.409-8.497l10.982-24.208c2.725-1.363 5.932-2.164 9.299-2.245m-43.529 70.14-5.611 12.265h-8.257l5.531-12.265zm19.961 0-4.008 12.265h-6.012l4.008-12.265zm-4.01-12.265-4.489 12.265h-6.653l4.409-12.265zm17.157-12.584-4.49 12.264H49.84l4.49-12.264zm4.568 12.584-4.007 12.265H55.53l4.088-12.265zm20.201-52.424-16.673 36.713c-3.447-.4-6.653-1.603-9.379-3.527l17.235-37.995c3.286.962 6.332 2.565 8.817 4.809" opacity=".24"/><path stroke="#fce63c" stroke-miterlimit="10" stroke-width=".12" d="M44.789 155.655v9.539m3.929-9.539v9.539m3.927-9.539v9.539m4.008-9.539v9.539m3.927-9.539v9.539m3.929-9.539v9.539m4.006-9.539v9.539m3.929-9.539v9.539m4.006-9.539v9.539m3.93-9.539v9.539m3.926-9.539v9.539m4.009-9.539v9.539m-54.265 3.687v9.619m4.008-9.619v9.619m3.927-9.619v9.619m3.927-9.619v9.619m4.008-9.619v9.619m3.93-9.619v9.619m3.926-9.619v9.619m4.009-9.619v9.619m3.927-9.619v9.619m3.928-9.619v9.619m4.007-9.619v9.619m3.929-9.619v9.619m-72.384 2.005v9.539m3.929-9.54v9.539m4.007-9.539v9.539m3.929-9.539v9.539m3.927-9.539v9.539m4.008-9.539v9.539m3.927-9.539v9.539m4.009-9.539v9.539m3.927-9.539v9.539m3.928-9.539v9.539m4.007-9.539v9.539m3.929-9.539v9.539m3.929-9.539v9.539"/><path fill="#59361c" d="M74.848 105.715h-7.455v85.691h7.455z" opacity=".44"/><path fill="#90a2a2" d="M297.613 37.82v144.288l-22.856 9.389-31.133 9.296L245.99 6.398l28.697 17.475z"/><path fill="#90a2a2" d="M297.612 37.82v144.288l-22.926 9.389V23.873z" opacity=".07"/><path fill="#bcd1d4" d="m245.99 6.398-2.041 194.395-173.91-4.416V6.397z"/><path fill="#4f5656" d="m228.115 166.877-134.588 8.738-7.455-157.434 142.043 4.168z"/><path fill="#b4f26a" d="M121.662 39.183 99.137 73.331c-.16.24-.481.32-.722.08-20.761-16.192-36.873-32.625-50.58-49.218-.241-.24-.16-.641.16-.802C60.019 16.739 68.756 8.964 74.287.226c.16-.24.561-.32.802-.08 12.424 12.425 28.136 25.25 46.573 38.317.08.24.16.56 0 .721"/><path fill="#b4f26a" d="M121.663 39.183 99.138 73.33a.52.52 0 0 1-.721.16C77.656 57.3 61.543 40.866 47.837 24.273c-.161-.24-.081-.641.16-.802C60.1 16.818 68.837 9.043 74.288.305c.16-.24.561-.32.801-.08a244 244 0 0 0 6.493 6.252H70.121v2.566h14.268c10.661 9.619 23.166 19.478 37.274 29.498.08.16.161.481 0 .642"/><path fill="#d8ffba" d="M115.33 40.065 97.856 67.72c-.16.24-.401.24-.642.08C79.66 53.692 65.872 39.584 54.088 25.315c-.16-.24-.16-.48.08-.64 9.7-5.211 16.674-11.304 20.922-18.438.16-.24.401-.24.641-.08C86.313 16.818 99.7 27.961 115.25 39.424c.161.16.161.48.08.64"/><path fill="#b4f26a" d="m104.348 169.924 11.062-16.593-24.288-39.92-11.383 25.732c-.24.561-.16 1.282.24 1.763z"/><path fill="#d8ffba" d="m105.069 167.118 9.78-14.669-21.483-35.351-10.1 22.766a1.35 1.35 0 0 0 .24 1.523z"/><path fill="#b4f26a" d="m161.822 36.778-51.222 4.57 12.344-27.094c18.357 1.362 33.267 3.767 42.165 8.016zm-59.959 120 12.264-11.062-18.116-66.693-18.116 21.563c-.401.481-.481 1.202-.24 1.763z"/><path stroke="#70894c" stroke-miterlimit="10" stroke-width=".241" d="m84.307 117.098 17.555 39.679 12.265-11.062-18.036-66.693"/><path fill="#d8ffba" d="m155.569 36.778-35.991 3.206c-1.604.16-2.806-1.523-2.165-3.046l7.776-17.074a2.31 2.31 0 0 1 2.084-1.283c12.986 1.043 23.727 2.726 30.781 5.612a2.17 2.17 0 0 1 1.283 2.485l-1.924 8.497c-.16.881-.962 1.523-1.844 1.603M99.938 146.597l9.86-8.897-14.509-53.547-14.509 17.314c-.32.401-.4.962-.16 1.443z"/><path fill="#b4f26a" d="m209.516 41.027-42.966-4.249 19.479-22.925c18.356 1.362 29.098 2.004 37.915 6.252z"/><path fill="#d8ffba" d="m206.151 40.225-35.27-3.447 15.952-18.838c15.07 1.123 23.807 1.684 31.102 5.13z"/><path fill="#4f5656" d="m228.354 167.358-132.905 8.257-.642-12.666-6.733-136.432 4.008-2.324 136.272 6.252z" opacity=".4"/><path fill="#b3c7c6" d="M230.76 28.2v140.842l-14.83.962-110.7 7.054-7.375.481L90.72 29.083l-.24-4.89 6.973.24 111.583 3.207z"/><path fill="#90a2a2" d="M230.759 28.201v140.841l-14.83.962-6.893-142.364z" opacity=".15"/><path fill="#859392" d="M164.948 147.399c23.729 0 42.966-20.6 42.966-46.012s-19.237-46.012-42.966-46.012-42.966 20.6-42.966 46.012 19.237 46.012 42.966 46.012"/><path fill="#fffeff" d="M206.471 101.547c0 25.411-19.238 46.012-42.966 46.012a40.9 40.9 0 0 1-17.635-4.008c-14.909-7.214-25.33-23.246-25.33-41.924 0-25.41 19.238-46.011 42.965-46.011 4.008 0 7.936.56 11.624 1.683 18.036 5.37 31.342 23.086 31.342 44.248"/><path fill="#b3c7c6" d="M206.472 101.547c0 25.411-19.238 46.012-42.966 46.012a40.9 40.9 0 0 1-17.635-4.008c23.888-24.93 33.507-53.707 29.259-86.252 18.036 5.37 31.342 23.086 31.342 44.248" opacity=".23"/><path fill="#464648" d="M179.938 102.189c0 11.302-7.375 20.44-16.513 20.44-1.683 0-3.287-.32-4.81-.881-6.813-2.566-11.703-10.341-11.703-19.559 0-11.303 4.489-21.163 13.627-21.163 3.688 0 7.535.962 10.822 3.207 4.97 3.206 8.577 8.978 8.577 17.956"/><path fill="#464648" d="M179.938 102.189c0 11.302-7.375 20.44-16.513 20.44-1.684 0-3.287-.32-4.81-.881l-5.932-34.309 18.678-3.206c4.97 3.206 8.577 8.978 8.577 17.956" opacity=".54"/><path fill="#757376" d="M175.37 102.189c0 9.619-5.371 17.715-12.665 19.88-1.203.4-2.485.561-3.848.561-2.004 0-4.008-.481-5.772-1.283-2.244-1.042-4.248-2.645-5.931-4.729-1.604-2.004-2.886-4.489-3.768-7.215-.721-2.244-1.042-4.649-1.042-7.214 0-9.54 5.21-17.555 12.345-19.8 1.362-.4 2.725-.64 4.168-.64.962 0 1.844.08 2.725.32 2.405.48 4.65 1.603 6.573 3.286 2.726 2.245 4.81 5.531 6.012 9.38.802 2.243 1.203 4.809 1.203 7.454"/><path fill="#8fa3a2" d="M157.092 37.9h9.459l-4.73 10.581zm-2.404 126.092h9.459l-4.73-10.661zM105.71 95.776l.481 9.459 9.298-5.21z"/><path fill="#90a2a2" d="M238.296 64.273h-20.842a1.78 1.78 0 0 1-1.764-1.764V48a1.78 1.78 0 0 1 1.764-1.763h20.842A1.78 1.78 0 0 1 240.059 48v14.51a1.78 1.78 0 0 1-1.763 1.763"/><path fill="#cfe0e2" d="M237.733 63.15h-21.964a1.78 1.78 0 0 1-1.763-1.763V46.878c0-.962.801-1.763 1.763-1.763h21.964c.962 0 1.763.801 1.763 1.763v14.51c-.08.961-.801 1.763-1.763 1.763"/><path fill="#bcd1d4" d="M237.734 63.15h-20.842a1.78 1.78 0 0 1-1.763-1.763V48c0-.962.801-1.763 1.763-1.763h20.842c.962 0 1.763.801 1.763 1.763v13.387c-.08.962-.801 1.763-1.763 1.763"/><path fill="#cfe0e2" d="m161.581 81.988-14.428 34.549c-1.604-2.004-2.886-4.489-3.768-7.215l11.303-27.013c1.362-.401 2.725-.642 4.168-.642.962.08 1.844.16 2.725.321m12.584 12.666-11.463 27.494c-1.202.401-2.485.562-3.847.562-2.004 0-4.008-.481-5.772-1.283l15.07-36.072c2.645 2.164 4.81 5.451 6.012 9.299" opacity=".15"/><path fill="#b3c7c6" d="m230.76 28.2-21.723-.56-111.583-3.207-6.974-.24.24 4.89 7.135 148.456 7.375-.481-7.535-147.815 133.065 2.886z"/><path fill="#b3c7c6" d="M245.989 6.398v2.565H84.307a950 950 0 0 0-2.806-2.565z" opacity=".62"/><path fill="#f7931e" d="M247.976 231.3c1.619-2.3 5.624-6.135 9.544-9.458 7.157-5.539 8.947-17.298 1.789-19.513-13.634-2.897-37.578 13.719-40.731 14.997 0 .341-.085.937 0 2.641 1.364 0 2.898-.085 4.602-.085 5.794-.085 6.646-.085 7.583.511.597.341 1.705 2.045 2.301 6.988.426-.256 4.602-2.812 8.947-1.364 4.09 1.193 5.709 4.687 5.965 5.283"/><path fill="#f7ab1e" d="M247.974 228.574c1.619-2.301 5.624-6.135 9.544-9.459 7.158-5.538 7.754-15.423 1.789-16.871-13.633-2.897-23.006 3.408-26.159 4.601-5.113 2.045-12.696 7.073-14.571 10.311 1.363 0 2.897-.086 4.601-.086 5.795-.085 6.647-.085 7.584.512.596.341 2.641 1.789 2.897 6.817.426-.256 4.09-2.642 8.436-1.193 4.005 1.363 5.624 4.857 5.879 5.368"/><path fill="#f7931e" d="M304.641 226.784c-1.619-2.301-5.624-6.135-9.543-9.458-7.158-5.539-6.902-18.235-.767-19.513 13.633-2.898 37.577 13.718 40.73 14.997-.341.852-.426 1.022-1.022 2.641-1.364 0-2.897-.085-4.602-.085-5.794-.085-6.22-.341-7.157.255-.597.341-1.193 2.557-1.704 7.329-.427-.256-5.624-2.983-9.97-1.619-4.175 1.448-5.794 4.942-5.965 5.453"/><path fill="#f7ab1e" d="M305.662 224.143c-1.619-2.301-5.624-6.135-9.543-9.459-7.158-5.538-7.754-15.423-1.79-16.871 13.634-2.897 23.007 3.408 26.16 4.601 5.112 2.045 12.696 7.073 14.571 10.311-1.364 0-2.897-.086-4.602-.086-5.794-.085-6.646-.085-7.583.512-.597.34-2.642 1.789-2.897 6.816-.426-.255-4.091-2.641-8.436-1.192-4.09 1.278-5.709 4.771-5.88 5.368"/><path fill="#38c266" d="m316.655 181.702.852 7.243-5.283-2.045-2.386 2.897-3.153-1.533-6.646-11.759-.256-.512-17.894-31.868s21.558 3.323 30.59 13.463c9.033 10.055 10.566 25.478 10.566 25.478l-5.623-1.193-.682-.171zm-76.434 0s-2.301-.085-5.794-1.363c-1.193-.426-2.556-.938-4.005-1.704-3.579-1.79-7.754-4.772-11.844-9.374-10.822-12.099-9.885-17.894-9.885-17.894l7.158 1.534s-11.418-6.476-13.208-16.786c-1.789-10.311 0-14.997 0-14.997l-1.789-9.203s12.27 11.929 15.423 12.1c3.153.255.256-10.396-2.045-12.1a74 74 0 0 1-3.834-3.153s11.162-1.534 20.535 13.037c9.373 14.486 15.679 26.842 21.473 28.887 5.88 1.959-12.185 31.016-12.185 31.016"/><path fill="#0a6127" d="m317.591 188.86-5.283-2.045-2.386 2.897-3.153-1.534-6.647-11.759-.255-.511-2.301-22.836s2.216.596 11.589 8.947c4.942 4.431 6.902 12.696 7.669 19.513h-.171z"/><path fill="#38c266" d="M306.601 191.331c-4.09 6.306-10.311 11.504-11.418 12.356.852-.767 4.516-4.005-2.897.34-8.266 4.943-28.461 2.898-28.461 2.898s13.208 3.152-4.005 0c-17.212-3.153-24.625-18.321-24.625-18.321-4.261-12.526 3.579-19.001 4.431-33.828s9.288-6.476 13.889-8.436 3.238-7.839 3.238-7.839l29.142-2.471v.255l.255 6.817.171 4.005 9.203 4.601s10.992 7.669 14.315 16.787c3.408 9.032-1.023 19.428-3.238 22.836"/><path fill="#6dd38f" d="M276.011 193.632s-14.912 4.26-22.325-3.835c-7.414-8.095-6.306-14.656-4.687-20.791 1.534-6.135 2.216-2.045 2.216-2.045s5.538-8.692 10.736-9.203l5.113-.426-3.153-1.363s10.31-.086 16.36 4.516c6.05 4.686 1.79-.938 1.79-.938s8.606 6.476 7.669 14.571c-1.023 8.095-2.983 15.423-13.719 19.514"/><path fill="#38c266" d="M258.542 145.232s5.88-2.13 10.226-1.704l4.345.426-4.345-2.556s3.408-.597 8.776 1.874"/><path stroke="#0a6127" stroke-miterlimit="10" stroke-width=".12" d="M232.809 165.171s-7.158-5.624-8.266-8.095-.852-1.108-.852-1.108 6.732 3.153 9.203 2.898m1.107-5.113s-2.983-1.193-4.346-4.261l-1.363-3.067s3.067 2.641 5.709 3.067c2.556.426-2.045-1.533-2.812-4.345s-.852-2.812-.852-2.812 1.534 2.982 4.431 2.812"/><path fill="#0a6127" d="M237.409 166.961s-1.619 6.646-2.982 13.378c-1.193-.426-2.556-.937-4.005-1.704z"/><path stroke="#0a6127" stroke-miterlimit="10" stroke-width=".12" d="M202.558 121.203c2.216 3.579 4.516 6.732 6.732 8.862l8.947 8.265m-12.696-2.215s.681 6.05 7.583 11.077m4.09 16.276s3.749 4.857 6.476 6.902m-5.113-57.602c.596.085 6.391 3.238 9.629 7.924"/><path fill="#0a6127" d="m286.319 143.187-17.298-5.027 17.042-1.789z"/><path fill="#38c266" d="M306.6 121.118c-.17-1.96-.681-3.835-1.534-5.539.086-1.96.171-4.175.171-6.561 0-16.616-10.566-30.335-24.455-33.232-1.619-1.534-3.665-3.153-5.369-3.664l-3.238-.852v2.215s-4.686-.852-6.305-.426c-.938.256-.767 2.386-.426 4.09-11.589 4.687-19.854 17.127-19.854 31.869 0 .681 0 1.278.085 1.874-1.704 2.472-1.619 5.539-1.619 8.266 0 5.624 4.26 10.14 9.629 10.14.852 0 .511-.085 1.278-.341 1.448 6.732 6.731 10.396 26.33 10.396 11.077.085 26.415-5.709 25.307-18.235"/><path fill="#0a6127" d="M293.562 112.937c-.682 3.409-1.875 6.476-3.238 9.118-.426-.085-.852-.085-1.448-.171-.256 0-.512-.085-.853-.085a27.3 27.3 0 0 0 3.579-9.203c1.875-9.032-.341-17.127-5.027-18.064-4.687-.937-10.055 5.539-11.93 14.571-.426 1.874-.596 3.664-.681 5.368-.341-.341-.682-.767-1.108-1.193.085-1.448.341-2.897.682-4.431 2.215-10.651 8.521-18.32 14.059-17.127 5.539 1.023 8.266 10.566 5.965 21.217"/><path fill="#fff" d="M286.66 94.361c-4.686-1.022-10.054 5.539-11.929 14.571-.426 1.875-.596 3.664-.682 5.369.256.255.426.511.597.681.681.767 1.022 1.364 1.96 2.216 1.704 1.448 3.323 2.045 5.197 2.726 1.619.597 3.664 1.364 6.306 1.705a27.3 27.3 0 0 0 3.579-9.203c1.874-8.947-.341-17.042-5.028-18.065m.767 16.105c-1.193 4.772-4.09 8.095-6.561 7.499s-3.493-4.943-2.386-9.714c1.108-4.772 4.09-8.095 6.561-7.499 2.472.682 3.494 5.028 2.386 9.714"/><path fill="#00371d" d="M285.041 100.838c-2.471-.597-5.369 2.727-6.561 7.498s-.086 9.033 2.385 9.714c2.471.597 5.369-2.726 6.562-7.498 1.107-4.772.085-9.118-2.386-9.714m-.426 4.942c-.767 1.534-1.96 2.386-2.812 1.96-.767-.426-.767-1.875 0-3.408.767-1.534 1.96-2.386 2.726-1.96.767.426.853 1.874.086 3.408"/><path fill="#0a6127" d="M261.097 98.026a34 34 0 0 1-1.448 7.498c-.086.171-.086.341-.171.511.852-3.067 1.278-5.879 1.193-8.18-.085-2.727-.767-4.686-2.13-5.027-2.471-.767-6.135 4.26-8.266 11.162-1.193 4.005-1.619 7.755-1.193 10.311-.17.085-.34.17-.426.255-.596-2.811-.17-7.242 1.193-11.844 2.216-7.498 6.221-12.867 8.947-12.1 1.79.341 2.557 3.324 2.301 7.414"/><path fill="#00371d" d="M260.672 97.77c-.171-.086-.341-.17-.512-.17-2.471-.597-5.368 2.726-6.561 7.498-.767 3.152-.511 6.135.426 8.009.512 0 1.023 0 1.619.086.341-.341.767-.767 1.364-1.193.937-1.705 1.704-3.664 2.471-5.88.852-3.238 1.278-6.05 1.193-8.35m-1.193 3.152c-.256 1.193-1.023 2.045-1.619 1.875s-.852-1.278-.597-2.386c.256-1.193 1.023-2.045 1.619-1.875s.938 1.193.597 2.386"/><path fill="#fff" d="M260.671 97.77c-.17-.085-.34-.17-.511-.17-2.471-.597-5.368 2.726-6.561 7.498-.767 3.153-.511 6.135.426 8.01-1.704 0-2.982.34-3.92.681-.426.171-.681.256-1.022.426-.341-2.556 0-6.391 1.193-10.31 2.045-6.902 5.794-11.844 8.265-11.163 1.364.341 2.045 2.301 2.13 5.028"/><path fill="#fff" d="M259.478 100.923c-.255 1.193-1.022 2.045-1.619 1.874-.596-.17-.852-1.278-.596-2.386.255-1.192 1.022-2.045 1.619-1.874.596.17.937 1.193.596 2.386m25.136 4.857c-.767 1.533-1.96 2.385-2.812 1.959-.767-.426-.767-1.874 0-3.408s1.96-2.386 2.727-1.96.852 1.875.085 3.409"/><path fill="#f7931e" d="M291.176 122.311q-.384-.256-.767-.256c-.426-.085-.852-.085-1.449-.17-.256 0-.511-.086-.852-.086-2.642-.426-4.687-1.107-6.306-1.704-1.874-.681-3.493-1.278-5.197-2.726-.938-.853-1.279-1.364-1.96-2.216-.171-.17-.341-.426-.597-.682-.341-.34-.681-.767-1.107-1.193-1.364-1.363-3.324-2.897-5.795-3.493-1.96-.511-3.749-.341-5.283.085-1.874.426-3.238 1.278-3.749 1.534l-.767.511c-.085.085-.17.17-.256.17-.596.427-1.022.853-1.363 1.193-.596-.085-1.108-.085-1.619-.085a11.2 11.2 0 0 0-3.92.682c-.426.17-.681.256-1.022.426-.171.085-.341.17-.426.256-.937.511-1.875 1.022-3.664 1.704-.767.341-1.449.511-1.96.767-.426.17-.852.255-1.108.341-.085.255-.767 1.959.171 3.493.34.511.681.852 1.107 1.023.512.34 1.023.426 1.279.511a5.25 5.25 0 0 0 2.3 0h-.17c.341.341.767.767 1.278 1.363.937 1.193 2.556 3.068 3.323 5.624.085.341.085.256.256 1.534.085.682.255 1.619.511 3.238.341 2.13.426 2.215.511 2.471.426.937 1.108 1.619 1.875 2.13 1.193.767 2.641 1.193 3.579 1.449 3.153.852 5.709.511 8.01.17 3.578-.511 6.22-1.533 9.287-2.641 1.193-.426 3.238-1.364 7.329-3.238 1.363-.597 2.556-1.193 4.175-2.045.596-.341 2.301-1.278 4.26-2.727 1.79-1.278 2.642-1.96 2.898-2.727.255-1.96-1.193-3.919-2.812-4.686m-4.602 4.857c-1.108.426-2.386.937-3.749 1.619q-1.662.766-2.812 1.278c-3.238 1.534-5.283 2.641-9.117 4.175-3.75 1.449-5.795 1.875-8.01 1.704-2.642-.17-4.261-1.107-4.772-1.448-.767-.426-2.215-1.364-3.068-3.068-.34-.681-.426-1.108-.511-1.619-.085-.426-.17-.937-.511-1.704-.597-1.619-1.449-2.727-2.045-3.579-.597-.852-1.449-1.874-2.642-2.982.426-.085.852-.256 1.278-.426.427-.085 2.642-.767 4.176-1.023 3.834-.681 7.072.085 10.566 1.023 1.789.511 1.193.426 7.243 2.641.511.171.937.341 1.363.512 1.108.34 1.96.681 2.727.937 1.619.511 2.556.852 3.238.937.426.085.767.171 1.022.171.682.085 1.364.17 1.96.255a33 33 0 0 0 4.09 0c.512 0 1.023-.085 1.449-.17-.341.17-1.023.511-1.875.767"/><path fill="#753024" d="M280.014 126.145c-.937 0-1.704-.086-2.471-.171a9 9 0 0 1-1.79-.426c-.255-.085-.681-.255-1.363-.341-.767-.17-1.789-.34-2.982-.255-.256 0-.597 0-.852.085h-.256c-.256 0-.597.085-.937.17h-.086c-.34.086-.681.171-.852.256a5.4 5.4 0 0 0-1.789-1.193c-2.216-.937-4.346-.085-5.454.256-2.3.852-3.749 2.215-5.709 4.09-.426.341-.767.767-1.022 1.022-.085-.426-.171-.937-.512-1.704-.596-1.619-1.448-2.727-2.045-3.579-.596-.852-1.448-1.874-2.641-2.982.426-.085.852-.256 1.278-.426.426-.085 2.642-.767 4.175-1.023 3.835-.681 7.073.086 10.566 1.023 1.79.511 1.193.426 7.243 2.641.512.171.938.341 1.364.512 1.107.341 1.96.681 2.726.937 1.79.596 2.727.937 3.409 1.108"/><path fill="url(#d)" d="M288.704 126.401c-.596.17-1.278.511-2.13.852-1.108.426-2.386.937-3.749 1.619q-1.662.767-2.812 1.278c-3.238 1.534-5.283 2.642-9.118 4.176-3.749 1.448-5.794 1.874-8.01 1.704-2.641-.171-4.26-1.108-4.771-1.449-.767-.426-2.216-1.363-3.068-3.067a8 8 0 0 1-.651-2.026l.935-.935c1.96-1.875 3.63-3.175 5.845-4.027 1.108-.426 3.396-1.353 5.611-.416.853.341 1.296.842 1.637 1.183.256-.085.594-.162.935-.247.171 0 .765-.234.936-.234h2.571c1.193-.085 1.019.063 1.871.234.596.17 1.147.382 1.403.467.511.171.955.383 1.636.468.682.085.934 0 1.871 0 .426.085 1.849.234 2.104.234.682.085 1.508.101 2.104.186 1.449.085 1.762.085 3.04 0 .824-.055 1.299.085 1.81 0"/><path stroke="#0a6127" stroke-miterlimit="10" stroke-width=".241" d="M280.014 87.63c.597-1.874 2.131-3.323 4.005-3.749 1.96-.426 4.09.34 5.369 1.96m-34.255 1.277c.426-1.533 1.789-2.556 3.323-2.556 1.364 0 2.557.852 3.153 2.13"/><defs><linearGradient id="d" x1="254.461" x2="288.681" y1="129.957" y2="129.957" gradientUnits="userSpaceOnUse"><stop stop-color="#ff5547"/><stop offset="1" stop-color="#f44"/></linearGradient></defs></svg>