<svg width="541" height="374" viewBox="0 0 541 374" fill="none" xmlns="http://www.w3.org/2000/svg">
<path opacity="0.3" d="M480.228 293.849L396.929 308.853L113.015 316.872L112.368 286.476H480.228V293.849Z" fill="#464648"/>
<path d="M136.426 308.853H102.278C98.9155 308.853 96.1992 306.137 96.1992 302.774V295.013C96.1992 291.65 98.9155 288.934 102.278 288.934H136.426C139.789 288.934 142.505 291.65 142.505 295.013V302.774C142.505 306.137 139.789 308.853 136.426 308.853Z" fill="#FCB002" stroke="#D07C32" stroke-width="0.194301" stroke-miterlimit="10"/>
<path d="M92.5794 295.144V302.904C92.5794 306.267 89.8631 308.984 86.5002 308.984H6.17642C2.81343 308.984 0.097168 306.267 0.097168 302.904V297.084C0.097168 292.686 3.71885 289.194 7.98726 289.194H86.5002C89.8631 289.064 92.5794 291.781 92.5794 295.144Z" fill="#FCB002"/>
<mask id="mask0_11917_52616" style="mask-type:luminance" maskUnits="userSpaceOnUse" x="0" y="289" width="93" height="20">
<path d="M92.5799 295.144V302.905C92.5799 306.268 89.8636 308.984 86.5006 308.984H6.17691C2.81392 308.984 0.0976562 306.268 0.0976562 302.905V297.084C0.0976562 292.686 3.71934 289.194 7.98775 289.194H86.5006C89.8636 289.065 92.5799 291.781 92.5799 295.144Z" fill="white"/>
</mask>
<g mask="url(#mask0_11917_52616)">
<path d="M7.08129 273.931C3.97699 277.941 -0.550117 280.657 -2.87834 285.313C-5.07722 289.582 -4.94787 294.626 -4.55983 299.283C-3.65441 310.018 3.33026 315.58 11.7377 321.401C16.5235 324.764 21.0506 316.874 16.2648 313.64C9.79755 309.113 4.62371 305.362 4.23568 297.213C4.10633 293.721 4.23567 290.358 6.30521 287.383C8.24539 284.667 11.3497 282.856 13.4192 280.269C16.9116 275.742 10.5736 269.404 7.08129 273.931Z" fill="#D07C32"/>
</g>
<path d="M92.5794 295.144V302.904C92.5794 306.267 89.8631 308.984 86.5001 308.984H6.17642C2.81343 308.984 0.097168 306.267 0.097168 302.904V297.084C0.097168 292.686 3.71885 289.194 7.98726 289.194H86.5001C89.8631 289.064 92.5794 291.781 92.5794 295.144Z" stroke="#D07C32" stroke-width="0.194301" stroke-miterlimit="10"/>
<path d="M103.706 291.262V306.654" stroke="#FCE63C" stroke-width="0.194301" stroke-miterlimit="10"/>
<path d="M110.173 291.262V306.654" stroke="#FCE63C" stroke-width="0.194301" stroke-miterlimit="10"/>
<path d="M116.512 291.262V306.654" stroke="#FCE63C" stroke-width="0.194301" stroke-miterlimit="10"/>
<path d="M122.847 291.262V306.654" stroke="#FCE63C" stroke-width="0.194301" stroke-miterlimit="10"/>
<path d="M129.317 291.262V306.654" stroke="#FCE63C" stroke-width="0.194301" stroke-miterlimit="10"/>
<path d="M135.656 291.262V306.654" stroke="#FCE63C" stroke-width="0.194301" stroke-miterlimit="10"/>
<path d="M132.805 289.063H52.4811C49.1181 289.063 46.4019 286.347 46.4019 282.984V275.223C46.4019 271.86 49.1181 269.144 52.4811 269.144H132.805C136.168 269.144 138.884 271.86 138.884 275.223V282.984C138.884 286.347 136.168 289.063 132.805 289.063Z" fill="#FCB002"/>
<mask id="mask1_11917_52616" style="mask-type:luminance" maskUnits="userSpaceOnUse" x="46" y="269" width="93" height="21">
<path d="M132.805 289.063H52.4811C49.1181 289.063 46.4019 286.347 46.4019 282.984V275.223C46.4019 271.86 49.1181 269.144 52.4811 269.144H132.805C136.168 269.144 138.884 271.86 138.884 275.223V282.984C138.884 286.347 136.168 289.063 132.805 289.063Z" fill="white"/>
</mask>
<g mask="url(#mask1_11917_52616)">
<path d="M52.2236 259.961C47.0497 263.841 43.1694 267.851 42.7813 274.577C42.652 278.069 42.3933 282.079 43.04 285.571C43.5574 288.805 45.3682 291.392 47.0497 294.108C49.6366 298.377 56.2333 294.496 53.6464 290.228C52.8703 288.934 51.5768 287.253 51.0594 285.83C50.2834 283.89 50.6714 280.785 50.6714 278.716C50.6714 273.025 51.5768 270.05 56.2333 266.687C59.9843 263.712 56.2333 256.986 52.2236 259.961Z" fill="#D07C32"/>
</g>
<path d="M132.805 289.063H52.4811C49.1181 289.063 46.4019 286.347 46.4019 282.984V275.223C46.4019 271.86 49.1181 269.144 52.4811 269.144H132.805C136.168 269.144 138.884 271.86 138.884 275.223V282.984C138.884 286.347 136.168 289.063 132.805 289.063Z" stroke="#D07C32" stroke-width="0.194301" stroke-miterlimit="10"/>
<path d="M150.397 269.274H70.0729C66.7099 269.274 63.9937 266.558 63.9937 263.195V255.434C63.9937 252.071 66.7099 249.355 70.0729 249.355H150.397C153.76 249.355 156.476 252.071 156.476 255.434V263.195C156.476 266.558 153.76 269.274 150.397 269.274Z" fill="#FCB002"/>
<mask id="mask2_11917_52616" style="mask-type:luminance" maskUnits="userSpaceOnUse" x="63" y="249" width="94" height="21">
<path d="M150.397 269.274H70.0734C66.7104 269.274 63.9941 266.558 63.9941 263.195V255.434C63.9941 252.071 66.7104 249.355 70.0734 249.355H150.397C153.76 249.355 156.476 252.071 156.476 255.434V263.195C156.476 266.558 153.76 269.274 150.397 269.274Z" fill="white"/>
</mask>
<g mask="url(#mask2_11917_52616)">
<path d="M64.5119 242.629C55.4577 251.553 55.8457 270.955 67.6162 277.293C72.6606 280.009 77.1877 272.249 72.1433 269.532C65.8053 266.04 65.9347 253.882 70.8498 248.966C74.9889 244.957 68.6509 238.619 64.5119 242.629Z" fill="#D07C32"/>
</g>
<path d="M150.397 269.274H70.0729C66.7099 269.274 63.9937 266.558 63.9937 263.195V255.434C63.9937 252.071 66.7099 249.355 70.0729 249.355H150.397C153.76 249.355 156.476 252.071 156.476 255.434V263.195C156.476 266.558 153.76 269.274 150.397 269.274Z" stroke="#D07C32" stroke-width="0.194301" stroke-miterlimit="10"/>
<path d="M115.6 249.483C137.388 249.483 155.051 231.82 155.051 210.033C155.051 188.245 137.388 170.582 115.6 170.582C93.8125 170.582 76.1499 188.245 76.1499 210.033C76.1499 231.82 93.8125 249.483 115.6 249.483Z" fill="#FEDE16" stroke="#F2A93C" stroke-width="0.194301" stroke-miterlimit="10"/>
<path d="M149.75 210.034C149.75 228.918 134.487 244.181 115.602 244.181C114.309 244.181 112.886 244.052 111.593 243.922C106.031 243.276 100.857 241.335 96.4592 238.231C94.0017 236.55 91.6734 234.48 89.7333 232.281C86.3703 228.401 83.9127 223.744 82.6192 218.57C81.9725 215.854 81.5845 213.009 81.5845 210.034C81.5845 196.711 89.2159 185.199 100.34 179.508C104.867 177.18 110.041 175.886 115.344 175.886C115.473 175.886 115.602 175.886 115.602 175.886C118.577 175.886 121.423 176.274 124.269 177.05C129.701 178.473 134.487 181.19 138.497 184.811C145.352 191.02 149.75 199.945 149.75 210.034Z" fill="#FFBF04"/>
<path opacity="0.24" d="M115.345 175.886L89.7341 232.281C86.3711 228.401 83.9136 223.744 82.6201 218.57L100.34 179.508C104.738 177.309 109.912 176.016 115.345 175.886Z" fill="white"/>
<path opacity="0.24" d="M45.1083 289.064L36.0541 308.854H22.7314L31.6563 289.064H45.1083Z" fill="white"/>
<path opacity="0.24" d="M77.3152 289.064L70.8479 308.854H61.147L67.6143 289.064H77.3152Z" fill="white"/>
<path opacity="0.24" d="M70.8467 269.273L63.6034 289.063H52.8677L59.9817 269.273H70.8467Z" fill="white"/>
<path opacity="0.24" d="M98.5298 248.967L91.2864 268.757H80.4214L87.6647 248.967H98.5298Z" fill="white"/>
<path opacity="0.24" d="M105.901 269.273L99.4333 289.063H89.603L96.1997 269.273H105.901Z" fill="white"/>
<path opacity="0.24" d="M138.497 184.681L111.593 243.922C106.032 243.275 100.858 241.335 96.46 238.231L124.269 176.921C129.572 178.473 134.488 181.06 138.497 184.681Z" fill="white"/>
<path d="M72.271 251.165V266.557" stroke="#FCE63C" stroke-width="0.194301" stroke-miterlimit="10"/>
<path d="M78.6094 251.165V266.557" stroke="#FCE63C" stroke-width="0.194301" stroke-miterlimit="10"/>
<path d="M84.9478 251.165V266.557" stroke="#FCE63C" stroke-width="0.194301" stroke-miterlimit="10"/>
<path d="M91.415 251.165V266.557" stroke="#FCE63C" stroke-width="0.194301" stroke-miterlimit="10"/>
<path d="M97.752 251.165V266.557" stroke="#FCE63C" stroke-width="0.194301" stroke-miterlimit="10"/>
<path d="M104.09 251.165V266.557" stroke="#FCE63C" stroke-width="0.194301" stroke-miterlimit="10"/>
<path d="M110.558 251.165V266.557" stroke="#FCE63C" stroke-width="0.194301" stroke-miterlimit="10"/>
<path d="M116.896 251.165V266.557" stroke="#FCE63C" stroke-width="0.194301" stroke-miterlimit="10"/>
<path d="M123.362 251.165V266.557" stroke="#FCE63C" stroke-width="0.194301" stroke-miterlimit="10"/>
<path d="M129.7 251.165V266.557" stroke="#FCE63C" stroke-width="0.194301" stroke-miterlimit="10"/>
<path d="M136.039 251.165V266.557" stroke="#FCE63C" stroke-width="0.194301" stroke-miterlimit="10"/>
<path d="M142.506 251.165V266.557" stroke="#FCE63C" stroke-width="0.194301" stroke-miterlimit="10"/>
<path d="M54.9414 272.506V288.028" stroke="#FCE63C" stroke-width="0.194301" stroke-miterlimit="10"/>
<path d="M61.4087 272.506V288.028" stroke="#FCE63C" stroke-width="0.194301" stroke-miterlimit="10"/>
<path d="M67.7471 272.506V288.028" stroke="#FCE63C" stroke-width="0.194301" stroke-miterlimit="10"/>
<path d="M74.0825 272.506V288.028" stroke="#FCE63C" stroke-width="0.194301" stroke-miterlimit="10"/>
<path d="M80.5527 272.506V288.028" stroke="#FCE63C" stroke-width="0.194301" stroke-miterlimit="10"/>
<path d="M86.8911 272.506V288.028" stroke="#FCE63C" stroke-width="0.194301" stroke-miterlimit="10"/>
<path d="M93.2266 272.506V288.028" stroke="#FCE63C" stroke-width="0.194301" stroke-miterlimit="10"/>
<path d="M99.6968 272.506V288.028" stroke="#FCE63C" stroke-width="0.194301" stroke-miterlimit="10"/>
<path d="M106.032 272.506V288.028" stroke="#FCE63C" stroke-width="0.194301" stroke-miterlimit="10"/>
<path d="M112.371 272.506V288.028" stroke="#FCE63C" stroke-width="0.194301" stroke-miterlimit="10"/>
<path d="M118.838 272.506V288.028" stroke="#FCE63C" stroke-width="0.194301" stroke-miterlimit="10"/>
<path d="M125.176 272.506V288.028" stroke="#FCE63C" stroke-width="0.194301" stroke-miterlimit="10"/>
<path d="M8.37451 291.262V306.654" stroke="#FCE63C" stroke-width="0.194301" stroke-miterlimit="10"/>
<path d="M14.7129 291.261V306.654" stroke="#FCE63C" stroke-width="0.194301" stroke-miterlimit="10"/>
<path d="M21.1802 291.261V306.654" stroke="#FCE63C" stroke-width="0.194301" stroke-miterlimit="10"/>
<path d="M27.5186 291.261V306.654" stroke="#FCE63C" stroke-width="0.194301" stroke-miterlimit="10"/>
<path d="M33.8555 291.261V306.654" stroke="#FCE63C" stroke-width="0.194301" stroke-miterlimit="10"/>
<path d="M40.3242 291.261V306.654" stroke="#FCE63C" stroke-width="0.194301" stroke-miterlimit="10"/>
<path d="M46.6597 291.261V306.654" stroke="#FCE63C" stroke-width="0.194301" stroke-miterlimit="10"/>
<path d="M53.1299 291.261V306.654" stroke="#FCE63C" stroke-width="0.194301" stroke-miterlimit="10"/>
<path d="M59.4653 291.261V306.654" stroke="#FCE63C" stroke-width="0.194301" stroke-miterlimit="10"/>
<path d="M65.8037 291.261V306.654" stroke="#FCE63C" stroke-width="0.194301" stroke-miterlimit="10"/>
<path d="M72.271 291.261V306.654" stroke="#FCE63C" stroke-width="0.194301" stroke-miterlimit="10"/>
<path d="M78.6094 291.261V306.654" stroke="#FCE63C" stroke-width="0.194301" stroke-miterlimit="10"/>
<path d="M84.9478 291.261V306.654" stroke="#FCE63C" stroke-width="0.194301" stroke-miterlimit="10"/>
<path opacity="0.44" d="M120.776 170.582H108.747V308.853H120.776V170.582Z" fill="#59361C"/>
<path d="M480.228 61.0272V293.85L443.347 309L393.112 324L396.929 10.3237L443.235 38.5211L480.228 61.0272Z" fill="#90A2A2"/>
<path opacity="0.07" d="M480.227 61.027V293.849L443.234 309V38.5208L480.227 61.027Z" fill="#90A2A2"/>
<path d="M396.93 10.3237L393.638 324L113.016 316.873V10.3237H396.93Z" fill="#BCD1D4"/>
<path d="M368.085 269.273L150.914 283.372L138.885 29.3364L368.085 36.0624V269.273Z" fill="#4F5656"/>
<path d="M196.314 63.2257L159.968 118.327C159.71 118.715 159.192 118.844 158.804 118.456C125.304 92.3285 99.3052 65.8126 77.187 39.038C76.799 38.65 76.9284 38.0033 77.4457 37.7446C96.8476 27.0089 110.946 14.4623 119.871 0.363646C120.13 -0.0243912 120.777 -0.153745 121.165 0.234292C141.213 20.2829 166.565 40.9782 196.314 62.0616C196.444 62.4496 196.573 62.967 196.314 63.2257Z" fill="#B4F26A"/>
<path d="M196.314 63.2251L159.968 118.326C159.709 118.714 159.192 118.844 158.804 118.585C125.303 92.4572 99.305 65.9413 77.1868 39.1668C76.9281 38.7787 77.0575 38.132 77.4455 37.8733C96.9767 27.1376 111.075 14.591 119.871 0.492357C120.13 0.10432 120.776 -0.0250143 121.164 0.363023C124.527 3.72601 128.02 7.08899 131.641 10.452H113.145V14.5911H136.169C153.371 30.1126 173.549 46.0221 196.314 62.1903C196.444 62.449 196.573 62.9664 196.314 63.2251Z" fill="#B4F26A"/>
<path d="M186.096 64.6487L157.898 109.273C157.64 109.661 157.252 109.661 156.864 109.402C128.537 86.6374 106.289 63.8726 87.2755 40.849C87.0168 40.461 87.0168 40.073 87.4049 39.8143C103.056 31.4068 114.309 21.5765 121.164 10.0648C121.423 9.67673 121.811 9.67672 122.199 9.93542C139.272 27.1384 160.873 45.1175 185.966 63.6139C186.225 63.8726 186.225 64.39 186.096 64.6487Z" fill="#D8FFBA"/>
<path d="M168.377 274.189L186.226 247.415L147.035 183L128.667 224.52C128.279 225.426 128.409 226.59 129.056 227.366L168.377 274.189Z" fill="#B4F26A"/>
<path d="M169.539 269.661L185.319 245.991L150.654 188.95L134.357 225.684C133.969 226.46 134.098 227.495 134.745 228.141L169.539 269.661Z" fill="#D8FFBA"/>
<path d="M261.117 59.3455L178.465 66.7182L198.384 22.9993C228.005 25.1982 252.063 29.0786 266.42 35.9339L261.117 59.3455Z" fill="#B4F26A"/>
<path d="M164.365 252.976L184.155 235.126L154.923 127.511L125.691 162.305C125.044 163.081 124.915 164.245 125.303 165.15L164.365 252.976Z" fill="#B4F26A"/>
<path d="M136.039 188.95L164.365 252.976L184.155 235.126L155.052 127.511" stroke="#70894C" stroke-width="0.388602" stroke-miterlimit="10"/>
<path d="M251.027 59.3447L192.951 64.5185C190.364 64.7772 188.423 62.0609 189.458 59.6033L202.005 32.0527C202.651 30.7592 203.945 29.9832 205.368 29.9832C226.322 31.6646 243.654 34.3809 255.037 39.0374C256.589 39.6841 257.494 41.3656 257.106 43.0471L254.002 56.7577C253.743 58.1805 252.45 59.2153 251.027 59.3447Z" fill="#D8FFBA"/>
<path d="M161.261 236.549L177.17 222.192L153.759 135.789L130.347 163.728C129.83 164.374 129.7 165.28 130.088 166.056L161.261 236.549Z" fill="#D8FFBA"/>
<path d="M338.076 66.2008L268.746 59.3455L300.177 22.3526C329.798 24.5515 347.13 25.5862 361.358 32.4416L338.076 66.2008Z" fill="#B4F26A"/>
<path d="M332.646 64.9067L275.734 59.3449L301.473 28.9486C325.79 30.7594 339.889 31.6649 351.66 37.2267L332.646 64.9067Z" fill="#D8FFBA"/>
<path opacity="0.4" d="M368.473 270.049L154.017 283.372L152.983 262.935L142.118 42.7886L148.585 39.0375L368.473 49.1265V270.049Z" fill="#4F5656"/>
<path d="M372.353 45.5048V272.765L348.424 274.317L169.798 285.7L157.898 286.476L146.386 46.9276L145.998 39.0375L157.251 39.4256L337.3 44.5994L372.353 45.5048Z" fill="#B3C7C6"/>
<path opacity="0.15" d="M372.354 45.5055V272.766L348.425 274.318L337.301 44.6001L372.354 45.5055Z" fill="#90A2A2"/>
<path d="M266.161 237.842C304.45 237.842 335.49 204.602 335.49 163.598C335.49 122.594 304.45 89.3534 266.161 89.3534C227.871 89.3534 196.831 122.594 196.831 163.598C196.831 204.602 227.871 237.842 266.161 237.842Z" fill="#859392"/>
<path d="M333.162 163.856C333.162 204.859 302.119 238.101 263.833 238.101C253.744 238.101 244.043 235.773 235.377 231.634C211.319 219.992 194.504 194.123 194.504 163.986C194.504 122.983 225.547 89.7412 263.833 89.7412C270.3 89.7412 276.638 90.6466 282.588 92.4574C311.691 101.124 333.162 129.709 333.162 163.856Z" fill="#FFFEFF"/>
<path opacity="0.23" d="M333.163 163.857C333.163 204.86 302.12 238.101 263.833 238.101C253.744 238.101 244.043 235.773 235.377 231.634C273.922 191.408 289.444 144.973 282.588 92.4581C311.691 101.124 333.163 129.71 333.163 163.857Z" fill="#B3C7C6"/>
<path d="M290.348 164.891C290.348 183.129 278.448 197.874 263.703 197.874C260.986 197.874 258.399 197.357 255.942 196.452C244.947 192.313 237.057 179.766 237.057 164.891C237.057 146.654 244.301 130.744 259.046 130.744C264.996 130.744 271.205 132.296 276.508 135.918C284.527 141.092 290.348 150.405 290.348 164.891Z" fill="#464648"/>
<path opacity="0.54" d="M290.347 164.891C290.347 183.129 278.447 197.874 263.702 197.874C260.985 197.874 258.399 197.357 255.941 196.452L246.369 141.092L276.507 135.918C284.526 141.092 290.347 150.405 290.347 164.891Z" fill="#464648"/>
<path d="M282.977 164.892C282.977 180.413 274.311 193.477 262.54 196.97C260.6 197.616 258.53 197.875 256.332 197.875C253.098 197.875 249.864 197.099 247.019 195.806C243.397 194.124 240.163 191.537 237.447 188.174C234.86 184.941 232.791 180.931 231.368 176.533C230.204 172.911 229.686 169.031 229.686 164.892C229.686 149.5 238.094 136.565 249.606 132.944C251.804 132.297 254.003 131.909 256.332 131.909C257.884 131.909 259.306 132.038 260.729 132.426C264.61 133.202 268.231 135.013 271.336 137.729C275.733 141.351 279.096 146.654 281.037 152.863C282.33 156.485 282.977 160.624 282.977 164.892Z" fill="#757376"/>
<path d="M253.484 61.1561H268.747L261.116 78.2297L253.484 61.1561Z" fill="#8FA3A2"/>
<path d="M249.605 264.617H264.868L257.237 247.414L249.605 264.617Z" fill="#8FA3A2"/>
<path d="M170.574 154.544L171.35 169.807L186.354 161.4L170.574 154.544Z" fill="#8FA3A2"/>
<path d="M384.512 103.71H350.882C349.33 103.71 348.037 102.417 348.037 100.865V77.4532C348.037 75.9011 349.33 74.6076 350.882 74.6076H384.512C386.065 74.6076 387.358 75.9011 387.358 77.4532V100.865C387.358 102.417 386.065 103.71 384.512 103.71Z" fill="#90A2A2"/>
<path d="M383.607 101.9H348.167C346.615 101.9 345.321 100.607 345.321 99.0546V75.643C345.321 74.0909 346.615 72.7974 348.167 72.7974H383.607C385.16 72.7974 386.453 74.0909 386.453 75.643V99.0546C386.324 100.607 385.16 101.9 383.607 101.9Z" fill="#CFE0E2"/>
<path d="M383.607 101.9H349.977C348.425 101.9 347.132 100.606 347.132 99.0539V77.4532C347.132 75.9011 348.425 74.6076 349.977 74.6076H383.607C385.159 74.6076 386.453 75.9011 386.453 77.4532V99.0539C386.323 100.606 385.159 101.9 383.607 101.9Z" fill="#BCD1D4"/>
<path opacity="0.15" d="M260.728 132.296L237.446 188.044C234.859 184.81 232.789 180.8 231.366 176.403L249.604 132.813C251.803 132.166 254.002 131.778 256.33 131.778C257.882 131.908 259.305 132.037 260.728 132.296Z" fill="#CFE0E2"/>
<path opacity="0.15" d="M281.035 152.733L262.538 197.099C260.598 197.745 258.529 198.004 256.33 198.004C253.096 198.004 249.862 197.228 247.017 195.935L271.334 137.729C275.602 141.221 279.095 146.525 281.035 152.733Z" fill="#CFE0E2"/>
<path d="M372.353 45.5048L337.3 44.5994L157.251 39.4256L145.998 39.0375L146.386 46.9276L157.898 286.476L169.798 285.7L157.639 47.1863L372.353 51.8428V45.5048Z" fill="#B3C7C6"/>
<path opacity="0.62" d="M396.93 10.3237V14.4627H136.039C134.487 13.0399 132.935 11.6171 131.512 10.3237H396.93Z" fill="#B3C7C6"/>
<path d="M400.131 373.225C402.744 369.513 409.206 363.325 415.531 357.963C427.08 349.026 429.968 330.052 418.418 326.477C396.419 321.802 357.783 348.613 352.695 350.676C352.695 351.226 352.558 352.188 352.695 354.938C354.895 354.938 357.37 354.801 360.12 354.801C369.47 354.663 370.845 354.663 372.357 355.626C373.32 356.176 375.107 358.926 376.07 366.9C376.757 366.488 383.494 362.363 390.507 364.7C397.106 366.625 399.719 372.263 400.131 373.225Z" fill="#F7931E"/>
<path d="M400.131 368.826C402.744 365.113 409.206 358.926 415.531 353.564C427.08 344.626 428.043 328.677 418.418 326.339C396.419 321.665 381.295 331.839 376.207 333.764C367.958 337.064 355.72 345.176 352.696 350.401C354.895 350.401 357.37 350.264 360.12 350.264C369.47 350.126 370.845 350.126 372.357 351.089C373.32 351.639 376.62 353.976 377.032 362.088C377.72 361.676 383.632 357.826 390.644 360.163C397.107 362.363 399.719 368.001 400.131 368.826Z" fill="#F7AB1E"/>
<path d="M491.567 365.938C488.955 362.225 482.492 356.038 476.168 350.676C464.618 341.739 465.031 321.252 474.93 319.189C496.929 314.515 535.566 341.326 540.653 343.389C540.103 344.764 539.965 345.039 539.003 347.651C536.803 347.651 534.328 347.513 531.578 347.513C522.229 347.376 521.541 346.963 520.029 347.926C519.066 348.476 518.104 352.051 517.279 359.751C516.591 359.338 508.204 354.938 501.192 357.138C494.455 359.476 491.842 365.113 491.567 365.938Z" fill="#F7931E"/>
<path d="M493.217 361.676C490.604 357.963 484.142 351.776 477.817 346.414C466.268 337.476 465.305 321.527 474.93 319.189C496.929 314.515 512.053 324.689 517.141 326.614C525.39 329.914 537.628 338.026 540.652 343.251C538.453 343.251 535.978 343.114 533.228 343.114C523.878 342.976 522.503 342.976 520.991 343.939C520.028 344.489 516.728 346.826 516.316 354.938C515.628 354.526 509.716 350.676 502.704 353.013C496.104 355.076 493.492 360.713 493.217 361.676Z" fill="#F7AB1E"/>
<path d="M510.954 293.194L512.329 304.881L503.804 301.581L499.954 306.256L494.867 303.781L484.142 284.807L483.73 283.982L454.856 232.559C454.856 232.559 489.642 237.921 504.217 254.283C518.791 270.507 521.266 295.394 521.266 295.394L512.191 293.469L511.091 293.194H510.954Z" fill="#38C266"/>
<path d="M387.62 293.194C387.62 293.194 383.908 293.056 378.27 290.994C376.345 290.306 374.145 289.481 371.808 288.244C366.033 285.356 359.296 280.544 352.696 273.119C335.234 253.595 336.747 244.245 336.747 244.245L348.296 246.72C348.296 246.72 329.872 236.271 326.985 219.634C324.097 202.997 326.985 195.434 326.985 195.434L324.097 180.585C324.097 180.585 343.896 199.834 348.984 200.109C354.071 200.522 349.396 183.335 345.684 180.585C342.109 177.835 339.497 175.498 339.497 175.498C339.497 175.498 357.509 173.023 372.633 196.534C387.758 219.909 397.932 239.845 407.282 243.145C416.769 246.308 387.62 293.194 387.62 293.194Z" fill="#38C266"/>
<path d="M512.464 304.744L503.94 301.444L500.09 306.119L495.002 303.644L484.278 284.669L483.865 283.844L480.153 246.996C480.153 246.996 483.728 247.958 498.852 261.433C506.827 268.582 509.989 281.92 511.227 292.919H510.952L512.464 304.744Z" fill="#0A6127"/>
<path d="M494.73 308.731C488.13 318.906 478.093 327.293 476.306 328.668C477.681 327.43 483.593 322.206 471.631 329.218C458.294 337.193 425.707 333.893 425.707 333.893C425.707 333.893 447.019 338.98 419.245 333.893C391.471 328.805 379.509 304.331 379.509 304.331C372.634 284.119 385.284 273.67 386.659 249.746C388.034 225.821 401.646 239.296 409.07 236.134C416.495 232.971 414.295 223.484 414.295 223.484L461.319 219.497V219.909L461.731 230.909L462.006 237.371L476.856 244.796C476.856 244.796 494.592 257.17 499.955 271.882C505.455 286.457 498.305 303.231 494.73 308.731Z" fill="#38C266"/>
<path d="M445.368 312.443C445.368 312.443 421.306 319.318 409.344 306.256C397.382 293.194 399.17 282.606 401.782 272.707C404.257 262.807 405.357 269.407 405.357 269.407C405.357 269.407 414.294 255.382 422.681 254.557C430.931 253.87 430.931 253.87 430.931 253.87L425.844 251.67C425.844 251.67 442.481 251.532 452.243 258.957C462.005 266.519 455.13 257.445 455.13 257.445C455.13 257.445 469.017 267.894 467.505 280.956C465.855 294.019 462.693 305.843 445.368 312.443Z" fill="#6DD38F"/>
<path d="M417.181 234.346C417.181 234.346 426.669 230.909 433.681 231.596C440.693 232.284 440.693 232.284 440.693 232.284L433.681 228.159C433.681 228.159 439.181 227.196 447.843 231.184" fill="#38C266"/>
<path d="M375.659 266.519C375.659 266.519 364.109 257.445 362.322 253.457C360.534 249.47 360.947 251.67 360.947 251.67C360.947 251.67 371.809 256.757 375.796 256.345" stroke="#0A6127" stroke-width="0.194301" stroke-miterlimit="10"/>
<path d="M377.583 248.095C377.583 248.095 372.771 246.17 370.571 241.22C368.371 236.27 368.371 236.27 368.371 236.27C368.371 236.27 373.321 240.533 377.583 241.22C381.708 241.907 374.283 238.745 373.046 234.208C371.808 229.67 371.671 229.67 371.671 229.67C371.671 229.67 374.146 234.483 378.821 234.208" stroke="#0A6127" stroke-width="0.194301" stroke-miterlimit="10"/>
<path d="M383.082 269.407C383.082 269.407 380.47 280.132 378.27 290.994C376.345 290.307 374.145 289.482 371.808 288.244L383.082 269.407Z" fill="#0A6127"/>
<path d="M326.846 195.572C330.421 201.347 334.133 206.434 337.708 209.872C352.145 223.209 352.145 223.209 352.145 223.209" stroke="#0A6127" stroke-width="0.194301" stroke-miterlimit="10"/>
<path d="M331.66 219.634C331.66 219.634 332.76 229.396 343.897 237.508" stroke="#0A6127" stroke-width="0.194301" stroke-miterlimit="10"/>
<path d="M350.497 263.771C350.497 263.771 356.547 271.608 360.946 274.908" stroke="#0A6127" stroke-width="0.194301" stroke-miterlimit="10"/>
<path d="M352.696 181.961C353.658 182.098 363.008 187.186 368.233 194.748" stroke="#0A6127" stroke-width="0.194301" stroke-miterlimit="10"/>
<path d="M462.006 231.047L434.094 222.934L461.594 220.047L462.006 231.047Z" fill="#0A6127"/>
<path d="M494.729 195.435C494.454 192.272 493.629 189.247 492.254 186.498C492.392 183.335 492.529 179.76 492.529 175.91C492.529 149.099 475.48 126.962 453.068 122.287C450.456 119.812 447.156 117.2 444.406 116.375C439.181 115 439.181 115 439.181 115V118.575C439.181 118.575 431.619 117.2 429.007 117.887C427.494 118.3 427.769 121.737 428.319 124.487C409.62 132.049 396.283 152.124 396.283 175.91C396.283 177.01 396.283 177.973 396.42 178.935C393.67 182.923 393.808 187.872 393.808 192.272C393.808 201.347 400.683 208.634 409.345 208.634C410.72 208.634 410.17 208.497 411.407 208.084C413.745 218.946 422.269 224.859 453.893 224.859C471.768 224.996 496.517 215.647 494.729 195.435Z" fill="#38C266"/>
<path d="M473.693 182.235C472.593 187.735 470.668 192.685 468.469 196.947C467.781 196.81 467.094 196.81 466.131 196.672C465.719 196.672 465.306 196.535 464.756 196.535C467.231 192.547 469.431 187.46 470.531 181.685C473.556 167.111 469.981 154.049 462.419 152.536C454.856 151.024 446.194 161.473 443.169 176.048C442.482 179.073 442.207 181.96 442.069 184.71C441.519 184.16 440.969 183.473 440.282 182.785C440.419 180.448 440.832 178.11 441.382 175.635C444.957 158.448 455.132 146.074 464.069 147.999C473.006 149.649 477.406 165.048 473.693 182.235Z" fill="#0A6127"/>
<path d="M462.555 152.261C454.993 150.611 446.331 161.198 443.306 175.772C442.619 178.797 442.344 181.685 442.206 184.435C442.619 184.847 442.894 185.26 443.169 185.535C444.269 186.772 444.818 187.735 446.331 189.11C449.081 191.447 451.693 192.409 454.718 193.509C457.331 194.472 460.63 195.709 464.893 196.259C467.368 192.272 469.568 187.185 470.668 181.41C473.692 166.973 470.118 153.911 462.555 152.261ZM463.793 178.247C461.868 185.947 457.193 191.309 453.206 190.347C449.218 189.384 447.568 182.372 449.356 174.672C451.143 166.973 455.956 161.61 459.943 162.573C463.93 163.673 465.58 170.685 463.793 178.247Z" fill="white"/>
<path d="M459.943 162.711C455.955 161.749 451.281 167.111 449.356 174.811C447.431 182.511 449.218 189.385 453.206 190.485C457.193 191.448 461.868 186.085 463.793 178.386C465.58 170.686 463.93 163.674 459.943 162.711ZM459.255 170.686C458.018 173.161 456.093 174.536 454.718 173.848C453.481 173.161 453.481 170.823 454.718 168.348C455.955 165.874 457.88 164.499 459.118 165.186C460.355 165.874 460.493 168.211 459.255 170.686Z" fill="#00371D"/>
<path d="M421.306 158.173C421.031 161.748 420.343 165.873 418.968 170.273C418.831 170.548 418.831 170.823 418.693 171.098C420.068 166.148 420.756 161.611 420.618 157.898C420.481 153.499 419.381 150.336 417.181 149.786C413.194 148.549 407.281 156.661 403.844 167.798C401.919 174.26 401.231 180.31 401.919 184.435C401.644 184.572 401.369 184.71 401.231 184.847C400.269 180.31 400.956 173.16 403.156 165.736C406.731 153.636 413.194 144.974 417.593 146.211C420.481 146.761 421.718 151.574 421.306 158.173Z" fill="#0A6127"/>
<path d="M420.619 157.76C420.344 157.623 420.069 157.485 419.794 157.485C415.807 156.523 411.132 161.885 409.207 169.585C407.97 174.672 408.382 179.485 409.895 182.51C410.72 182.51 411.545 182.51 412.507 182.647C413.057 182.097 413.745 181.41 414.707 180.722C416.219 177.972 417.457 174.81 418.694 171.235C420.069 166.01 420.757 161.473 420.619 157.76ZM418.694 162.848C418.282 164.773 417.044 166.148 416.082 165.873C415.119 165.598 414.707 163.81 415.12 162.023C415.532 160.098 416.769 158.723 417.732 158.998C418.694 159.273 419.244 160.923 418.694 162.848Z" fill="#00371D"/>
<path d="M420.618 157.761C420.343 157.623 420.068 157.486 419.793 157.486C415.806 156.523 411.131 161.885 409.206 169.585C407.969 174.672 408.381 179.485 409.894 182.51C407.144 182.51 405.081 183.06 403.569 183.61C402.881 183.885 402.469 184.022 401.919 184.297C401.369 180.172 401.919 173.985 403.844 167.66C407.144 156.523 413.194 148.548 417.181 149.648C419.381 150.198 420.481 153.361 420.618 157.761Z" fill="white"/>
<path d="M418.694 162.848C418.281 164.773 417.044 166.148 416.081 165.873C415.119 165.598 414.707 163.811 415.119 162.023C415.531 160.098 416.769 158.724 417.731 158.999C418.694 159.274 419.244 160.923 418.694 162.848Z" fill="white"/>
<path d="M459.255 170.685C458.018 173.16 456.093 174.535 454.718 173.847C453.48 173.16 453.48 170.822 454.718 168.348C455.955 165.873 457.88 164.498 459.118 165.185C460.355 165.873 460.492 168.21 459.255 170.685Z" fill="white"/>
<path d="M469.842 197.36C469.43 197.085 469.017 196.947 468.605 196.947C467.917 196.81 467.23 196.81 466.267 196.672C465.855 196.672 465.442 196.535 464.892 196.535C460.63 195.847 457.33 194.747 454.718 193.785C451.693 192.685 449.08 191.722 446.331 189.385C444.818 188.01 444.268 187.185 443.168 185.81C442.893 185.535 442.618 185.123 442.206 184.71C441.656 184.16 441.106 183.473 440.418 182.785C438.218 180.585 435.056 178.11 431.069 177.148C427.906 176.323 425.019 176.598 422.544 177.285C419.519 177.973 417.319 179.348 416.494 179.76C416.082 180.035 415.669 180.31 415.257 180.585C415.119 180.723 414.982 180.86 414.844 180.86C413.882 181.548 413.194 182.235 412.644 182.785C411.682 182.648 410.857 182.648 410.032 182.648C407.282 182.648 405.219 183.198 403.707 183.748C403.02 184.023 402.607 184.16 402.057 184.435C401.782 184.573 401.507 184.71 401.37 184.848C399.857 185.673 398.345 186.498 395.457 187.598C394.22 188.148 393.12 188.423 392.295 188.835C391.607 189.11 390.92 189.248 390.507 189.385C390.37 189.798 389.27 192.547 390.782 195.022C391.332 195.847 391.882 196.397 392.57 196.672C393.395 197.222 394.22 197.36 394.632 197.497C395.87 197.772 397.107 197.772 398.345 197.497C398.207 197.497 398.207 197.497 398.07 197.497C398.62 198.047 399.307 198.735 400.132 199.697C401.645 201.622 404.257 204.647 405.494 208.772C405.632 209.322 405.632 209.184 405.907 211.247C406.044 212.347 406.319 213.859 406.732 216.472C407.282 219.909 407.419 220.046 407.557 220.459C408.244 221.971 409.344 223.071 410.582 223.896C412.507 225.134 414.844 225.821 416.357 226.234C421.444 227.609 425.569 227.059 429.281 226.509C435.056 225.684 439.318 224.034 444.268 222.246C446.193 221.559 449.493 220.046 456.093 217.022C458.293 216.059 460.218 215.097 462.83 213.722C463.792 213.172 466.542 211.659 469.705 209.322C472.592 207.259 473.967 206.159 474.38 204.922C474.792 201.76 472.455 198.597 469.842 197.36ZM462.418 205.197C460.63 205.884 458.568 206.709 456.368 207.809C454.58 208.634 453.068 209.322 451.83 209.872C446.606 212.347 443.306 214.134 437.118 216.609C431.069 218.947 427.769 219.634 424.194 219.359C419.931 219.084 417.319 217.572 416.494 217.022C415.257 216.334 412.919 214.822 411.544 212.072C410.994 210.972 410.857 210.284 410.719 209.459C410.582 208.772 410.444 207.947 409.894 206.709C408.932 204.097 407.557 202.31 406.594 200.935C405.632 199.56 404.257 197.91 402.332 196.122C403.02 195.985 403.707 195.71 404.394 195.435C405.082 195.297 408.657 194.197 411.132 193.785C417.319 192.685 422.544 193.922 428.181 195.435C431.069 196.26 430.106 196.122 439.868 199.697C440.693 199.972 441.381 200.247 442.068 200.522C443.856 201.072 445.231 201.622 446.468 202.035C449.08 202.86 450.593 203.41 451.693 203.547C452.38 203.685 452.93 203.822 453.343 203.822C454.443 203.96 455.543 204.097 456.505 204.235C458.843 204.372 461.043 204.372 463.105 204.235C463.93 204.235 464.755 204.097 465.442 203.96C464.892 204.234 463.792 204.785 462.418 205.197Z" fill="#F7931E"/>
<path d="M451.831 203.546C450.318 203.546 449.081 203.409 447.843 203.271C446.744 203.134 445.781 202.859 444.956 202.584C444.544 202.446 443.856 202.171 442.756 202.034C441.519 201.759 439.869 201.484 437.944 201.622C437.531 201.622 436.981 201.622 436.569 201.759C436.431 201.759 436.431 201.759 436.294 201.759C436.294 201.759 436.294 201.759 436.156 201.759C435.744 201.759 435.194 201.896 434.644 202.034H434.506C433.956 202.171 433.407 202.309 433.132 202.446C432.582 201.897 431.619 201.072 430.244 200.522C426.669 199.009 423.232 200.384 421.444 200.934C417.732 202.309 415.395 204.509 412.232 207.534C411.545 208.084 410.995 208.771 410.582 209.184C410.445 208.496 410.307 207.671 409.757 206.434C408.795 203.821 407.42 202.034 406.457 200.659C405.495 199.284 404.12 197.634 402.195 195.847C402.883 195.709 403.57 195.434 404.257 195.159C404.945 195.022 408.52 193.922 410.995 193.509C417.182 192.409 422.407 193.647 428.044 195.159C430.932 195.984 429.969 195.847 439.731 199.422C440.556 199.697 441.244 199.972 441.931 200.247C443.719 200.797 445.094 201.347 446.331 201.759C449.218 202.721 450.731 203.271 451.831 203.546Z" fill="#753024"/>
<path d="M465.855 203.96C464.892 204.235 463.792 204.785 462.417 205.335C460.63 206.023 458.568 206.848 456.368 207.948C454.58 208.772 453.068 209.46 451.83 210.01C446.605 212.485 443.306 214.272 437.118 216.747C431.068 219.085 427.769 219.772 424.194 219.497C419.931 219.222 417.319 217.71 416.494 217.16C415.256 216.472 412.919 214.96 411.544 212.21C410.994 211.11 410.63 209.766 410.493 208.941C411.043 208.391 411.452 207.982 412.002 207.432C415.164 204.407 417.859 202.31 421.434 200.935C423.221 200.248 426.914 198.751 430.488 200.264C431.863 200.814 432.579 201.623 433.129 202.173C433.542 202.035 434.088 201.911 434.638 201.773C434.913 201.773 435.873 201.396 436.148 201.396C436.423 201.396 436.148 201.396 436.706 201.396C436.706 201.396 437.943 201.396 438.081 201.396C438.218 201.396 439.028 201.396 439.166 201.396C439.716 201.396 439.885 201.396 440.298 201.396C442.222 201.258 441.941 201.498 443.316 201.773C444.278 202.048 445.167 202.39 445.579 202.528C446.404 202.803 447.12 203.145 448.22 203.282C449.32 203.42 449.726 203.282 451.238 203.282C451.926 203.42 454.221 203.659 454.634 203.659C455.734 203.797 457.067 203.823 458.029 203.96C460.367 204.098 460.872 204.098 462.934 203.96C464.264 203.871 465.03 204.098 465.855 203.96Z" fill="url(#paint0_linear_11917_52616)"/>
<path d="M451.832 141.4C452.794 138.375 455.269 136.037 458.294 135.35C461.456 134.662 464.894 135.9 466.956 138.512" stroke="#0A6127" stroke-width="0.388602" stroke-miterlimit="10"/>
<path d="M411.681 140.573C412.369 138.099 414.569 136.449 417.044 136.449C419.244 136.449 421.169 137.824 422.131 139.886" stroke="#0A6127" stroke-width="0.388602" stroke-miterlimit="10"/>
<defs>
<linearGradient id="paint0_linear_11917_52616" x1="410.6" y1="209.699" x2="465.818" y2="209.699" gradientUnits="userSpaceOnUse">
<stop stop-color="#FF5547"/>
<stop offset="1" stop-color="#FF4444"/>
</linearGradient>
</defs>
</svg>
