<svg width="336" height="232" viewBox="0 0 336 232" fill="none" xmlns="http://www.w3.org/2000/svg">
<path opacity="0.3" d="M297.61 182.108L245.987 191.406L70.0365 196.376L69.6357 177.538H297.61V182.108Z" fill="#464648"/>
<path d="M84.5466 191.406H63.3845C61.3003 191.406 59.6169 189.723 59.6169 187.639V182.829C59.6169 180.745 61.3003 179.062 63.3845 179.062H84.5466C86.6308 179.062 88.3142 180.745 88.3142 182.829V187.639C88.3142 189.723 86.6308 191.406 84.5466 191.406Z" fill="#FCB002" stroke="#D07C32" stroke-width="0.120415" stroke-miterlimit="10"/>
<path d="M57.3746 182.91V187.72C57.3746 189.804 55.6912 191.487 53.607 191.487H3.82781C1.74366 191.487 0.0603027 189.804 0.0603027 187.72V184.113C0.0603027 181.387 2.30478 179.223 4.95005 179.223H53.607C55.6912 179.143 57.3746 180.826 57.3746 182.91Z" fill="#FCB002"/>
<mask id="mask0_11917_54744" style="mask-type:luminance" maskUnits="userSpaceOnUse" x="0" y="179" width="58" height="13">
<path d="M57.3755 182.911V187.72C57.3755 189.804 55.6922 191.488 53.608 191.488H3.82879C1.74464 191.488 0.0612793 189.804 0.0612793 187.72V184.113C0.0612793 181.388 2.30575 179.223 4.95103 179.223H53.608C55.6922 179.143 57.3755 180.826 57.3755 182.911Z" fill="white"/>
</mask>
<g mask="url(#mask0_11917_54744)">
<path d="M4.39284 169.764C2.469 172.249 -0.33659 173.932 -1.77947 176.818C-3.14218 179.463 -3.06202 182.589 -2.82154 185.475C-2.26042 192.128 2.0682 195.575 7.27859 199.182C10.2445 201.267 13.0501 196.377 10.0842 194.373C6.07619 191.567 2.8698 189.243 2.62932 184.193C2.54916 182.028 2.62932 179.944 3.91188 178.1C5.11427 176.417 7.03811 175.295 8.32067 173.692C10.485 170.886 6.55715 166.958 4.39284 169.764Z" fill="#D07C32"/>
</g>
<path d="M57.3746 182.91V187.72C57.3746 189.804 55.6912 191.487 53.607 191.487H3.82781C1.74366 191.487 0.0603027 189.804 0.0603027 187.72V184.113C0.0603027 181.387 2.30478 179.223 4.95005 179.223H53.607C55.6912 179.143 57.3746 180.826 57.3746 182.91Z" stroke="#D07C32" stroke-width="0.120415" stroke-miterlimit="10"/>
<path d="M64.2693 180.505V190.044" stroke="#FCE63C" stroke-width="0.120415" stroke-miterlimit="10"/>
<path d="M68.2781 180.504V190.043" stroke="#FCE63C" stroke-width="0.120415" stroke-miterlimit="10"/>
<path d="M72.2048 180.504V190.043" stroke="#FCE63C" stroke-width="0.120415" stroke-miterlimit="10"/>
<path d="M76.1313 180.504V190.043" stroke="#FCE63C" stroke-width="0.120415" stroke-miterlimit="10"/>
<path d="M80.1401 180.504V190.043" stroke="#FCE63C" stroke-width="0.120415" stroke-miterlimit="10"/>
<path d="M84.0693 180.504V190.043" stroke="#FCE63C" stroke-width="0.120415" stroke-miterlimit="10"/>
<path d="M82.3048 179.142H32.5256C30.4414 179.142 28.7581 177.459 28.7581 175.375V170.565C28.7581 168.481 30.4414 166.798 32.5256 166.798H82.3048C84.389 166.798 86.0723 168.481 86.0723 170.565V175.375C86.0723 177.459 84.389 179.142 82.3048 179.142Z" fill="#FCB002"/>
<mask id="mask1_11917_54744" style="mask-type:luminance" maskUnits="userSpaceOnUse" x="28" y="166" width="59" height="14">
<path d="M82.3087 179.142H32.5295C30.4453 179.142 28.762 177.458 28.762 175.374V170.565C28.762 168.48 30.4453 166.797 32.5295 166.797H82.3087C84.3929 166.797 86.0762 168.48 86.0762 170.565V175.374C86.0762 177.458 84.3929 179.142 82.3087 179.142Z" fill="white"/>
</mask>
<g mask="url(#mask1_11917_54744)">
<path d="M32.365 161.106C29.1586 163.511 26.7538 165.996 26.5133 170.164C26.4331 172.328 26.2728 174.813 26.6736 176.977C26.9942 178.981 28.1165 180.585 29.1586 182.268C30.7618 184.913 34.8499 182.508 33.2467 179.863C32.7658 179.062 31.9642 178.019 31.6435 177.138C31.1626 175.935 31.403 174.011 31.403 172.729C31.403 169.202 31.9642 167.358 34.8499 165.274C37.1745 163.43 34.8499 159.262 32.365 161.106Z" fill="#D07C32"/>
</g>
<path d="M82.3048 179.142H32.5256C30.4414 179.142 28.7581 177.459 28.7581 175.375V170.565C28.7581 168.481 30.4414 166.798 32.5256 166.798H82.3048C84.389 166.798 86.0723 168.481 86.0723 170.565V175.375C86.0723 177.459 84.389 179.142 82.3048 179.142Z" stroke="#D07C32" stroke-width="0.120415" stroke-miterlimit="10"/>
<path d="M93.2045 166.878H43.4252C41.3411 166.878 39.6577 165.195 39.6577 163.11V158.301C39.6577 156.217 41.3411 154.533 43.4252 154.533H93.2045C95.2886 154.533 96.972 156.217 96.972 158.301V163.11C96.972 165.195 95.2886 166.878 93.2045 166.878Z" fill="#FCB002"/>
<mask id="mask2_11917_54744" style="mask-type:luminance" maskUnits="userSpaceOnUse" x="39" y="154" width="58" height="13">
<path d="M93.2052 166.879H43.426C41.3418 166.879 39.6584 165.195 39.6584 163.111V158.302C39.6584 156.218 41.3418 154.534 43.426 154.534H93.2052C95.2893 154.534 96.9727 156.218 96.9727 158.302V163.111C96.9727 165.195 95.2893 166.879 93.2052 166.879Z" fill="white"/>
</mask>
<g mask="url(#mask2_11917_54744)">
<path d="M39.9797 150.365C34.3685 155.896 34.609 167.92 41.9035 171.848C45.0298 173.531 47.8354 168.722 44.7091 167.038C40.7813 164.874 40.8615 157.339 43.9075 154.293C46.4727 151.808 42.5448 147.88 39.9797 150.365Z" fill="#D07C32"/>
</g>
<path d="M93.2045 166.878H43.4252C41.3411 166.878 39.6577 165.195 39.6577 163.11V158.301C39.6577 156.217 41.3411 154.533 43.4252 154.533H93.2045C95.2886 154.533 96.972 156.217 96.972 158.301V163.11C96.972 165.195 95.2886 166.878 93.2045 166.878Z" stroke="#D07C32" stroke-width="0.120415" stroke-miterlimit="10"/>
<path d="M71.6421 154.613C85.1448 154.613 96.0908 143.667 96.0908 130.164C96.0908 116.661 85.1448 105.715 71.6421 105.715C58.1394 105.715 47.1934 116.661 47.1934 130.164C47.1934 143.667 58.1394 154.613 71.6421 154.613Z" fill="#FEDE16" stroke="#F2A93C" stroke-width="0.120415" stroke-miterlimit="10"/>
<path d="M92.805 130.165C92.805 141.868 83.3461 151.327 71.6428 151.327C70.8412 151.327 69.9595 151.247 69.1579 151.166C65.711 150.766 62.5046 149.563 59.7792 147.639C58.2561 146.597 56.8133 145.315 55.6109 143.952C53.5267 141.547 52.0037 138.662 51.2021 135.455C50.8013 133.772 50.5608 132.008 50.5608 130.165C50.5608 121.908 55.2902 114.774 62.184 111.247C64.9896 109.804 68.1959 109.002 71.4825 109.002C71.5627 109.002 71.6428 109.002 71.6428 109.002C73.4865 109.002 75.25 109.243 77.0135 109.724C80.3802 110.606 83.3461 112.289 85.8311 114.533C90.0796 118.381 92.805 123.912 92.805 130.165Z" fill="#FFBF04"/>
<path opacity="0.24" d="M71.4826 109.002L55.6109 143.952C53.5268 141.547 52.0037 138.662 51.2021 135.455L62.184 111.247C64.9095 109.884 68.1159 109.083 71.4826 109.002Z" fill="white"/>
<path opacity="0.24" d="M27.9538 179.142L22.3426 191.407H14.0862L19.6172 179.142H27.9538Z" fill="white"/>
<path opacity="0.24" d="M47.915 179.142L43.907 191.407H37.895L41.903 179.142H47.915Z" fill="white"/>
<path opacity="0.24" d="M43.9049 166.877L39.416 179.142H32.7627L37.1715 166.877H43.9049Z" fill="white"/>
<path opacity="0.24" d="M61.0617 154.293L56.5728 166.557H49.8394L54.3283 154.293H61.0617Z" fill="white"/>
<path opacity="0.24" d="M65.6309 166.877L61.6229 179.142H55.5308L59.6189 166.877H65.6309Z" fill="white"/>
<path opacity="0.24" d="M85.8312 114.453L69.158 151.166C65.7111 150.766 62.5047 149.563 59.7793 147.639L77.0137 109.644C80.3002 110.606 83.3463 112.209 85.8312 114.453Z" fill="white"/>
<path d="M44.7888 155.655V165.194" stroke="#FCE63C" stroke-width="0.120415" stroke-miterlimit="10"/>
<path d="M48.7178 155.655V165.194" stroke="#FCE63C" stroke-width="0.120415" stroke-miterlimit="10"/>
<path d="M52.6445 155.655V165.194" stroke="#FCE63C" stroke-width="0.120415" stroke-miterlimit="10"/>
<path d="M56.6533 155.655V165.194" stroke="#FCE63C" stroke-width="0.120415" stroke-miterlimit="10"/>
<path d="M60.5798 155.655V165.194" stroke="#FCE63C" stroke-width="0.120415" stroke-miterlimit="10"/>
<path d="M64.5088 155.655V165.194" stroke="#FCE63C" stroke-width="0.120415" stroke-miterlimit="10"/>
<path d="M68.5154 155.655V165.194" stroke="#FCE63C" stroke-width="0.120415" stroke-miterlimit="10"/>
<path d="M72.4443 155.655V165.194" stroke="#FCE63C" stroke-width="0.120415" stroke-miterlimit="10"/>
<path d="M76.4509 155.655V165.194" stroke="#FCE63C" stroke-width="0.120415" stroke-miterlimit="10"/>
<path d="M80.3799 155.655V165.194" stroke="#FCE63C" stroke-width="0.120415" stroke-miterlimit="10"/>
<path d="M84.3064 155.655V165.194" stroke="#FCE63C" stroke-width="0.120415" stroke-miterlimit="10"/>
<path d="M88.3154 155.655V165.194" stroke="#FCE63C" stroke-width="0.120415" stroke-miterlimit="10"/>
<path d="M34.0496 168.881V178.5" stroke="#FCE63C" stroke-width="0.120415" stroke-miterlimit="10"/>
<path d="M38.0583 168.881V178.5" stroke="#FCE63C" stroke-width="0.120415" stroke-miterlimit="10"/>
<path d="M41.9851 168.881V178.5" stroke="#FCE63C" stroke-width="0.120415" stroke-miterlimit="10"/>
<path d="M45.9116 168.881V178.5" stroke="#FCE63C" stroke-width="0.120415" stroke-miterlimit="10"/>
<path d="M49.9204 168.881V178.5" stroke="#FCE63C" stroke-width="0.120415" stroke-miterlimit="10"/>
<path d="M53.8496 168.881V178.5" stroke="#FCE63C" stroke-width="0.120415" stroke-miterlimit="10"/>
<path d="M57.7761 168.881V178.5" stroke="#FCE63C" stroke-width="0.120415" stroke-miterlimit="10"/>
<path d="M61.7849 168.881V178.5" stroke="#FCE63C" stroke-width="0.120415" stroke-miterlimit="10"/>
<path d="M65.7117 168.881V178.5" stroke="#FCE63C" stroke-width="0.120415" stroke-miterlimit="10"/>
<path d="M69.6406 168.881V178.5" stroke="#FCE63C" stroke-width="0.120415" stroke-miterlimit="10"/>
<path d="M73.647 168.881V178.5" stroke="#FCE63C" stroke-width="0.120415" stroke-miterlimit="10"/>
<path d="M77.5762 168.881V178.5" stroke="#FCE63C" stroke-width="0.120415" stroke-miterlimit="10"/>
<path d="M5.19238 180.505V190.044" stroke="#FCE63C" stroke-width="0.120415" stroke-miterlimit="10"/>
<path d="M9.12134 180.504V190.043" stroke="#FCE63C" stroke-width="0.120415" stroke-miterlimit="10"/>
<path d="M13.1279 180.504V190.043" stroke="#FCE63C" stroke-width="0.120415" stroke-miterlimit="10"/>
<path d="M17.0569 180.504V190.043" stroke="#FCE63C" stroke-width="0.120415" stroke-miterlimit="10"/>
<path d="M20.9836 180.504V190.043" stroke="#FCE63C" stroke-width="0.120415" stroke-miterlimit="10"/>
<path d="M24.9924 180.504V190.043" stroke="#FCE63C" stroke-width="0.120415" stroke-miterlimit="10"/>
<path d="M28.9189 180.504V190.043" stroke="#FCE63C" stroke-width="0.120415" stroke-miterlimit="10"/>
<path d="M32.928 180.504V190.043" stroke="#FCE63C" stroke-width="0.120415" stroke-miterlimit="10"/>
<path d="M36.8545 180.504V190.043" stroke="#FCE63C" stroke-width="0.120415" stroke-miterlimit="10"/>
<path d="M40.7834 180.504V190.043" stroke="#FCE63C" stroke-width="0.120415" stroke-miterlimit="10"/>
<path d="M44.79 180.504V190.043" stroke="#FCE63C" stroke-width="0.120415" stroke-miterlimit="10"/>
<path d="M48.719 180.504V190.043" stroke="#FCE63C" stroke-width="0.120415" stroke-miterlimit="10"/>
<path d="M52.6479 180.504V190.043" stroke="#FCE63C" stroke-width="0.120415" stroke-miterlimit="10"/>
<path opacity="0.44" d="M74.8477 105.715H67.3928V191.406H74.8477V105.715Z" fill="#59361C"/>
<path d="M297.613 37.8206V182.108L274.757 191.497L243.624 200.793L245.99 6.39795L274.687 23.8728L297.613 37.8206Z" fill="#90A2A2"/>
<path opacity="0.07" d="M297.612 37.8204V182.108L274.686 191.497V23.8726L297.612 37.8204Z" fill="#90A2A2"/>
<path d="M245.99 6.39795L243.949 200.793L70.0388 196.377V6.39795H245.99Z" fill="#BCD1D4"/>
<path d="M228.115 166.877L93.5266 175.615L86.0718 18.1808L228.115 22.3491V166.877Z" fill="#4F5656"/>
<path d="M121.662 39.183L99.1367 73.3311C98.9764 73.5716 98.6557 73.6517 98.4152 73.4113C77.6538 57.219 61.5417 40.7862 47.8344 24.1931C47.5939 23.9527 47.6741 23.5519 47.9947 23.3915C60.0187 16.7383 68.7561 8.96278 74.2871 0.225363C74.4475 -0.015116 74.8483 -0.0952807 75.0887 0.145199C87.5135 12.57 103.225 25.3955 121.662 38.4616C121.742 38.7021 121.822 39.0227 121.662 39.183Z" fill="#B4F26A"/>
<path d="M121.663 39.1827L99.1384 73.3307C98.9781 73.5712 98.6574 73.6514 98.4169 73.4911C77.6555 57.2988 61.5434 40.8661 47.8361 24.273C47.6758 24.0325 47.7559 23.6317 47.9964 23.4714C60.1005 16.8181 68.838 9.04261 74.2888 0.30519C74.4492 0.0647103 74.85 -0.0154421 75.0904 0.225037C77.1746 2.30919 79.3389 4.39334 81.5834 6.47749H70.1205V9.04261H84.389C95.0502 18.6618 107.555 28.5214 121.663 38.5414C121.743 38.7017 121.824 39.0224 121.663 39.1827Z" fill="#B4F26A"/>
<path d="M115.33 40.0647L97.8555 67.7198C97.6952 67.9603 97.4547 67.9603 97.2143 67.8C79.6593 53.6919 65.8718 39.5838 54.0883 25.3153C53.928 25.0748 53.928 24.8344 54.1685 24.6741C63.8678 19.4637 70.8417 13.3715 75.0902 6.23731C75.2505 5.99683 75.491 5.99682 75.7314 6.15714C86.3125 16.8184 99.6992 27.9606 115.25 39.4235C115.411 39.5838 115.411 39.9044 115.33 40.0647Z" fill="#D8FFBA"/>
<path d="M104.348 169.924L115.41 153.331L91.1215 113.411L79.7388 139.143C79.4983 139.704 79.5785 140.425 79.9793 140.906L104.348 169.924Z" fill="#B4F26A"/>
<path d="M105.069 167.118L114.849 152.449L93.366 117.098L83.2659 139.864C83.0254 140.345 83.1056 140.986 83.5064 141.387L105.069 167.118Z" fill="#D8FFBA"/>
<path d="M161.822 36.7784L110.6 41.3475L122.944 14.2535C141.301 15.6163 156.211 18.021 165.109 22.2695L161.822 36.7784Z" fill="#B4F26A"/>
<path d="M101.863 156.778L114.127 145.716L96.0109 79.0226L77.8948 100.586C77.494 101.067 77.4138 101.788 77.6543 102.349L101.863 156.778Z" fill="#B4F26A"/>
<path d="M84.3071 117.098L101.862 156.777L114.127 145.715L96.0906 79.0225" stroke="#70894C" stroke-width="0.240829" stroke-miterlimit="10"/>
<path d="M155.569 36.7777L119.578 39.9841C117.974 40.1444 116.772 38.461 117.413 36.938L125.189 19.864C125.59 19.0624 126.391 18.5814 127.273 18.5814C140.259 19.6235 151 21.3069 158.054 24.1926C159.016 24.5934 159.577 25.6355 159.337 26.6776L157.413 35.1745C157.253 36.0563 156.451 36.6975 155.569 36.7777Z" fill="#D8FFBA"/>
<path d="M99.9383 146.597L109.798 137.7L95.2891 84.1528L80.7801 101.467C80.4595 101.868 80.3793 102.429 80.6198 102.91L99.9383 146.597Z" fill="#D8FFBA"/>
<path d="M209.516 41.0268L166.55 36.7784L186.029 13.8527C204.385 15.2154 215.127 15.8566 223.944 20.1051L209.516 41.0268Z" fill="#B4F26A"/>
<path d="M206.151 40.2249L170.881 36.778L186.833 17.9404C201.903 19.0627 210.64 19.6238 217.935 23.0707L206.151 40.2249Z" fill="#D8FFBA"/>
<path opacity="0.4" d="M228.354 167.358L95.4487 175.615L94.8074 162.949L88.074 26.5175L92.082 24.1929L228.354 30.4453V167.358Z" fill="#4F5656"/>
<path d="M230.76 28.2009V169.042L215.93 170.004L105.23 177.058L97.8549 177.539L90.7207 29.0826L90.4802 24.1929L97.4541 24.4333L209.037 27.6397L230.76 28.2009Z" fill="#B3C7C6"/>
<path opacity="0.15" d="M230.759 28.2013V169.042L215.929 170.004L209.036 27.6401L230.759 28.2013Z" fill="#90A2A2"/>
<path d="M164.948 147.399C188.677 147.399 207.914 126.799 207.914 101.387C207.914 75.9754 188.677 55.3752 164.948 55.3752C141.219 55.3752 121.982 75.9754 121.982 101.387C121.982 126.799 141.219 147.399 164.948 147.399Z" fill="#859392"/>
<path d="M206.471 101.547C206.471 126.958 187.233 147.559 163.505 147.559C157.253 147.559 151.241 146.116 145.87 143.551C130.961 136.337 120.54 120.305 120.54 101.627C120.54 76.2167 139.778 55.6156 163.505 55.6156C167.513 55.6156 171.441 56.1767 175.129 57.2989C193.165 62.6696 206.471 80.385 206.471 101.547Z" fill="#FFFEFF"/>
<path opacity="0.23" d="M206.472 101.547C206.472 126.958 187.234 147.559 163.506 147.559C157.254 147.559 151.242 146.116 145.871 143.551C169.759 118.621 179.378 89.8441 175.13 57.2992C193.166 62.6699 206.472 80.3852 206.472 101.547Z" fill="#B3C7C6"/>
<path d="M179.938 102.189C179.938 113.491 172.563 122.629 163.425 122.629C161.742 122.629 160.138 122.309 158.615 121.748C151.802 119.182 146.912 111.407 146.912 102.189C146.912 90.886 151.401 81.0264 160.539 81.0264C164.227 81.0264 168.074 81.9883 171.361 84.2328C176.331 87.4392 179.938 93.2107 179.938 102.189Z" fill="#464648"/>
<path opacity="0.54" d="M179.938 102.189C179.938 113.491 172.563 122.629 163.425 122.629C161.741 122.629 160.138 122.309 158.615 121.748L152.683 87.4392L171.361 84.2328C176.331 87.4392 179.938 93.2107 179.938 102.189Z" fill="#464648"/>
<path d="M175.37 102.189C175.37 111.808 169.999 119.904 162.705 122.069C161.502 122.469 160.22 122.63 158.857 122.63C156.853 122.63 154.849 122.149 153.085 121.347C150.841 120.305 148.837 118.702 147.154 116.618C145.55 114.614 144.268 112.129 143.386 109.403C142.665 107.159 142.344 104.754 142.344 102.189C142.344 92.6499 147.554 84.6339 154.689 82.3895C156.051 81.9887 157.414 81.7482 158.857 81.7482C159.819 81.7482 160.701 81.8283 161.582 82.0688C163.987 82.5498 166.232 83.672 168.155 85.3554C170.881 87.5998 172.965 90.8864 174.167 94.7341C174.969 96.9785 175.37 99.5436 175.37 102.189Z" fill="#757376"/>
<path d="M157.092 37.9004H166.551L161.821 48.4815L157.092 37.9004Z" fill="#8FA3A2"/>
<path d="M154.688 163.992H164.147L159.417 153.331L154.688 163.992Z" fill="#8FA3A2"/>
<path d="M105.71 95.7761L106.191 105.235L115.489 100.025L105.71 95.7761Z" fill="#8FA3A2"/>
<path d="M238.296 64.2726H217.454C216.492 64.2726 215.69 63.471 215.69 62.5091V48.0002C215.69 47.0383 216.492 46.2367 217.454 46.2367H238.296C239.257 46.2367 240.059 47.0383 240.059 48.0002V62.5091C240.059 63.471 239.257 64.2726 238.296 64.2726Z" fill="#90A2A2"/>
<path d="M237.733 63.1508H215.769C214.807 63.1508 214.006 62.3492 214.006 61.3873V46.8784C214.006 45.9165 214.807 45.1149 215.769 45.1149H237.733C238.695 45.1149 239.496 45.9165 239.496 46.8784V61.3873C239.416 62.3492 238.695 63.1508 237.733 63.1508Z" fill="#CFE0E2"/>
<path d="M237.734 63.1504H216.892C215.93 63.1504 215.129 62.3488 215.129 61.3869V48.0002C215.129 47.0383 215.93 46.2367 216.892 46.2367H237.734C238.696 46.2367 239.497 47.0383 239.497 48.0002V61.3869C239.417 62.3488 238.696 63.1504 237.734 63.1504Z" fill="#BCD1D4"/>
<path opacity="0.15" d="M161.581 81.988L147.153 116.537C145.549 114.533 144.267 112.048 143.385 109.322L154.688 82.3086C156.05 81.9078 157.413 81.6674 158.856 81.6674C159.818 81.7475 160.7 81.8277 161.581 81.988Z" fill="#CFE0E2"/>
<path opacity="0.15" d="M174.165 94.6536L162.702 122.148C161.5 122.549 160.217 122.71 158.855 122.71C156.851 122.71 154.847 122.229 153.083 121.427L168.153 85.3551C170.798 87.5194 172.963 90.806 174.165 94.6536Z" fill="#CFE0E2"/>
<path d="M230.76 28.2009L209.037 27.6397L97.4541 24.4333L90.4802 24.1929L90.7207 29.0826L97.8549 177.539L105.23 177.058L97.6946 29.2429L230.76 32.1287V28.2009Z" fill="#B3C7C6"/>
<path opacity="0.62" d="M245.989 6.39795V8.96306H84.3071C83.3451 8.0813 82.3832 7.19955 81.5015 6.39795H245.989Z" fill="#B3C7C6"/>
<path d="M247.976 231.3C249.595 229 253.6 225.165 257.52 221.842C264.677 216.303 266.467 204.544 259.309 202.329C245.675 199.432 221.731 216.048 218.578 217.326C218.578 217.667 218.493 218.263 218.578 219.967C219.942 219.967 221.476 219.882 223.18 219.882C228.974 219.797 229.826 219.797 230.763 220.393C231.36 220.734 232.468 222.438 233.064 227.381C233.49 227.125 237.666 224.569 242.011 226.017C246.101 227.21 247.72 230.704 247.976 231.3Z" fill="#F7931E"/>
<path d="M247.974 228.574C249.593 226.273 253.598 222.439 257.518 219.115C264.676 213.577 265.272 203.692 259.307 202.244C245.674 199.347 236.301 205.652 233.148 206.845C228.035 208.89 220.452 213.918 218.577 217.156C219.94 217.156 221.474 217.07 223.178 217.07C228.973 216.985 229.825 216.985 230.762 217.582C231.358 217.923 233.403 219.371 233.659 224.399C234.085 224.143 237.749 221.757 242.095 223.206C246.1 224.569 247.719 228.063 247.974 228.574Z" fill="#F7AB1E"/>
<path d="M304.641 226.784C303.022 224.483 299.017 220.649 295.098 217.326C287.94 211.787 288.196 199.091 294.331 197.813C307.964 194.915 331.908 211.531 335.061 212.81C334.72 213.662 334.635 213.832 334.039 215.451C332.675 215.451 331.142 215.366 329.437 215.366C323.643 215.281 323.217 215.025 322.28 215.621C321.683 215.962 321.087 218.178 320.576 222.95C320.149 222.694 314.952 219.967 310.606 221.331C306.431 222.779 304.812 226.273 304.641 226.784Z" fill="#F7931E"/>
<path d="M305.662 224.143C304.043 221.842 300.038 218.008 296.119 214.684C288.961 209.146 288.365 199.261 294.329 197.813C307.963 194.916 317.336 201.221 320.489 202.414C325.601 204.459 333.185 209.487 335.06 212.725C333.696 212.725 332.163 212.639 330.458 212.639C324.664 212.554 323.812 212.554 322.875 213.151C322.278 213.491 320.233 214.94 319.978 219.967C319.552 219.712 315.887 217.326 311.542 218.775C307.452 220.053 305.833 223.546 305.662 224.143Z" fill="#F7AB1E"/>
<path d="M316.655 181.702L317.507 188.945L312.224 186.9L309.838 189.797L306.685 188.264L300.039 176.505L299.783 175.993L281.889 144.125C281.889 144.125 303.447 147.448 312.479 157.588C321.512 167.643 323.045 183.066 323.045 183.066L317.422 181.873L316.74 181.702H316.655Z" fill="#38C266"/>
<path d="M240.221 181.702C240.221 181.702 237.92 181.617 234.427 180.339C233.234 179.913 231.871 179.401 230.422 178.635C226.843 176.845 222.668 173.863 218.578 169.261C207.756 157.162 208.693 151.367 208.693 151.367L215.851 152.901C215.851 152.901 204.433 146.425 202.643 136.115C200.854 125.804 202.643 121.118 202.643 121.118L200.854 111.915C200.854 111.915 213.124 123.844 216.277 124.015C219.43 124.27 216.533 113.619 214.232 111.915C212.017 110.211 210.398 108.762 210.398 108.762C210.398 108.762 221.56 107.228 230.933 121.799C240.306 136.285 246.612 148.641 252.406 150.686C258.286 152.645 240.221 181.702 240.221 181.702Z" fill="#38C266"/>
<path d="M317.591 188.86L312.308 186.815L309.922 189.712L306.769 188.178L300.122 176.419L299.867 175.908L297.566 153.072C297.566 153.072 299.782 153.668 309.155 162.019C314.097 166.45 316.057 174.715 316.824 181.532H316.653L317.591 188.86Z" fill="#0A6127"/>
<path d="M306.601 191.331C302.511 197.637 296.29 202.835 295.183 203.687C296.035 202.92 299.699 199.682 292.286 204.027C284.02 208.97 263.825 206.925 263.825 206.925C263.825 206.925 277.033 210.077 259.82 206.925C242.608 203.772 235.195 188.604 235.195 188.604C230.934 176.078 238.774 169.603 239.626 154.776C240.478 139.949 248.914 148.3 253.515 146.34C258.116 144.38 256.753 138.501 256.753 138.501L285.895 136.03V136.285L286.15 143.102L286.321 147.107L295.524 151.708C295.524 151.708 306.516 159.377 309.839 168.495C313.247 177.527 308.816 187.923 306.601 191.331Z" fill="#38C266"/>
<path d="M276.011 193.632C276.011 193.632 261.099 197.892 253.686 189.797C246.272 181.702 247.38 175.141 248.999 169.006C250.533 162.871 251.215 166.961 251.215 166.961C251.215 166.961 256.753 158.269 261.951 157.758C267.064 157.332 267.064 157.332 267.064 157.332L263.911 155.969C263.911 155.969 274.221 155.883 280.271 160.485C286.321 165.171 282.061 159.547 282.061 159.547C282.061 159.547 290.667 166.023 289.73 174.118C288.707 182.213 286.747 189.541 276.011 193.632Z" fill="#6DD38F"/>
<path d="M258.542 145.232C258.542 145.232 264.422 143.102 268.768 143.528C273.113 143.954 273.113 143.954 273.113 143.954L268.768 141.398C268.768 141.398 272.176 140.801 277.544 143.272" fill="#38C266"/>
<path d="M232.809 165.171C232.809 165.171 225.651 159.547 224.543 157.076C223.435 154.605 223.691 155.968 223.691 155.968C223.691 155.968 230.423 159.121 232.894 158.866" stroke="#0A6127" stroke-width="0.120415" stroke-miterlimit="10"/>
<path d="M234.001 153.753C234.001 153.753 231.018 152.56 229.655 149.492C228.292 146.425 228.292 146.425 228.292 146.425C228.292 146.425 231.359 149.066 234.001 149.492C236.557 149.918 231.956 147.959 231.189 145.147C230.422 142.335 230.337 142.335 230.337 142.335C230.337 142.335 231.871 145.317 234.768 145.147" stroke="#0A6127" stroke-width="0.120415" stroke-miterlimit="10"/>
<path d="M237.409 166.961C237.409 166.961 235.79 173.607 234.427 180.339C233.234 179.913 231.871 179.402 230.422 178.635L237.409 166.961Z" fill="#0A6127"/>
<path d="M202.558 121.203C204.774 124.782 207.074 127.935 209.29 130.065C218.237 138.33 218.237 138.33 218.237 138.33" stroke="#0A6127" stroke-width="0.120415" stroke-miterlimit="10"/>
<path d="M205.541 136.115C205.541 136.115 206.222 142.165 213.124 147.192" stroke="#0A6127" stroke-width="0.120415" stroke-miterlimit="10"/>
<path d="M217.214 163.468C217.214 163.468 220.963 168.325 223.69 170.37" stroke="#0A6127" stroke-width="0.120415" stroke-miterlimit="10"/>
<path d="M218.577 112.768C219.173 112.853 224.968 116.006 228.206 120.692" stroke="#0A6127" stroke-width="0.120415" stroke-miterlimit="10"/>
<path d="M286.319 143.187L269.021 138.16L286.063 136.371L286.319 143.187Z" fill="#0A6127"/>
<path d="M306.6 121.118C306.43 119.158 305.919 117.283 305.066 115.579C305.152 113.619 305.237 111.404 305.237 109.018C305.237 92.4018 294.671 78.6829 280.782 75.7858C279.163 74.252 277.117 72.633 275.413 72.1218C272.175 71.2697 272.175 71.2697 272.175 71.2697V73.4851C272.175 73.4851 267.489 72.633 265.87 73.0591C264.932 73.3147 265.103 75.445 265.444 77.1492C253.855 81.8357 245.59 94.2764 245.59 109.018C245.59 109.699 245.59 110.296 245.675 110.892C243.971 113.364 244.056 116.431 244.056 119.158C244.056 124.782 248.316 129.298 253.685 129.298C254.537 129.298 254.196 129.213 254.963 128.957C256.411 135.689 261.694 139.353 281.293 139.353C292.37 139.438 307.708 133.644 306.6 121.118Z" fill="#38C266"/>
<path d="M293.562 112.937C292.88 116.346 291.687 119.413 290.324 122.055C289.898 121.97 289.472 121.97 288.876 121.884C288.62 121.884 288.364 121.799 288.023 121.799C289.557 119.328 290.921 116.175 291.602 112.596C293.477 103.564 291.261 95.4692 286.575 94.5319C281.888 93.5946 276.52 100.071 274.645 109.103C274.219 110.977 274.049 112.767 273.964 114.471C273.623 114.13 273.282 113.704 272.856 113.278C272.941 111.83 273.197 110.381 273.538 108.847C275.753 98.1959 282.059 90.527 287.597 91.72C293.136 92.7425 295.863 102.286 293.562 112.937Z" fill="#0A6127"/>
<path d="M286.66 94.3614C281.974 93.3388 276.606 99.9 274.731 108.932C274.305 110.807 274.135 112.596 274.049 114.301C274.305 114.556 274.475 114.812 274.646 114.982C275.327 115.749 275.668 116.346 276.606 117.198C278.31 118.646 279.929 119.243 281.803 119.924C283.422 120.521 285.467 121.288 288.109 121.629C289.643 119.158 291.006 116.005 291.688 112.426C293.562 103.479 291.347 95.3839 286.66 94.3614ZM287.427 110.466C286.234 115.238 283.337 118.561 280.866 117.965C278.395 117.368 277.373 113.022 278.48 108.251C279.588 103.479 282.57 100.156 285.041 100.752C287.513 101.434 288.535 105.78 287.427 110.466Z" fill="white"/>
<path d="M285.041 100.838C282.57 100.241 279.672 103.565 278.48 108.336C277.287 113.108 278.394 117.369 280.865 118.05C283.336 118.647 286.234 115.324 287.427 110.552C288.534 105.78 287.512 101.434 285.041 100.838ZM284.615 105.78C283.848 107.314 282.655 108.166 281.803 107.74C281.036 107.314 281.036 105.865 281.803 104.332C282.57 102.798 283.763 101.946 284.529 102.372C285.296 102.798 285.382 104.246 284.615 105.78Z" fill="#00371D"/>
<path d="M261.097 98.0256C260.927 100.241 260.501 102.797 259.649 105.524C259.563 105.695 259.563 105.865 259.478 106.035C260.33 102.968 260.756 100.156 260.671 97.8552C260.586 95.1285 259.904 93.1686 258.541 92.8278C256.07 92.0609 252.406 97.0883 250.275 103.99C249.082 107.995 248.656 111.745 249.082 114.301C248.912 114.386 248.742 114.471 248.656 114.556C248.06 111.745 248.486 107.314 249.849 102.712C252.065 95.2137 256.07 89.8454 258.796 90.6123C260.586 90.9532 261.353 93.9355 261.097 98.0256Z" fill="#0A6127"/>
<path d="M260.672 97.7695C260.501 97.6843 260.331 97.5991 260.16 97.5991C257.689 97.0026 254.792 100.326 253.599 105.098C252.832 108.25 253.088 111.233 254.025 113.107C254.537 113.107 255.048 113.107 255.644 113.193C255.985 112.852 256.411 112.426 257.008 112C257.945 110.295 258.712 108.336 259.479 106.12C260.331 102.882 260.757 100.07 260.672 97.7695ZM259.479 100.922C259.223 102.115 258.456 102.967 257.86 102.797C257.263 102.627 257.008 101.519 257.263 100.411C257.519 99.2181 258.286 98.366 258.882 98.5364C259.479 98.7069 259.82 99.7294 259.479 100.922Z" fill="#00371D"/>
<path d="M260.671 97.7697C260.501 97.6845 260.331 97.5993 260.16 97.5993C257.689 97.0028 254.792 100.326 253.599 105.098C252.832 108.251 253.088 111.233 254.025 113.108C252.321 113.108 251.043 113.448 250.105 113.789C249.679 113.96 249.424 114.045 249.083 114.215C248.742 111.659 249.083 107.824 250.276 103.905C252.321 97.0028 256.07 92.0606 258.541 92.7423C259.905 93.0831 260.586 95.043 260.671 97.7697Z" fill="white"/>
<path d="M259.478 100.923C259.223 102.116 258.456 102.968 257.859 102.797C257.263 102.627 257.007 101.519 257.263 100.411C257.518 99.2185 258.285 98.3664 258.882 98.5369C259.478 98.7073 259.819 99.7298 259.478 100.923Z" fill="white"/>
<path d="M284.614 105.78C283.847 107.313 282.654 108.165 281.802 107.739C281.035 107.313 281.035 105.865 281.802 104.331C282.569 102.797 283.762 101.945 284.529 102.371C285.296 102.797 285.381 104.246 284.614 105.78Z" fill="white"/>
<path d="M291.176 122.311C290.92 122.14 290.664 122.055 290.409 122.055C289.983 121.97 289.557 121.97 288.96 121.885C288.704 121.885 288.449 121.799 288.108 121.799C285.466 121.373 283.421 120.692 281.802 120.095C279.928 119.414 278.309 118.817 276.605 117.369C275.667 116.516 275.326 116.005 274.645 115.153C274.474 114.983 274.304 114.727 274.048 114.471C273.707 114.131 273.367 113.704 272.941 113.278C271.577 111.915 269.617 110.381 267.146 109.785C265.186 109.274 263.397 109.444 261.863 109.87C259.989 110.296 258.625 111.148 258.114 111.404C257.858 111.574 257.603 111.745 257.347 111.915C257.262 112 257.177 112.085 257.091 112.085C256.495 112.512 256.069 112.938 255.728 113.278C255.132 113.193 254.62 113.193 254.109 113.193C252.405 113.193 251.127 113.534 250.189 113.875C249.763 114.045 249.508 114.131 249.167 114.301C248.996 114.386 248.826 114.471 248.741 114.557C247.804 115.068 246.866 115.579 245.077 116.261C244.31 116.602 243.628 116.772 243.117 117.028C242.691 117.198 242.265 117.283 242.009 117.369C241.924 117.624 241.242 119.328 242.18 120.862C242.52 121.373 242.861 121.714 243.287 121.885C243.799 122.225 244.31 122.311 244.566 122.396C245.332 122.566 246.099 122.566 246.866 122.396C246.781 122.396 246.781 122.396 246.696 122.396C247.037 122.737 247.463 123.163 247.974 123.759C248.911 124.952 250.53 126.827 251.297 129.383C251.382 129.724 251.382 129.639 251.553 130.917C251.638 131.599 251.808 132.536 252.064 134.155C252.405 136.285 252.49 136.37 252.575 136.626C253.001 137.563 253.683 138.245 254.45 138.756C255.643 139.523 257.091 139.949 258.029 140.205C261.182 141.057 263.738 140.716 266.039 140.375C269.617 139.864 272.259 138.842 275.326 137.734C276.519 137.308 278.564 136.37 282.655 134.496C284.018 133.899 285.211 133.303 286.83 132.451C287.426 132.11 289.131 131.173 291.09 129.724C292.88 128.446 293.732 127.764 293.988 126.997C294.243 125.037 292.795 123.078 291.176 122.311ZM286.574 127.168C285.466 127.594 284.188 128.105 282.825 128.787C281.717 129.298 280.78 129.724 280.013 130.065C276.775 131.599 274.73 132.706 270.896 134.24C267.146 135.689 265.101 136.115 262.886 135.944C260.244 135.774 258.625 134.837 258.114 134.496C257.347 134.07 255.899 133.132 255.046 131.428C254.706 130.747 254.62 130.32 254.535 129.809C254.45 129.383 254.365 128.872 254.024 128.105C253.427 126.486 252.575 125.378 251.979 124.526C251.382 123.674 250.53 122.652 249.337 121.544C249.763 121.459 250.189 121.288 250.615 121.118C251.042 121.033 253.257 120.351 254.791 120.095C258.625 119.414 261.863 120.18 265.357 121.118C267.146 121.629 266.55 121.544 272.6 123.759C273.111 123.93 273.537 124.1 273.963 124.271C275.071 124.611 275.923 124.952 276.69 125.208C278.309 125.719 279.246 126.06 279.928 126.145C280.354 126.23 280.695 126.316 280.95 126.316C281.632 126.401 282.314 126.486 282.91 126.571C284.359 126.656 285.722 126.656 287 126.571C287.512 126.571 288.023 126.486 288.449 126.401C288.108 126.571 287.426 126.912 286.574 127.168Z" fill="#F7931E"/>
<path d="M280.014 126.145C279.077 126.145 278.31 126.059 277.543 125.974C276.861 125.889 276.265 125.719 275.753 125.548C275.498 125.463 275.072 125.293 274.39 125.207C273.623 125.037 272.601 124.867 271.408 124.952C271.152 124.952 270.811 124.952 270.556 125.037C270.47 125.037 270.47 125.037 270.385 125.037C270.385 125.037 270.385 125.037 270.3 125.037C270.044 125.037 269.703 125.122 269.363 125.207H269.277C268.937 125.293 268.596 125.378 268.425 125.463C268.084 125.122 267.488 124.611 266.636 124.27C264.42 123.333 262.29 124.185 261.182 124.526C258.882 125.378 257.433 126.741 255.473 128.616C255.047 128.957 254.706 129.383 254.451 129.638C254.366 129.212 254.28 128.701 253.939 127.934C253.343 126.315 252.491 125.207 251.894 124.355C251.298 123.503 250.446 122.481 249.253 121.373C249.679 121.288 250.105 121.117 250.531 120.947C250.957 120.862 253.173 120.18 254.706 119.924C258.541 119.243 261.779 120.01 265.272 120.947C267.062 121.458 266.465 121.373 272.515 123.588C273.027 123.759 273.453 123.929 273.879 124.1C274.986 124.441 275.839 124.781 276.605 125.037C278.395 125.633 279.332 125.974 280.014 126.145Z" fill="#753024"/>
<path d="M288.704 126.401C288.108 126.571 287.426 126.912 286.574 127.253C285.466 127.679 284.188 128.19 282.825 128.872C281.717 129.383 280.78 129.809 280.013 130.15C276.775 131.684 274.73 132.792 270.895 134.326C267.146 135.774 265.101 136.2 262.885 136.03C260.244 135.859 258.625 134.922 258.114 134.581C257.347 134.155 255.898 133.218 255.046 131.514C254.705 130.832 254.48 129.999 254.395 129.488C254.735 129.147 254.989 128.894 255.33 128.553C257.29 126.678 258.96 125.378 261.175 124.526C262.283 124.1 264.571 123.173 266.786 124.11C267.639 124.451 268.082 124.952 268.423 125.293C268.679 125.208 269.017 125.131 269.358 125.046C269.529 125.046 270.123 124.812 270.294 124.812C270.464 124.812 270.294 124.812 270.639 124.812C270.639 124.812 271.406 124.812 271.492 124.812C271.577 124.812 272.079 124.812 272.164 124.812C272.505 124.812 272.61 124.812 272.865 124.812C274.058 124.727 273.884 124.875 274.736 125.046C275.332 125.216 275.883 125.428 276.139 125.513C276.65 125.684 277.094 125.896 277.775 125.981C278.457 126.066 278.709 125.981 279.646 125.981C280.072 126.066 281.495 126.215 281.75 126.215C282.432 126.3 283.258 126.316 283.854 126.401C285.303 126.486 285.616 126.486 286.894 126.401C287.718 126.346 288.193 126.486 288.704 126.401Z" fill="url(#paint0_linear_11917_54744)"/>
<path d="M280.014 87.6303C280.611 85.7557 282.145 84.3071 284.019 83.881C285.979 83.455 288.109 84.2219 289.388 85.8409" stroke="#0A6127" stroke-width="0.240829" stroke-miterlimit="10"/>
<path d="M255.133 87.1184C255.559 85.5847 256.922 84.5621 258.456 84.5621C259.82 84.5621 261.013 85.4142 261.609 86.6924" stroke="#0A6127" stroke-width="0.240829" stroke-miterlimit="10"/>
<defs>
<linearGradient id="paint0_linear_11917_54744" x1="254.461" y1="129.957" x2="288.681" y2="129.957" gradientUnits="userSpaceOnUse">
<stop stop-color="#FF5547"/>
<stop offset="1" stop-color="#FF4444"/>
</linearGradient>
</defs>
</svg>
