<svg xmlns="http://www.w3.org/2000/svg" width="541" height="374" fill="none" viewBox="0 0 541 374"><path fill="#464648" d="m480.228 293.849-83.299 15.004-283.914 8.019-.647-30.396h367.86z" opacity=".3"/><path fill="#fcb002" stroke="#d07c32" stroke-miterlimit="10" stroke-width=".194" d="M136.426 308.853h-34.148a6.07 6.07 0 0 1-6.079-6.079v-7.761a6.07 6.07 0 0 1 6.079-6.079h34.148a6.07 6.07 0 0 1 6.079 6.079v7.761a6.07 6.07 0 0 1-6.079 6.079Z"/><path fill="#fcb002" d="M92.58 295.144v7.76a6.073 6.073 0 0 1-6.08 6.08H6.176a6.073 6.073 0 0 1-6.079-6.08v-5.82c0-4.398 3.622-7.89 7.89-7.89H86.5c3.363-.13 6.08 2.587 6.08 5.95"/><mask id="a" width="93" height="20" x="0" y="289" maskUnits="userSpaceOnUse" style="mask-type:luminance"><path fill="#fff" d="M92.58 295.144v7.761a6.07 6.07 0 0 1-6.08 6.079H6.178a6.07 6.07 0 0 1-6.08-6.079v-5.821c0-4.398 3.622-7.89 7.89-7.89h78.514c3.363-.129 6.079 2.587 6.079 5.95"/></mask><g mask="url(#a)"><path fill="#d07c32" d="M7.081 273.931c-3.104 4.01-7.631 6.726-9.96 11.382-2.198 4.269-2.069 9.313-1.68 13.97.905 10.735 7.89 16.297 16.297 22.118 4.785 3.363 9.313-4.527 4.527-7.761-6.467-4.527-11.641-8.278-12.03-16.427-.129-3.492 0-6.855 2.07-9.83 1.94-2.716 5.045-4.527 7.114-7.114 3.493-4.527-2.845-10.865-6.338-6.338"/></g><path stroke="#d07c32" stroke-miterlimit="10" stroke-width=".194" d="M92.58 295.144v7.76a6.073 6.073 0 0 1-6.08 6.08H6.176a6.073 6.073 0 0 1-6.079-6.08v-5.82c0-4.398 3.622-7.89 7.89-7.89H86.5c3.363-.13 6.08 2.587 6.08 5.95Z"/><path stroke="#fce63c" stroke-miterlimit="10" stroke-width=".194" d="M103.706 291.262v15.392m6.467-15.392v15.392m6.339-15.392v15.392m6.335-15.392v15.392m6.47-15.392v15.392m6.339-15.392v15.392"/><path fill="#fcb002" d="M132.805 289.063H52.481a6.07 6.07 0 0 1-6.08-6.079v-7.761a6.07 6.07 0 0 1 6.08-6.079h80.324a6.07 6.07 0 0 1 6.079 6.079v7.761a6.07 6.07 0 0 1-6.079 6.079"/><mask id="b" width="93" height="21" x="46" y="269" maskUnits="userSpaceOnUse" style="mask-type:luminance"><path fill="#fff" d="M132.805 289.063H52.481a6.07 6.07 0 0 1-6.08-6.079v-7.761a6.07 6.07 0 0 1 6.08-6.079h80.324a6.07 6.07 0 0 1 6.079 6.079v7.761a6.07 6.07 0 0 1-6.079 6.079"/></mask><g mask="url(#b)"><path fill="#d07c32" d="M52.224 259.961c-5.174 3.88-9.055 7.89-9.443 14.616-.129 3.492-.388 7.502.259 10.994.517 3.234 2.328 5.821 4.01 8.537 2.587 4.269 9.183.388 6.596-3.88-.776-1.294-2.07-2.975-2.587-4.398-.776-1.94-.388-5.045-.388-7.114 0-5.691.906-8.666 5.562-12.029 3.751-2.975 0-9.701-4.01-6.726"/></g><path stroke="#d07c32" stroke-miterlimit="10" stroke-width=".194" d="M132.805 289.063H52.481a6.07 6.07 0 0 1-6.08-6.079v-7.761a6.07 6.07 0 0 1 6.08-6.079h80.324a6.07 6.07 0 0 1 6.079 6.079v7.761a6.07 6.07 0 0 1-6.079 6.079Z"/><path fill="#fcb002" d="M150.397 269.274H70.073a6.07 6.07 0 0 1-6.08-6.079v-7.761a6.07 6.07 0 0 1 6.08-6.079h80.324a6.07 6.07 0 0 1 6.079 6.079v7.761a6.07 6.07 0 0 1-6.079 6.079"/><mask id="c" width="94" height="21" x="63" y="249" maskUnits="userSpaceOnUse" style="mask-type:luminance"><path fill="#fff" d="M150.397 269.274H70.073a6.07 6.07 0 0 1-6.079-6.079v-7.761a6.07 6.07 0 0 1 6.08-6.079h80.323a6.07 6.07 0 0 1 6.079 6.079v7.761a6.07 6.07 0 0 1-6.079 6.079"/></mask><g mask="url(#c)"><path fill="#d07c32" d="M64.512 242.629c-9.054 8.924-8.666 28.326 3.104 34.664 5.045 2.716 9.572-5.044 4.527-7.761-6.338-3.492-6.208-15.65-1.293-20.566 4.139-4.009-2.2-10.347-6.338-6.337"/></g><path stroke="#d07c32" stroke-miterlimit="10" stroke-width=".194" d="M150.397 269.274H70.073a6.07 6.07 0 0 1-6.08-6.079v-7.761a6.07 6.07 0 0 1 6.08-6.079h80.324a6.07 6.07 0 0 1 6.079 6.079v7.761a6.07 6.07 0 0 1-6.079 6.079Z"/><path fill="#fede16" stroke="#f2a93c" stroke-miterlimit="10" stroke-width=".194" d="M115.6 249.483c21.788 0 39.451-17.663 39.451-39.45s-17.663-39.451-39.451-39.451c-21.787 0-39.45 17.663-39.45 39.451 0 21.787 17.662 39.45 39.45 39.45Z"/><path fill="#ffbf04" d="M149.75 210.034c0 18.884-15.263 34.147-34.148 34.147-1.293 0-2.716-.129-4.009-.259-5.562-.646-10.736-2.587-15.134-5.691a37 37 0 0 1-6.726-5.95 33.14 33.14 0 0 1-7.114-13.711c-.647-2.716-1.034-5.561-1.034-8.536 0-13.323 7.63-24.835 18.755-30.526a32.9 32.9 0 0 1 15.004-3.622h.258c2.975 0 5.821.388 8.667 1.164 5.432 1.423 10.218 4.14 14.228 7.761 6.855 6.209 11.253 15.134 11.253 25.223"/><path fill="#fff" d="m115.345 175.886-25.61 56.395a33.14 33.14 0 0 1-7.115-13.711l17.72-39.062c4.398-2.199 9.572-3.492 15.005-3.622M45.108 289.064l-9.054 19.79H22.731l8.925-19.79zm32.207 0-6.467 19.79h-9.701l6.467-19.79zm-6.468-19.791-7.244 19.79H52.868l7.114-19.79zm27.683-20.306-7.244 19.79H80.421l7.244-19.79zm7.371 20.306-6.468 19.79h-9.83l6.597-19.79zm32.596-84.592-26.904 59.241c-5.561-.647-10.735-2.587-15.133-5.691l27.809-61.31c5.303 1.552 10.219 4.139 14.228 7.76" opacity=".24"/><path stroke="#fce63c" stroke-miterlimit="10" stroke-width=".194" d="M72.271 251.165v15.392m6.339-15.392v15.392m6.338-15.392v15.392m6.467-15.392v15.392m6.337-15.392v15.392m6.338-15.392v15.392m6.468-15.392v15.392m6.338-15.392v15.392m6.466-15.392v15.392m6.338-15.392v15.392m6.339-15.392v15.392m6.467-15.392v15.392m-87.565 5.949v15.522m6.468-15.522v15.522m6.338-15.522v15.522m6.336-15.522v15.522m6.47-15.522v15.522m6.338-15.522v15.522m6.336-15.522v15.522m6.47-15.522v15.522m6.335-15.522v15.522m6.339-15.522v15.522m6.467-15.522v15.522m6.338-15.522v15.522M8.375 291.262v15.392m6.338-15.393v15.393m6.467-15.393v15.393m6.339-15.393v15.393m6.337-15.393v15.393m6.468-15.393v15.393m6.336-15.393v15.393m6.47-15.393v15.393m6.335-15.393v15.393m6.339-15.393v15.393m6.467-15.393v15.393m6.339-15.393v15.393m6.338-15.393v15.393"/><path fill="#59361c" d="M120.776 170.582h-12.029v138.271h12.029z" opacity=".44"/><path fill="#90a2a2" d="M480.228 61.027V293.85L443.347 309l-50.235 15 3.817-313.676 46.306 28.197z"/><path fill="#90a2a2" d="M480.227 61.027v232.822L443.234 309V38.52z" opacity=".07"/><path fill="#bcd1d4" d="M396.93 10.324 393.638 324l-280.622-7.127V10.323z"/><path fill="#4f5656" d="m368.085 269.273-217.171 14.099-12.029-254.036 229.2 6.726z"/><path fill="#b4f26a" d="m196.314 63.226-36.346 55.101c-.258.388-.776.517-1.164.129-33.5-26.127-59.499-52.643-81.617-79.418-.388-.388-.259-1.035.259-1.293 19.402-10.736 33.5-23.283 42.425-37.381.259-.388.906-.518 1.294-.13 20.048 20.049 45.4 40.744 75.149 61.828.13.388.259.905 0 1.164"/><path fill="#b4f26a" d="m196.314 63.225-36.346 55.101c-.259.388-.776.518-1.164.259-33.501-26.128-59.499-52.644-81.617-79.418-.259-.388-.13-1.035.258-1.294 19.532-10.735 33.63-23.282 42.426-37.38.259-.389.905-.518 1.293-.13a394 394 0 0 0 10.477 10.089h-18.496v4.14h23.024c17.202 15.52 37.38 31.43 60.145 47.598.13.259.259.776 0 1.035"/><path fill="#d8ffba" d="m186.096 64.649-28.198 44.624c-.258.388-.646.388-1.034.129-28.327-22.765-50.575-45.53-69.589-68.553-.258-.388-.258-.776.13-1.035 15.651-8.407 26.904-18.237 33.759-29.75.259-.387.647-.387 1.035-.129 17.073 17.203 38.674 35.183 63.767 53.679.259.259.259.776.13 1.035"/><path fill="#b4f26a" d="m168.377 274.189 17.849-26.774L147.035 183l-18.368 41.52c-.388.906-.258 2.07.389 2.846z"/><path fill="#d8ffba" d="m169.539 269.661 15.78-23.67-34.665-57.041-16.297 36.734c-.388.776-.259 1.811.388 2.457z"/><path fill="#b4f26a" d="m261.117 59.346-82.652 7.372L198.384 23c29.621 2.2 53.679 6.08 68.036 12.935zm-96.752 193.63 19.79-17.85-29.232-107.615-29.232 34.794c-.647.776-.776 1.94-.388 2.845z"/><path stroke="#70894c" stroke-miterlimit="10" stroke-width=".389" d="m136.039 188.95 28.326 64.026 19.79-17.85-29.103-107.615"/><path fill="#d8ffba" d="m251.027 59.345-58.076 5.174c-2.587.258-4.528-2.458-3.493-4.916l12.547-27.55a3.73 3.73 0 0 1 3.363-2.07c20.954 1.682 38.286 4.398 49.669 9.054a3.5 3.5 0 0 1 2.069 4.01l-3.104 13.71c-.259 1.424-1.552 2.458-2.975 2.588m-89.766 177.204 15.909-14.357-23.411-86.403-23.412 27.939a2.17 2.17 0 0 0-.259 2.328z"/><path fill="#b4f26a" d="m338.076 66.2-69.33-6.855 31.431-36.992c29.621 2.198 46.953 3.233 61.181 10.089z"/><path fill="#d8ffba" d="m332.646 64.907-56.912-5.562 25.739-30.396c24.317 1.81 38.416 2.716 50.187 8.278z"/><path fill="#4f5656" d="m368.473 270.049-214.456 13.323-1.034-20.437-10.865-220.146 6.467-3.751 219.888 10.089z" opacity=".4"/><path fill="#b3c7c6" d="M372.353 45.505v227.26l-23.929 1.552L169.798 285.7l-11.9.776-11.512-239.548-.388-7.89 11.253.388L337.3 44.599z"/><path fill="#90a2a2" d="M372.354 45.506v227.26l-23.929 1.552L337.301 44.6z" opacity=".15"/><path fill="#859392" d="M266.161 237.842c38.289 0 69.329-33.24 69.329-74.244s-31.04-74.245-69.329-74.245c-38.29 0-69.33 33.241-69.33 74.245s31.04 74.244 69.33 74.244"/><path fill="#fffeff" d="M333.162 163.856c0 41.003-31.043 74.245-69.329 74.245a66.04 66.04 0 0 1-28.456-6.467c-24.058-11.642-40.873-37.511-40.873-67.648 0-41.003 31.043-74.245 69.329-74.245 6.467 0 12.805.906 18.755 2.716 29.103 8.667 50.574 37.252 50.574 71.399"/><path fill="#b3c7c6" d="M333.163 163.857c0 41.003-31.043 74.244-69.33 74.244a66.04 66.04 0 0 1-28.456-6.467c38.545-40.226 54.067-86.661 47.211-139.176 29.103 8.666 50.575 37.252 50.575 71.399" opacity=".23"/><path fill="#464648" d="M290.348 164.891c0 18.238-11.9 32.983-26.645 32.983-2.717 0-5.304-.517-7.761-1.422-10.995-4.139-18.885-16.686-18.885-31.561 0-18.237 7.244-34.147 21.989-34.147 5.95 0 12.159 1.552 17.462 5.174 8.019 5.174 13.84 14.487 13.84 28.973"/><path fill="#464648" d="M290.347 164.891c0 18.238-11.9 32.983-26.645 32.983-2.717 0-5.303-.517-7.761-1.422l-9.572-55.36 30.138-5.174c8.019 5.174 13.84 14.487 13.84 28.973" opacity=".54"/><path fill="#757376" d="M282.977 164.892c0 15.521-8.666 28.585-20.437 32.078-1.94.646-4.01.905-6.208.905-3.234 0-6.468-.776-9.313-2.069-3.622-1.682-6.856-4.269-9.572-7.632-2.587-3.233-4.656-7.243-6.079-11.641-1.164-3.622-1.682-7.502-1.682-11.641 0-15.392 8.408-28.327 19.92-31.948 2.198-.647 4.397-1.035 6.726-1.035 1.552 0 2.974.129 4.397.517 3.881.776 7.502 2.587 10.607 5.303 4.397 3.622 7.76 8.925 9.701 15.134 1.293 3.622 1.94 7.761 1.94 12.029"/><path fill="#8fa3a2" d="M253.484 61.156h15.263l-7.631 17.074zm-3.879 203.461h15.263l-7.631-17.203zm-79.031-110.073.776 15.263 15.004-8.407z"/><path fill="#90a2a2" d="M384.512 103.71h-33.63c-1.552 0-2.845-1.293-2.845-2.845V77.453c0-1.552 1.293-2.845 2.845-2.845h33.63c1.553 0 2.846 1.293 2.846 2.845v23.412c0 1.552-1.293 2.845-2.846 2.845"/><path fill="#cfe0e2" d="M383.607 101.9h-35.44c-1.552 0-2.846-1.293-2.846-2.845V75.643c0-1.552 1.294-2.846 2.846-2.846h35.44c1.553 0 2.846 1.294 2.846 2.846v23.412c-.129 1.552-1.293 2.845-2.846 2.845"/><path fill="#bcd1d4" d="M383.607 101.9h-33.63c-1.552 0-2.845-1.294-2.845-2.846v-21.6c0-1.553 1.293-2.846 2.845-2.846h33.63c1.552 0 2.846 1.293 2.846 2.845v21.6c-.13 1.553-1.294 2.847-2.846 2.847"/><path fill="#cfe0e2" d="m260.728 132.296-23.282 55.748c-2.587-3.234-4.657-7.244-6.08-11.641l18.238-43.59c2.199-.647 4.398-1.035 6.726-1.035 1.552.13 2.975.259 4.398.518m20.307 20.437-18.497 44.366c-1.94.646-4.009.905-6.208.905-3.234 0-6.468-.776-9.313-2.069l24.317-58.206c4.268 3.492 7.761 8.796 9.701 15.004" opacity=".15"/><path fill="#b3c7c6" d="m372.353 45.505-35.053-.906-180.049-5.173-11.253-.389.388 7.89 11.512 239.549 11.9-.776-12.159-238.514 214.714 4.657z"/><path fill="#b3c7c6" d="M396.93 10.324v4.139H136.039a1483 1483 0 0 0-4.527-4.14z" opacity=".62"/><path fill="#f7931e" d="M400.131 373.225c2.613-3.712 9.075-9.9 15.4-15.262 11.549-8.937 14.437-27.911 2.887-31.486-21.999-4.675-60.635 22.136-65.723 24.199 0 .55-.137 1.512 0 4.262 2.2 0 4.675-.137 7.425-.137 9.35-.138 10.725-.138 12.237.825.963.55 2.75 3.3 3.713 11.274.687-.412 7.424-4.537 14.437-2.2 6.599 1.925 9.212 7.563 9.624 8.525"/><path fill="#f7ab1e" d="M400.131 368.826c2.613-3.713 9.075-9.9 15.4-15.262 11.549-8.938 12.512-24.887 2.887-27.225-21.999-4.674-37.123 5.5-42.211 7.425-8.249 3.3-20.487 11.412-23.511 16.637 2.199 0 4.674-.137 7.424-.137 9.35-.138 10.725-.138 12.237.825.963.55 4.263 2.887 4.675 10.999.688-.412 6.6-4.262 13.612-1.925 6.463 2.2 9.075 7.838 9.487 8.663"/><path fill="#f7931e" d="M491.567 365.938c-2.612-3.713-9.075-9.9-15.399-15.262-11.55-8.937-11.137-29.424-1.238-31.487 21.999-4.674 60.636 22.137 65.723 24.2-.55 1.375-.688 1.65-1.65 4.262-2.2 0-4.675-.138-7.425-.138-9.349-.137-10.037-.55-11.549.413-.963.55-1.925 4.125-2.75 11.825-.688-.413-9.075-4.813-16.087-2.613-6.737 2.338-9.35 7.975-9.625 8.8"/><path fill="#f7ab1e" d="M493.217 361.676c-2.613-3.713-9.075-9.9-15.4-15.262-11.549-8.938-12.512-24.887-2.887-27.225 21.999-4.674 37.123 5.5 42.211 7.425 8.249 3.3 20.487 11.412 23.511 16.637-2.199 0-4.674-.137-7.424-.137-9.35-.138-10.725-.138-12.237.825-.963.55-4.263 2.887-4.675 10.999-.688-.412-6.6-4.262-13.612-1.925-6.6 2.063-9.212 7.7-9.487 8.663"/><path fill="#38c266" d="m510.954 293.194 1.375 11.687-8.525-3.3-3.85 4.675-5.087-2.475-10.725-18.974-.412-.825-28.874-51.423s34.786 5.362 49.361 21.724c14.574 16.224 17.049 41.111 17.049 41.111l-9.075-1.925-1.1-.275zm-123.334 0s-3.712-.138-9.35-2.2c-1.925-.688-4.125-1.513-6.462-2.75-5.775-2.888-12.512-7.7-19.112-15.125-17.462-19.524-15.949-28.874-15.949-28.874l11.549 2.475s-18.424-10.449-21.311-27.086 0-24.2 0-24.2l-2.888-14.849s19.799 19.249 24.887 19.524c5.087.413.412-16.774-3.3-19.524-3.575-2.75-6.187-5.087-6.187-5.087s18.012-2.475 33.136 21.036c15.125 23.375 25.299 43.311 34.649 46.611 9.487 3.163-19.662 50.049-19.662 50.049"/><path fill="#0a6127" d="m512.464 304.744-8.524-3.3-3.85 4.675-5.088-2.475-10.724-18.975-.413-.825-3.712-36.848s3.575.962 18.699 14.437c7.975 7.149 11.137 20.487 12.375 31.486h-.275z"/><path fill="#38c266" d="M494.73 308.731c-6.6 10.175-16.637 18.562-18.424 19.937 1.375-1.238 7.287-6.462-4.675.55-13.337 7.975-45.924 4.675-45.924 4.675s21.312 5.087-6.462 0c-27.774-5.088-39.736-29.562-39.736-29.562-6.875-20.212 5.775-30.661 7.15-54.585 1.375-23.925 14.987-10.45 22.411-13.612s5.225-12.65 5.225-12.65l47.024-3.987v.412l.412 11 .275 6.462 14.85 7.425s17.736 12.374 23.099 27.086c5.5 14.575-1.65 31.349-5.225 36.849"/><path fill="#6dd38f" d="M445.368 312.443s-24.062 6.875-36.024-6.187-10.174-23.65-7.562-33.549c2.475-9.9 3.575-3.3 3.575-3.3s8.937-14.025 17.324-14.85l8.25-.687-5.087-2.2s16.637-.138 26.399 7.287c9.762 7.562 2.887-1.512 2.887-1.512s13.887 10.449 12.375 23.511c-1.65 13.063-4.812 24.887-22.137 31.487"/><path fill="#38c266" d="M417.181 234.346s9.488-3.437 16.5-2.75l7.012.688-7.012-4.125s5.5-.963 14.162 3.025"/><path stroke="#0a6127" stroke-miterlimit="10" stroke-width=".194" d="M375.659 266.519s-11.55-9.074-13.337-13.062c-1.788-3.987-1.375-1.787-1.375-1.787s10.862 5.087 14.849 4.675m1.787-8.25s-4.812-1.925-7.012-6.875l-2.2-4.95s4.95 4.263 9.212 4.95c4.125.687-3.3-2.475-4.537-7.012-1.238-4.538-1.375-4.538-1.375-4.538s2.475 4.813 7.15 4.538"/><path fill="#0a6127" d="M383.082 269.407s-2.612 10.725-4.812 21.587c-1.925-.687-4.125-1.512-6.462-2.75z"/><path stroke="#0a6127" stroke-miterlimit="10" stroke-width=".194" d="M326.846 195.572c3.575 5.775 7.287 10.862 10.862 14.3l14.437 13.337m-20.485-3.575s1.1 9.762 12.237 17.874m6.6 26.263s6.05 7.837 10.449 11.137m-8.25-92.947c.962.137 10.312 5.225 15.537 12.787"/><path fill="#0a6127" d="m462.006 231.047-27.912-8.113 27.5-2.887z"/><path fill="#38c266" d="M494.729 195.435c-.275-3.163-1.1-6.188-2.475-8.937.138-3.163.275-6.738.275-10.588 0-26.811-17.049-48.948-39.461-53.623-2.612-2.475-5.912-5.087-8.662-5.912L439.181 115v3.575s-7.562-1.375-10.174-.688c-1.513.413-1.238 3.85-.688 6.6-18.699 7.562-32.036 27.637-32.036 51.423 0 1.1 0 2.063.137 3.025-2.75 3.988-2.612 8.937-2.612 13.337 0 9.075 6.875 16.362 15.537 16.362 1.375 0 .825-.137 2.062-.55 2.338 10.862 10.862 16.775 42.486 16.775 17.875.137 42.624-9.212 40.836-29.424"/><path fill="#0a6127" d="M473.693 182.235c-1.1 5.5-3.025 10.45-5.224 14.712-.688-.137-1.375-.137-2.338-.275-.412 0-.825-.137-1.375-.137a44.1 44.1 0 0 0 5.775-14.85c3.025-14.574-.55-27.636-8.112-29.149-7.563-1.512-16.225 8.937-19.25 23.512-.687 3.025-.962 5.912-1.1 8.662-.55-.55-1.1-1.237-1.787-1.925.137-2.337.55-4.675 1.1-7.15 3.575-17.187 13.75-29.561 22.687-27.636 8.937 1.65 13.337 17.049 9.624 34.236"/><path fill="#fff" d="M462.555 152.261c-7.562-1.65-16.224 8.937-19.249 23.511-.687 3.025-.962 5.913-1.1 8.663.413.412.688.825.963 1.1 1.1 1.237 1.649 2.2 3.162 3.575 2.75 2.337 5.362 3.299 8.387 4.399 2.613.963 5.912 2.2 10.175 2.75a44.1 44.1 0 0 0 5.775-14.849c3.024-14.437-.55-27.499-8.113-29.149m1.238 25.986c-1.925 7.7-6.6 13.062-10.587 12.1-3.988-.963-5.638-7.975-3.85-15.675 1.787-7.699 6.6-13.062 10.587-12.099 3.987 1.1 5.637 8.112 3.85 15.674"/><path fill="#00371d" d="M459.943 162.711c-3.988-.962-8.662 4.4-10.587 12.1s-.138 14.574 3.85 15.674c3.987.963 8.662-4.4 10.587-12.099 1.787-7.7.137-14.712-3.85-15.675m-.688 7.975c-1.237 2.475-3.162 3.85-4.537 3.162-1.237-.687-1.237-3.025 0-5.5s3.162-3.849 4.4-3.162c1.237.688 1.375 3.025.137 5.5"/><path fill="#0a6127" d="M421.306 158.173a54.8 54.8 0 0 1-2.338 12.1c-.137.275-.137.55-.275.825 1.375-4.95 2.063-9.487 1.925-13.2-.137-4.399-1.237-7.562-3.437-8.112-3.987-1.237-9.9 6.875-13.337 18.012-1.925 6.462-2.613 12.512-1.925 16.637-.275.137-.55.275-.688.412-.962-4.537-.275-11.687 1.925-19.111 3.575-12.1 10.038-20.762 14.437-19.525 2.888.55 4.125 5.363 3.713 11.962"/><path fill="#00371d" d="M420.619 157.76c-.275-.137-.55-.275-.825-.275-3.987-.962-8.662 4.4-10.587 12.1-1.237 5.087-.825 9.9.688 12.925.825 0 1.65 0 2.612.137.55-.55 1.238-1.237 2.2-1.925 1.512-2.75 2.75-5.912 3.987-9.487 1.375-5.225 2.063-9.762 1.925-13.475m-1.925 5.088c-.412 1.925-1.65 3.3-2.612 3.025s-1.375-2.063-.962-3.85c.412-1.925 1.649-3.3 2.612-3.025.962.275 1.512 1.925.962 3.85"/><path fill="#fff" d="M420.618 157.761c-.275-.138-.55-.275-.825-.275-3.987-.963-8.662 4.399-10.587 12.099-1.237 5.087-.825 9.9.688 12.925-2.75 0-4.813.55-6.325 1.1-.688.275-1.1.412-1.65.687-.55-4.125 0-10.312 1.925-16.637 3.3-11.137 9.35-19.112 13.337-18.012 2.2.55 3.3 3.713 3.437 8.113"/><path fill="#fff" d="M418.694 162.848c-.413 1.925-1.65 3.3-2.613 3.025-.962-.275-1.374-2.062-.962-3.85.412-1.925 1.65-3.299 2.612-3.024s1.513 1.924.963 3.849m40.561 7.837c-1.237 2.475-3.162 3.85-4.537 3.162-1.238-.687-1.238-3.025 0-5.499 1.237-2.475 3.162-3.85 4.4-3.163 1.237.688 1.374 3.025.137 5.5"/><path fill="#f7931e" d="M469.842 197.36q-.619-.413-1.237-.413c-.688-.137-1.375-.137-2.338-.275-.412 0-.825-.137-1.375-.137-4.262-.688-7.562-1.788-10.174-2.75-3.025-1.1-5.638-2.063-8.387-4.4-1.513-1.375-2.063-2.2-3.163-3.575-.275-.275-.55-.687-.962-1.1-.55-.55-1.1-1.237-1.788-1.925-2.2-2.2-5.362-4.675-9.349-5.637-3.163-.825-6.05-.55-8.525.137-3.025.688-5.225 2.063-6.05 2.475l-1.237.825c-.138.138-.275.275-.413.275-.962.688-1.65 1.375-2.2 1.925-.962-.137-1.787-.137-2.612-.137-2.75 0-4.813.55-6.325 1.1-.687.275-1.1.412-1.65.687-.275.138-.55.275-.687.413-1.513.825-3.025 1.65-5.913 2.75-1.237.55-2.337.825-3.162 1.237-.688.275-1.375.413-1.788.55-.137.413-1.237 3.162.275 5.637.55.825 1.1 1.375 1.788 1.65.825.55 1.65.688 2.062.825a8.5 8.5 0 0 0 3.713 0h-.275c.55.55 1.237 1.238 2.062 2.2 1.513 1.925 4.125 4.95 5.362 9.075.138.55.138.412.413 2.475.137 1.1.412 2.612.825 5.225.55 3.437.687 3.574.825 3.987.687 1.512 1.787 2.612 3.025 3.437 1.925 1.238 4.262 1.925 5.775 2.338 5.087 1.375 9.212.825 12.924.275 5.775-.825 10.037-2.475 14.987-4.263 1.925-.687 5.225-2.2 11.825-5.224 2.2-.963 4.125-1.925 6.737-3.3.962-.55 3.712-2.063 6.875-4.4 2.887-2.063 4.262-3.163 4.675-4.4.412-3.162-1.925-6.325-4.538-7.562m-7.424 7.837c-1.788.687-3.85 1.512-6.05 2.612q-2.681 1.238-4.538 2.063c-5.224 2.475-8.524 4.262-14.712 6.737-6.049 2.338-9.349 3.025-12.924 2.75-4.263-.275-6.875-1.787-7.7-2.337-1.237-.688-3.575-2.2-4.95-4.95-.55-1.1-.687-1.788-.825-2.613-.137-.687-.275-1.512-.825-2.75-.962-2.612-2.337-4.399-3.3-5.774s-2.337-3.025-4.262-4.813c.688-.137 1.375-.412 2.062-.687.688-.138 4.263-1.238 6.738-1.65 6.187-1.1 11.412.137 17.049 1.65 2.888.825 1.925.687 11.687 4.262.825.275 1.513.55 2.2.825 1.788.55 3.163 1.1 4.4 1.513 2.612.825 4.125 1.375 5.225 1.512.687.138 1.237.275 1.65.275 1.1.138 2.2.275 3.162.413q3.507.205 6.6 0c.825 0 1.65-.138 2.337-.275-.55.274-1.65.825-3.024 1.237"/><path fill="#753024" d="M451.831 203.546c-1.513 0-2.75-.137-3.988-.275-1.099-.137-2.062-.412-2.887-.687-.412-.138-1.1-.413-2.2-.55-1.237-.275-2.887-.55-4.812-.412-.413 0-.963 0-1.375.137h-.413c-.412 0-.962.137-1.512.275h-.138c-.55.137-1.099.275-1.374.412a8.7 8.7 0 0 0-2.888-1.924c-3.575-1.513-7.012-.138-8.8.412-3.712 1.375-6.049 3.575-9.212 6.6-.687.55-1.237 1.237-1.65 1.65-.137-.688-.275-1.513-.825-2.75-.962-2.613-2.337-4.4-3.3-5.775s-2.337-3.025-4.262-4.812c.688-.138 1.375-.413 2.062-.688.688-.137 4.263-1.237 6.738-1.65 6.187-1.1 11.412.138 17.049 1.65 2.888.825 1.925.688 11.687 4.263.825.275 1.513.55 2.2.825 1.788.55 3.163 1.1 4.4 1.512 2.887.962 4.4 1.512 5.5 1.787"/><path fill="url(#d)" d="M465.855 203.96c-.963.275-2.063.825-3.438 1.375-1.787.688-3.849 1.513-6.049 2.613a374 374 0 0 1-4.538 2.062c-5.225 2.475-8.524 4.262-14.712 6.737-6.05 2.338-9.349 3.025-12.924 2.75-4.263-.275-6.875-1.787-7.7-2.337-1.238-.688-3.575-2.2-4.95-4.95-.55-1.1-.914-2.444-1.051-3.269l1.509-1.509c3.162-3.025 5.857-5.122 9.432-6.497 1.787-.687 5.48-2.184 9.054-.671 1.375.55 2.091 1.359 2.641 1.909.413-.138.959-.262 1.509-.4.275 0 1.235-.377 1.51-.377h4.15c1.924-.138 1.643.102 3.018.377.962.275 1.851.617 2.263.755.825.275 1.541.617 2.641.754 1.1.138 1.506 0 3.018 0 .688.138 2.983.377 3.396.377 1.1.138 2.433.164 3.395.301 2.338.138 2.843.138 4.905 0 1.33-.089 2.096.138 2.921 0"/><path stroke="#0a6127" stroke-miterlimit="10" stroke-width=".389" d="M451.832 141.4c.962-3.025 3.437-5.363 6.462-6.05 3.162-.688 6.6.55 8.662 3.162m-55.275 2.061c.688-2.474 2.888-4.124 5.363-4.124 2.2 0 4.125 1.375 5.087 3.437"/><defs><linearGradient id="d" x1="410.6" x2="465.818" y1="209.699" y2="209.699" gradientUnits="userSpaceOnUse"><stop stop-color="#ff5547"/><stop offset="1" stop-color="#f44"/></linearGradient></defs></svg>