<svg xmlns="http://www.w3.org/2000/svg" width="419" height="434" fill="none" viewBox="0 0 419 434"><path fill="#b90c82" d="M293.189 430.247c-2.4 0-4.345-2.452-4.345-5.477s1.945-5.477 4.345-5.477 4.346 2.452 4.346 5.477-1.946 5.477-4.346 5.477"/><path fill="#f58f2d" d="M275.809 300.169c-1.267 0-2.294-1.294-2.294-2.891s1.027-2.89 2.294-2.89c1.266 0 2.293 1.294 2.293 2.89s-1.027 2.891-2.293 2.891"/><path fill="#2498c1" d="M359.819 223.188c-1.8 0-3.259-1.839-3.259-4.107s1.459-4.108 3.259-4.108 3.259 1.839 3.259 4.108-1.459 4.107-3.259 4.107m-38.143-85.959c-1.933 0-3.501-1.975-3.501-4.412s1.568-4.412 3.501-4.412 3.5 1.975 3.5 4.412-1.567 4.412-3.5 4.412"/><path fill="#bf0946" d="M168.381 52.944c-1.667 0-3.018-1.022-3.018-2.282s1.351-2.282 3.018-2.282 3.017 1.021 3.017 2.282c0 1.26-1.351 2.282-3.017 2.282m-43.816 63.29c-1.933 0-3.5-1.363-3.5-3.043s1.567-3.043 3.5-3.043 3.5 1.362 3.5 3.043c0 1.68-1.567 3.043-3.5 3.043"/><path fill="#f4892b" d="M38.743 271.263c-1.266 0-2.293-1.294-2.293-2.89s1.027-2.891 2.293-2.891 2.294 1.294 2.294 2.891-1.027 2.89-2.294 2.89"/><path fill="#b90c82" d="m91.854 424.315-11.105-5.477s3.138-1.674 2.897-9.889c-.12-8.216 10.501-21.756 10.501-21.756l3.38 1.217s-9.898 11.563-9.053 17.344 3.38 18.561 3.38 18.561"/><path fill="#d3d323" d="M77.008 230.946c-.966 1.065 2.052-8.215-1.69-14.453s-5.19-6.999-5.19-6.999l7.242-9.889c0 .153 7.966 22.213-.362 31.341"/><path fill="#d20d81" d="M23.293 144.532c-.604-.76-8.45-3.955-8.45-3.955v16.583z"/><path fill="#f7a02f" d="M77.37 151.53c-.604-.304-7.243-8.824-7.243-8.824s13.76-9.889 12.795-20.386c-1.086-10.65 5.311-22.821 5.311-22.821l4.345 12.475s-3.5 4.717-3.259 10.042c.242 5.477 3.139 8.215-2.293 13.236-5.432 5.02-9.656 16.278-9.656 16.278"/><path fill="#5abcd5" d="M165.363 161.115c-.241-.305-32.349-6.238-26.797-22.973 5.553-16.888 11.95-21.3 11.467-27.994s-1.569-2.282-1.569-2.282 14.123-12.475 14.123-11.715c0 .761 1.448 17.344-6.398 23.582-7.845 6.238-11.105 22.973.242 25.863 11.346 2.891 14.967 2.13 14.967 2.13z"/><path fill="#ee1a57" d="M269.048 168.112c-.724.761-8.57-7.302-8.57-7.302s3.983-5.173 5.191-16.127c1.207-10.802 1.81-13.54 1.81-13.54l8.812-1.522c.12.152.12 30.732-7.243 38.491"/><path fill="#d3d323" d="m270.136 67.855-13.519-3.043s5.915-9.89 4.466-20.235-2.293-14.3-2.293-14.3l13.519 4.107c0 .152 2.052 16.735-2.173 33.47"/><path fill="#f7a02f" d="M403.635 36.817s-10.501-11.715-11.346-9.128-5.19 28.298-4.466 28.298c.603 0 15.812-19.17 15.812-19.17"/><path fill="#ee1a57" d="M418.844 178.459c-1.69 1.521-7.242 8.824-7.242 8.824s-2.052-13.236-7.967-11.106-12.07 1.369-14.002-1.826c-1.81-3.043-1.931-2.282-1.931-2.282l4.949-13.693s3.863 9.129 8.811 10.346c4.949 1.369 11.105-.304 12.795 4.108s4.587 5.629 4.587 5.629"/><path fill="#d20d81" d="M348.594 81.85c-.241 2.13-2.293 12.933-2.293 12.933s-7.846-10.346-16.657-4.108-11.709 7.303-13.761.304-2.052-9.128-2.052-9.128l5.311-7.76s-.362 6.543 6.035 6.543 8.933-10.802 16.175-6.542 7.242 7.759 7.242 7.759"/><path fill="#f7a02f" d="m225.113 85.502 3.862-11.41s-10.742.304-14.605 5.629c-3.863 5.477-7.604 7.607-11.105 4.564-3.5-3.043-6.156-6.238-6.156-6.238v14.301s5.191 3.043 12.071-2.586c7.121-5.477 6.276-8.976 15.933-4.26"/><path fill="#d20d81" d="M163.673 14.3 162.586 0s-3.742 9.28-7.966 11.714-6.398-1.825-6.277 7.76 1.69 7.759 1.69 7.759 2.052-9.129 6.759-10.65c4.829-1.521 2.415 4.716 6.881-2.282"/><path fill="#ee1a57" d="M58.419 30.124c-.604-.305-10.501-5.63-10.501-5.63s1.086 9.89-6.398 23.886c-7.363 14.15-1.448 28.146-1.448 28.146s7.604-2.89 7.966-3.956-7.363-12.475 1.81-24.19c9.416-11.867 8.57-18.257 8.57-18.257"/><path fill="#6cc9db" d="M329.521 280.544s-5.311 3.955-5.914 3.955c-.604 0-14.605-4.564-16.054-8.976l-1.448-4.412 6.518-14.757s-1.811 8.215 6.156 14.148c7.966 5.934 10.742 10.042 10.742 10.042"/><path fill="#38c266" d="M177.366 231.778s8.978-19.993-.955-31.519c-4.776-5.539-5.54-6.049-5.54-6.049s-.891-4.903-4.967-6.94c-1.528-.764-2.61-1.274-3.374-1.528-.765-.319-1.592.127-1.847.891l-.127.382-3.375-.573c-.573-.127-1.146.191-1.401.7l-.828 1.465s-17.128-3.502-26.807 8.723c-9.678 12.162-11.843 18.148-11.843 18.148s-14.964 5.476-10.634 19.93 22.414 21.203 22.414 21.203l5.285-1.783-.191.892s13.308 8.66 33.492 1.719c12.735-4.521 11.589-22.286 10.698-25.661"/><path fill="#38c266" d="M176.538 201.023s.573.637 3.63 6.368c-.701-2.483-1.847-4.903-3.63-7.004zm-8.66 55.843c9.743-4.266 10.379-17.064 9.87-22.795-1.719 3.12-3.184 5.094-3.184 5.094.064 2.419-1.273 11.78-6.686 17.701m-33.62-62.273c12.162-9.743 28.08-2.547 28.08-2.547l1.147-1.21a1.275 1.275 0 0 1 1.528-.319l3.12 1.274.191-.382c.255-.446.7-.701 1.21-.701-.764-1.273-1.911-2.61-3.63-3.502-1.528-.764-2.61-1.273-3.375-1.528-.764-.318-1.591.128-1.846.892l-.127.382-3.375-.573c-.573-.128-1.146.191-1.401.7l-.828 1.465s-17.128-3.503-26.807 8.723c-2.674 3.375-4.775 6.24-6.431 8.66 2.42-2.547 6.368-6.368 12.544-11.334m-29.163 38.204c.128.764.319 1.592.573 2.42 4.33 14.454 22.414 21.203 22.414 21.203l.191-.063c-4.585-2.165-7.259-4.075-7.259-4.075s-11.907-7.705-15.919-19.485"/><path fill="#fff" d="M150.878 225.03c1.082 1.209 2.037 2.483 2.738 3.693.127.191.191.382.318.573 1.146 2.037 2.292 3.311 3.311 4.011 1.528-1.528 5.285-6.303 6.049-9.487.892-3.821.128-9.679-4.648-8.342-.255.064-.509.192-.764.255-3.693 1.656-6.24 7.386-7.004 9.297"/><path fill="#0a6127" d="M150.495 224.584c.192-.637.51-1.656 1.21-3.311 1.592-3.821 5.094-7.832 8.787-7.45 3.694.445 5.476 5.73 3.502 10.761-1.655 4.138-5.348 7.768-6.558 8.85l-.191-.127c1.528-1.528 5.285-6.304 6.049-9.487.892-3.821.127-9.679-4.648-8.342-4.012 1.146-6.877 7.514-7.705 9.551z"/><path fill="#fff" d="M120.76 215.923c1.464-.827 2.801-1.209 4.075-1.337 2.483-.191 4.457.637 5.603 1.274.255-.446.764-1.528 1.465-4.266.445-1.783.318-3.312-.191-4.33-.828-1.592-2.675-1.974-5.031-.191-2.674 2.101-4.839 6.431-5.921 8.85"/><path fill="#0a6127" d="M120.186 216.242c.127-1.401 2.674-7.514 5.922-10.252s7.386-2.738 7.195 2.165c-.127 3.757-1.783 6.686-2.547 7.896l-.318-.191c.254-.446.764-1.528 1.464-4.266 1.146-4.457-1.337-7.45-5.221-4.521-2.675 2.037-4.903 6.431-5.922 8.851zm15.409-12.734c-.382-1.465-.955-3.63-2.61-4.076-1.656-.318-3.566.319-4.394 1.783.573-.573 1.274-.891 2.038-1.082 1.018-.191 2.292-.382 3.056.382.764.891 1.337 1.974 1.91 2.993m33.811 7.13c-1.209-2.165-3.502-3.884-6.112-3.82-2.484.127-4.967 1.082-6.686 2.865a12.8 12.8 0 0 1 3.247-1.592c3.821-1.337 6.941-.573 9.551 2.547"/><path fill="#00371d" d="M150.878 225.029c1.082 1.21 2.037 2.483 2.738 3.693 2.483.064 4.966-1.528 6.303-4.202 1.592-3.311.701-7.195-2.037-8.787-3.693 1.655-6.24 7.386-7.004 9.296m-26.043-10.443c2.483-.191 4.457.637 5.603 1.274.255-.446.764-1.529 1.465-4.267.445-1.782.318-3.311-.191-4.329-2.484-.064-5.031 1.782-6.241 4.648a8.2 8.2 0 0 0-.636 2.674"/><path fill="#38c266" d="M73.767 229.55s13.244 27.062 24.96 37.95c1.942 1.802 3.439 3.241 4.585 4.394 3.4 3.413 3.757 4.266 3.757 4.266s-7.195 14.836-5.858 28.081c.891 8.659 4.775 12.926 4.775 12.926s.128 11.716 7.896 15.154c7.768 3.502 13.69.446 13.69.446s10.697 1.592 17.574-.191c6.877-1.847 5.285-1.083 5.285-1.083s12.162 5.285 23.942-6.813c11.779-12.162 2.483-26.552-3.248-32.155-5.552-5.426-6.978-6.553-7.061-6.616h-.007s2.465.395 7.177-.204c3.444-.446 8.08-1.426 13.836-3.496 13.626-4.903 27.189-12.989 30.882-16.364s4.585-5.285 4.585-5.285l-8.469 1.974s6.176-5.285 7.132-6.75c.955-1.401-2.611.955-2.802 1.083l4.903-6.941s-6.75 2.929-9.742 3.63l-3.057.7s3.12-5.221 3.375-8.66l.191-3.438s-15.091 10.825-32.92 15.409c-5.858 1.465-10.633 2.038-14.39 2.101-2.101 0-3.948-.063-5.476-.254-4.012-.51-5.922-1.528-5.922-1.528s-12.416-1.401-19.803-2.038c-.955-.064-1.846-.127-2.61-.191-1.337-.064-2.293-.127-2.611-.064-1.783.319-15.409-10.952-15.409-10.952s-11.844-8.341-15.091-14.518l-3.248-6.176v5.731s-9.232-7.068-10.315-8.724c-.891-1.337-1.019-1.591-1.082-1.655.063.318 1.019 5.794 1.974 7.895l.955 2.165-10.06-4.138s.89 2.101 2.419 4.902 1.847 3.821 1.847 3.821z"/><path fill="#00371d" d="M103.312 271.894c3.4 3.413 3.757 4.266 3.757 4.266s.637-2.42 2.038-5.413c1.381-2.948 10.531-11.939 10.818-12.219-14.811 10.558-16.613 13.327-16.613 13.366m50.692 3.126c.204.286 6.692 9.468 10.054 10.882 0 0 2.464.401 7.176-.198 0 0-7.94-3.559-12.588-7.125-4.356-3.343-4.629-3.553-4.642-3.559" opacity=".5"/><path fill="#38c266" d="M178.13 319.395s5.412-13.499 5.858-19.994l.446-6.495-3.12 2.611s1.528-4.203 1.846-6.814l.318-2.61s-2.801 7.704-10.315 7.068c-7.45-.637-2.165-.573 0 2.61 2.165 3.12 6.177 16.492 6.177 16.492z"/><path fill="#0a6127" d="M139.288 330.741c.121 0 3.025-.114 9.023-4.533 5.616-4.095 5.724-16.231 5.705-18.148.121.134.319.281.548.249.535-.07 1.012-1.025 1.42-2.84.496-2.222-.21-5.629-.885-8.1-.471-1.725-1-3.241-1.312-4.107.446.688.962 1.376 1.197 1.268.115-.051.331-.153-.528-2.598-1.834-5.304-7.533-12.118-7.59-12.188l-.121.102c.057.07 5.743 6.864 7.564 12.137.739 2.12.637 2.375.605 2.407-.165 0-.866-.975-1.413-1.898l-.141.07c.032.089 3.42 8.685 2.477 12.881-.509 2.28-1.025 2.681-1.286 2.719-.312.039-.541-.375-.541-.382l-.159-.299.012.337c0 .141.376 13.888-5.635 18.275-5.947 4.381-8.901 4.502-8.933 4.508v.159zm-35.231-31.652.16-.013c-.516-6.31.624-10.768 1.05-12.168v2.642l1.809-4.381c1.63-3.947 8.373-8.895 8.443-8.946l-.096-.127s-1.732 1.267-3.623 2.992c-1.751 1.599-4.011 3.935-4.877 6.024l-1.503 3.642v-2.776l-.153.408s-.471 1.26-.847 3.438c-.35 2.006-.694 5.247-.369 9.271zm9.966 27.43.102-.121c-.051-.044-5.432-4.756-8.132-9.277l-.133.083c2.712 4.54 8.112 9.271 8.169 9.315zm15.899 6.642.013-.16c-3.261-.312-8.711-2.457-8.768-2.477l-.058.147c.058.019 5.527 2.171 8.806 2.49zm16.001-.765c6.559-1.006 11.946-3.992 11.997-4.017l-.077-.14c-.051.031-5.412 2.999-11.945 4.005l.025.159z"/><path fill="#f7ab1e" d="M192.011 344.929s-10.506-1.083-15.6 2.356-4.521 3.438-4.521 3.438-4.521-2.42-7.577-2.993-6.368 0-6.368 0 1.911-11.461 13.245-13.753c11.27-2.293 20.821 10.952 20.821 10.952m-70.869-.701s-10.061.573-14.709 2.038l-4.648 1.528s-2.356-5.54-6.75-5.986c-4.33-.445-7.577.892-7.577.892s30.627-17.32 33.684 1.528"/><path fill="#0a6127" d="M148.884 260.382c2.891 0 5.967-.21 9.15-.745a2.5 2.5 0 0 1 .344-.057c.134-.02.261-.039.382-.077l-.102-.299c-.089.032-.203.044-.318.057a3 3 0 0 0-.369.064c-12.71 2.114-23.674-.853-27.801-2.229-1.311-.439-2.018-.757-2.024-.757-18.167-7.877-22.478-20.93-22.478-20.93 4.305 14.365 22.178 21.159 22.357 21.222.019.007.713.325 2.044.765 3.113 1.037 10.105 2.979 18.815 2.979zm9.978-.873c2.464-.42 5.381-1.171 8.221-2.222 0 0-5.827 1.49-8.278 1.91l.051.312z"/><path fill="#f7ab1e" d="M116.557 227.449c3.247 4.711 6.303 7.386 6.112 11.525-.127 4.138-2.356 15.473 3.439 17.319 5.794 1.847 13.435-1.974 22.795-9.869 6.941-5.795 11.016-4.649 12.863-6.941s1.018-4.903-1.274-5.094c0 0-1.337.191-3.12-1.019-.064-.063-.127-.063-.191-.127-1.019-.764-2.165-1.974-3.311-4.012-.764-1.4-1.847-2.865-3.056-4.266l-.382-.382c-3.821-4.202-9.233-7.768-13.308-7.832l-5.604-.127s-.255-.255-.764-.573c-.127-.064-.191-.128-.318-.191-1.783-1.019-5.413-2.42-9.679.063-.063 0-.063.064-.127.064-.127.064-.319.191-.446.255-5.667 3.502-6.749 6.622-3.629 11.207"/><path fill="#0a6127" d="m95.474 251.365.14-.077c-.694-1.343-1.916-5.164-2.4-6.711l.541.93c.892 1.528 3.731 3.082 3.852 3.152l.599.324-1.72-1.541c-.98-.929-2.61-5.654-3.011-6.832l1.757 1.477c1.955 1.643 7.909 5.508 7.966 5.546l.089-.133c-.057-.038-6.004-3.904-7.953-5.534l-2.184-1.833.083.267c.083.248 1.993 6.081 3.14 7.163l.61.548c-.917-.567-2.496-1.649-3.1-2.681l-1.236-2.114.197.65c.02.057 1.732 5.692 2.618 7.399z"/><path fill="#560226" d="M119.804 227.958c2.993 3.311 5.412 3.057 5.285 9.233 0 1.019-.127 2.038-.255 3.12-.573 5.667-1.719 12.098 3.248 12.926 5.858.955 10.379-1.083 18.529-8.532 1.083-1.019 2.038-1.847 2.802-2.547.127-.064.191-.191.254-.255 3.821-3.311 4.776-3.693 4.967-3.693-.573-.319-4.202-2.484-7.959-6.813-4.075-4.776-15.855-12.29-21.586-11.143-5.603 1.273-8.214 4.393-5.285 7.704"/><path fill="#0a6127" d="M130.52 262.934h.293l-1.012-2.33.847.598c.923.65 3.26 1.293 4.387 1.598.21.058.375.102.471.134l.045-.153c-.102-.031-.268-.076-.478-.133-1.114-.306-3.438-.943-4.336-1.573l-1.318-.93 1.146 2.636c-.554 0-3.012-.051-4.61-1.26l-.096.127c1.586 1.203 3.986 1.293 4.649 1.293z"/><path fill="#b52d51" d="M128.081 253.236c5.858.956 10.379-1.082 18.53-8.532 1.082-1.019 2.037-1.846 2.801-2.547-.891-.955-3.056-2.929-5.73-3.12-3.502-.318-4.712-.191-5.667-1.146s-6.75-1.592-10.698.637c-1.082.573-1.846 1.209-2.483 1.783-.573 5.73-1.656 12.161 3.247 12.925"/><path fill="#00371d" d="M143.554 222.163s.51-1.401-.318-1.655c-.828-.255-1.656 0-1.656 0s1.656.254 1.974 1.655"/><path fill="#00371d" d="M130.183 257.248c6.813 2.866 16.81 5.731 28.335 4.458 2.356-.255 4.457-1.019 6.177-2.165-2.102 0-3.948-.064-5.476-.255-.128 0-.319.064-.446.064-.255.063-.51.063-.701.127-12.671 2.101-23.495-.828-27.889-2.229" opacity=".5"/><path fill="#fff" d="M157.773 219.485c-.318-.969-.17-1.888.331-2.052.502-.165 1.166.487 1.484 1.456s.169 1.888-.332 2.053c-.501.164-1.165-.488-1.483-1.457m-29.539-9.602c-.231-.475.326-1.221 1.243-1.666.918-.446 1.848-.422 2.079.052.23.475-.327 1.22-1.244 1.666s-1.848.422-2.078-.052"/></svg>