<svg width="419" height="434" viewBox="0 0 419 434" fill="none" xmlns="http://www.w3.org/2000/svg">
<path d="M293.189 430.247C290.789 430.247 288.844 427.795 288.844 424.77C288.844 421.745 290.789 419.293 293.189 419.293C295.589 419.293 297.535 421.745 297.535 424.77C297.535 427.795 295.589 430.247 293.189 430.247Z" fill="#B90C82"/>
<path d="M275.809 300.169C274.542 300.169 273.515 298.875 273.515 297.278C273.515 295.682 274.542 294.388 275.809 294.388C277.075 294.388 278.102 295.682 278.102 297.278C278.102 298.875 277.075 300.169 275.809 300.169Z" fill="#F58F2D"/>
<path d="M359.819 223.188C358.019 223.188 356.56 221.349 356.56 219.081C356.56 216.812 358.019 214.973 359.819 214.973C361.619 214.973 363.078 216.812 363.078 219.081C363.078 221.349 361.619 223.188 359.819 223.188Z" fill="#2498C1"/>
<path d="M321.676 137.229C319.743 137.229 318.175 135.254 318.175 132.817C318.175 130.38 319.743 128.405 321.676 128.405C323.609 128.405 325.176 130.38 325.176 132.817C325.176 135.254 323.609 137.229 321.676 137.229Z" fill="#2498C1"/>
<path d="M168.381 52.9438C166.714 52.9438 165.363 51.9221 165.363 50.6617C165.363 49.4014 166.714 48.3796 168.381 48.3796C170.047 48.3796 171.398 49.4014 171.398 50.6617C171.398 51.9221 170.047 52.9438 168.381 52.9438Z" fill="#BF0946"/>
<path d="M124.565 116.234C122.632 116.234 121.065 114.871 121.065 113.191C121.065 111.51 122.632 110.148 124.565 110.148C126.498 110.148 128.065 111.51 128.065 113.191C128.065 114.871 126.498 116.234 124.565 116.234Z" fill="#BF0946"/>
<path d="M38.7432 271.263C37.4766 271.263 36.4498 269.969 36.4498 268.373C36.4498 266.776 37.4766 265.482 38.7432 265.482C40.0098 265.482 41.0366 266.776 41.0366 268.373C41.0366 269.969 40.0098 271.263 38.7432 271.263Z" fill="#F4892B"/>
<path d="M91.8537 424.315L80.7489 418.838C80.7489 418.838 83.8872 417.164 83.6458 408.949C83.5251 400.733 94.1471 387.193 94.1471 387.193L97.5269 388.41C97.5269 388.41 87.629 399.973 88.474 405.754C89.3189 411.535 91.8537 424.315 91.8537 424.315Z" fill="#B90C82"/>
<path d="M77.0078 230.946C76.0421 232.011 79.0598 222.731 75.3179 216.493C71.576 210.255 70.1276 209.494 70.1276 209.494L77.3699 199.605C77.3699 199.758 85.3364 221.818 77.0078 230.946Z" fill="#D3D323"/>
<path d="M23.293 144.532C22.6894 143.772 14.8436 140.577 14.8436 140.577V157.16L23.293 144.532Z" fill="#D20D81"/>
<path d="M77.3695 151.53C76.766 151.226 70.1272 142.706 70.1272 142.706C70.1272 142.706 83.8876 132.817 82.922 122.32C81.8356 111.67 88.233 99.499 88.233 99.499L92.5784 111.974C92.5784 111.974 89.0779 116.691 89.3193 122.016C89.5607 127.493 92.4577 130.231 87.0259 135.252C81.5942 140.272 77.3695 151.53 77.3695 151.53Z" fill="#F7A02F"/>
<path d="M165.363 161.115C165.122 160.81 133.014 154.877 138.566 138.142C144.119 121.254 150.516 116.842 150.033 110.148C149.551 103.454 148.464 107.866 148.464 107.866C148.464 107.866 162.587 95.3907 162.587 96.1513C162.587 96.912 164.035 113.495 156.189 119.733C148.344 125.971 145.084 142.706 156.431 145.596C167.777 148.487 171.398 147.726 171.398 147.726L165.363 161.115Z" fill="#5ABCD5"/>
<path d="M269.048 168.112C268.324 168.873 260.478 160.81 260.478 160.81C260.478 160.81 264.461 155.637 265.669 144.683C266.876 133.881 267.479 131.143 267.479 131.143L276.291 129.621C276.411 129.773 276.411 160.353 269.048 168.112Z" fill="#EE1A57"/>
<path d="M270.136 67.8546L256.617 64.8118C256.617 64.8118 262.532 54.9228 261.083 44.5774C259.635 34.232 258.79 30.2764 258.79 30.2764L272.309 34.3841C272.309 34.5363 274.361 51.1194 270.136 67.8546Z" fill="#D3D323"/>
<path d="M403.635 36.8171C403.635 36.8171 393.134 25.1025 392.289 27.6888C391.444 30.2752 387.099 55.9866 387.823 55.9866C388.426 55.9866 403.635 36.8171 403.635 36.8171Z" fill="#F7A02F"/>
<path d="M418.844 178.459C417.154 179.98 411.602 187.283 411.602 187.283C411.602 187.283 409.55 174.047 403.635 176.177C397.721 178.307 391.565 177.546 389.633 174.351C387.823 171.308 387.702 172.069 387.702 172.069L392.651 158.376C392.651 158.376 396.514 167.505 401.462 168.722C406.411 170.091 412.567 168.418 414.257 172.83C415.947 177.242 418.844 178.459 418.844 178.459Z" fill="#EE1A57"/>
<path d="M348.594 81.8509C348.353 83.9808 346.301 94.7827 346.301 94.7827C346.301 94.7827 338.455 84.4373 329.644 90.6749C320.832 96.9126 317.935 97.9776 315.883 90.9792C313.831 83.9808 313.831 81.8509 313.831 81.8509L319.142 74.0918C319.142 74.0918 318.78 80.6338 325.177 80.6338C331.575 80.6338 334.11 69.8319 341.352 74.0918C348.594 78.3517 348.594 81.8509 348.594 81.8509Z" fill="#D20D81"/>
<path d="M225.113 85.5022L228.975 74.0918C228.975 74.0918 218.233 74.3961 214.37 79.7209C210.507 85.1979 206.766 87.3279 203.265 84.2851C199.765 81.2423 197.109 78.0474 197.109 78.0474V92.3484C197.109 92.3484 202.3 95.3912 209.18 89.7621C216.301 84.2851 215.456 80.7859 225.113 85.5022Z" fill="#F7A02F"/>
<path d="M163.673 14.3008L162.586 -0.000244141C162.586 -0.000244141 158.844 9.28021 154.62 11.7144C150.395 14.1487 148.222 9.88877 148.343 19.4735C148.464 29.0582 150.033 27.2326 150.033 27.2326C150.033 27.2326 152.085 18.1043 156.792 16.5829C161.621 15.0615 159.207 21.2992 163.673 14.3008Z" fill="#D20D81"/>
<path d="M58.4189 30.1235C57.8154 29.8192 47.9176 24.4944 47.9176 24.4944C47.9176 24.4944 49.0039 34.3834 41.5202 48.3802C34.1572 62.5291 40.0718 76.5258 40.0718 76.5258C40.0718 76.5258 47.6762 73.6352 48.0383 72.5702C48.4004 71.5052 40.6753 60.0948 49.8488 48.3802C59.2638 36.5133 58.4189 30.1235 58.4189 30.1235Z" fill="#EE1A57"/>
<path d="M329.521 280.544C329.521 280.544 324.21 284.499 323.607 284.499C323.003 284.499 309.002 279.935 307.553 275.523L306.105 271.111L312.623 256.354C312.623 256.354 310.812 264.569 318.779 270.502C326.745 276.436 329.521 280.544 329.521 280.544Z" fill="#6CC9DB"/>
<path d="M177.366 231.778C177.366 231.778 186.344 211.785 176.411 200.259C171.635 194.72 170.871 194.21 170.871 194.21C170.871 194.21 169.98 189.307 165.904 187.27C164.376 186.506 163.294 185.996 162.53 185.742C161.765 185.423 160.938 185.869 160.683 186.633L160.556 187.015L157.181 186.442C156.608 186.315 156.035 186.633 155.78 187.142L154.952 188.607C154.952 188.607 137.824 185.105 128.145 197.33C118.467 209.492 116.302 215.478 116.302 215.478C116.302 215.478 101.338 220.954 105.668 235.408C109.998 249.862 128.082 256.611 128.082 256.611L133.367 254.828L133.176 255.72C133.176 255.72 146.484 264.38 166.668 257.439C179.403 252.918 178.257 235.153 177.366 231.778Z" fill="#38C266"/>
<path d="M176.538 201.023C176.538 201.023 177.111 201.66 180.168 207.391C179.467 204.908 178.321 202.488 176.538 200.387V201.023Z" fill="#38C266"/>
<path d="M167.878 256.866C177.621 252.6 178.257 239.802 177.748 234.071C176.029 237.191 174.564 239.165 174.564 239.165C174.628 241.584 173.291 250.945 167.878 256.866Z" fill="#38C266"/>
<path d="M134.258 194.593C146.42 184.85 162.338 192.046 162.338 192.046L163.485 190.836C163.867 190.39 164.503 190.263 165.013 190.517L168.133 191.791L168.324 191.409C168.579 190.963 169.024 190.708 169.534 190.708C168.77 189.435 167.623 188.098 165.904 187.206C164.376 186.442 163.294 185.933 162.529 185.678C161.765 185.36 160.938 185.806 160.683 186.57L160.556 186.952L157.181 186.379C156.608 186.251 156.035 186.57 155.78 187.079L154.952 188.544C154.952 188.544 137.824 185.041 128.145 197.267C125.471 200.642 123.37 203.507 121.714 205.927C124.134 203.38 128.082 199.559 134.258 194.593Z" fill="#38C266"/>
<path d="M105.095 232.797C105.223 233.561 105.414 234.389 105.668 235.217C109.998 249.671 128.082 256.42 128.082 256.42L128.273 256.357C123.688 254.192 121.014 252.282 121.014 252.282C121.014 252.282 109.107 244.577 105.095 232.797Z" fill="#38C266"/>
<path d="M150.878 225.03C151.96 226.239 152.915 227.513 153.616 228.723C153.743 228.914 153.807 229.105 153.934 229.296C155.08 231.333 156.226 232.607 157.245 233.307C158.773 231.779 162.53 227.004 163.294 223.82C164.186 219.999 163.422 214.141 158.646 215.478C158.391 215.542 158.137 215.67 157.882 215.733C154.189 217.389 151.642 223.119 150.878 225.03Z" fill="white"/>
<path d="M150.495 224.584C150.687 223.947 151.005 222.928 151.705 221.273C153.297 217.452 156.799 213.441 160.492 213.823C164.186 214.268 165.968 219.553 163.994 224.584C162.339 228.722 158.646 232.352 157.436 233.434L157.245 233.307C158.773 231.779 162.53 227.003 163.294 223.82C164.186 219.999 163.421 214.141 158.646 215.478C154.634 216.624 151.769 222.992 150.941 225.029L150.495 224.584Z" fill="#0A6127"/>
<path d="M120.76 215.923C122.224 215.096 123.561 214.714 124.835 214.586C127.318 214.395 129.292 215.223 130.438 215.86C130.693 215.414 131.202 214.332 131.903 211.594C132.348 209.811 132.221 208.282 131.712 207.264C130.884 205.672 129.037 205.29 126.681 207.073C124.007 209.174 121.842 213.504 120.76 215.923Z" fill="white"/>
<path d="M120.186 216.242C120.313 214.841 122.86 208.728 126.108 205.99C129.355 203.252 133.494 203.252 133.303 208.155C133.176 211.912 131.52 214.841 130.756 216.051L130.438 215.86C130.692 215.414 131.202 214.332 131.902 211.594C133.048 207.137 130.565 204.144 126.681 207.073C124.006 209.11 121.778 213.504 120.759 215.924L120.186 216.242Z" fill="#0A6127"/>
<path d="M135.595 203.508C135.213 202.043 134.64 199.878 132.985 199.432C131.329 199.114 129.419 199.751 128.591 201.215C129.164 200.642 129.865 200.324 130.629 200.133C131.647 199.942 132.921 199.751 133.685 200.515C134.449 201.406 135.022 202.489 135.595 203.508Z" fill="#0A6127"/>
<path d="M169.406 210.638C168.197 208.473 165.904 206.754 163.294 206.818C160.81 206.945 158.327 207.9 156.608 209.683C157.627 208.983 158.709 208.473 159.855 208.091C163.676 206.754 166.796 207.518 169.406 210.638Z" fill="#0A6127"/>
<path d="M150.878 225.029C151.96 226.239 152.915 227.512 153.616 228.722C156.099 228.786 158.582 227.194 159.919 224.52C161.511 221.209 160.62 217.325 157.882 215.733C154.189 217.388 151.642 223.119 150.878 225.029Z" fill="#00371D"/>
<path d="M124.835 214.586C127.318 214.395 129.292 215.223 130.438 215.86C130.693 215.414 131.202 214.331 131.903 211.593C132.348 209.811 132.221 208.282 131.712 207.264C129.228 207.2 126.681 209.046 125.471 211.912C125.089 212.803 124.898 213.695 124.835 214.586Z" fill="#00371D"/>
<path d="M73.767 229.55C73.767 229.55 87.0113 256.612 98.7274 267.5C100.669 269.302 102.166 270.741 103.312 271.894C106.712 275.307 107.069 276.16 107.069 276.16C107.069 276.16 99.8735 290.996 101.211 304.241C102.102 312.9 105.986 317.167 105.986 317.167C105.986 317.167 106.114 328.883 113.882 332.321C121.65 335.823 127.572 332.767 127.572 332.767C127.572 332.767 138.269 334.359 145.146 332.576C152.023 330.729 150.431 331.493 150.431 331.493C150.431 331.493 162.593 336.778 174.373 324.68C186.152 312.518 176.856 298.128 171.125 292.525C165.573 287.099 164.147 285.972 164.064 285.909H164.057C164.057 285.909 166.522 286.304 171.234 285.705C174.678 285.259 179.314 284.279 185.07 282.209C198.696 277.306 212.259 269.22 215.952 265.845C219.645 262.47 220.537 260.56 220.537 260.56L212.068 262.534C212.068 262.534 218.244 257.249 219.2 255.784C220.155 254.383 216.589 256.739 216.398 256.867L221.301 249.926C221.301 249.926 214.551 252.855 211.559 253.556L208.502 254.256C208.502 254.256 211.622 249.035 211.877 245.596L212.068 242.158C212.068 242.158 196.977 252.983 179.148 257.567C173.29 259.032 168.515 259.605 164.758 259.668C162.657 259.668 160.81 259.605 159.282 259.414C155.27 258.904 153.36 257.886 153.36 257.886C153.36 257.886 140.944 256.485 133.557 255.848C132.602 255.784 131.711 255.721 130.947 255.657C129.61 255.593 128.654 255.53 128.336 255.593C126.553 255.912 112.927 244.641 112.927 244.641C112.927 244.641 101.083 236.3 97.8359 230.123L94.5885 223.947V229.678C94.5885 229.678 85.3557 222.61 84.2733 220.954C83.3818 219.617 83.2545 219.363 83.1908 219.299C83.2545 219.617 84.2096 225.093 85.1647 227.194L86.1198 229.359L76.0592 225.221C76.0592 225.221 76.9507 227.322 78.4789 230.123C80.0071 232.925 80.3255 233.944 80.3255 233.944L73.767 229.55Z" fill="#38C266"/>
<path opacity="0.5" d="M103.312 271.894C106.712 275.307 107.069 276.16 107.069 276.16C107.069 276.16 107.706 273.74 109.107 270.747C110.488 267.799 119.638 258.808 119.925 258.528C105.114 269.086 103.312 271.855 103.312 271.894Z" fill="#00371D"/>
<path opacity="0.5" d="M154.004 275.02C154.208 275.306 160.696 284.488 164.058 285.902C164.058 285.902 166.522 286.303 171.234 285.704C171.234 285.704 163.294 282.145 158.646 278.579C154.29 275.236 154.017 275.026 154.004 275.02Z" fill="#00371D"/>
<path d="M178.13 319.395C178.13 319.395 183.542 305.896 183.988 299.401L184.434 292.906L181.314 295.517C181.314 295.517 182.842 291.314 183.16 288.703L183.478 286.093C183.478 286.093 180.677 293.797 173.163 293.161C165.713 292.524 170.998 292.588 173.163 295.771C175.328 298.891 179.34 312.263 179.34 312.263L178.13 319.395Z" fill="#38C266"/>
<path d="M139.288 330.741C139.409 330.741 142.313 330.627 148.311 326.208C153.927 322.113 154.035 309.977 154.016 308.06C154.137 308.194 154.335 308.341 154.564 308.309C155.099 308.239 155.576 307.284 155.984 305.469C156.48 303.247 155.774 299.84 155.099 297.369C154.628 295.644 154.099 294.128 153.787 293.262C154.233 293.95 154.749 294.638 154.984 294.53C155.099 294.479 155.315 294.377 154.456 291.932C152.622 286.628 146.923 279.814 146.866 279.744L146.745 279.846C146.802 279.916 152.488 286.71 154.309 291.983C155.048 294.103 154.946 294.358 154.914 294.39C154.749 294.39 154.048 293.415 153.501 292.492L153.36 292.562C153.392 292.651 156.78 301.247 155.837 305.443C155.328 307.723 154.812 308.124 154.551 308.162C154.239 308.201 154.01 307.787 154.01 307.78L153.851 307.481L153.863 307.818C153.863 307.959 154.239 321.706 148.228 326.093C142.281 330.474 139.327 330.595 139.295 330.601V330.76L139.288 330.741Z" fill="#0A6127"/>
<path d="M104.057 299.089L104.217 299.076C103.701 292.766 104.841 288.308 105.267 286.908V289.55L107.076 285.169C108.706 281.222 115.449 276.274 115.519 276.223L115.423 276.096C115.423 276.096 113.691 277.363 111.8 279.088C110.049 280.687 107.789 283.023 106.923 285.112L105.42 288.754V285.978L105.267 286.386C105.267 286.386 104.796 287.646 104.42 289.824C104.07 291.83 103.726 295.071 104.051 299.095L104.057 299.089Z" fill="#0A6127"/>
<path d="M114.023 326.519L114.125 326.398C114.074 326.354 108.693 321.642 105.993 317.121L105.86 317.204C108.572 321.744 113.972 326.475 114.029 326.519H114.023Z" fill="#0A6127"/>
<path d="M129.922 333.161L129.935 333.001C126.674 332.689 121.224 330.544 121.167 330.524L121.109 330.671C121.167 330.69 126.636 332.842 129.915 333.161H129.922Z" fill="#0A6127"/>
<path d="M145.923 332.396C152.482 331.39 157.869 328.404 157.92 328.379L157.843 328.239C157.792 328.27 152.431 331.238 145.898 332.244L145.923 332.403V332.396Z" fill="#0A6127"/>
<path d="M192.011 344.929C192.011 344.929 181.505 343.846 176.411 347.285C171.317 350.723 171.89 350.723 171.89 350.723C171.89 350.723 167.369 348.303 164.313 347.73C161.256 347.157 157.945 347.73 157.945 347.73C157.945 347.73 159.856 336.269 171.19 333.977C182.46 331.684 192.011 344.929 192.011 344.929Z" fill="#F7AB1E"/>
<path d="M121.142 344.228C121.142 344.228 111.081 344.801 106.433 346.266L101.785 347.794C101.785 347.794 99.4286 342.254 95.035 341.808C90.7052 341.363 87.4578 342.7 87.4578 342.7C87.4578 342.7 118.085 325.38 121.142 344.228Z" fill="#F7AB1E"/>
<path d="M148.884 260.382C151.775 260.382 154.851 260.172 158.034 259.637C158.162 259.605 158.27 259.592 158.378 259.58C158.512 259.56 158.639 259.541 158.76 259.503L158.658 259.204C158.569 259.236 158.455 259.248 158.34 259.261C158.219 259.274 158.098 259.293 157.971 259.325C145.261 261.439 134.297 258.472 130.17 257.096C128.859 256.657 128.152 256.339 128.146 256.339C109.979 248.462 105.668 235.409 105.668 235.409C109.973 249.774 127.846 256.568 128.025 256.631C128.044 256.638 128.738 256.956 130.069 257.396C133.182 258.433 140.174 260.375 148.884 260.375V260.382Z" fill="#0A6127"/>
<path d="M158.862 259.509C161.326 259.089 164.243 258.338 167.083 257.287C167.083 257.287 161.256 258.777 158.805 259.197L158.856 259.509H158.862Z" fill="#0A6127"/>
<path d="M116.557 227.449C119.804 232.16 122.86 234.835 122.669 238.974C122.542 243.112 120.313 254.447 126.108 256.293C131.902 258.14 139.543 254.319 148.903 246.424C155.844 240.629 159.919 241.775 161.766 239.483C163.612 237.191 162.784 234.58 160.492 234.389C160.492 234.389 159.155 234.58 157.372 233.37C157.308 233.307 157.245 233.307 157.181 233.243C156.162 232.479 155.016 231.269 153.87 229.231C153.106 227.831 152.023 226.366 150.814 224.965C150.686 224.838 150.559 224.711 150.432 224.583C146.611 220.381 141.199 216.815 137.124 216.751L131.52 216.624C131.52 216.624 131.265 216.369 130.756 216.051C130.629 215.987 130.565 215.923 130.438 215.86C128.655 214.841 125.025 213.44 120.759 215.923C120.696 215.923 120.696 215.987 120.632 215.987C120.505 216.051 120.313 216.178 120.186 216.242C114.519 219.744 113.437 222.864 116.557 227.449Z" fill="#F7AB1E"/>
<path d="M95.4742 251.365L95.6143 251.288C94.9203 249.945 93.6977 246.124 93.2138 244.577L93.755 245.507C94.6465 247.035 97.4864 248.589 97.6073 248.659L98.2059 248.983L96.4867 247.442C95.5061 246.513 93.876 241.788 93.4749 240.61L95.2323 242.087C97.1871 243.73 103.141 247.595 103.198 247.633L103.287 247.5C103.23 247.462 97.2826 243.596 95.3342 241.966L93.1501 240.133L93.2329 240.4C93.3157 240.648 95.2259 246.481 96.3721 247.563L96.9833 248.111C96.0664 247.544 94.4873 246.462 93.8824 245.43L92.6471 243.316L92.8445 243.966C92.8636 244.023 94.5764 249.658 95.4615 251.365H95.4742Z" fill="#0A6127"/>
<path d="M119.804 227.958C122.797 231.269 125.216 231.015 125.089 237.191C125.089 238.21 124.962 239.229 124.834 240.311C124.261 245.978 123.115 252.409 128.082 253.237C133.94 254.192 138.461 252.154 146.611 244.705C147.694 243.686 148.649 242.858 149.413 242.158C149.54 242.094 149.604 241.967 149.667 241.903C153.488 238.592 154.443 238.21 154.634 238.21C154.061 237.891 150.432 235.726 146.675 231.397C142.6 226.621 130.82 219.107 125.089 220.254C119.486 221.527 116.875 224.647 119.804 227.958Z" fill="#560226"/>
<path d="M130.52 262.934C130.629 262.934 130.692 262.934 130.699 262.934H130.813L129.801 260.604L130.648 261.202C131.571 261.852 133.908 262.495 135.035 262.8C135.245 262.858 135.41 262.902 135.506 262.934L135.551 262.781C135.449 262.75 135.283 262.705 135.073 262.648C133.959 262.342 131.635 261.705 130.737 261.075L129.419 260.145L130.565 262.781C130.011 262.781 127.553 262.73 125.955 261.521L125.859 261.648C127.445 262.851 129.845 262.941 130.508 262.941L130.52 262.934Z" fill="#0A6127"/>
<path d="M128.081 253.236C133.939 254.192 138.46 252.154 146.611 244.704C147.693 243.685 148.648 242.858 149.412 242.157C148.521 241.202 146.356 239.228 143.682 239.037C140.18 238.719 138.97 238.846 138.015 237.891C137.06 236.936 131.265 236.299 127.317 238.528C126.235 239.101 125.471 239.737 124.834 240.311C124.261 246.041 123.178 252.472 128.081 253.236Z" fill="#B52D51"/>
<path d="M143.554 222.163C143.554 222.163 144.064 220.762 143.236 220.508C142.408 220.253 141.58 220.508 141.58 220.508C141.58 220.508 143.236 220.762 143.554 222.163Z" fill="#00371D"/>
<path opacity="0.5" d="M130.183 257.248C136.996 260.114 146.993 262.979 158.518 261.706C160.874 261.451 162.975 260.687 164.695 259.541C162.593 259.541 160.747 259.477 159.219 259.286C159.091 259.286 158.9 259.35 158.773 259.35C158.518 259.413 158.263 259.413 158.072 259.477C145.401 261.578 134.577 258.649 130.183 257.248Z" fill="#00371D"/>
<path d="M157.773 219.485C157.455 218.516 157.603 217.597 158.104 217.433C158.606 217.268 159.27 217.92 159.588 218.889C159.906 219.858 159.757 220.777 159.256 220.942C158.755 221.106 158.091 220.454 157.773 219.485Z" fill="white"/>
<path d="M128.234 209.883C128.003 209.408 128.56 208.662 129.477 208.217C130.395 207.771 131.325 207.795 131.556 208.269C131.786 208.744 131.229 209.489 130.312 209.935C129.395 210.381 128.464 210.357 128.234 209.883Z" fill="white"/>
</svg>
