<svg xmlns="http://www.w3.org/2000/svg" width="335" height="315" fill="none" viewBox="0 0 335 315"><g clip-path="url(#a)"><rect width="335" height="314.062" fill="#b4f26a" rx="18.844"/><g style="mix-blend-mode:luminosity"><path fill="#00703a" d="M181.047 239.905c-2.847 0-5.583-1.06-7.708-2.975a8.77 8.77 0 0 0-5.891-2.264 8.77 8.77 0 0 0-5.891 2.264 11.5 11.5 0 0 1-7.707 2.975 11.5 11.5 0 0 1-10.315-6.345 8.76 8.76 0 0 0-7.853-4.838 8.8 8.8 0 0 0-3.132.582 11.5 11.5 0 0 1-4.121.763 11.496 11.496 0 0 1-11.473-10.42 8.774 8.774 0 0 0-8.709-7.94 11.43 11.43 0 0 1-9.145-4.587 11.45 11.45 0 0 1-1.904-10.053 8.77 8.77 0 0 0-5.25-10.548 11.46 11.46 0 0 1-6.875-7.58 11.46 11.46 0 0 1 1.857-10.059 8.765 8.765 0 0 0-1.089-11.729 11.46 11.46 0 0 1-3.673-9.547 11.45 11.45 0 0 1 5.361-8.714 8.763 8.763 0 0 0 3.225-11.328 11.45 11.45 0 0 1 .03-10.234 11.46 11.46 0 0 1 8.15-6.188 8.776 8.776 0 0 0 7.101-9.401c-.285-3.26.774-6.38 2.98-8.79a11.54 11.54 0 0 1 8.488-3.755c.692 0 1.397.064 2.09.187a9 9 0 0 0 1.577.145c3.883 0 7.352-2.608 8.441-6.345 1.42-4.901 5.984-8.33 11.095-8.33 2.107 0 4.185.588 6.007 1.706a8.8 8.8 0 0 0 4.582 1.292 8.75 8.75 0 0 0 6.997-3.458 11.45 11.45 0 0 1 9.168-4.535 11.45 11.45 0 0 1 9.168 4.535 8.73 8.73 0 0 0 6.997 3.458 8.8 8.8 0 0 0 4.582-1.292 11.53 11.53 0 0 1 6.007-1.706c5.111 0 9.675 3.423 11.095 8.33 1.083 3.737 4.553 6.345 8.441 6.345.524 0 1.06-.046 1.578-.145a12 12 0 0 1 2.089-.187c3.208 0 6.299 1.368 8.488 3.755a11.4 11.4 0 0 1 2.98 8.79 8.77 8.77 0 0 0 7.102 9.401 11.46 11.46 0 0 1 8.15 6.188 11.45 11.45 0 0 1 .029 10.234 8.76 8.76 0 0 0 3.225 11.328 11.44 11.44 0 0 1 5.361 8.714 11.43 11.43 0 0 1-3.673 9.547 8.766 8.766 0 0 0-1.089 11.729 11.45 11.45 0 0 1 1.857 10.059 11.45 11.45 0 0 1-6.875 7.58 8.77 8.77 0 0 0-5.25 10.548 11.47 11.47 0 0 1-1.904 10.053 11.46 11.46 0 0 1-9.145 4.587 8.773 8.773 0 0 0-8.708 7.94 11.497 11.497 0 0 1-11.474 10.42c-1.403 0-2.788-.256-4.121-.763a8.8 8.8 0 0 0-3.132-.582 8.74 8.74 0 0 0-7.853 4.838 11.5 11.5 0 0 1-10.315 6.345z"/><path fill="#008a48" d="M175.529 75.229a10.166 10.166 0 0 0 13.389 2.503c5.716-3.499 13.202-.6 15.071 5.838a10.16 10.16 0 0 0 11.578 7.172c6.595-1.2 12.527 4.209 11.945 10.886a10.165 10.165 0 0 0 8.208 10.868c6.584 1.263 10.164 8.446 7.201 14.465a10.166 10.166 0 0 0 3.725 13.098c5.682 3.557 6.421 11.549 1.49 16.09a10.17 10.17 0 0 0-1.257 13.563c4.017 5.373 1.816 13.092-4.424 15.543a10.166 10.166 0 0 0-6.071 12.189c1.804 6.462-3.033 12.865-9.739 12.894a10.166 10.166 0 0 0-10.065 9.174c-.652 6.671-7.475 10.898-13.738 8.505a10.17 10.17 0 0 0-12.702 4.919c-3.021 5.99-10.909 7.463-15.886 2.969a10.16 10.16 0 0 0-13.621 0c-4.978 4.494-12.865 3.015-15.886-2.969a10.17 10.17 0 0 0-12.702-4.919c-6.264 2.393-13.086-1.834-13.738-8.505a10.16 10.16 0 0 0-10.065-9.174c-6.706-.035-11.544-6.438-9.739-12.894a10.16 10.16 0 0 0-6.071-12.189c-6.24-2.457-8.435-10.17-4.425-15.543a10.163 10.163 0 0 0-1.257-13.563c-4.93-4.541-4.191-12.533 1.49-16.09a10.16 10.16 0 0 0 3.726-13.098c-2.957-6.019.617-13.202 7.2-14.465a10.165 10.165 0 0 0 8.209-10.868c-.583-6.683 5.343-12.085 11.945-10.886a10.16 10.16 0 0 0 11.578-7.172c1.869-6.438 9.349-9.337 15.071-5.838a10.167 10.167 0 0 0 13.389-2.503c4.069-5.333 12.09-5.333 16.159 0z"/><path fill="#38c266" d="M167.447 221.794c36.956 0 66.915-29.958 66.915-66.914s-29.959-66.914-66.915-66.914-66.914 29.958-66.914 66.914 29.958 66.914 66.914 66.914"/><path fill="#6dd38f" d="M213.482 200.919c25.424-25.425 25.424-66.646 0-92.071-25.425-25.425-66.647-25.425-92.071 0-25.425 25.425-25.425 66.646 0 92.071 25.424 25.425 66.646 25.425 92.071 0"/><path fill="#008a48" d="M207.288 194.729c22.005-22.006 22.005-57.684 0-79.69-22.006-22.006-57.684-22.006-79.69 0-22.005 22.006-22.005 57.684 0 79.69 22.006 22.005 57.684 22.005 79.69 0"/><path fill="#d9eae2" d="M223.908 154.627c-.002-31.216-25.384-56.52-56.692-56.519-31.309.001-56.689 25.308-56.687 56.525.001 31.216 25.383 56.52 56.692 56.519s56.688-25.309 56.687-56.525"/><path fill="#008a48" d="M166.656 215.205c0-.454.367-.827.827-.827s.832.367.832.827-.372.832-.832.832a.83.83 0 0 1-.827-.832m-4.22.635a.833.833 0 0 1 .134-1.66h.005a.826.826 0 0 1 .757.897.826.826 0 0 1-.826.763zm9.203-.769a.825.825 0 0 1 .757-.896.825.825 0 0 1 .896.756.825.825 0 0 1-.756.897h-.07a.83.83 0 0 1-.827-.763zm-14.215.151a.832.832 0 1 1 .134.012c-.041 0-.088 0-.134-.012m19.169-.698a.827.827 0 0 1 .681-.955.836.836 0 0 1 .96.681.84.84 0 0 1-.686.961c-.047 0-.094.011-.14.011a.83.83 0 0 1-.815-.698m-24.117-.332a.83.83 0 1 1 .407-1.612c.443.11.716.564.6 1.007a.83.83 0 0 1-.804.634.8.8 0 0 1-.203-.029m29.007-.623a.83.83 0 0 1 1.612-.407.83.83 0 0 1-.803 1.036.836.836 0 0 1-.809-.629m-33.85-.815a.823.823 0 0 1-.519-1.053.825.825 0 0 1 1.054-.518c.437.151.67.622.518 1.053a.83.83 0 0 1-1.053.518m38.646-.541a.834.834 0 0 1 .518-1.054.824.824 0 0 1 1.054.518.83.83 0 1 1-1.572.536m-43.362-1.292a.83.83 0 0 1-.425-1.095.835.835 0 0 1 1.095-.431.83.83 0 0 1 .425 1.095.83.83 0 0 1-1.095.431m48.025-.454a.837.837 0 0 1 .431-1.095.83.83 0 0 1 1.094.425.823.823 0 0 1-.762 1.164.84.84 0 0 1-.763-.494m-52.565-1.77a.83.83 0 0 1-.338-1.124.835.835 0 0 1 1.13-.337.833.833 0 0 1 .331 1.129.83.83 0 0 1-.727.437.8.8 0 0 1-.396-.105m57.071-.361a.835.835 0 0 1 .337-1.129.83.83 0 0 1 1.124.337.826.826 0 0 1-.332 1.124.82.82 0 0 1-1.129-.332m-61.414-2.224a.835.835 0 0 1-.244-1.152.834.834 0 0 1 1.152-.239c.385.25.495.763.239 1.147a.827.827 0 0 1-1.147.244m65.727-.273a.835.835 0 0 1 .239-1.153.834.834 0 0 1 1.152.245.826.826 0 0 1-.238 1.146.8.8 0 0 1-.454.14.84.84 0 0 1-.699-.378m-69.842-2.666a.833.833 0 0 1-.146-1.165.832.832 0 0 1 1.316 1.019.84.84 0 0 1-1.17.146m73.934-.181a.832.832 0 1 1 1.171.146.8.8 0 0 1-.513.174.85.85 0 0 1-.658-.32m-77.794-3.085a.835.835 0 0 1-.046-1.176.835.835 0 0 1 1.176-.046.833.833 0 0 1-1.13 1.222m81.642-.087a.83.83 0 0 1 1.223-1.124.83.83 0 0 1-.047 1.176.84.84 0 0 1-.565.215.82.82 0 0 1-.611-.267m-85.216-3.481a.83.83 0 0 1 .047-1.176.83.83 0 0 1 1.175.046.83.83 0 0 1-.046 1.176.84.84 0 0 1-.565.221.85.85 0 0 1-.611-.267m88.79 0a.836.836 0 0 1-.052-1.176h.006a.83.83 0 0 1 1.17-.047.835.835 0 0 1 .052 1.176.84.84 0 0 1-.611.268.84.84 0 0 1-.565-.221m-92.061-3.86a.83.83 0 1 1 1.313-1.018.83.83 0 0 1-1.313 1.018m95.339.099a.82.82 0 0 1-.146-1.164.827.827 0 0 1 1.164-.146c.361.28.425.804.146 1.165a.81.81 0 0 1-.658.32.8.8 0 0 1-.506-.175m-98.279-4.203a.827.827 0 0 1 .239-1.152.834.834 0 0 1 1.152.238c.25.384.14.897-.244 1.153a.834.834 0 0 1-1.147-.239m101.23.186a.826.826 0 0 1-.239-1.146.836.836 0 0 1 1.153-.245.835.835 0 0 1-.46 1.531.8.8 0 0 1-.454-.14m-103.826-4.523a.832.832 0 1 1 1.129.332.82.82 0 0 1-1.129-.332m106.446.28a.83.83 0 1 1 .791-1.461.825.825 0 0 1 .332 1.123.83.83 0 0 1-1.123.338m-108.67-4.814a.83.83 0 0 1 .425-1.095.83.83 0 1 1-.425 1.095m110.922.366a.84.84 0 0 1-.43-1.1.837.837 0 0 1 1.1-.425.83.83 0 0 1 .425 1.095.83.83 0 0 1-1.095.43m-112.767-5.07a.836.836 0 0 1 .518-1.059.827.827 0 0 1 1.053.518.83.83 0 0 1-.512 1.059.9.9 0 0 1-.274.041.83.83 0 0 1-.785-.559m114.648.448a.834.834 0 0 1 .535-1.577.83.83 0 0 1-.268 1.618.8.8 0 0 1-.267-.041m-116.092-5.291a.83.83 0 0 1 .6-1.007.824.824 0 0 1 1.012.6.83.83 0 0 1-.599 1.007 1 1 0 0 1-.21.029.83.83 0 0 1-.803-.629m117.576.53a.83.83 0 0 1-.605-1.007.836.836 0 0 1 1.013-.606.83.83 0 0 1 .599 1.013.825.825 0 0 1-.803.629.8.8 0 0 1-.204-.029m-118.612-5.472a.832.832 0 1 1 .954.681c-.046 0-.093.012-.133.012a.83.83 0 0 1-.821-.693m119.695.611a.83.83 0 0 1-.681-.96.826.826 0 0 1 .954-.682.835.835 0 0 1 .687.955.836.836 0 0 1-.826.693h-.134zm-120.318-5.629a.829.829 0 1 1 1.653-.134.834.834 0 0 1-.762.897h-.07a.825.825 0 0 1-.821-.763m120.999.687a.83.83 0 0 1-.763-.897.834.834 0 0 1 .897-.762.835.835 0 0 1-.064 1.665h-.07zm-121.214-5.734a.831.831 0 1 1 1.663-.001.831.831 0 0 1-1.663.001m120.649-.076s.006-.046.006-.07c0 0-.006-.046-.006-.069a.832.832 0 1 1 1.665-.006v.145a.832.832 0 1 1-1.665 0m-119.689-4.075a.834.834 0 0 1-.763-.896.84.84 0 0 1 .897-.763.83.83 0 0 1 .762.897.824.824 0 0 1-.826.762zm119.48-.977a.834.834 0 0 1 .756-.903.84.84 0 0 1 .903.763.836.836 0 0 1-.763.896s-.046.006-.07.006a.834.834 0 0 1-.826-.762m-118.944-3.982a.828.828 0 1 1 .954-.681.82.82 0 0 1-.815.692c-.046 0-.093 0-.139-.011m118.327-.897a.83.83 0 0 1 .687-.954.824.824 0 0 1 .954.681.83.83 0 0 1-.681.954c-.046.012-.093.012-.14.012a.835.835 0 0 1-.82-.693m-117.379-3.993a.836.836 0 0 1-.605-1.013.826.826 0 0 1 1.007-.599c.448.11.716.558.605 1.007a.825.825 0 0 1-.803.628c-.07 0-.14 0-.204-.023m116.366-.815a.837.837 0 0 1 .599-1.013.837.837 0 0 1 1.013.6.83.83 0 0 1-.809 1.036.836.836 0 0 1-.803-.623m-115.021-3.987a.827.827 0 0 1-.518-1.054.83.83 0 0 1 1.054-.518.826.826 0 0 1 .518 1.053.823.823 0 0 1-1.054.519m113.612-.722a.83.83 0 1 1 1.572-.542.83.83 0 0 1-.518 1.054.83.83 0 0 1-1.054-.512m-111.866-3.953a.83.83 0 1 1 .664-1.519c.419.18.611.669.431 1.094a.84.84 0 0 1-1.095.425m110.067-.617a.831.831 0 1 1 1.52-.675.831.831 0 1 1-1.52.675m-107.942-3.894a.823.823 0 0 1-.337-1.124.827.827 0 0 1 1.129-.337.825.825 0 0 1 .332 1.123.82.82 0 0 1-.728.437.8.8 0 0 1-.396-.099m105.771-.513a.832.832 0 1 1 1.461-.797.825.825 0 0 1-.332 1.123.8.8 0 0 1-.396.105.84.84 0 0 1-.733-.431m-103.279-3.807a.834.834 0 0 1-.245-1.152.835.835 0 0 1 1.153-.239c.384.25.495.763.238 1.147a.83.83 0 0 1-1.146.244m100.753-.413a.83.83 0 0 1 .238-1.147.82.82 0 0 1 1.147.239.836.836 0 0 1-.239 1.153.9.9 0 0 1-.459.134.83.83 0 0 1-.693-.379zm-97.918-3.685a.84.84 0 0 1-.146-1.17.84.84 0 0 1 1.17-.145.84.84 0 0 1 .146 1.17.83.83 0 0 1-1.17.145m95.048-.302a.833.833 0 0 1 1.31-1.025.826.826 0 0 1-.652 1.339.83.83 0 0 1-.658-.314m-91.882-3.551a.835.835 0 0 1-.046-1.176.83.83 0 0 1 1.176-.047.833.833 0 0 1-1.13 1.223m88.698-.192a.83.83 0 0 1 .046-1.176.823.823 0 0 1 1.17.046.834.834 0 0 1-.041 1.176.844.844 0 0 1-1.175-.046m-85.222-3.382a.83.83 0 0 1 .046-1.176.83.83 0 0 1 1.176.046.835.835 0 0 1-.047 1.176.83.83 0 0 1-.564.215.83.83 0 0 1-.611-.261m81.735-.094a.823.823 0 0 1-.047-1.17.83.83 0 0 1 1.17-.052.836.836 0 0 1 .053 1.176.82.82 0 0 1-.612.268.8.8 0 0 1-.564-.222m-77.981-3.19a.826.826 0 0 1 .14-1.164.833.833 0 0 1 1.17.14.83.83 0 0 1-.146 1.164.8.8 0 0 1-.512.181.83.83 0 0 1-.652-.321m74.226.018a.826.826 0 0 1-.145-1.164.827.827 0 0 1 1.164-.146.826.826 0 0 1 .145 1.164.83.83 0 0 1-.658.32.8.8 0 0 1-.506-.174m-70.215-2.981a.82.82 0 0 1 .239-1.146.82.82 0 0 1 1.146.238.82.82 0 0 1-.238 1.147.82.82 0 0 1-1.147-.239m66.21.128a.827.827 0 0 1-.244-1.146.83.83 0 1 1 1.391.908.83.83 0 0 1-.693.378.8.8 0 0 1-.454-.14m-61.972-2.747a.833.833 0 0 1 .332-1.129.835.835 0 0 1 1.129.337.826.826 0 0 1-.332 1.124.825.825 0 0 1-1.129-.332m57.746.239a.831.831 0 1 1 .785-1.466.831.831 0 0 1-.785 1.466m-53.305-2.498a.83.83 0 0 1 .425-1.094.826.826 0 0 1 1.095.425.825.825 0 0 1-.757 1.164.83.83 0 0 1-.763-.495m48.881.338a.834.834 0 0 1-.431-1.094.83.83 0 0 1 1.094-.425c.425.18.617.669.431 1.094a.82.82 0 0 1-.762.495.8.8 0 0 1-.332-.07m-44.27-2.224a.827.827 0 0 1 .512-1.053.833.833 0 0 1 .547 1.571.827.827 0 0 1-1.059-.518m39.683.448a.84.84 0 0 1-.518-1.059.837.837 0 0 1 1.053-.518.84.84 0 0 1 .524 1.06.835.835 0 0 1-.786.558.9.9 0 0 1-.273-.04m-34.927-1.938a.832.832 0 1 1 1.013.6 1 1 0 0 1-.21.023.83.83 0 0 1-.803-.623m30.212.547a.83.83 0 0 1-.6-1.013.824.824 0 0 1 1.007-.6.832.832 0 1 1-.407 1.612m-25.352-1.641a.837.837 0 0 1 .687-.96.83.83 0 0 1 .955.686.83.83 0 0 1-.681.955c-.047 0-.093.011-.14.011a.84.84 0 0 1-.821-.692m20.543.646a.83.83 0 1 1 .266-1.64.83.83 0 0 1-.266 1.64m-15.606-1.333a.84.84 0 0 1 .762-.903.833.833 0 0 1 .14 1.659s-.047.006-.07.006a.84.84 0 0 1-.832-.762m10.722.739a.834.834 0 0 1-.762-.897.84.84 0 0 1 .896-.762.83.83 0 0 1-.064 1.659zm-5.745-1.019a.84.84 0 0 1 .832-.838.833.833 0 1 1 0 1.665.84.84 0 0 1-.832-.827"/><path fill="#41d171" d="M126.689 236.598a161.4 161.4 0 0 0-36.647 14.652 168 168 0 0 1 6.13-19.647 166 166 0 0 0-20.475-6.443 191.4 191.4 0 0 1 43.396-17.348l7.59 28.786zm82.407 0a161.5 161.5 0 0 1 36.646 14.653 168 168 0 0 0-6.129-19.648 166 166 0 0 1 20.475-6.442 191.4 191.4 0 0 0-43.397-17.348l-7.589 28.785z"/><path fill="#38c266" d="M230.044 233.338a171.82 171.82 0 0 0-124.451 0c-3.608-9.213-7.222-18.426-10.83-27.639 46.951-18.255 99.16-18.255 146.111 0-3.608 9.213-7.222 18.426-10.83 27.639"/><path fill="#fcfcfc" d="M110.837 215.993a1.602 1.602 0 1 0 0-3.203 1.602 1.602 0 0 0 0 3.203m114.114 0a1.601 1.601 0 1 0-.001-3.203 1.601 1.601 0 0 0 .001 3.203m-87.802-3.263 2.843-.432.361 2.365-5.385.821-1.874-12.271 5.297-.809.36 2.364-2.754.42.354 2.317 2.666-.408.349 2.281-2.666.408zm8.189-11.16 2.346-.26-.561 5.893 2.098 6.425-2.346.26-1.537-5.396h-.036l-.242 5.597-2.4.266.668-6.726-1.85-5.627 2.394-.266 1.176 4.545h.036l.248-4.705zm12.038 2.235.095 1.448c.154 2.299-.94 3.263-2.766 3.381l-.763.047.302 4.563-2.566.172-.815-12.389 2.565-.172.763-.047c1.82-.118 3.032.692 3.18 2.991zm-2.565.171c-.047-.691-.272-.869-.644-.845l-.585.035.213 3.222.585-.036c.372-.023.573-.23.526-.922zm8.131 6.532 3.05-.071.053 2.341-5.532.13-.29-12.413 2.483-.059zm11.756-7.117-.118 6.561c-.042 2.305-1.212 3.174-3.127 3.138-1.915-.035-3.05-.939-3.009-3.245l.118-6.56c.042-2.306 1.212-3.174 3.127-3.139s3.05.94 3.009 3.245m-2.483.024c.012-.692-.195-.893-.567-.899-.373-.006-.591.183-.603.875l-.112 6.419c-.012.692.195.893.567.898s.591-.183.603-.874zm11.518 5.437-.277 4.51-2.566-.159.266-4.333c.042-.691-.159-.898-.532-.922l-.496-.03-.319 5.22-2.566-.16.763-12.389 3.168.195c1.821.113 2.932.893 2.808 2.837l-.048.798c-.094 1.555-.478 2.335-1.501 2.501.975.271 1.36 1.022 1.3 1.926zM181.387 204c.041-.692-.16-.899-.532-.922l-.426-.024-.171 2.743.425.023c.373.024.597-.159.639-.851l.059-.975zm7.583 7.489 2.855.296-.248 2.382-5.415-.568 1.289-12.341 5.325.555-.248 2.382-2.766-.289-.242 2.329 2.677.277-.236 2.294-2.678-.278-.307 2.961zm12.021-.568-.657 4.475-2.541-.373.632-4.297c.101-.686-.082-.91-.449-.963l-.491-.071-.762 5.178-2.542-.373 1.803-12.282 3.139.461c1.808.266 2.843 1.135 2.559 3.067l-.118.787c-.225 1.542-.674 2.281-1.708 2.364.951.354 1.265 1.135 1.135 2.033zm-1.933-5.036c.1-.685-.083-.91-.449-.963l-.42-.059-.402 2.719.42.059c.366.053.608-.107.709-.792z"/><g style="mix-blend-mode:luminosity"><path fill="#d1833b" d="m134.938 169.526 12.904 7.54 12.906-7.54 12.904 7.54 12.906-7.54 12.907 7.54v-41.841l-12.907-7.539-12.906 7.539-12.904-7.539-12.906 7.539-12.904-7.539z"/><path fill="#fab861" d="M197.435 137.281v35.358l-10.875-6.352-12.906 7.539-12.905-7.539-12.906 7.539-10.873-6.352v-35.36l10.873 6.356.595-.347 12.311-7.193 12.905 7.54 12.906-7.54c2.81 1.644 8.008 4.677 10.875 6.352z"/><path fill="#5ba3a0" d="M182.681 158.461c-4.16 1.202-6.941 9.515-10.824 8.392-4.772-2.198-4.659-11.946-12.321-12.323 8.793-11.487 9.932-2.293 18.401-2.838 6.18-.355 13.009-9.115 13.177-18.101l-1.488-.867c-.021 8.293-5.97 16.305-11.826 16.714-7.054.796-10.893-10.017-20.553 5.507-11.539 5.378-9.854-14.158-20.277-6.239v2.624c9.392-8.694 7.84 10.655 19.785 6.11 1.603-.581 2.984-1.083 5.032-.068 4.88 2.228 4.862 9.787 9.729 11.685 8.439 1.847 8.505-20.246 25.917-1.358v-2.801c-5.665-6.042-10.609-8.207-14.752-6.438z"/><path fill="#eaa149" d="M188.899 132.299c-.492 1.734-1.214 3.125-2.095 3.765-.78.57-.981.038-2.147.509-3.607 1.47-4.112 8.169-6.27 7.648-1.511-.366-1.554-2.605-3.434-3.698-2.964-1.719-4.794 2.725-9.016 2.167-2.921-.385-2.84-2.62-5.581-2.932-6.738-.277-8.358 11.231-11.919-1.635l12.31-7.193 12.906 7.539 12.905-7.539 2.342 1.369z"/><path fill="#ef5740" d="M161.768 144.093c0 3.105-4.985 10.055-4.985 10.055s-4.985-6.951-4.985-10.055c.121-7.394 9.852-7.393 9.97 0"/><path fill="#fff9f9" d="M159.734 142.828c-.072 4.375-5.829 4.373-5.899 0 .071-4.374 5.829-4.373 5.899 0"/><path fill="#fab861" d="M186.56 127.687v41.84l12.906 7.539v-41.84zm-25.816 0v41.84l12.904 7.539v-41.84zm-25.807-.001 12.904 7.539v41.841l-12.904-7.54z" opacity=".6" style="mix-blend-mode:multiply"/></g></g><g filter="url(#b)" style="mix-blend-mode:luminosity"><path fill="#00703a" d="M363.579 54.196a6.98 6.98 0 0 1-5.015.057 5.32 5.32 0 0 0-3.831.048 5.32 5.32 0 0 0-2.812 2.602 6.98 6.98 0 0 1-3.676 3.412 6.98 6.98 0 0 1-7.243-1.257 5.32 5.32 0 0 0-5.516-.96 5.3 5.3 0 0 0-1.635 1.032 7 7 0 0 1-2.152 1.357 6.98 6.98 0 0 1-8.814-3.293 5.326 5.326 0 0 0-6.696-2.518 6.94 6.94 0 0 1-6.188-.528 6.95 6.95 0 0 1-3.335-5.24 5.324 5.324 0 0 0-5.334-4.766 6.96 6.96 0 0 1-5.581-2.727 6.95 6.95 0 0 1-1.217-6.089 5.32 5.32 0 0 0-3.252-6.368 6.96 6.96 0 0 1-4.219-4.557 6.95 6.95 0 0 1 1.062-6.12 5.32 5.32 0 0 0-.731-7.112 6.95 6.95 0 0 1-2.286-5.776A6.96 6.96 0 0 1 288.311.07a5.33 5.33 0 0 0 1.889-6.898 6.92 6.92 0 0 1-.297-5.627 7 7 0 0 1 5.161-4.391c.313-.064.626-.155.922-.273a5.37 5.37 0 0 0 3.331-5.477c-.302-3.083 1.5-6.043 4.382-7.193a7 7 0 0 1 3.771-.39 5.33 5.33 0 0 0 2.873-.302 5.31 5.31 0 0 0 3.168-3.523 6.95 6.95 0 0 1 4.149-4.62 6.95 6.95 0 0 1 6.189.494 5.3 5.3 0 0 0 4.723.375 5.34 5.34 0 0 0 2.292-1.76 7 7 0 0 1 3.004-2.312c2.881-1.15 6.225-.247 8.13 2.2a5.36 5.36 0 0 0 6.186 1.678c.296-.117.587-.264.857-.437a7.01 7.01 0 0 1 6.766-.368 6.92 6.92 0 0 1 3.658 4.286 5.324 5.324 0 0 0 6.12 3.703 6.95 6.95 0 0 1 5.987 1.655 6.95 6.95 0 0 1 2.319 5.764 5.32 5.32 0 0 0 4.367 5.66 6.95 6.95 0 0 1 4.983 3.708 6.93 6.93 0 0 1 .077 6.209 5.323 5.323 0 0 0 2.025 6.858 6.96 6.96 0 0 1 3.311 5.254 6.95 6.95 0 0 1-2.171 5.82 5.323 5.323 0 0 0-.588 7.128 6.96 6.96 0 0 1 1.189 6.097 6.96 6.96 0 0 1-4.124 4.644 5.327 5.327 0 0 0-3.124 6.436 6.98 6.98 0 0 1-4.124 8.456 7 7 0 0 1-2.496.498 5.3 5.3 0 0 0-1.896.376 5.31 5.31 0 0 0-3.34 4.494 6.98 6.98 0 0 1-4.388 5.898z"/><path fill="#008a48" d="M323.413-37.41a6.17 6.17 0 0 0 8.112-1.6c2.436-3.259 7.309-3.309 9.811-.1a6.17 6.17 0 0 0 8.142 1.44c3.448-2.16 8.01-.446 9.184 3.45a6.17 6.17 0 0 0 7.073 4.28c3.996-.769 7.63 2.476 7.314 6.536a6.17 6.17 0 0 0 5.048 6.547c4.003.727 6.218 5.067 4.46 8.736a6.173 6.173 0 0 0 2.342 7.93c3.474 2.126 3.97 6.973 1.003 9.759a6.173 6.173 0 0 0-.681 8.239c2.471 3.237 1.185 7.936-2.59 9.46a6.17 6.17 0 0 0-3.61 7.438c1.133 3.908-1.763 7.825-5.833 7.886a6.175 6.175 0 0 0-6.055 5.63c-.355 4.058-4.471 6.663-8.288 5.249a6.17 6.17 0 0 0-7.681 3.065c-1.795 3.653-6.575 4.594-9.624 1.9a6.173 6.173 0 0 0-8.269.084c-2.993 2.759-7.79 1.91-9.659-1.704a6.17 6.17 0 0 0-7.739-2.908c-3.788 1.489-7.957-1.033-8.392-5.079a6.167 6.167 0 0 0-6.165-5.506c-4.071.018-7.044-3.837-5.992-7.768a6.17 6.17 0 0 0-3.76-7.365c-3.802-1.45-5.183-6.123-2.78-9.407a6.17 6.17 0 0 0-.846-8.223c-3.022-2.728-2.623-7.582.805-9.776a6.17 6.17 0 0 0 2.183-7.974c-1.832-3.637.294-8.016 4.285-8.825a6.17 6.17 0 0 0 4.915-6.649c-.395-4.05 3.17-7.367 7.184-6.682a6.17 6.17 0 0 0 6.985-4.424c1.095-3.922 5.618-5.727 9.111-3.636z"/><path fill="#38c266" d="M351.836 47.045c20.836-8.315 30.987-31.946 22.672-52.783-8.314-20.836-31.946-30.987-52.782-22.672-20.837 8.314-30.988 31.946-22.673 52.782 8.315 20.837 31.946 30.987 52.783 22.673"/><path fill="#6dd38f" d="M373.094 24.918c8.615-20.055-.66-43.296-20.715-51.911s-43.297.66-51.912 20.715c-8.614 20.055.66 43.297 20.715 51.911 20.056 8.615 43.297-.66 51.912-20.715"/><path fill="#008a48" d="M368.21 22.82c7.456-17.358-.571-37.474-17.929-44.93s-37.475.57-44.931 17.929.571 37.474 17.93 44.93 37.474-.57 44.93-17.929"/><path fill="#d9eae2" d="M369.14 2.039c-4.022-17.87-21.768-29.095-39.638-25.073S300.408-1.266 304.43 16.603c4.021 17.87 21.767 29.095 39.637 25.073 17.869-4.022 29.094-21.768 25.073-39.637"/><path fill="#008a48" d="M349.906 43.509a.503.503 0 1 1 .938-.372.503.503 0 0 1-.938.372m-2.237 1.307a.505.505 0 0 1-.297-.965l.003-.002a.5.5 0 0 1 .628.336.5.5 0 0 1-.294.615zm5.017-2.504a.5.5 0 0 1 .224-.675.5.5 0 0 1 .676.224.5.5 0 0 1-.225.676l-.039.016a.504.504 0 0 1-.638-.244zm-7.981 3.284a.506.506 0 0 1-.219-.986.504.504 0 0 1 .297.962q-.034.017-.078.024m10.65-4.707a.5.5 0 0 1 .17-.691.507.507 0 0 1 .694.168.51.51 0 0 1-.171.696c-.026.01-.05.027-.076.038a.504.504 0 0 1-.617-.21m-13.672 5.24a.504.504 0 1 1-.133-1.002.5.5 0 0 1 .565.433.505.505 0 0 1-.31.539.5.5 0 0 1-.122.03m16.215-6.878a.504.504 0 1 1 .818-.59.504.504 0 0 1-.818.59m-19.269 7.156a.5.5 0 0 1-.529-.477.5.5 0 0 1 .477-.53.503.503 0 0 1 .529.478.5.5 0 0 1-.477.53m21.668-9a.506.506 0 0 1 .055-.71.5.5 0 0 1 .711.054.504.504 0 1 1-.766.656m-24.739 9.027a.506.506 0 0 1 .034-1.01c.278.01.497.243.486.521a.504.504 0 0 1-.52.49m26.975-11.06a.507.507 0 0 1-.003-.715.503.503 0 0 1 .712-.006.5.5 0 0 1-.168.828.51.51 0 0 1-.541-.108m-30.036 10.828a.5.5 0 0 1-.443-.557.507.507 0 0 1 .561-.445.506.506 0 0 1 .129.972.5.5 0 0 1-.247.03m32.097-13.044a.507.507 0 0 1-.064-.712.503.503 0 0 1 .71-.063.5.5 0 0 1 .065.708.497.497 0 0 1-.711.067m-35.126 12.564a.51.51 0 0 1-.398-.595.507.507 0 0 1 .597-.394.5.5 0 0 1 .392.593.5.5 0 0 1-.591.396m36.996-14.942a.507.507 0 0 1-.125-.704.507.507 0 0 1 .705-.121.502.502 0 0 1-.101.88.51.51 0 0 1-.479-.055m-39.978 14.21a.504.504 0 1 1 .28-.968.504.504 0 0 1-.28.968m41.645-16.736a.505.505 0 1 1 .514-.87.505.505 0 0 1-.514.87m-44.556 15.763a.507.507 0 0 1-.291-.652.507.507 0 0 1 .653-.291.503.503 0 0 1 .006.941.5.5 0 0 1-.368.002M369.587 25.6a.503.503 0 1 1 .436-.908.503.503 0 1 1-.436.909m-48.83 17.21a.504.504 0 0 1-.238-.673.503.503 0 0 1 .673-.238.504.504 0 0 1-.03.925.5.5 0 0 1-.405-.013m50.062-19.976a.507.507 0 0 1-.294-.651l.003-.002a.5.5 0 0 1 .649-.29c.26.099.392.392.294.652a.505.505 0 0 1-.652.29M318.044 41.37a.505.505 0 1 1 .511-.87.505.505 0 0 1-.511.87m53.776-21.395a.5.5 0 0 1-.344-.624.5.5 0 0 1 .624-.344.506.506 0 0 1 .045.953.5.5 0 0 1-.325.015m-56.357 19.742a.503.503 0 0 1-.125-.703.507.507 0 0 1 .704-.125.507.507 0 0 1-.104.882.51.51 0 0 1-.475-.054m57.118-22.67a.503.503 0 0 1-.393-.594.507.507 0 0 1 .595-.397.506.506 0 0 1-.202.99m-59.557 20.81a.504.504 0 1 1 .711-.068.5.5 0 0 1-.2.148.51.51 0 0 1-.511-.08m60.079-23.793a.505.505 0 1 1 .114-1.002.505.505 0 0 1-.114 1.002M310.75 35.8a.5.5 0 0 1-.007-.713.504.504 0 1 1 .007.713m62.623-24.75a.51.51 0 0 1-.491-.523.505.505 0 1 1 .491.523m-64.722 22.513a.51.51 0 0 1 .054-.714.505.505 0 0 1 .66.768.51.51 0 0 1-.714-.054M373.393 8.02a.506.506 0 1 1 .477-.53.5.5 0 0 1-.317.493.5.5 0 0 1-.16.037m-66.646 23.136a.504.504 0 0 1 .112-.703.504.504 0 1 1 .483.876.505.505 0 0 1-.595-.173m66.411-26.155a.505.505 0 1 1 .433-.564.5.5 0 0 1-.433.564m-68.107 23.602a.505.505 0 1 1 .692.169c-.027.01-.05.027-.073.037a.505.505 0 0 1-.619-.206m67.624-26.586a.505.505 0 1 1 .387-.603.51.51 0 0 1-.31.576l-.075.03zm-69.104 23.897a.503.503 0 1 1 .902-.448.506.506 0 0 1-.228.677l-.04.016a.5.5 0 0 1-.634-.245M371.947-.922a.506.506 0 1 1 .041-.012l-.039.016zm-69.633 24.04a.506.506 0 1 1 .94-.375.506.506 0 0 1-.94.374M370.322-4.07s-.007-.028-.013-.04l-.019-.039a.506.506 0 1 1 .955-.335l.016.04a.505.505 0 0 1-.939.374m-68.4 24.631a.507.507 0 0 1-.632-.334.504.504 0 1 1 .671.318zm67.145-27.433a.506.506 0 1 1 .904-.452.51.51 0 0 1-.228.677s-.025.014-.039.02a.506.506 0 0 1-.637-.245m-67.959 24.516a.503.503 0 1 1 .385-.598.497.497 0 0 1-.385.598m66.513-27.127a.505.505 0 0 1 .864-.524.503.503 0 0 1-.169.692q-.036.023-.076.038a.51.51 0 0 1-.619-.206m-67.078 24.157a.507.507 0 0 1-.569-.435.5.5 0 0 1 .432-.565.5.5 0 0 1 .568.432.5.5 0 0 1-.311.535c-.04.016-.079.032-.12.033m65.426-26.64a.507.507 0 0 1 .11-.707.505.505 0 1 1-.11.706m-65.749 23.63a.5.5 0 0 1-.529-.478.506.506 0 0 1 .478-.529c.279-.016.517.2.529.477a.5.5 0 0 1-.478.53m63.895-25.969a.505.505 0 1 1 .76-.66.505.505 0 0 1-.76.66m-63.962 22.94a.504.504 0 1 1 .033-1.006c.277.008.495.24.489.52a.51.51 0 0 1-.522.486m61.919-25.111a.506.506 0 1 1 .707-.724.506.506 0 0 1-.707.723m-61.736 22.09a.5.5 0 0 1-.443-.558.503.503 0 0 1 .561-.444.5.5 0 0 1 .44.558.5.5 0 0 1-.558.444m59.521-24.087a.504.504 0 1 1 .642-.778.504.504 0 0 1-.642.778m-59.088 21.09a.507.507 0 0 1-.397-.594.506.506 0 0 1 .596-.394.505.505 0 0 1-.199.989m56.714-22.9a.503.503 0 1 1 .472.058.5.5 0 0 1-.475-.057zM301.446-.332a.51.51 0 0 1-.346-.627.51.51 0 0 1 .627-.345.505.505 0 1 1-.281.972m53.522-21.555a.504.504 0 1 1 .508-.873.502.502 0 0 1-.067.902.5.5 0 0 1-.441-.03m-52.604 18.67a.504.504 0 1 1 .36-.946.504.504 0 0 1-.36.946M352.33-23.28a.504.504 0 1 1 .432-.91c.252.116.358.42.242.672a.52.52 0 0 1-.27.248.5.5 0 0 1-.404-.01M303.519-6.013a.504.504 0 0 1-.238-.674.503.503 0 0 1 .673-.238c.25.121.358.42.239.674a.5.5 0 0 1-.27.248.5.5 0 0 1-.404-.01m46.063-18.442a.5.5 0 0 1-.289-.65.503.503 0 1 1 .942.36.5.5 0 0 1-.653.29M304.898-8.71a.5.5 0 0 1-.184-.688.507.507 0 0 1 .692-.184c.238.14.32.45.179.689a.5.5 0 0 1-.687.183m41.854-16.69a.5.5 0 0 1-.344-.624.5.5 0 0 1 .623-.344.505.505 0 0 1-.279.968m-40.26 14.117a.5.5 0 0 1-.123-.7.5.5 0 0 1 .7-.124.5.5 0 0 1 .124.7.496.496 0 0 1-.701.124m37.36-14.824a.503.503 0 0 1-.396-.592.507.507 0 0 1 .595-.397.503.503 0 0 1 .394.596.495.495 0 0 1-.593.393m-35.56 12.394a.507.507 0 0 1-.067-.712.51.51 0 0 1 .713-.063.5.5 0 0 1 .066.708.504.504 0 0 1-.712.067m32.612-12.858a.504.504 0 1 1 .114-1.003.504.504 0 0 1-.114 1.003m-30.616 10.585a.503.503 0 0 1-.006-.713.5.5 0 0 1 .712-.006.5.5 0 0 1-.164.826.51.51 0 0 1-.542-.107m27.636-10.807a.504.504 0 1 1 .032-1.006.5.5 0 0 1 .49.52.5.5 0 0 1-.522.486m-25.461 8.706a.503.503 0 0 1 .052-.71.507.507 0 0 1 .713.051.506.506 0 0 1-.194.8.5.5 0 0 1-.571-.14m22.475-8.675a.51.51 0 0 1-.53-.481.51.51 0 0 1 .477-.53.51.51 0 0 1 .534.48.51.51 0 0 1-.481.53m-20.128 6.765a.505.505 0 1 1 .816-.596.505.505 0 0 1-.816.596m17.157-6.489a.504.504 0 0 1-.566-.436.505.505 0 0 1 1.001-.133.506.506 0 0 1-.435.57m-14.663 4.778a.504.504 0 1 1 .695.168c-.027.01-.05.028-.076.038a.51.51 0 0 1-.619-.206m11.728-4.257a.504.504 0 0 1-.602-.384.5.5 0 0 1 .384-.602.507.507 0 0 1 .602.384.51.51 0 0 1-.384.602m-9.099 2.76a.506.506 0 1 1 .679.224s-.025.013-.038.018a.51.51 0 0 1-.641-.242m6.212-1.996a.507.507 0 0 1-.632-.334.51.51 0 0 1 .334-.632.503.503 0 0 1 .631.334.5.5 0 0 1-.294.616zm-3.469.718a.504.504 0 1 1 .936-.383.504.504 0 0 1-.936.383"/><path fill="#41d171" d="M331.374 64.958a100.5 100.5 0 0 0-17.804 16.924c-.583-4.152-.916-8.42-.989-12.771a103 103 0 0 0-13.322.998 119.2 119.2 0 0 1 21.084-20.038l11.028 14.889z"/><path fill="#38c266" d="M390.386 39.412a106.4 106.4 0 0 0-71.846 28.67l-12.646-13.528a124.92 124.92 0 0 1 84.35-33.66z"/><path fill="#fcfcfc" d="M317.453 56.703a.997.997 0 1 0-.74-1.851.997.997 0 0 0 .74 1.851m17.624-14.597.435.792c.689 1.258.323 2.09-.672 2.633l-.415.23 1.364 2.497-1.405.766-3.707-6.779 1.405-.766.416-.23c.998-.544 1.89-.405 2.581.852zm-1.405.766c-.206-.377-.382-.422-.583-.31l-.319.175.965 1.762.318-.175c.205-.113.26-.282.054-.659z"/><g style="mix-blend-mode:luminosity"><path fill="#f6733d" d="M331.478 18.159c6.271-.2 12.37-.355 18.642-.555-.483-8.747-.959-17.492-1.442-26.24q-9.286.497-18.567.99c-.082 3.75 1.499 20.973 1.367 25.805"/><mask id="c" width="21" height="28" x="330" y="-9" maskUnits="userSpaceOnUse" style="mask-type:luminance"><path fill="#fff" d="M331.481 18.16c6.271-.198 12.371-.355 18.642-.554-.482-8.747-.959-17.492-1.441-26.24-6.19.332-12.382.66-18.568.99-.082 3.75 1.499 20.972 1.367 25.805"/></mask><g mask="url(#c)"><path fill="#e56538" d="M328.603 18.31c1.65.047 3.254.127 4.904.173-.47-8.747-.934-17.493-1.403-26.24-1.62.087-3.245.17-4.865.257.124 3.744 1.213 20.987 1.367 25.805z"/></g><path fill="#ffce55" d="M346.275-.111c-.224-1.789-1.214-3.196-2.941-4.184-1.13-.646-2.409-.822-3.686-.552l-.008-.023q-.05.025-.09.053a6.6 6.6 0 0 0-2.07.883c-1.092.7-1.875 1.736-2.147 2.843a5.3 5.3 0 0 0-.137 1.23c-.006 1.33.341 2.581 1.008 3.615.71 1.106 1.803 1.943 2.993 2.29.857.25 1.738.25 2.438.212l.128-.006c.812-.05 2.425-.712 3.206-1.468.488-.467 1.589-2.613 1.307-4.89zm-2.883 3.974c.383.126.741.343 1.032.628-.481.399-1.227.774-1.871.991a6.5 6.5 0 0 0 .749-1.64c.029.008.056.011.086.022zm.175-.54c-.039-.012-.075-.016-.113-.025a9.6 9.6 0 0 0 .24-1.79c.008-.2 0-.396-.002-.6L345.747.8c-.036 1.407-.559 2.664-.942 3.267a3.26 3.26 0 0 0-1.238-.742m-4.714.739a7.2 7.2 0 0 1 1.805-.39l.106 2.021a7 7 0 0 1-.867-.082c-.409-.408-.759-.937-1.045-1.553zm.088 1.29a4.7 4.7 0 0 1-1.213-.734q.291-.189.603-.338.268.585.613 1.066zm-.307-1.817a9 9 0 0 1-.45-1.788 10 10 0 0 1-.056-.544l2.388-.126.108 2.029a7.7 7.7 0 0 0-1.99.43m-.396-5.086.082.024c.711.145 1.437.147 2.069.129l.102 1.91-2.392.127c-.024-.725.016-1.451.142-2.169-.001-.004.004-.014.002-.018zm1.547-2.745c.154-.032.309-.047.467-.068l.008.531.098 1.864c-.595.022-1.271.016-1.921-.116-.027-.004-.048-.014-.077-.021.098-.39.217-.719.372-1.008.223-.417.624-.918 1.058-1.18zm2.285 1.005c.191.285.352.62.5 1.028l-.058.02a7.5 7.5 0 0 1-1.585.248l-.099-1.854-.008-.54c.482.195.972.688 1.25 1.098m-1.117 1.865c.544-.035 1.136-.104 1.712-.271l.073-.026a10.4 10.4 0 0 1 .357 2.094l-2.042.109zm.131 2.477 2.038-.108c.003.182.01.362.001.547a9 9 0 0 1-.223 1.69 5 5 0 0 0-.418-.053 11 11 0 0 0-1.289-.047zm2.58-.706a10.8 10.8 0 0 0-.39-2.26 3.9 3.9 0 0 0 1.188-.787 4.63 4.63 0 0 1 1.242 2.66c.011.093.016.182.023.275l-2.068.11zm.387-3.437c-.26.248-.58.464-.951.63a5 5 0 0 0-.558-1.142 4 4 0 0 0-.504-.61c.347.1.685.233 1.009.415q.562.323 1.008.706zm-6.273-.364c.247-.161.5-.293.754-.413-.123.17-.229.337-.31.491-.168.324-.305.69-.412 1.114a3.5 3.5 0 0 1-.9-.484 4.7 4.7 0 0 1 .868-.708m-1.902 2.5a3.8 3.8 0 0 1 .664-1.362c.328.254.711.467 1.146.618-.003.027-.009.047-.017.075-.133.76-.175 1.53-.15 2.294l-1.727.09a6 6 0 0 1-.04-.62c.001-.418.041-.775.12-1.093zm.798 4.402c-.396-.621-.66-1.35-.801-2.12l1.685-.088q.024.297.061.595c.097.683.264 1.332.487 1.931a6 6 0 0 0-.814.464 5.3 5.3 0 0 1-.621-.777zm5.045 2.233c-.123.009-.257.012-.39.016l-.108-2.052c.432-.008.838.01 1.206.046.099.009.209.027.318.04-.23.729-.559 1.365-.97 1.852l.092.077c-.049.008-.106.02-.148.021"/><path fill="#1bb287" d="M330.912 24.73c5.129-3.617 10.132-7.102 15.263-10.716-5.214-7.036-10.424-14.08-15.64-21.118-4.988 3.676-9.977 7.357-14.964 11.034 1.996 3.18 12.791 16.687 15.339 20.797z"/><mask id="d" width="32" height="33" x="315" y="-8" maskUnits="userSpaceOnUse" style="mask-type:luminance"><path fill="#fff" d="M330.915 24.73c5.129-3.618 10.132-7.102 15.263-10.717-5.214-7.036-10.424-14.079-15.64-21.118-4.988 3.676-9.977 7.358-14.964 11.034 1.996 3.18 12.791 16.687 15.339 20.797z"/></mask><g mask="url(#d)"><path fill="#0d9974" d="M328.592 26.444c1.405-.868 2.785-1.683 4.192-2.549q-7.804-10.572-15.609-21.137-1.964 1.445-3.92 2.893c2.161 3.055 12.559 16.857 15.34 20.797z"/></g><path fill="#ffce55" d="M333.365 1.503c-1.169-1.37-2.772-2.003-4.757-1.875-1.3.086-2.463.635-3.382 1.568l-.023-.014-.046.09a6.6 6.6 0 0 0-1.244 1.874c-.527 1.184-.613 2.478-.231 3.555.125.356.311.718.56 1.103.725 1.113 1.704 1.966 2.833 2.465 1.202.535 2.569.63 3.755.268.852-.264 1.589-.746 2.153-1.16.038-.024.069-.053.105-.08.653-.488 1.633-1.928 1.871-2.989.151-.658-.108-3.056-1.598-4.803zm-.22 4.906c.39-.107.81-.118 1.21-.045-.179.598-.599 1.319-1.016 1.855a6.5 6.5 0 0 0-.276-1.779c.029-.008.053-.023.082-.03m-.15-.546c-.038.008-.07.028-.111.038a9 9 0 0 0-.788-1.626c-.104-.172-.217-.333-.33-.495l1.655-1.222c.745 1.192.997 2.53 1.011 3.246a3.24 3.24 0 0 0-1.441.06zm-3.532 3.207a7.2 7.2 0 0 1 1.29-1.317l1.202 1.63a7 7 0 0 1-.768.409c-.565-.117-1.152-.364-1.724-.722m.784 1.03a4.6 4.6 0 0 1-1.415.055 5 5 0 0 1 .319-.612q.544.338 1.1.555zm-1.255-1.347a8.5 8.5 0 0 1-1.358-1.247 8 8 0 0 1-.344-.423l1.924-1.42L330.42 7.3a8 8 0 0 0-1.428 1.454m-3.128-4.031c.027-.012.052-.017.081-.025.674-.271 1.28-.664 1.796-1.03l1.137 1.539-1.931 1.423c-.42-.588-.785-1.22-1.076-1.887l-.01-.018zm-.218-3.143a5 5 0 0 1 .353-.31l.295.438 1.105 1.5c-.486.345-1.053.714-1.671.96-.027.011-.048.015-.075.026a4.7 4.7 0 0 1-.247-1.044c-.046-.47.018-1.114.233-1.566zm2.458-.421c.317.134.638.322.983.582l-.036.051c-.356.418-.782.773-1.185 1.08l-1.101-1.494-.302-.449c.509-.103 1.19.04 1.647.231zm.092 2.17c.435-.327.892-.71 1.281-1.168.016-.02.028-.04.044-.06.537.464 1.018.987 1.453 1.552l-1.646 1.213zm1.471 1.992 1.643-1.21c.101.15.207.301.301.455.306.504.553 1.02.741 1.535a10.4 10.4 0 0 0-1.479.856zm1.766-2.009a11 11 0 0 0-1.569-1.674c.275-.422.461-.866.557-1.308a4.64 4.64 0 0 1 2.503 1.538q.09.103.169.214l-1.665 1.229zM329.868.224c-.08.35-.232.707-.45 1.051a5.2 5.2 0 0 0-1.095-.648 4.5 4.5 0 0 0-.754-.232 4.6 4.6 0 0 1 1.071-.21q.646-.039 1.229.034zm-5.438 3.15c.119-.27.258-.522.406-.76a4 4 0 0 0 .013.581c.034.363.126.744.267 1.157a3.3 3.3 0 0 1-1.015.09q.103-.541.332-1.07zm-.215 3.132a3.8 3.8 0 0 1-.194-1.502c.413.031.853-.001 1.298-.114.013.021.019.047.028.07q.466 1.061 1.138 1.998l-1.393 1.03c-.127-.163-.262-.32-.374-.497a4.6 4.6 0 0 1-.5-.981zm3.088 3.24c-.67-.297-1.293-.762-1.835-1.33l1.357-1.002q.183.233.376.461c.459.518.954.97 1.469 1.342q-.243.393-.427.836a5 5 0 0 1-.945-.308zm5.442-.911c-.099.074-.207.15-.316.23l-1.22-1.651a11 11 0 0 1 1.029-.626 5 5 0 0 1 .288-.142c.207.734.284 1.444.21 2.08l.119.013c-.038.033-.077.071-.114.098z"/><path fill="#0d9974" d="m334.043 19.34 7.55-5.615-1.234-1.508c-.285.288-7.431 5.574-7.431 5.574z"/></g></g><g filter="url(#e)" style="mix-blend-mode:luminosity"><path fill="#00703a" d="M9.309 336.75a4.14 4.14 0 0 1-2.382-1.781 3.16 3.16 0 0 0-1.821-1.358 3.16 3.16 0 0 0-2.262.212 4.14 4.14 0 0 1-2.96.281 4.14 4.14 0 0 1-2.957-3.203 3.153 3.153 0 0 0-3.393-2.543 4.2 4.2 0 0 1-1.503-.137 4.14 4.14 0 0 1-2.962-4.727 3.16 3.16 0 0 0-2.245-3.599 4.11 4.11 0 0 1-2.723-2.479 4.12 4.12 0 0 1 .318-3.669 3.157 3.157 0 0 0-.793-4.167 4.12 4.12 0 0 1-1.645-3.295 4.12 4.12 0 0 1 1.622-3.305 3.156 3.156 0 0 0 .764-4.171 4.13 4.13 0 0 1-.344-3.666 4.12 4.12 0 0 1 2.706-2.498 3.154 3.154 0 0 0 2.22-3.612 4.12 4.12 0 0 1 1.005-3.543 4.12 4.12 0 0 1 3.427-1.352 3.16 3.16 0 0 0 3.375-2.567 4.1 4.1 0 0 1 1.889-2.756 4.15 4.15 0 0 1 4.012-.208c.17.083.351.153.533.204a3.18 3.18 0 0 0 3.542-1.377 4.18 4.18 0 0 1 4.656-1.807c.73.205 1.393.61 1.915 1.175.398.427.904.737 1.462.894a3.15 3.15 0 0 0 2.762-.518 4.12 4.12 0 0 1 3.618-.679 4.12 4.12 0 0 1 2.736 2.463 3.14 3.14 0 0 0 2.088 1.879 3.17 3.17 0 0 0 1.714-.002 4.15 4.15 0 0 1 2.248-.006 4.175 4.175 0 0 1 3.034 3.966c.012 1.4.96 2.642 2.308 3.02.181.051.371.087.56.103q.381.037.743.139a4.16 4.16 0 0 1 2.576 2.127 4.1 4.1 0 0 1 .178 3.336 3.156 3.156 0 0 0 1.546 3.949 4.12 4.12 0 0 1 2.222 2.937 4.12 4.12 0 0 1-.986 3.549 3.155 3.155 0 0 0 .016 4.24 4.12 4.12 0 0 1 1.01 3.541 4.11 4.11 0 0 1-2.202 2.951 3.156 3.156 0 0 0-1.518 3.959 4.12 4.12 0 0 1-.335 3.667 4.12 4.12 0 0 1-3.12 1.957 3.157 3.157 0 0 0-2.846 3.145 4.13 4.13 0 0 1-1.638 3.298 4.12 4.12 0 0 1-3.615.7 3.16 3.16 0 0 0-3.79 1.905 4.14 4.14 0 0 1-4.99 2.494 4.2 4.2 0 0 1-1.355-.665 3.2 3.2 0 0 0-1.028-.506 3.15 3.15 0 0 0-3.192.912 4.14 4.14 0 0 1-4.192 1.195z"/><path fill="#008a48" d="M23.414 279.145a3.66 3.66 0 0 0 4.397 2.17c2.321-.656 4.633 1.077 4.654 3.49a3.66 3.66 0 0 0 3.315 3.612c2.402.226 3.932 2.677 3.08 4.934a3.66 3.66 0 0 0 1.787 4.565 3.657 3.657 0 0 1 1.088 5.714 3.66 3.66 0 0 0 .017 4.901c1.623 1.786 1.101 4.627-1.049 5.721a3.66 3.66 0 0 0-1.755 4.578 3.658 3.658 0 0 1-3.046 4.956 3.66 3.66 0 0 0-3.29 3.633 3.657 3.657 0 0 1-4.63 3.521 3.66 3.66 0 0 0-4.38 2.2c-.875 2.248-3.65 3.049-5.588 1.611a3.66 3.66 0 0 0-4.88.468c-1.63 1.782-4.507 1.525-5.794-.516a3.66 3.66 0 0 0-4.72-1.326c-2.163 1.074-4.752-.206-5.217-2.574a3.66 3.66 0 0 0-3.923-2.94c-2.404.219-4.357-1.909-3.934-4.284a3.66 3.66 0 0 0-2.595-4.159c-2.32-.664-3.374-3.354-2.12-5.416a3.657 3.657 0 0 0-.918-4.815 3.658 3.658 0 0 1-.021-5.816 3.66 3.66 0 0 0 .883-4.823c-1.266-2.053-.233-4.751 2.082-5.431a3.657 3.657 0 0 0 2.566-4.176 3.658 3.658 0 0 1 3.903-4.313 3.66 3.66 0 0 0 3.901-2.967 3.658 3.658 0 0 1 5.199-2.61 3.66 3.66 0 0 0 4.71-1.359c1.274-2.05 4.148-2.326 5.791-.557a3.66 3.66 0 0 0 4.883.435 3.657 3.657 0 0 1 5.6 1.572z"/><path fill="#38c266" d="M6.355 329.151c12.807 3.595 26.104-3.872 29.7-16.679s-3.872-26.103-16.679-29.699-26.104 3.872-29.7 16.679 3.872 26.103 16.68 29.699"/><path fill="#6dd38f" d="M24.34 326.395c11.284-6.337 15.295-20.622 8.958-31.906-6.338-11.285-20.623-15.296-31.907-8.958-11.285 6.337-15.295 20.622-8.958 31.906 6.337 11.285 20.622 15.295 31.907 8.958"/><path fill="#008a48" d="M22.795 323.647c9.767-5.485 13.239-17.849 7.754-27.616s-17.85-13.238-27.616-7.753c-9.767 5.485-13.239 17.849-7.754 27.616s17.85 13.238 27.616 7.753"/><path fill="#d9eae2" d="M30.726 314.199c4.548-9.862.239-21.544-9.624-26.091-9.862-4.547-21.544-.238-26.091 9.624s-.238 21.544 9.624 26.092 21.544.238 26.091-9.625"/><path fill="#008a48" d="M6.722 326.79a.298.298 0 1 1 .574.162.298.298 0 0 1-.574-.162m-1.524-.19a.3.3 0 0 1-.175-.385.297.297 0 0 1 .382-.177h.002a.3.3 0 0 1 .175.385.3.3 0 0 1-.36.183zm3.264.629a.297.297 0 0 1 .35-.237c.162.03.268.188.236.349a.297.297 0 0 1-.35.237l-.024-.007a.3.3 0 0 1-.212-.344zm-4.941-1.331a.3.3 0 1 1 .045.017q-.022-.005-.045-.017m6.71 1.623a.3.3 0 0 1 .33-.265.3.3 0 0 1 .266.33.3.3 0 0 1-.331.266c-.017-.005-.034-.005-.05-.01a.3.3 0 0 1-.214-.321m-8.325-2.461a.299.299 0 1 1 .408-.112.3.3 0 0 1-.34.142.4.4 0 0 1-.068-.03m10.113 2.606a.299.299 0 1 1 .598.018.299.299 0 0 1-.598-.018M.368 324.09a.296.296 0 0 1-.077-.415.296.296 0 0 1 .415-.077.297.297 0 0 1 .077.415.297.297 0 0 1-.415.077m13.445 3.573a.3.3 0 0 1 .282-.315.297.297 0 0 1 .315.282.298.298 0 0 1-.38.305.3.3 0 0 1-.217-.272m-14.9-4.667a.3.3 0 1 1 .38-.462.3.3 0 0 1-.38.462m16.686 4.515a.3.3 0 0 1 .594-.083.3.3 0 0 1-.594.083m-18.044-5.727a.299.299 0 1 1 .422-.006.297.297 0 0 1-.422.006m19.813 5.427a.3.3 0 0 1 .227-.358.297.297 0 0 1 .356.226.297.297 0 0 1-.224.357.3.3 0 0 1-.36-.225m-21.066-6.746a.3.3 0 0 1 .027-.423.3.3 0 1 1-.027.423m22.804 6.3a.3.3 0 0 1 .194-.376.3.3 0 0 1 .376.197.297.297 0 0 1-.194.374.3.3 0 0 1-.376-.195m-23.945-7.719a.3.3 0 0 1 .063-.417.3.3 0 0 1 .357.481.3.3 0 0 1-.26.047.3.3 0 0 1-.16-.111m25.64 7.131a.3.3 0 1 1 .555-.224.3.3 0 0 1-.555.224m-26.66-8.638a.3.3 0 0 1 .099-.412.3.3 0 0 1 .412.098.3.3 0 0 1-.51.314m28.302 7.913a.298.298 0 1 1 .533-.27.3.3 0 0 1-.13.403.303.303 0 0 1-.403-.133m-29.193-9.497a.3.3 0 0 1 .13-.403.299.299 0 1 1 .055.555.3.3 0 0 1-.185-.152m30.77 8.638a.3.3 0 0 1 .096-.412h.002a.3.3 0 0 1 .41.098.3.3 0 0 1-.096.413.3.3 0 0 1-.412-.099m-31.528-10.294a.3.3 0 0 1 .164-.389.297.297 0 0 1 .39.161.3.3 0 1 1-.554.228m33.03 9.31a.295.295 0 0 1 .063-.417.297.297 0 0 1 .417.062.3.3 0 0 1-.322.465.3.3 0 0 1-.158-.11m-33.65-11.018a.3.3 0 1 1 .57-.183.3.3 0 0 1-.57.183m35.063 9.913a.297.297 0 0 1 .03-.42.3.3 0 0 1 .422.027.3.3 0 0 1-.308.486.3.3 0 0 1-.144-.093m-35.54-11.669a.3.3 0 1 1 .584-.134.3.3 0 0 1-.584.134m36.86 10.454a.3.3 0 1 1 .417-.432.3.3 0 0 1-.416.432m-37.19-12.242a.298.298 0 1 1 .591-.085.298.298 0 0 1-.59.085m38.404 10.92a.304.304 0 0 1-.042-.424.3.3 0 1 1 .15.48.3.3 0 0 1-.108-.056m-38.586-12.729a.3.3 0 0 1 .283-.317.3.3 0 0 1 .034.599.3.3 0 0 1-.317-.282m39.688 11.31a.3.3 0 1 1 .415-.077.3.3 0 0 1-.415.077m-39.717-13.129a.3.3 0 0 1 .599.016.3.3 0 0 1-.306.29.3.3 0 0 1-.293-.306m40.694 11.623a.299.299 0 1 1 .298-.519.3.3 0 0 1 .11.409.3.3 0 0 1-.408.11m-40.572-13.437a.3.3 0 1 1 .265.329l-.048-.009a.3.3 0 0 1-.217-.32m41.42 11.858a.3.3 0 1 1 .4-.145.3.3 0 0 1-.354.16l-.046-.013zM-8.75 301.806a.298.298 0 1 1 .585.114.3.3 0 0 1-.351.237l-.024-.007a.296.296 0 0 1-.21-.344m41.864 12.011a.3.3 0 1 1 .024.008l-.024-.006zm-41.448-13.781a.3.3 0 1 1 .576.162.3.3 0 0 1-.576-.162m41.818 11.712.009-.023.004-.025a.303.303 0 0 1 .37-.21.3.3 0 0 1 .208.37l-.007.026-.007.024a.3.3 0 1 1-.577-.162m-41.081-13.057a.3.3 0 0 1-.177-.385.299.299 0 1 1 .201.392zm41.5 11.286a.3.3 0 0 1 .35-.239.3.3 0 0 1 .238.352.3.3 0 0 1-.351.236l-.025-.004a.3.3 0 0 1-.212-.345M-6.93 297.024a.299.299 0 1 1 .254-.54.299.299 0 0 1-.254.54m41.093 11.202a.3.3 0 1 1 .266.33.3.3 0 0 1-.267-.33m-40.289-12.804a.3.3 0 0 1-.11-.41.297.297 0 0 1 .406-.109.297.297 0 0 1 .112.407.3.3 0 0 1-.34.14c-.024-.007-.048-.013-.068-.028m40.405 11.04a.3.3 0 0 1 .307-.293.3.3 0 0 1 .292.306.3.3 0 0 1-.38.281.3.3 0 0 1-.219-.294m-39.471-12.573a.3.3 0 0 1-.077-.416.3.3 0 0 1 .415-.077.3.3 0 0 1 .077.416.296.296 0 0 1-.415.077m39.441 10.803a.3.3 0 1 1 .596-.035.3.3 0 0 1-.596.035m-38.381-12.253a.297.297 0 0 1-.043-.421.3.3 0 0 1 .463.38.3.3 0 0 1-.42.041m38.203 10.495a.3.3 0 1 1 .592-.087.3.3 0 0 1-.592.087m-37.028-11.852a.296.296 0 0 1-.008-.422.298.298 0 1 1 .135.495.3.3 0 0 1-.127-.073m36.704 10.114a.3.3 0 0 1 .225-.36.3.3 0 0 1 .359.225.297.297 0 0 1-.224.357.3.3 0 0 1-.148-.002.3.3 0 0 1-.212-.22m-35.42-11.368a.3.3 0 0 1 .027-.423.3.3 0 0 1 .422.029.296.296 0 0 1-.028.421.3.3 0 0 1-.422-.027m34.955 9.659a.298.298 0 1 1 .569-.18.3.3 0 0 1-.195.377.33.33 0 0 1-.173.001.3.3 0 0 1-.203-.198zM-.292 288.683a.3.3 0 0 1 .063-.419.3.3 0 0 1 .42.063.3.3 0 0 1-.064.42.3.3 0 0 1-.42-.064m32.968 9.143a.3.3 0 1 1 .392.162.3.3 0 0 1-.195.011.3.3 0 0 1-.197-.173M1.18 287.656a.3.3 0 0 1 .098-.412.3.3 0 0 1 .412.098.3.3 0 0 1-.336.446.3.3 0 0 1-.174-.132m30.756 8.563a.299.299 0 1 1 .532-.273.3.3 0 0 1-.129.404.304.304 0 0 1-.403-.131m-29.204-9.463a.3.3 0 0 1 .13-.403.3.3 0 0 1 .404.13.3.3 0 0 1-.131.403.3.3 0 0 1-.217.02.3.3 0 0 1-.186-.15m28.334 7.92a.296.296 0 0 1 .098-.41.299.299 0 1 1-.098.41m-26.713-8.693a.297.297 0 0 1 .161-.39.3.3 0 0 1 .392.162.3.3 0 0 1-.553.228m25.72 7.228a.298.298 0 1 1 .48-.355.298.298 0 0 1-.321.465.3.3 0 0 1-.159-.11m-24.042-7.864a.297.297 0 0 1 .194-.375.296.296 0 0 1 .374.195.296.296 0 0 1-.194.374.297.297 0 0 1-.374-.194m22.932 6.486a.3.3 0 0 1 .027-.421.299.299 0 1 1 .394.45.3.3 0 0 1-.42-.029m-21.209-6.982a.3.3 0 0 1 .225-.359.3.3 0 1 1-.015.581.3.3 0 0 1-.21-.222m19.989 5.701a.299.299 0 1 1 .414-.431.299.299 0 0 1-.414.431M9.513 284.5a.297.297 0 0 1 .254-.337.297.297 0 0 1 .338.253.297.297 0 0 1-.376.33.3.3 0 0 1-.216-.246m16.907 4.873a.3.3 0 0 1-.043-.421.3.3 0 0 1 .42-.041c.13.104.15.292.043.421a.297.297 0 0 1-.42.041m-15.126-5.078a.3.3 0 0 1 .28-.315.3.3 0 1 1-.28.315m13.709 4.017a.304.304 0 0 1-.077-.418.3.3 0 0 1 .416-.077.3.3 0 0 1 .078.418.3.3 0 0 1-.326.117.3.3 0 0 1-.091-.04m-11.915-4.07a.3.3 0 1 1 .599.013.3.3 0 0 1-.6-.013m10.416 3.129a.3.3 0 1 1 .3-.519.3.3 0 0 1-.3.519m-8.625-3.036a.3.3 0 1 1 .266.33c-.016-.005-.033-.005-.05-.01a.3.3 0 0 1-.216-.32m7.056 2.223a.3.3 0 1 1 .045.017q-.025-.007-.045-.017m-5.279-1.98a.303.303 0 0 1 .352-.239.3.3 0 0 1-.113.589l-.025-.005a.3.3 0 0 1-.214-.345m3.644 1.299a.3.3 0 0 1-.177-.385.3.3 0 1 1 .201.392zm-1.892-.912a.299.299 0 1 1 .58.158.299.299 0 0 1-.58-.158"/><path fill="#38c266" d="M27.259 339.452a63.1 63.1 0 0 0-44.16-12.398l-1.077-10.926a74.06 74.06 0 0 1 51.845 14.555z"/><g style="mix-blend-mode:luminosity"><path fill="#f6733d" d="M7.18 308.214c3.025 2.167 5.953 4.292 8.977 6.458l8.78-12.873q-4.551-3.113-9.099-6.227c-1.39 1.737-6.853 10.415-8.657 12.642"/><mask id="f" width="18" height="20" x="7" y="295" maskUnits="userSpaceOnUse" style="mask-type:luminance"><path fill="#fff" d="M7.178 308.215c3.025 2.166 5.953 4.291 8.977 6.458l8.78-12.874-9.1-6.226c-1.39 1.736-6.853 10.414-8.657 12.642"/></mask><g mask="url(#f)"><path fill="#e56538" d="M5.77 307.249c.76.616 1.487 1.232 2.247 1.848q4.399-6.43 8.797-12.86l-2.383-1.632c-1.29 1.807-6.993 10.318-8.658 12.642z"/></g><path fill="#ffce55" d="M20.732 304.945c.54-.923.58-1.942.123-3.03a3.06 3.06 0 0 0-1.536-1.588l.005-.014-.062-.007a4 4 0 0 0-1.293-.331c-.766-.063-1.508.142-2.035.565a3.2 3.2 0 0 0-.508.529c-.483.625-.77 1.339-.828 2.066-.065.777.148 1.565.584 2.157.313.427.728.744 1.07.978l.063.044c.4.269 1.399.539 2.039.464.398-.044 1.69-.657 2.377-1.831zm-2.79.832c.135.198.226.429.26.668-.37.014-.856-.078-1.238-.208.317-.111.634-.283.944-.502.01.014.022.025.032.041zm.277-.191q-.022-.028-.044-.052a5.7 5.7 0 0 0 .759-.757c.075-.091.142-.186.215-.283l1.007.69c-.524.649-1.224 1.052-1.621 1.198a1.94 1.94 0 0 0-.316-.796m-2.485-1.351c.359.115.694.278.99.467l-.679.99a4 4 0 0 1-.378-.352 3.2 3.2 0 0 1 .068-1.107zm-.424.639a2.8 2.8 0 0 1-.306-.783q.205.017.405.058-.083.373-.096.723zm.51-.966c.104-.334.248-.673.433-1.004q.082-.142.17-.277l1.17.802-.68.994a4.6 4.6 0 0 0-1.093-.515m1.647-2.537.03.04c.283.325.624.588.928.807l-.64.936-1.172-.802c.25-.351.53-.678.848-.97 0-.003.007-.006.008-.008zm1.718-.735c.084.04.163.089.244.136l-.187.253-.626.913a5 5 0 0 1-.862-.747c-.012-.012-.018-.024-.03-.038a2.6 2.6 0 0 1 .54-.34c.254-.116.624-.208.922-.174zm.714 1.297a2.8 2.8 0 0 1-.135.664l-.035-.012a4.5 4.5 0 0 1-.836-.454l.622-.909.191-.257c.156.265.21.674.193.968m-1.198.475c.268.179.572.361.903.489l.044.014a6 6 0 0 1-.587 1.115l-1-.685zm-.832 1.213.999.684c-.064.087-.126.174-.197.258-.223.27-.463.511-.714.715a4 4 0 0 0-.178-.175 7 7 0 0 0-.59-.487zm1.47.598c.25-.378.463-.779.63-1.205q.44.107.843.058c.06.6-.063 1.171-.374 1.7-.028.048-.058.091-.088.138l-1.013-.694zm1.42-1.479c-.211.023-.44.01-.674-.046.087-.268.135-.508.149-.739.01-.137.003-.3-.018-.468q.194.256.326.559.148.353.22.695zm-2.822-2.432c.175.013.342.042.504.077-.119.036-.23.076-.323.12a3 3 0 0 0-.595.375 2 2 0 0 1-.25-.552q.324-.05.664-.02m-1.796.491c.228-.181.503-.319.803-.402.063.238.167.476.317.705-.011.011-.021.018-.035.029a6.6 6.6 0 0 0-.897 1.026l-.846-.581c.065-.104.13-.208.205-.306a2.7 2.7 0 0 1 .45-.471zm-1.211 2.36c.037-.435.175-.873.387-1.287l.825.566q-.095.149-.186.303c-.2.356-.356.722-.467 1.084a4 4 0 0 0-.55-.075 3 3 0 0 1-.012-.589zm1.57 2.87q-.092-.062-.19-.133l.69-1.005c.206.152.39.307.55.457.044.039.09.087.136.133-.371.26-.755.441-1.124.523l.016.069c-.026-.014-.057-.029-.078-.044"/><path fill="#e56538" d="M10.81 308.916s3.079 2.089 4.616 3.134l.605-.984c-.216-.104-4.568-3.074-4.568-3.074l-.65.925z"/><path fill="#1bb287" d="M4.551 311.106c3.719.145 7.33.308 11.049.456.08-5.192.167-10.386.248-15.58l-11.022-.199c-.206 2.216.008 12.467-.274 15.32z"/><mask id="g" width="12" height="17" x="4" y="295" maskUnits="userSpaceOnUse" style="mask-type:luminance"><path fill="#fff" d="M4.548 311.106c3.718.145 7.33.308 11.048.456.081-5.192.167-10.386.249-15.58l-11.023-.199c-.206 2.217.008 12.467-.274 15.321z"/></mask><g mask="url(#g)"><path fill="#0d9974" d="M2.84 311.076c.975.097 1.918.211 2.892.311q.137-7.791.27-15.578-1.446-.028-2.888-.051c-.084 2.217-.163 12.463-.274 15.321z"/></g><path fill="#ffce55" d="M14.078 301.053c-.056-1.067-.583-1.942-1.564-2.597a3.06 3.06 0 0 0-2.157-.481l-.006-.015-.054.026c-.42.067-.843.207-1.261.434-.675.367-1.182.946-1.39 1.59-.07.213-.112.45-.134.722-.06.785.094 1.54.445 2.181.374.685.983 1.222 1.672 1.48.495.182 1.017.221 1.431.229q.04.003.079.001c.483.006 1.463-.319 1.958-.733.308-.255 1.05-1.478.979-2.837zm-1.872 2.231c.223.09.424.236.586.415-.3.217-.757.405-1.147.507a3.8 3.8 0 0 0 .511-.937c.017.006.034.008.05.015m.126-.312c-.02-.009-.042-.012-.066-.021a5.4 5.4 0 0 0 .239-1.402l1.22.021c-.08.83-.443 1.551-.695 1.893a1.9 1.9 0 0 0-.7-.491zm-2.818.238a4.3 4.3 0 0 1 1.082-.155l-.022 1.2a4 4 0 0 1-.509-.084 3.2 3.2 0 0 1-.551-.961m-.002.767a2.7 2.7 0 0 1-.686-.484 3 3 0 0 1 .37-.173q.135.356.318.657zm-.106-1.087a5 5 0 0 1-.19-1.076c-.008-.108-.008-.216-.009-.324l1.417.026-.022 1.205a4.6 4.6 0 0 0-1.196.169m-.02-3.025q.024.007.047.017c.416.116.842.149 1.217.163l-.019 1.134-1.422-.026c.014-.428.07-.857.174-1.276l.001-.012zm1.03-1.558a3 3 0 0 1 .279-.019l-.02.313-.02 1.105c-.353-.014-.753-.045-1.133-.151l-.044-.015q.111-.338.26-.581c.148-.238.41-.518.674-.653zm1.31.688c.1.177.184.381.252.628l-.035.011a4.5 4.5 0 0 1-.947.081l.02-1.1.02-.32c.276.135.546.447.692.702zm-.739 1.054a4.7 4.7 0 0 0 1.024-.088l.043-.012c.085.412.123.832.124 1.254l-1.212-.022zm-.026 1.469 1.21.022c-.007.107-.011.216-.022.323-.038.347-.108.68-.204.989a5.7 5.7 0 0 0-1.006-.13zm1.556-.31c0-.454-.042-.906-.136-1.354.282-.099.53-.241.734-.415.38.469.593 1.012.624 1.627q.005.081.003.161l-1.227-.022zm.376-2.017a2 2 0 0 1-.591.332 3 3 0 0 0-.282-.7 2.7 2.7 0 0 0-.271-.381c.2.073.395.165.58.287q.318.216.566.46zm-3.696-.478q.232-.124.465-.211a2 2 0 0 0-.203.278 3 3 0 0 0-.291.641 2 2 0 0 1-.51-.323q.243-.217.542-.385zm-1.23 1.398c.088-.276.244-.541.45-.778.183.164.402.307.652.415-.001.014-.008.028-.012.043q-.163.667-.184 1.351l-1.027-.018c-.002-.122-.008-.245.003-.368.019-.245.056-.456.118-.643zm.286 2.638a3.5 3.5 0 0 1-.385-1.287l1 .017q.003.176.012.353c.029.409.1.8.207 1.161q-.255.097-.502.239a3 3 0 0 1-.334-.485zm2.89 1.533-.231-.006.02-1.217c.256.013.497.041.71.076.059.009.126.023.188.037-.168.42-.387.782-.651 1.055l.05.049q-.045.005-.088.005z"/><path fill="#0d9974" d="m7.968 309.696 5.578.078-.037-1.155c-.238.033-5.507-.053-5.507-.053z"/></g></g><g filter="url(#h)" style="mix-blend-mode:luminosity"><path fill="#00703a" d="M316.917 266.141a4.14 4.14 0 0 1 2.919-.57 3.15 3.15 0 0 0 2.229-.438 3.16 3.16 0 0 0 1.361-1.818 4.14 4.14 0 0 1 1.779-2.383 4.14 4.14 0 0 1 4.359-.042 3.15 3.15 0 0 0 4.163-.807 4.1 4.1 0 0 1 1.11-1.022 4.14 4.14 0 0 1 5.492.978 3.16 3.16 0 0 0 4.175.752 4.11 4.11 0 0 1 3.665-.353 4.12 4.12 0 0 1 2.506 2.699 3.156 3.156 0 0 0 3.62 2.209 4.13 4.13 0 0 1 3.547.993 4.12 4.12 0 0 1 1.361 3.421 3.154 3.154 0 0 0 2.578 3.366 4.13 4.13 0 0 1 2.948 2.206 4.12 4.12 0 0 1 .035 3.683 3.153 3.153 0 0 0 1.187 4.07 4.12 4.12 0 0 1 1.951 3.124 4.12 4.12 0 0 1-1.299 3.447 3.16 3.16 0 0 0-.363 4.225c.711.939.986 2.093.775 3.25a4.16 4.16 0 0 1-2.54 3.113 3.3 3.3 0 0 0-.509.258 3.18 3.18 0 0 0-1.357 3.55 4.18 4.18 0 0 1-1.786 4.664 4.15 4.15 0 0 1-2.157.631 3.166 3.166 0 0 0-3.114 2.877 4.12 4.12 0 0 1-1.926 3.138 4.12 4.12 0 0 1-3.662.374 3.14 3.14 0 0 0-2.795.286c-.491.309-.89.75-1.149 1.272a4.15 4.15 0 0 1-1.504 1.67 4.175 4.175 0 0 1-4.977-.414 3.18 3.18 0 0 0-3.787-.317 3 3 0 0 0-.453.347q-.283.256-.601.457a4.16 4.16 0 0 1-3.306.481 4.1 4.1 0 0 1-2.592-2.108 3.157 3.157 0 0 0-3.965-1.505 4.12 4.12 0 0 1-3.669-.325 4.12 4.12 0 0 1-1.968-3.113 3.155 3.155 0 0 0-3.153-2.835 4.12 4.12 0 0 1-3.303-1.629 4.11 4.11 0 0 1-.709-3.612 3.156 3.156 0 0 0-1.915-3.784 4.12 4.12 0 0 1-2.492-2.71 4.12 4.12 0 0 1 .643-3.626 3.156 3.156 0 0 0-.42-4.22 4.13 4.13 0 0 1-1.345-3.429 4.13 4.13 0 0 1 1.909-3.149 3.16 3.16 0 0 0 1.133-4.088 4.14 4.14 0 0 1 1.501-5.373 4.2 4.2 0 0 1 1.402-.557c.38-.076.739-.217 1.066-.422a3.15 3.15 0 0 0 1.467-2.978 4.14 4.14 0 0 1 1.928-3.91z"/><path fill="#008a48" d="M350.139 315.27a3.66 3.66 0 0 0-4.56 1.801c-1.072 2.161-3.908 2.711-5.711 1.107a3.66 3.66 0 0 0-4.902.032 3.66 3.66 0 0 1-5.725-1.03 3.66 3.66 0 0 0-4.583-1.74c-2.249.876-4.716-.627-4.965-3.029a3.66 3.66 0 0 0-3.644-3.278c-2.413.004-4.169-2.29-3.536-4.618a3.66 3.66 0 0 0-2.215-4.375 3.657 3.657 0 0 1-1.628-5.584 3.66 3.66 0 0 0-.484-4.877c-1.788-1.624-1.54-4.502.498-5.795a3.66 3.66 0 0 0 1.31-4.724 3.658 3.658 0 0 1 2.558-5.223 3.66 3.66 0 0 0 2.929-3.932 3.658 3.658 0 0 1 4.273-3.947 3.66 3.66 0 0 0 4.151-2.609c.656-2.323 3.343-3.383 5.41-2.138a3.66 3.66 0 0 0 4.813-.933c1.451-1.929 4.339-1.948 5.816-.04a3.66 3.66 0 0 0 4.824.869c2.051-1.274 4.751-.249 5.438 2.064a3.656 3.656 0 0 0 4.185 2.552 3.66 3.66 0 0 1 4.325 3.889 3.66 3.66 0 0 0 2.981 3.893c2.372.439 3.677 3.017 2.627 5.189a3.657 3.657 0 0 0 1.373 4.705c2.054 1.268 2.341 4.142.576 5.788a3.66 3.66 0 0 0-.42 4.884 3.658 3.658 0 0 1-1.555 5.605 3.66 3.66 0 0 0-2.155 4.403c.664 2.32-1.061 4.636-3.475 4.666a3.66 3.66 0 0 0-3.601 3.327 3.657 3.657 0 0 1-4.925 3.095z"/><path fill="#38c266" d="M324.528 269.055c-11.263 7.078-14.655 21.946-7.577 33.209s21.946 14.655 33.209 7.577c11.262-7.078 14.654-21.946 7.576-33.209-7.078-11.262-21.946-14.655-33.208-7.577"/><path fill="#6dd38f" d="M314.498 284.234c-2.879 12.618 5.016 25.18 17.634 28.059s25.18-5.016 28.059-17.634-5.016-25.18-17.634-28.059-25.18 5.016-28.059 17.634"/><path fill="#008a48" d="M317.569 284.935c-2.492 10.921 4.342 21.794 15.263 24.286s21.794-4.342 24.286-15.263c2.491-10.921-4.342-21.794-15.263-24.286s-21.794 4.342-24.286 15.263"/><path fill="#d9eae2" d="M319.252 297.154c4.257 9.991 15.807 14.64 25.799 10.383s14.639-15.807 10.383-25.799-15.808-14.639-25.799-10.382-14.64 15.807-10.383 25.798"/><path fill="#008a48" d="M326.033 270.911a.298.298 0 1 1-.507.318.298.298 0 0 1 .507-.318m1.165-1.001a.3.3 0 0 1 .277.531l-.002.001a.297.297 0 0 1-.402-.128.3.3 0 0 1 .105-.391zm-2.658 1.997a.298.298 0 1 1-.418-.059l.021-.014a.3.3 0 0 1 .398.074zm4.303-2.769a.3.3 0 0 1 .393.159.3.3 0 0 1-.16.392.299.299 0 0 1-.276-.529q.02-.013.043-.022m-5.708 3.884a.3.3 0 0 1-.025.422.3.3 0 0 1-.423-.024.3.3 0 0 1 .026-.424l.04-.031a.3.3 0 0 1 .382.057m7.414-4.518a.299.299 0 1 1 .184.57.297.297 0 0 1-.375-.192.3.3 0 0 1 .123-.348.3.3 0 0 1 .068-.03m-8.721 5.746a.3.3 0 1 1-.425.009.3.3 0 0 1 .425-.009m10.472-6.235a.297.297 0 0 1 .36.222.297.297 0 0 1-.222.359.3.3 0 0 1-.138-.581m-11.674 7.567a.3.3 0 1 1-.378.464.3.3 0 0 1 .378-.464m13.462-7.911a.3.3 0 0 1 .088.593.3.3 0 0 1-.088-.593m-14.549 9.336a.3.3 0 1 1-.337.496.3.3 0 0 1 .337-.496m16.359-9.528a.297.297 0 0 1 .318.277.3.3 0 0 1-.28.32.3.3 0 0 1-.179-.554.3.3 0 0 1 .141-.043m-17.324 11.04a.3.3 0 0 1 .114.409.3.3 0 0 1-.407.112.297.297 0 0 1-.014-.513.3.3 0 0 1 .307-.008m19.142-11.084a.3.3 0 0 1 .296.304.3.3 0 0 1-.306.293.294.294 0 0 1-.292-.303.297.297 0 0 1 .302-.294m-19.978 12.671a.3.3 0 1 1-.25.545.3.3 0 0 1 .25-.545m21.796-12.564a.3.3 0 1 1-.063.596.3.3 0 0 1 .063-.596m-22.498 14.216a.3.3 0 1 1-.206.562.3.3 0 0 1 .206-.562m24.299-13.96c.162.03.269.188.24.35a.3.3 0 0 1-.35.239.3.3 0 0 1-.239-.349.3.3 0 0 1 .349-.24m-24.864 15.663a.299.299 0 1 1-.158.577.299.299 0 0 1 .158-.577m26.637-15.26a.3.3 0 1 1-.156.578.3.3 0 0 1 .156-.578m-27.06 17.006a.3.3 0 0 1 .242.348l-.002.001a.3.3 0 1 1-.24-.349m28.796-16.456a.3.3 0 0 1 .179.383.299.299 0 1 1-.179-.383m-29.074 18.23a.295.295 0 0 1 .267.327.297.297 0 0 1-.327.267.3.3 0 0 1-.128-.551.3.3 0 0 1 .188-.043m30.756-17.542a.297.297 0 0 1 .148.396.3.3 0 0 1-.397.149.3.3 0 0 1-.146-.399.3.3 0 0 1 .113-.127.3.3 0 0 1 .282-.019M315.64 288.77a.3.3 0 0 1-.012.599.3.3 0 0 1-.154-.555.3.3 0 0 1 .166-.044m32.508-18.507a.3.3 0 1 1-.294.523.3.3 0 0 1 .294-.523m-32.494 20.302a.3.3 0 1 1-.278.318.3.3 0 0 1 .14-.274.3.3 0 0 1 .138-.044m34.04-19.346a.298.298 0 1 1-.334.495.298.298 0 0 1 .334-.495m-33.875 21.133a.3.3 0 0 1 .342.253.3.3 0 1 1-.342-.253m35.338-20.053a.3.3 0 0 1 .045.422.3.3 0 0 1-.467-.377.3.3 0 0 1 .076-.065.3.3 0 0 1 .346.02m-35.025 21.822a.3.3 0 0 1 .36.223.3.3 0 1 1-.36-.223m36.393-20.622a.3.3 0 0 1 .01.421.297.297 0 0 1-.424.012.3.3 0 0 1 .049-.471.3.3 0 0 1 .365.038m-35.934 22.357a.3.3 0 1 1-.192.376.3.3 0 0 1 .124-.346.3.3 0 0 1 .068-.03m37.196-21.05a.3.3 0 1 1-.448.398.3.3 0 0 1 .027-.422c.014-.009.026-.022.038-.03a.3.3 0 0 1 .383.054m-36.595 22.739a.3.3 0 1 1-.161.393.3.3 0 0 1 .119-.369l.041-.026zm37.746-21.329a.299.299 0 1 1-.478.358.3.3 0 0 1 .061-.42l.021-.013a.297.297 0 0 1 .396.075m-37.007 22.965a.3.3 0 1 1-.022.012zm38.039-21.468a.3.3 0 1 1-.507.319.3.3 0 0 1 .507-.319m-36.754 23.131.011.022.016.02a.3.3 0 1 1-.507.321l-.014-.023-.014-.021a.3.3 0 0 1 .095-.414.3.3 0 0 1 .413.095m37.257-21.682a.3.3 0 0 1 .404.127.3.3 0 0 1-.128.404.298.298 0 0 1-.298-.518zm-36.226 23.181a.3.3 0 0 1-.057.42.3.3 0 0 1-.421-.059.3.3 0 0 1 .06-.42l.02-.015a.3.3 0 0 1 .398.074m37.012-21.567a.299.299 0 1 1-.045.023q.022-.014.045-.023m-35.889 22.936a.3.3 0 0 1-.027.422.296.296 0 0 1-.421-.024.3.3 0 0 1 .448-.398m36.537-21.264a.3.3 0 0 1 .378.193.297.297 0 0 1-.192.375.297.297 0 0 1-.377-.191.296.296 0 0 1 .124-.345.2.2 0 0 1 .067-.032m-35.308 22.535c.12.116.124.304.012.424a.3.3 0 1 1-.012-.424m35.818-20.814a.3.3 0 0 1 .137.582.297.297 0 0 1-.359-.222.296.296 0 0 1 .222-.36m-34.486 21.98a.3.3 0 1 1-.375.465.3.3 0 0 1 .375-.465m34.849-20.221a.297.297 0 0 1 .34.251.3.3 0 0 1-.252.339.3.3 0 0 1-.341-.251.3.3 0 0 1 .138-.297.3.3 0 0 1 .115-.042m-33.426 21.269a.3.3 0 1 1-.334.498.3.3 0 0 1 .334-.498m33.642-19.487a.295.295 0 0 1 .318.278.3.3 0 0 1-.279.319.298.298 0 0 1-.178-.551.3.3 0 0 1 .139-.046m-32.136 20.414a.3.3 0 0 1-.293.523.3.3 0 0 1-.013-.514.3.3 0 0 1 .306-.009m32.204-18.621a.299.299 0 1 1-.01.598.296.296 0 0 1-.293-.303.3.3 0 0 1 .303-.295m-30.626 19.423a.298.298 0 1 1-.248.542.3.3 0 0 1-.148-.397.3.3 0 0 1 .398-.146zm30.547-17.631a.3.3 0 1 1-.19.045.3.3 0 0 1 .19-.045m-28.909 18.297a.3.3 0 0 1 .18.384.3.3 0 0 1-.383.179.298.298 0 0 1-.057-.533.3.3 0 0 1 .26-.03m28.682-16.516a.3.3 0 0 1 .239.35.3.3 0 0 1-.349.239.3.3 0 0 1-.239-.349.3.3 0 0 1 .135-.199.3.3 0 0 1 .214-.041m-26.994 17.047a.299.299 0 1 1-.155.577.3.3 0 0 1-.213-.366.307.307 0 0 1 .368-.211m26.619-15.292a.3.3 0 0 1 .211.367.3.3 0 0 1-.578-.156.305.305 0 0 1 .367-.211m-24.891 15.683a.296.296 0 0 1 .238.348.3.3 0 0 1-.346.24.3.3 0 0 1-.242-.349.3.3 0 0 1 .35-.239m24.376-13.963a.3.3 0 0 1-.203.563.3.3 0 0 1-.057-.536.3.3 0 0 1 .26-.027m-22.624 14.211a.297.297 0 0 1 .267.327.297.297 0 0 1-.327.267.299.299 0 0 1 .06-.594m21.969-12.54a.295.295 0 0 1 .147.395.296.296 0 0 1-.395.147.296.296 0 0 1-.147-.395.3.3 0 0 1 .112-.13.3.3 0 0 1 .283-.017m-20.202 12.642a.298.298 0 1 1-.011.598.3.3 0 0 1-.293-.306.293.293 0 0 1 .304-.292m19.412-11.032a.3.3 0 0 1 .116.408.3.3 0 0 1-.409.113.296.296 0 0 1-.114-.406.297.297 0 0 1 .407-.115m-17.644 10.987a.3.3 0 1 1 .04.598.3.3 0 0 1-.04-.598m16.723-9.448c.137.092.174.28.08.415a.296.296 0 0 1-.414.08.297.297 0 0 1 .007-.5.3.3 0 0 1 .327.005m-14.961 9.259a.3.3 0 0 1 .341.251.3.3 0 0 1-.252.339.297.297 0 0 1-.341-.251.296.296 0 0 1 .252-.339m13.918-7.801a.3.3 0 1 1-.423.045.3.3 0 0 1 .423-.045m-12.18 7.463a.304.304 0 0 1 .361.224.3.3 0 0 1-.222.36.304.304 0 0 1-.363-.223.3.3 0 0 1 .224-.361m11.016-6.098a.3.3 0 1 1-.424.011.3.3 0 0 1 .424-.011m-9.313 5.619a.3.3 0 0 1 .377.194.299.299 0 1 1-.443-.162.3.3 0 0 1 .066-.032m8.041-4.355a.3.3 0 0 1-.026.424.297.297 0 0 1-.422-.026.3.3 0 0 1 .025-.421c.014-.009.026-.022.04-.031a.3.3 0 0 1 .383.054m-6.385 3.738a.3.3 0 1 1 .234.551.3.3 0 0 1-.234-.551m5.012-2.583a.3.3 0 1 1-.42-.058l.02-.015a.304.304 0 0 1 .4.073m-3.409 1.828a.3.3 0 0 1 .404.127.304.304 0 0 1-.127.405.3.3 0 0 1-.405-.128.297.297 0 0 1 .106-.39zm1.946-.79a.303.303 0 0 1-.093.415.3.3 0 1 1 .093-.415"/><path fill="#41d171" d="M334.549 256.419a59.6 59.6 0 0 0 8.573-11.774 62 62 0 0 1 1.943 7.342 61 61 0 0 0 7.663-2.007 70.7 70.7 0 0 1-10.153 13.942l-8.024-7.504zm-25.75 16.182a59.6 59.6 0 0 1-14.328 2.618 62 62 0 0 0 5.773 4.935 61 61 0 0 1-5.132 6.034 70.7 70.7 0 0 0 16.966-3.101l-3.281-10.485z"/><path fill="#38c266" d="M302.861 277.63a63.08 63.08 0 0 0 38.834-24.405l8.822 6.536a74.06 74.06 0 0 1-45.593 28.653z"/><path fill="#fcfcfc" d="M307.89 282.152a.59.59 0 1 0 .627 1 .59.59 0 0 0-.627-1m26.939-12.008-.338-.416c-.536-.66-.412-1.184.11-1.607l.218-.179-1.063-1.31.737-.597 2.888 3.557-.738.597-.218.178c-.524.425-1.058.439-1.596-.22zm.738-.598c.16.198.268.206.373.119l.167-.136-.751-.925-.167.136c-.107.088-.121.193.039.391zm-.874 2.182-.726.549-2.759-3.656.725-.548 2.758 3.656zm-4.13 1.66-1.391-1.983c-.49-.697-.329-1.208.25-1.616.578-.407 1.114-.383 1.604.314l1.392 1.982c.49.697.329 1.208-.25 1.615-.58.406-1.114.384-1.604-.313zm.735-.548c.147.21.253.223.366.144s.135-.183-.012-.392l-1.361-1.94c-.147-.209-.253-.222-.364-.145-.113.079-.135.183.012.392l1.361 1.94zm-2.272 2.837-.744.476-2.463-3.862.755-.483 1.758 1.796-1.372-2.043.755-.483 2.463 3.862-.794.507-1.702-1.769zm-4.448-1.624-.917.532-.445-.764 1.738-1.01 2.3 3.963-1.709.991-.444-.764.89-.516-.434-.747-.861.499-.426-.736.86-.5-.551-.951zm-2.638 1.462-.937.493-.414-.781 1.776-.938 2.137 4.049-1.746.923-.414-.781.909-.481-.403-.764-.88.465-.398-.752.88-.466-.513-.971zm-3.577 2.644-.716-1.508.857-.408.689 1.448c.108.231.211.262.336.204l.165-.078-.828-1.744.857-.407 1.965 4.139-1.058.502c-.608.29-1.106.237-1.414-.415l-.126-.266c-.247-.519-.261-.841.04-1.076-.366.086-.623-.088-.766-.39zm1.626 1.147c.108.231.21.262.336.204l.142-.069-.434-.917-.141.067c-.124.061-.164.158-.055.388l.155.325z"/><g style="mix-blend-mode:luminosity"><path fill="#f6733d" d="M339.495 283.724c-3.636.787-7.177 1.53-10.813 2.317l3.648 15.149 10.722-2.563c-.353-2.196-3.117-12.071-3.557-14.903"/><mask id="i" width="16" height="19" x="328" y="283" maskUnits="userSpaceOnUse" style="mask-type:luminance"><path fill="#fff" d="M339.496 283.722c-3.636.787-7.177 1.531-10.813 2.318l3.647 15.149 10.723-2.563c-.353-2.196-3.117-12.071-3.557-14.904"/></mask><g mask="url(#i)"><path fill="#e56538" d="M341.159 283.327c-.967.149-1.911.275-2.878.424l3.625 15.153 2.81-.67c-.473-2.17-2.953-12.11-3.558-14.904z"/></g><path fill="#ffce55" d="M332.821 295.961c.322 1.02 1.05 1.735 2.163 2.126a3.06 3.06 0 0 0 2.209-.073l.007.013q.026-.02.047-.041c.39-.169.766-.412 1.112-.736.562-.525.908-1.213.948-1.888a3.2 3.2 0 0 0-.051-.731c-.139-.777-.476-1.469-.975-2.001-.532-.569-1.259-.94-1.99-1.015-.527-.055-1.041.04-1.445.136l-.074.018c-.468.116-1.338.675-1.713 1.199-.234.324-.647 1.694-.239 2.991zm1.257-2.626a1.6 1.6 0 0 1-.67-.256c.238-.284.633-.582.986-.778-.131.31-.216.661-.262 1.037l-.052-.004zm-.045.334.069.002c-.016.345-.002.703.051 1.07.017.117.042.231.065.349l-1.187.284c-.129-.824.042-1.613.201-2.006.241.158.512.261.801.301m2.67-.935a4.3 4.3 0 0 1-1.011.42l-.278-1.167q.25-.039.515-.045c.282.194.543.465.775.794zm-.189-.743c.27.056.535.159.786.298a3 3 0 0 1-.315.261 4 4 0 0 0-.472-.556zm.373 1.026c.178.302.333.636.454.995q.05.156.091.312l-1.379.329-.28-1.172a4.6 4.6 0 0 0 1.114-.464m.775 2.924-.05-.005c-.431-.008-.854.068-1.221.146l-.263-1.103 1.381-.33c.092.421.146.849.149 1.28l.001.011zm-.608 1.767c-.086.035-.175.06-.265.089l-.062-.309-.257-1.076a5 5 0 0 1 1.133-.138c.017-.001.03.003.047.004a2.5 2.5 0 0 1-.109.628c-.085.267-.265.602-.491.801zm-1.441-.342a2.7 2.7 0 0 1-.401-.546l.032-.018c.29-.143.603-.241.898-.314l.256 1.071.062.314c-.302-.062-.64-.297-.847-.507m.453-1.207a4.7 4.7 0 0 0-.97.341l-.04.023a6 6 0 0 1-.432-1.183l1.179-.282zm-.342-1.431-1.177.281c-.021-.105-.044-.21-.059-.319a5 5 0 0 1-.051-1.009c.086-.002.173-.006.25-.014.232-.02.489-.055.757-.11zm-1.429.688q.166.661.469 1.277a2.3 2.3 0 0 0-.608.585 2.75 2.75 0 0 1-1.01-1.419q-.022-.078-.042-.157l1.194-.285zm.142 2.046c.125-.173.288-.333.488-.469.139.245.285.441.447.606.096.1.22.205.359.302a2.8 2.8 0 0 1-.633-.134 4 4 0 0 1-.663-.304zm3.698-.459a4 4 0 0 1-.396.322q.081-.17.128-.32c.064-.207.104-.434.122-.693q.316.055.576.185a3 3 0 0 1-.43.506m.841-1.661c-.018.29-.101.586-.241.865a2.4 2.4 0 0 0-.735-.238c-.001-.016.001-.028.002-.046a6.7 6.7 0 0 0-.158-1.353l.998-.237c.034.117.068.235.09.357.043.244.059.456.046.65zm-.936-2.482c.297.32.529.716.694 1.151l-.973.231q-.046-.17-.1-.34a5.5 5.5 0 0 0-.49-1.075q.223-.16.425-.357c.158.114.31.243.445.387zm-3.181-.763q.108-.026.226-.051l.282 1.185c-.251.051-.49.084-.708.102q-.09.007-.19.011c.056-.449.18-.856.367-1.184l-.061-.034z"/><path fill="#e56538" d="m336.54 285.942-5.421 1.316.323 1.109c.222-.091 5.346-1.321 5.346-1.321l-.25-1.103z"/><path fill="#1bb287" d="M339.114 279.831c-2.604 2.659-5.15 5.226-7.755 7.883 3.793 3.545 7.585 7.096 11.38 10.643l7.547-8.036c-1.504-1.641-9.245-8.364-11.171-10.488z"/><path fill="#0d9974" d="m337.867 283.31-3.803 4.081.881.748c.135-.199 3.737-4.046 3.737-4.046z"/></g></g><g filter="url(#j)" style="mix-blend-mode:luminosity"><path fill="#00703a" d="M-8.825 66.337a4.8 4.8 0 0 1-2.325-2.548 3.66 3.66 0 0 0-1.778-1.943 3.66 3.66 0 0 0-2.623-.251 4.8 4.8 0 0 1-3.434-.325 4.8 4.8 0 0 1-2.671-4.292 3.657 3.657 0 0 0-3.31-3.636 4.8 4.8 0 0 1-1.683-.483 4.8 4.8 0 0 1-2.345-6.03 3.663 3.663 0 0 0-1.774-4.589 4.77 4.77 0 0 1-2.562-3.417 4.78 4.78 0 0 1 1.162-4.11 3.66 3.66 0 0 0 .003-4.919 4.79 4.79 0 0 1-1.156-4.112 4.78 4.78 0 0 1 2.568-3.412 3.66 3.66 0 0 0 1.778-4.585 4.78 4.78 0 0 1 .407-4.25 4.78 4.78 0 0 1 3.626-2.257 3.66 3.66 0 0 0 3.315-3.631 4.78 4.78 0 0 1 1.917-3.818 4.78 4.78 0 0 1 4.198-.794A3.664 3.664 0 0 0-11.108.746a4.76 4.76 0 0 1 2.751-2.728 4.82 4.82 0 0 1 4.616.637c.176.132.367.25.563.349a3.69 3.69 0 0 0 4.335-.798A4.85 4.85 0 0 1 6.854-2.84 4.8 4.8 0 0 1 8.78-1.084c.36.573.868 1.036 1.47 1.336a3.65 3.65 0 0 0 3.259.012 4.78 4.78 0 0 1 4.27.014 4.78 4.78 0 0 1 2.58 3.402 3.64 3.64 0 0 0 1.97 2.595c.602.3 1.28.43 1.952.37a4.8 4.8 0 0 1 2.562.483 4.84 4.84 0 0 1 2.593 5.179 3.69 3.69 0 0 0 1.971 3.943c.196.097.405.18.617.24a4.82 4.82 0 0 1 3.287 3.303 4.76 4.76 0 0 1-.525 3.839 3.66 3.66 0 0 0 .902 4.835 4.78 4.78 0 0 1 1.892 3.83 4.78 4.78 0 0 1-1.896 3.828 3.66 3.66 0 0 0-.905 4.833 4.78 4.78 0 0 1 .38 4.254 4.77 4.77 0 0 1-3.151 2.882 3.66 3.66 0 0 0-2.592 4.18 4.78 4.78 0 0 1-1.18 4.103 4.78 4.78 0 0 1-3.98 1.551 3.66 3.66 0 0 0-3.927 2.962 4.79 4.79 0 0 1-2.584 3.402 4.79 4.79 0 0 1-4.271.01 3.663 3.663 0 0 0-4.733 1.343A4.8 4.8 0 0 1 2.514 67.4a4.8 4.8 0 0 1-1.398-1.052 3.7 3.7 0 0 0-1.061-.801 3.65 3.65 0 0 0-3.835.344 4.8 4.8 0 0 1-5.036.449z"/><path fill="#008a48" d="M19.792 3.789a4.244 4.244 0 0 0 4.535 3.429c2.788-.242 5.044 2.236 4.543 4.989a4.24 4.24 0 0 0 2.99 4.836c2.687.78 3.895 3.906 2.434 6.292a4.243 4.243 0 0 0 1.041 5.59c2.224 1.698 2.224 5.048-.005 6.745a4.244 4.244 0 0 0-1.048 5.587c1.46 2.387.247 5.51-2.44 6.288a4.245 4.245 0 0 0-2.997 4.833c.5 2.755-1.76 5.23-4.548 4.982a4.245 4.245 0 0 0-4.54 3.423c-.529 2.75-3.529 4.24-6.04 3.002a4.244 4.244 0 0 0-5.469 1.553c-1.486 2.37-4.822 2.678-6.716.618a4.245 4.245 0 0 0-5.662-.53c-2.244 1.676-5.465.757-6.487-1.85a4.243 4.243 0 0 0-5.09-2.537c-2.696.752-5.367-1.27-5.38-4.069a4.244 4.244 0 0 0-3.83-4.204c-2.785-.273-4.547-3.122-3.547-5.736a4.24 4.24 0 0 0-2.051-5.302c-2.5-1.263-3.113-4.556-1.237-6.632a4.24 4.24 0 0 0 .003-5.684c-1.874-2.08-1.256-5.371 1.243-6.631a4.243 4.243 0 0 0 2.057-5.301c-.996-2.615.769-5.463 3.554-5.733a4.24 4.24 0 0 0 3.832-4.2c.016-2.799 2.69-4.817 5.385-4.062a4.243 4.243 0 0 0 5.09-2.531C-9.56-1.651-6.34-2.566-4.096-.887a4.24 4.24 0 0 0 5.662-.523c1.897-2.057 5.232-1.746 6.718.627A4.244 4.244 0 0 0 13.75.776c2.513-1.234 5.51.26 6.037 3.01z"/><path fill="#38c266" d="M-10.528 57.037c13.806 6.885 30.579 1.274 37.464-12.532s1.273-30.58-12.533-37.464-30.579-1.274-37.463 12.532-1.274 30.58 12.532 37.464"/><path fill="#6dd38f" d="M10.557 57.815c14.235-4.761 21.914-20.16 17.153-34.396C22.948 9.185 7.549 1.505-6.686 6.267S-28.6 26.428-23.838 40.663c4.761 14.235 20.16 21.914 34.395 17.152"/><path fill="#008a48" d="M9.398 54.349c12.32-4.122 18.967-17.45 14.845-29.77S6.793 5.61-5.527 9.731s-18.967 17.45-14.846 29.77c4.122 12.321 17.45 18.968 29.77 14.846"/><path fill="#d9eae2" d="M20.487 45.311c7.328-10.244 4.963-24.49-5.282-31.817C4.961 6.166-9.285 8.53-16.612 18.776s-4.963 24.49 5.282 31.817 24.49 4.963 31.817-5.282"/><path fill="#008a48" d="M-9.596 54.429a.345.345 0 0 1 .463-.155.345.345 0 0 1 .157.464.347.347 0 1 1-.62-.31m-1.695-.55a.347.347 0 0 1 .36-.594h.001a.345.345 0 0 1 .116.477.345.345 0 0 1-.45.13zm3.581 1.428a.345.345 0 0 1 .45-.194c.18.07.266.273.194.45a.345.345 0 0 1-.45.194s-.017-.01-.026-.013a.347.347 0 0 1-.167-.44zm-5.338-2.592a.348.348 0 1 1 .408-.563.348.348 0 0 1-.408.563m7.291 3.31a.345.345 0 0 1 .432-.23.35.35 0 0 1 .232.434.35.35 0 0 1-.435.23c-.018-.008-.037-.012-.055-.02a.346.346 0 0 1-.174-.414m-8.948-4.617a.346.346 0 1 1 .453-.526.345.345 0 0 1 .036.488.35.35 0 0 1-.418.087.3.3 0 0 1-.07-.049m10.953 5.172a.346.346 0 0 1 .678.148.346.346 0 1 1-.678-.148m-12.494-6.61a.344.344 0 0 1 .002-.491.345.345 0 0 1 .49.003.346.346 0 0 1-.002.49.346.346 0 0 1-.49-.003m14.538 6.997a.35.35 0 0 1 .39-.298c.191.025.324.2.297.39a.346.346 0 1 1-.687-.092m-15.958-8.561a.348.348 0 0 1 .534-.445.346.346 0 0 1-.045.488.346.346 0 0 1-.49-.043M.359 57.183a.35.35 0 0 1 .365-.329.346.346 0 1 1-.172.656.35.35 0 0 1-.193-.327m-19.307-10.454a.345.345 0 0 1 .083-.483.35.35 0 0 1 .485.085.348.348 0 0 1-.44.51.34.34 0 0 1-.128-.112M2.44 57.226a.35.35 0 0 1 .336-.359.345.345 0 0 1 .357.336.345.345 0 0 1-.333.357.34.34 0 0 1-.36-.334m-22.53-12.271a.35.35 0 0 1 .124-.477.35.35 0 0 1 .475.126.343.343 0 0 1-.124.473.345.345 0 0 1-.474-.122M4.517 57.097a.35.35 0 0 1 .304-.386.35.35 0 0 1 .385.306.346.346 0 0 1-.303.384.34.34 0 0 1-.195-.033.35.35 0 0 1-.19-.271M-21.079 43.09a.347.347 0 1 1 .627-.3.347.347 0 0 1-.627.3M6.575 56.796a.347.347 0 1 1 .681-.135.347.347 0 0 1-.68.135M-21.912 41.15a.35.35 0 0 1 .201-.448.346.346 0 1 1-.032.636.34.34 0 0 1-.17-.188M8.604 56.327a.346.346 0 1 1 .666-.192.346.346 0 1 1-.666.192m-31.187-17.175a.346.346 0 0 1 .237-.431.347.347 0 0 1 .43.237.346.346 0 0 1-.488.407.35.35 0 0 1-.179-.213m33.17 16.54a.35.35 0 0 1 .2-.448h.002a.346.346 0 0 1 .446.201.35.35 0 0 1-.2.45.35.35 0 0 1-.448-.202M-23.086 37.1a.347.347 0 1 1 .682-.135.347.347 0 0 1-.682.135m35.598 17.798a.343.343 0 0 1 .163-.462.345.345 0 0 1 .462.163.347.347 0 0 1-.468.46.33.33 0 0 1-.157-.16M-23.42 35.02a.346.346 0 0 1 .304-.387.35.35 0 0 1 .386.304.35.35 0 0 1-.5.35.35.35 0 0 1-.19-.267m37.783 18.928a.345.345 0 0 1 .125-.473.35.35 0 0 1 .476.123.348.348 0 0 1-.6.35m-37.945-21.032a.347.347 0 1 1 .695-.026.347.347 0 0 1-.695.026M16.132 52.85a.347.347 0 1 1 .566-.402.347.347 0 0 1-.566.401m-39.7-22.044a.346.346 0 0 1 .363-.33.346.346 0 1 1-.363.33m41.37 20.802a.35.35 0 0 1 .045-.492.35.35 0 0 1 .49.047.346.346 0 0 1-.045.488.346.346 0 0 1-.49-.043M-23.38 28.706a.35.35 0 0 1 .391-.299.348.348 0 0 1-.092.69.35.35 0 0 1-.3-.39m42.747 21.526a.347.347 0 1 1 .494-.488.347.347 0 0 1-.494.488m-42.384-23.604a.347.347 0 1 1 .678.15.347.347 0 0 1-.678-.15M20.808 48.73a.346.346 0 1 1 .452-.526.346.346 0 0 1 .035.49.345.345 0 0 1-.487.036m-43.292-24.141a.347.347 0 1 1 .23.432c-.018-.009-.037-.013-.053-.02a.35.35 0 0 1-.177-.412m44.602 22.527a.347.347 0 1 1 .486-.078.35.35 0 0 1-.437.105l-.05-.025zm-43.9-24.518a.346.346 0 1 1 .642.258.35.35 0 0 1-.451.193l-.026-.013a.344.344 0 0 1-.165-.438m45.075 22.798a.347.347 0 1 1 .025.016l-.026-.013zm-44.215-24.723a.348.348 0 1 1 .622.31.348.348 0 0 1-.622-.31M24.164 43.12s.011-.016.015-.025l.011-.027a.347.347 0 1 1 .623.308l-.014.028-.013.026a.347.347 0 1 1-.622-.31M-19.79 19.3a.348.348 0 1 1 .026.013zm44.817 21.893a.35.35 0 0 1 .45-.196.35.35 0 0 1 .196.453.35.35 0 0 1-.452.193l-.027-.01a.35.35 0 0 1-.167-.44m-43.693-23.646a.345.345 0 1 1 .407-.56.347.347 0 0 1-.407.56m44.371 21.709a.347.347 0 0 1 .435-.229.346.346 0 1 1-.257.64.35.35 0 0 1-.178-.411M-17.4 15.898a.35.35 0 0 1-.037-.491.345.345 0 0 1 .488-.036.345.345 0 0 1 .038.489.345.345 0 0 1-.417.085.3.3 0 0 1-.072-.047m43.624 21.374a.35.35 0 0 1 .413-.267.35.35 0 0 1 .266.413.346.346 0 0 1-.495.236.35.35 0 0 1-.184-.382m-42.227-22.917a.345.345 0 0 1 .003-.49.35.35 0 0 1 .49.002.345.345 0 0 1-.003.49.344.344 0 0 1-.49-.002M26.574 35.25a.346.346 0 1 1 .688.09.347.347 0 0 1-.688-.09m-41.055-22.316a.346.346 0 1 1 .531-.444.35.35 0 0 1-.043.489.35.35 0 0 1-.488-.045m41.234 20.274a.347.347 0 1 1 .694.03.347.347 0 0 1-.694-.03m-39.6-21.564a.343.343 0 0 1 .084-.483.346.346 0 0 1 .485.085.345.345 0 0 1-.086.481.343.343 0 0 1-.482-.083m39.61 19.513a.348.348 0 0 1 .694-.026.345.345 0 0 1-.333.358.344.344 0 0 1-.361-.332M-11.11 10.495a.35.35 0 0 1 .123-.477.35.35 0 0 1 .476.126.343.343 0 0 1-.125.473.346.346 0 0 1-.474-.122M26.605 29.11a.346.346 0 1 1 .687-.081.35.35 0 0 1-.304.386.4.4 0 0 1-.197-.036.34.34 0 0 1-.188-.27zM-9.288 9.492a.35.35 0 0 1 .163-.464.35.35 0 0 1 .464.163.35.35 0 0 1-.163.464.346.346 0 0 1-.464-.163m35.564 17.594a.346.346 0 1 1 .68-.14.345.345 0 0 1-.493.38.34.34 0 0 1-.187-.24M-7.387 8.642a.35.35 0 0 1 .201-.448.346.346 0 0 1 .448.202.346.346 0 0 1-.48.434.36.36 0 0 1-.17-.188m33.17 16.452a.346.346 0 1 1 .666-.195.35.35 0 0 1-.235.432.354.354 0 0 1-.43-.237M-5.422 7.954a.346.346 0 0 1 .236-.43.346.346 0 0 1 .43.236.35.35 0 0 1-.236.43.35.35 0 0 1-.25-.024.35.35 0 0 1-.18-.212M25.13 23.146a.344.344 0 0 1 .2-.445.346.346 0 1 1 .248.647.34.34 0 0 1-.279-.014.34.34 0 0 1-.17-.188M-3.41 7.427a.348.348 0 0 1 .68-.139.347.347 0 0 1-.68.14m27.726 13.835a.345.345 0 0 1 .163-.463.345.345 0 0 1 .462.163.345.345 0 0 1-.468.46.33.33 0 0 1-.157-.16M-1.359 7.067a.343.343 0 0 1 .303-.383.343.343 0 0 1 .384.302.343.343 0 0 1-.303.384.34.34 0 0 1-.384-.303M23.352 19.45a.346.346 0 0 1 .122-.474.346.346 0 1 1 .35.599.345.345 0 0 1-.472-.125M.712 6.878a.35.35 0 0 1 .335-.36.35.35 0 0 1 .359.337.345.345 0 0 1-.333.358.345.345 0 0 1-.36-.335m21.529 10.847a.347.347 0 1 1 .566-.4.347.347 0 0 1-.566.4M2.793 6.862a.346.346 0 0 1 .362-.33c.191.009.34.17.33.363a.344.344 0 0 1-.5.294.35.35 0 0 1-.192-.327m18.197 9.232a.346.346 0 1 1 .53-.444.344.344 0 0 1-.042.49.343.343 0 0 1-.488-.046M4.866 7.016a.348.348 0 1 1 .3.39.346.346 0 0 1-.3-.39m14.742 7.56a.35.35 0 0 1 .003-.492.35.35 0 0 1 .49.003.35.35 0 0 1-.001.493.35.35 0 0 1-.492-.004M6.92 7.346a.348.348 0 1 1 .68.146.348.348 0 0 1-.68-.146m11.184 5.832a.346.346 0 0 1-.035-.49.347.347 0 1 1 .035.49M8.94 7.842a.347.347 0 1 1 .232.433c-.017-.008-.037-.012-.054-.021a.35.35 0 0 1-.178-.412m7.554 4.069a.347.347 0 1 1 .405-.563.347.347 0 0 1-.405.563m-5.582-3.406a.348.348 0 1 1 .196.45.1.1 0 0 1-.027-.01.35.35 0 0 1-.169-.44m3.868 2.274a.35.35 0 0 1-.117-.477.35.35 0 0 1 .476-.118.347.347 0 0 1-.332.608zm-1.956-1.45a.347.347 0 1 1 .624.306.347.347 0 0 1-.624-.307"/><path fill="#41d171" d="M2.376 70.516a68.8 68.8 0 0 1 11.192 12.56 72 72 0 0 0 1.399-8.66c2.968.274 5.986.749 9.035 1.436A81.6 81.6 0 0 0 10.75 60.98l-8.37 9.537z"/><path fill="#38c266" d="M10.95 73.238A72.46 72.46 0 0 0-36.374 49.64l1.165-12.649A85.1 85.1 0 0 1 20.35 64.697z"/><path fill="#fcfcfc" d="M12.342 65.672a.683.683 0 1 0 .61-1.222.683.683 0 0 0-.61 1.222M1.126 57.087.092 58.714l-.926-.588.994-1.563c.157-.248.126-.367-.009-.452l-.18-.114-1.196 1.88-.926-.588 2.84-4.462 1.14.726c.657.418.91.938.462 1.638l-.182.286c-.357.563-.66.772-1.077.623.308.303.295.663.088.987zm.125-2.294c.157-.248.126-.367-.009-.452l-.154-.096-.628.987.155.097c.134.087.255.063.413-.185zm1.283 4.356 1.005.7-.584.838-1.903-1.326 3.027-4.337 1.872 1.304-.584.838-.973-.68-.572.82.942.657-.563.807-.941-.659-.728 1.042zm4.603 2.273-1.17 1.531-.87-.665 1.123-1.472c.179-.235.157-.355.031-.452l-.169-.13-1.351 1.773-.87-.665 3.207-4.208 1.075.82c.62.473.828 1.01.322 1.673l-.205.272c-.404.527-.724.711-1.125.528.28.329.238.685.003.993zm.318-2.276c.18-.235.158-.355.032-.452l-.146-.11-.71.933.144.112c.127.096.248.084.427-.15l.252-.331z"/><g style="mix-blend-mode:luminosity"><path fill="#807295" d="M6.233 23.717c-2.96-1.544-.097-7.284 2.916-5.848 2.96 1.544.097 7.284-2.916 5.848m2.499-5.01c-1.909-.883-3.935 3.18-2.082 4.173 1.909.883 3.935-3.181 2.082-4.174"/><path fill="#60527c" d="m7.104 28.559-5.272-2.63c2.535-4.748 1.312-5.212 6.514-2.495.581.29.818.996.528 1.578z"/><path fill="#807295" d="M10.24 36.588c-5.662 10.884-21.99 2.74-16.702-8.329 5.662-10.884 21.99-2.74 16.702 8.33"/><path fill="#fff9f9" d="M8.895 35.917c-4.75 9.132-18.45 2.299-14.013-6.988 4.75-9.131 18.449-2.298 14.013 6.988"/><path fill="#ef5740" d="m3.388 31.923-.01 4.958-2.99-3.954.01-4.958z"/><path fill="#6e9f9c" d="m3.39 31.923-3 1.003 2.99 3.954z"/><path fill="#807295" d="m5.232 26.21-.389-.195-.498 1 .389.194zm3.06 9.165-1-.498-.194.389 1 .498z"/><path fill="#807295" d="M10.24 36.588C5.156 46.856-10.66 40.16-6.952 29.43c.339 10.004 15.025 12.184 18.16 2.515a9.3 9.3 0 0 1-.97 4.641" opacity=".45" style="mix-blend-mode:multiply"/></g></g></g><defs><filter id="b" width="127.046" height="130.485" x="281.943" y="-45.463" color-interpolation-filters="sRGB" filterUnits="userSpaceOnUse"><feFlood flood-opacity="0" result="BackgroundImageFix"/><feBlend in="SourceGraphic" in2="BackgroundImageFix" result="shape"/><feGaussianBlur result="effect1_foregroundBlur_11917_54479" stdDeviation="1.57"/></filter><filter id="e" width="72.013" height="73.911" x="-27.758" y="274.427" color-interpolation-filters="sRGB" filterUnits="userSpaceOnUse"><feFlood flood-opacity="0" result="BackgroundImageFix"/><feBlend in="SourceGraphic" in2="BackgroundImageFix" result="shape"/><feGaussianBlur result="effect1_foregroundBlur_11917_54479" stdDeviation=".523"/></filter><filter id="h" width="75.545" height="77.116" x="293.424" y="243.598" color-interpolation-filters="sRGB" filterUnits="userSpaceOnUse"><feFlood flood-opacity="0" result="BackgroundImageFix"/><feBlend in="SourceGraphic" in2="BackgroundImageFix" result="shape"/><feGaussianBlur result="effect1_foregroundBlur_11917_54479" stdDeviation=".523"/></filter><filter id="j" width="86.006" height="88.511" x="-47.379" y="-4.389" color-interpolation-filters="sRGB" filterUnits="userSpaceOnUse"><feFlood flood-opacity="0" result="BackgroundImageFix"/><feBlend in="SourceGraphic" in2="BackgroundImageFix" result="shape"/><feGaussianBlur result="effect1_foregroundBlur_11917_54479" stdDeviation=".523"/></filter><clipPath id="a"><rect width="335" height="314.062" fill="#fff" rx="18.844"/></clipPath></defs></svg>