<svg xmlns="http://www.w3.org/2000/svg" width="380" height="400" fill="none" viewBox="0 0 380 400"><g clip-path="url(#a)"><rect width="380" height="400" fill="#b4f26a" rx="18"/><g style="mix-blend-mode:luminosity"><path fill="#00703a" d="M205.365 305.55c-3.229 0-6.332-1.349-8.742-3.788-1.836-1.861-4.206-2.884-6.683-2.884s-4.846 1.023-6.682 2.884c-2.41 2.439-5.514 3.788-8.742 3.788-4.979 0-9.463-3.099-11.701-8.081-1.71-3.796-5.118-6.161-8.908-6.161-1.215 0-2.41.252-3.552.741a11.8 11.8 0 0 1-4.675.972c-6.762 0-12.355-5.709-13.015-13.271-.502-5.739-4.748-10.084-9.878-10.113-4.114-.022-7.898-2.15-10.374-5.842-2.476-3.685-3.268-8.356-2.159-12.805 1.38-5.553-1.182-11.328-5.956-13.434-3.83-1.69-6.67-5.212-7.798-9.653-1.123-4.441-.357-9.112 2.106-12.811 3.07-4.619 2.542-11.04-1.235-14.94-3.024-3.128-4.543-7.562-4.166-12.159.376-4.596 2.595-8.644 6.081-11.098 4.352-3.055 5.923-9.261 3.658-14.428a16.2 16.2 0 0 1 .033-13.034c1.836-4.137 5.204-7.006 9.245-7.881 5.038-1.09 8.498-6.235 8.055-11.974-.323-4.152.879-8.126 3.381-11.195 2.476-3.04 5.989-4.782 9.628-4.782.785 0 1.584.082 2.37.237a9 9 0 0 0 1.79.186c4.404 0 8.339-3.322 9.574-8.082 1.611-6.242 6.788-10.61 12.586-10.61 2.39 0 4.747.75 6.814 2.173 1.572 1.075 3.368 1.646 5.197 1.646 3.143 0 6.028-1.609 7.937-4.404 2.496-3.67 6.286-5.775 10.4-5.775 4.113 0 7.904 2.105 10.4 5.775 1.901 2.803 4.793 4.404 7.937 4.404 1.829 0 3.631-.57 5.196-1.646 2.067-1.416 4.418-2.172 6.815-2.172 5.797 0 10.974 4.36 12.585 10.609 1.228 4.76 5.164 8.082 9.575 8.082.594 0 1.201-.06 1.789-.186a12.3 12.3 0 0 1 2.371-.237c3.638 0 7.144 1.742 9.627 4.782 2.503 3.069 3.704 7.043 3.381 11.195-.449 5.739 3.017 10.891 8.056 11.974 4.041.875 7.408 3.744 9.244 7.881a16.2 16.2 0 0 1 .033 13.034c-2.265 5.167-.693 11.373 3.658 14.428 3.487 2.454 5.705 6.494 6.082 11.098.383 4.597-1.136 9.031-4.167 12.159-3.777 3.9-4.305 10.328-1.235 14.94 2.463 3.699 3.229 8.37 2.107 12.811-1.123 4.441-3.969 7.963-7.799 9.653-4.774 2.106-7.336 7.881-5.956 13.434 1.103 4.449.317 9.112-2.159 12.805-2.476 3.684-6.26 5.812-10.373 5.842-5.131.029-9.377 4.374-9.879 10.113-.66 7.562-6.253 13.271-13.014 13.271-1.592 0-3.163-.327-4.675-.972a9 9 0 0 0-3.553-.741c-3.79 0-7.204 2.358-8.907 6.161-2.239 4.982-6.722 8.081-11.701 8.081z"/><path fill="#008a48" d="M199.106 95.814c3.586 5.278 10.143 6.65 15.188 3.188 6.484-4.456 14.976-.764 17.095 7.436 1.644 6.376 7.316 10.32 13.134 9.134 7.481-1.527 14.21 5.36 13.549 13.864-.515 6.614 3.507 12.589 9.311 13.842 7.468 1.609 11.529 10.758 8.168 18.424-2.608 5.954-.779 13.16 4.226 16.682 6.445 4.53 7.283 14.709 1.69 20.492-4.345 4.493-4.965 11.952-1.426 17.275 4.556 6.843 2.06 16.674-5.018 19.795-5.501 2.432-8.472 9.134-6.887 15.525 2.047 8.23-3.441 16.385-11.047 16.422-5.91.038-10.843 5.079-11.417 11.685-.74 8.496-8.479 13.879-15.584 10.832-5.52-2.365-11.747.341-14.408 6.265-3.427 7.629-12.374 9.505-18.02 3.781-4.391-4.448-11.06-4.448-15.451 0-5.646 5.724-14.593 3.84-18.02-3.781-2.661-5.924-8.881-8.63-14.408-6.265-7.105 3.047-14.844-2.336-15.583-10.832-.575-6.606-5.507-11.655-11.417-11.685-7.607-.044-13.094-8.199-11.047-16.422 1.591-6.391-1.387-13.1-6.887-15.525-7.079-3.128-9.568-12.952-5.019-19.795 3.54-5.316 2.926-12.774-1.426-17.275-5.593-5.783-4.754-15.962 1.691-20.492 5.011-3.522 6.834-10.728 4.226-16.682-3.355-7.666.699-16.815 8.168-18.424 5.804-1.253 9.825-7.228 9.31-13.842-.66-8.511 6.062-15.391 13.55-13.864 5.817 1.186 11.489-2.758 13.133-9.134 2.12-8.2 10.605-11.892 17.096-7.436 5.038 3.462 11.601 2.09 15.187-3.188 4.616-6.792 13.715-6.792 18.33 0z"/><path fill="#38c266" d="M189.941 282.485c41.92 0 75.903-38.157 75.903-85.225s-33.983-85.224-75.903-85.224-75.903 38.156-75.903 85.224 33.983 85.225 75.903 85.225"/><path fill="#6dd38f" d="M242.158 255.897c28.84-32.382 28.84-84.883 0-117.265-28.84-32.381-75.599-32.381-104.439 0s-28.84 84.883 0 117.265 75.599 32.382 104.439 0"/><path fill="#008a48" d="M235.134 248.012c24.962-28.027 24.962-73.468 0-101.495-24.961-28.027-65.432-28.027-90.394 0-24.961 28.027-24.961 73.468 0 101.495 24.962 28.027 65.433 28.027 90.394 0"/><path fill="#d9eae2" d="M253.983 196.938c-.002-39.758-28.793-71.987-64.308-71.985-35.514.002-64.303 32.234-64.302 71.992.002 39.758 28.794 71.986 64.308 71.984 35.515-.001 64.303-32.233 64.302-71.991"/><path fill="#008a48" d="M189.043 274.092c0-.578.416-1.053.937-1.053s.945.467.945 1.053-.423 1.06-.945 1.06c-.515 0-.937-.474-.937-1.06m-4.787.808c-.516-.052-.905-.563-.859-1.142.04-.585.495-1.015 1.01-.971h.007c.515.045.905.556.858 1.142-.039.556-.449.971-.937.971zm10.439-.979c-.046-.585.343-1.097.858-1.141.522-.052.978.385 1.017.963.047.586-.343 1.098-.858 1.142h-.079c-.489 0-.898-.422-.938-.971zm-16.125.193c-.515-.096-.865-.645-.779-1.216.086-.578.575-.971 1.083-.875.515.097.865.638.779 1.216-.072.519-.475.89-.931.89-.046 0-.099 0-.152-.015m21.744-.889c-.086-.579.258-1.12.773-1.216.515-.097 1.004.296 1.089.867.08.578-.264 1.127-.779 1.223-.053 0-.105.015-.158.015-.449 0-.852-.371-.925-.889m-27.356-.423c-.509-.141-.813-.719-.687-1.283.132-.571.64-.912 1.149-.771.502.141.812.719.68 1.283-.106.482-.489.808-.911.808a.8.8 0 0 1-.231-.037m32.903-.793c-.126-.564.178-1.142.687-1.283.502-.141 1.017.2 1.142.764.132.571-.178 1.149-.68 1.29a1 1 0 0 1-.231.029c-.423 0-.806-.318-.918-.8m-38.397-1.038c-.495-.186-.76-.786-.588-1.342.165-.556.707-.853 1.195-.66.495.193.76.793.588 1.342-.132.445-.502.719-.891.719a.7.7 0 0 1-.304-.059m43.838-.69c-.165-.549.092-1.149.588-1.342.495-.193 1.03.104 1.195.66.171.549-.093 1.149-.581 1.342a.9.9 0 0 1-.311.059c-.389 0-.752-.274-.891-.719m-49.187-1.646c-.475-.237-.693-.86-.482-1.394.205-.533.76-.778 1.242-.548.475.237.693.86.482 1.394-.152.4-.502.637-.865.637a.9.9 0 0 1-.377-.089m54.476-.578c-.205-.534.013-1.164.489-1.394.475-.237 1.03.008 1.241.541.211.534 0 1.164-.482 1.394a.9.9 0 0 1-.383.089c-.363 0-.706-.237-.865-.63m-59.626-2.254c-.462-.274-.628-.919-.383-1.431.251-.519.819-.704 1.281-.43.455.282.627.927.376 1.438-.171.356-.495.557-.825.557a.84.84 0 0 1-.449-.134m64.737-.46c-.244-.511-.079-1.156.383-1.438.455-.274 1.03-.089 1.274.43.251.512.079 1.157-.376 1.431a.85.85 0 0 1-.449.133c-.337 0-.66-.2-.832-.556m-69.663-2.832c-.436-.326-.561-.978-.277-1.468.283-.489.871-.623 1.307-.304s.561.972.271 1.461c-.179.311-.482.482-.786.482a.85.85 0 0 1-.515-.171m74.556-.348c-.284-.49-.165-1.149.27-1.468s1.024-.178 1.308.311c.284.482.165 1.142-.271 1.461a.86.86 0 0 1-.515.178c-.31 0-.607-.171-.792-.482m-79.225-3.396c-.409-.356-.482-1.023-.165-1.483.324-.467.912-.548 1.328-.185.409.356.482 1.023.165 1.483a.93.93 0 0 1-.746.408.9.9 0 0 1-.582-.223m83.867-.23c-.317-.459-.245-1.127.165-1.483.409-.363 1.004-.274 1.327.186.317.46.244 1.119-.165 1.483a.85.85 0 0 1-.581.222.93.93 0 0 1-.746-.408m-88.244-3.929c-.383-.393-.403-1.068-.053-1.498a.876.876 0 0 1 1.334-.059c.383.393.409 1.068.052 1.498a.9.9 0 0 1-.693.341.87.87 0 0 1-.64-.282m92.608-.111c-.35-.43-.33-1.098.053-1.491.383-.4.984-.37 1.334.06.357.43.33 1.097-.053 1.497a.9.9 0 0 1-.64.275.9.9 0 0 1-.694-.341m-96.663-4.434c-.356-.43-.33-1.105.053-1.498.383-.4.984-.37 1.334.06a1.15 1.15 0 0 1-.053 1.497.9.9 0 0 1-.64.282.92.92 0 0 1-.694-.341m100.718 0c-.383-.393-.41-1.068-.06-1.498h.007a.868.868 0 0 1 1.327-.059c.383.393.41 1.068.06 1.498a.92.92 0 0 1-.694.341.9.9 0 0 1-.64-.282m-104.429-4.915c-.317-.46-.244-1.127.165-1.483.41-.364 1.004-.282 1.321.178.324.467.251 1.127-.158 1.49a.9.9 0 0 1-.582.222.91.91 0 0 1-.746-.407m108.146.126c-.416-.356-.488-1.024-.165-1.483.317-.46.911-.549 1.321-.186.409.356.482 1.024.165 1.483a.89.89 0 0 1-.746.408.85.85 0 0 1-.575-.222m-111.48-5.353c-.291-.49-.165-1.15.27-1.468s1.017-.186 1.308.304c.284.489.158 1.141-.277 1.468a.85.85 0 0 1-.516.17.92.92 0 0 1-.785-.474m114.828.237c-.436-.319-.555-.971-.271-1.461.284-.489.872-.63 1.308-.311s.554.979.271 1.468a.92.92 0 0 1-.793.482.86.86 0 0 1-.515-.178m-117.773-5.761c-.251-.519-.08-1.156.376-1.438.462-.282 1.03-.089 1.281.422.251.519.079 1.157-.376 1.439a.86.86 0 0 1-.449.133c-.337 0-.661-.207-.832-.556m120.745.356c-.463-.282-.634-.927-.383-1.438.25-.512.818-.705 1.281-.423.455.274.627.919.376 1.431-.172.356-.495.556-.832.556a.8.8 0 0 1-.442-.126m-123.268-6.131c-.211-.534.007-1.164.482-1.394.476-.237 1.03 0 1.242.541.211.534-.007 1.157-.482 1.394a.9.9 0 0 1-.377.089c-.363 0-.713-.237-.865-.63m125.823.467c-.475-.238-.693-.86-.489-1.402.212-.533.773-.778 1.248-.541.476.238.694.86.482 1.394-.152.4-.502.638-.865.638a.86.86 0 0 1-.376-.089m-127.916-6.458c-.165-.556.093-1.156.588-1.349.495-.186 1.03.104 1.195.66.172.556-.092 1.156-.581 1.349a.9.9 0 0 1-.31.052c-.39 0-.753-.274-.892-.712m130.049.571c-.496-.193-.76-.793-.588-1.349.165-.549.707-.846 1.195-.66.495.193.76.793.588 1.349-.132.438-.502.712-.892.712a.9.9 0 0 1-.303-.052m-131.686-6.739c-.126-.564.178-1.142.68-1.283.508-.148 1.023.193 1.149.764.125.563-.179 1.141-.68 1.282a1 1 0 0 1-.238.037c-.423 0-.799-.318-.911-.8m133.37.674c-.509-.141-.813-.719-.687-1.282.132-.571.64-.912 1.149-.771.502.14.812.719.68 1.29-.106.482-.489.8-.911.8a.8.8 0 0 1-.231-.037m-134.546-6.969c-.086-.578.258-1.127.773-1.223s1.003.296 1.089.875c.086.571-.264 1.119-.779 1.216-.053 0-.106.014-.152.014-.455 0-.858-.37-.931-.882m135.774.779c-.515-.097-.859-.645-.773-1.224.086-.578.568-.964 1.083-.867s.858.637.779 1.216c-.079.519-.482.882-.937.882h-.152zm-136.48-7.17c-.047-.578.336-1.09.858-1.142s.977.386 1.017.972c.046.578-.343 1.09-.865 1.141h-.079c-.482 0-.892-.415-.931-.971m137.252.875c-.521-.044-.904-.556-.865-1.142.04-.578.495-1.015 1.017-.971.522.052.905.564.865 1.142-.039.556-.455.978-.937.978h-.08zm-137.497-7.303c0-.585.423-1.06.945-1.06.521 0 .944.475.944 1.06s-.423 1.06-.944 1.06c-.522 0-.945-.474-.945-1.06m136.857-.096s.006-.059.006-.089c0 0-.006-.059-.006-.089 0-.586.422-1.068.944-1.068s.944.475.944 1.061v.185c0 .586-.422 1.06-.944 1.06s-.944-.474-.944-1.06m-135.767-5.19c-.515-.044-.905-.556-.865-1.142.046-.585.502-1.015 1.017-.971.521.045.904.556.865 1.142-.04.556-.449.971-.938.971zm135.529-1.246c-.046-.585.343-1.097.858-1.149.522-.044.978.386 1.024.972.04.578-.343 1.089-.865 1.141 0 0-.053.008-.079.008-.482 0-.898-.423-.938-.972m-134.922-5.071c-.508-.089-.858-.637-.772-1.216.079-.571.568-.963 1.083-.867.508.096.858.638.772 1.216-.072.519-.469.882-.924.882-.053 0-.106 0-.159-.015m134.222-1.142c-.086-.578.264-1.119.779-1.215.509-.104.997.289 1.083.867.086.571-.257 1.12-.772 1.216-.053.015-.106.015-.159.015-.449 0-.852-.364-.931-.883m-133.145-5.086c-.509-.148-.813-.719-.687-1.29.125-.563.64-.911 1.142-.763.509.141.812.712.687 1.282-.106.482-.489.801-.911.801-.079 0-.159 0-.231-.03m131.996-1.037c-.125-.571.178-1.142.68-1.291.509-.14 1.017.201 1.149.764.132.571-.178 1.149-.68 1.29a1 1 0 0 1-.238.03c-.416 0-.799-.319-.911-.793m-130.471-5.079c-.495-.185-.759-.793-.588-1.342.172-.556.707-.845 1.195-.66.496.185.76.793.588 1.342-.132.445-.495.719-.891.719a.75.75 0 0 1-.304-.059m128.873-.919c-.171-.557.086-1.157.581-1.35.496-.193 1.03.104 1.202.66.165.549-.092 1.157-.588 1.342a.7.7 0 0 1-.303.059c-.39 0-.76-.274-.892-.711m-126.892-5.035c-.482-.229-.7-.86-.489-1.393.212-.534.766-.779 1.242-.542.475.23.693.853.488 1.394-.158.393-.502.63-.865.63a.84.84 0 0 1-.376-.089m124.852-.785c-.211-.534 0-1.164.482-1.402.475-.237 1.03.008 1.241.542.212.533 0 1.164-.482 1.401a.86.86 0 0 1-.376.089c-.363 0-.713-.238-.865-.63m-122.442-4.96c-.462-.275-.634-.92-.383-1.431.244-.519.819-.712 1.281-.43.456.274.627.919.376 1.431-.165.355-.495.556-.825.556a.83.83 0 0 1-.449-.126m119.979-.653c-.251-.519-.079-1.156.376-1.438.456-.282 1.03-.089 1.281.422.251.512.08 1.157-.376 1.431a.85.85 0 0 1-.449.134c-.337 0-.66-.2-.832-.549m-117.153-4.849c-.436-.318-.561-.978-.277-1.468.284-.489.871-.622 1.307-.304.436.319.562.972.271 1.461a.92.92 0 0 1-.792.482.84.84 0 0 1-.509-.171m114.287-.526c-.284-.482-.165-1.142.271-1.461.436-.326 1.017-.185 1.301.304.284.482.165 1.142-.271 1.468a.93.93 0 0 1-.522.171.92.92 0 0 1-.785-.482zM135.3 150.982c-.409-.363-.482-1.023-.165-1.49.323-.46.911-.542 1.327-.186.409.364.482 1.023.165 1.49a.9.9 0 0 1-.746.408.9.9 0 0 1-.581-.222m107.816-.386c-.324-.459-.251-1.127.165-1.49.409-.356.997-.274 1.32.185.324.46.251 1.127-.158 1.483a.86.86 0 0 1-.581.223.9.9 0 0 1-.746-.401m-104.224-4.522c-.383-.393-.403-1.068-.053-1.498s.951-.46 1.334-.059c.383.393.409 1.06.053 1.497a.9.9 0 0 1-.693.341.9.9 0 0 1-.641-.281m100.612-.245c-.357-.43-.33-1.105.053-1.498.383-.4.977-.37 1.327.06.357.422.33 1.097-.046 1.497a.9.9 0 0 1-.641.275.9.9 0 0 1-.693-.334m-96.67-4.307c-.356-.438-.33-1.105.053-1.498.383-.4.977-.371 1.334.059.35.43.33 1.097-.053 1.498a.9.9 0 0 1-.641.274.9.9 0 0 1-.693-.333m92.715-.119a1.14 1.14 0 0 1-.053-1.49c.35-.43.944-.46 1.327-.067s.409 1.068.059 1.498a.87.87 0 0 1-1.333.059m-88.456-4.063c-.323-.46-.251-1.127.159-1.483.416-.363 1.003-.282 1.327.178.317.46.244 1.127-.165 1.483a.86.86 0 0 1-.581.23.9.9 0 0 1-.74-.408m84.197.022c-.41-.356-.489-1.023-.165-1.483.316-.459.911-.548 1.32-.185.41.356.489 1.023.165 1.483a.9.9 0 0 1-.746.408.84.84 0 0 1-.574-.223m-79.647-3.796c-.291-.489-.165-1.142.27-1.46.43-.327 1.017-.186 1.301.304.291.482.165 1.141-.271 1.46a.85.85 0 0 1-.515.178.91.91 0 0 1-.785-.482m75.104.163c-.436-.318-.562-.971-.278-1.46.284-.49.872-.63 1.308-.312.436.319.561.979.27 1.468a.91.91 0 0 1-.785.482.85.85 0 0 1-.515-.178m-70.297-3.499c-.251-.512-.079-1.157.376-1.438.456-.275 1.03-.089 1.281.43.251.511.079 1.156-.376 1.431a.86.86 0 0 1-.456.133c-.33 0-.654-.2-.825-.556m65.503.304c-.462-.282-.634-.927-.383-1.438.244-.512.819-.705 1.274-.43.462.281.634.919.383 1.438-.172.356-.495.556-.832.556a.9.9 0 0 1-.442-.126m-60.465-3.181c-.211-.534.007-1.164.482-1.394.475-.237 1.03 0 1.241.542.212.533 0 1.156-.482 1.394a.9.9 0 0 1-.376.088c-.363 0-.713-.237-.865-.63m55.446.43c-.475-.23-.693-.852-.488-1.394.211-.533.766-.778 1.241-.541.482.23.7.853.489 1.394-.152.4-.502.63-.865.63a.8.8 0 0 1-.377-.089m-50.216-2.832c-.172-.548.092-1.156.581-1.342.495-.193 1.03.104 1.201.653.172.556-.092 1.156-.581 1.349a.9.9 0 0 1-.31.059c-.39 0-.759-.274-.891-.719m45.013.571c-.488-.193-.753-.793-.588-1.349.172-.549.707-.846 1.196-.66.495.193.759.793.594 1.349-.139.438-.502.712-.892.712a.9.9 0 0 1-.31-.052m-39.619-2.469c-.132-.571.179-1.149.68-1.29.509-.148 1.017.2 1.149.764.126.571-.178 1.142-.68 1.29a1 1 0 0 1-.237.029c-.416 0-.806-.318-.912-.793m34.271.697c-.502-.141-.813-.719-.681-1.29.126-.563.634-.912 1.143-.764.502.141.812.712.687 1.283-.106.482-.496.801-.918.801a1 1 0 0 1-.231-.03m-28.757-2.091c-.086-.578.264-1.127.779-1.223s.997.297 1.083.875c.086.571-.257 1.119-.773 1.216-.052 0-.105.015-.158.015-.449 0-.852-.371-.931-.883m23.302.823c-.515-.096-.865-.637-.779-1.216.079-.578.568-.971 1.083-.874s.859.637.779 1.215c-.079.519-.475.89-.931.89a1 1 0 0 1-.152-.015m-17.703-1.698c-.039-.585.344-1.097.865-1.149.515-.044.978.386 1.017.972.047.578-.343 1.089-.858 1.141 0 0-.053.008-.079.008-.489 0-.898-.423-.945-.972m12.163.942c-.515-.044-.904-.556-.865-1.142.047-.578.502-1.015 1.017-.971.522.045.905.556.865 1.142-.039.556-.449.971-.937.971zm-6.517-1.297c0-.586.423-1.061.944-1.068.522 0 .945.474.945 1.06s-.423 1.06-.945 1.06c-.515 0-.937-.474-.944-1.052"/><path fill="#41d171" d="M143.708 301.338c-14.315 4.238-28.281 10.457-41.569 18.662a233 233 0 0 1 6.952-25.023 174 174 0 0 0-23.225-8.206c15.736-9.711 32.27-17.074 49.226-22.095l8.609 36.662zm93.477 0c14.315 4.238 28.281 10.457 41.569 18.662a233 233 0 0 0-6.952-25.023 174 174 0 0 1 23.225-8.206c-15.736-9.711-32.27-17.074-49.226-22.095l-8.609 36.662z"/><path fill="#38c266" d="M260.947 297.187c-45.368-19.807-95.801-19.807-141.169 0-4.093-11.734-8.192-23.468-12.285-35.202 53.258-23.25 112.481-23.25 165.739 0-4.093 11.734-8.192 23.468-12.285 35.202"/><path fill="#fcfcfc" d="M125.724 275.096c1.003 0 1.817-.914 1.817-2.04 0-1.127-.814-2.04-1.817-2.04s-1.817.913-1.817 2.04c0 1.126.813 2.04 1.817 2.04m129.44 0c1.004 0 1.817-.914 1.817-2.04 0-1.127-.813-2.04-1.817-2.04-1.003 0-1.817.913-1.817 2.04 0 1.126.814 2.04 1.817 2.04m-99.59-4.157 3.225-.549.409 3.011-6.108 1.046-2.125-15.628 6.007-1.031.409 3.011-3.124.534.402 2.951 3.024-.519.395 2.906-3.024.519zm9.289-14.212 2.661-.332-.637 7.506 2.381 8.183-2.662.331-1.743-6.873h-.041l-.275 7.129-2.722.339.758-8.567-2.099-7.167 2.716-.339 1.334 5.789h.04l.282-5.992zm13.655 2.845.108 1.845c.174 2.928-1.067 4.155-3.138 4.306l-.865.06.342 5.812-2.91.218-.925-15.779 2.909-.218.865-.061c2.065-.15 3.44.881 3.608 3.81zm-2.91.219c-.053-.881-.308-1.107-.73-1.077l-.664.045.241 4.103.664-.045c.422-.03.65-.294.597-1.175zm9.226 8.319 3.46-.091.06 2.981-6.276.166-.328-15.809 2.816-.075zm13.334-9.065-.134 8.356c-.047 2.936-1.374 4.043-3.547 3.998-2.172-.046-3.459-1.197-3.413-4.133l.135-8.357c.047-2.936 1.374-4.042 3.546-3.997 2.173.045 3.46 1.197 3.413 4.133m-2.816.03c.014-.881-.221-1.137-.644-1.144-.422-.008-.67.233-.683 1.114l-.128 8.175c-.013.881.221 1.137.644 1.145.422.007.67-.234.684-1.114zm13.062 6.926-.315 5.744-2.91-.203.302-5.519c.047-.88-.181-1.144-.604-1.174l-.563-.038-.362 6.648-2.91-.203.865-15.779 3.594.248c2.065.143 3.325 1.137 3.185 3.614l-.054 1.016c-.107 1.98-.543 2.973-1.703 3.184 1.106.346 1.542 1.303 1.475 2.454zm-2.662-6.181c.047-.88-.181-1.144-.603-1.174l-.483-.03-.194 3.493.482.03c.423.03.678-.203.725-1.084l.067-1.242zm8.603 9.539 3.239.376-.282 3.034-6.142-.722 1.462-15.719 6.041.708-.282 3.033-3.137-.368-.275 2.966 3.037.353-.268 2.921-3.037-.354-.349 3.772zm13.637-.723-.744 5.698-2.883-.474.718-5.473c.114-.873-.094-1.159-.51-1.227l-.557-.09-.864 6.594-2.883-.474 2.044-15.643 3.561.587c2.051.339 3.225 1.445 2.903 3.907l-.134 1.001c-.255 1.965-.765 2.906-1.938 3.011 1.08.452 1.435 1.446 1.287 2.59zm-2.192-6.414c.114-.874-.094-1.16-.51-1.227l-.476-.076-.456 3.463.476.076c.416.067.691-.136.805-1.009z"/><g style="mix-blend-mode:luminosity"><path fill="#d1833b" d="m153.067 215.915 14.638 9.602 14.639-9.602 14.638 9.602 14.64-9.602 14.64 9.602v-53.29l-14.64-9.602-14.64 9.602-14.638-9.602-14.639 9.602-14.638-9.602z"/><path fill="#fab861" d="M223.958 174.846v45.032l-12.337-8.09-14.639 9.602-14.638-9.602-14.639 9.602-12.334-8.09v-45.035l12.334 8.094.674-.441 13.965-9.161 14.638 9.602 14.639-9.602c3.189 2.094 9.085 5.956 12.337 8.09z"/><path fill="#5ba3a0" d="M207.224 201.822c-4.719 1.53-7.873 12.117-12.278 10.687-5.413-2.799-5.286-15.214-13.977-15.694 9.975-14.63 11.267-2.921 20.874-3.615 7.01-.452 14.756-11.609 14.947-23.054l-1.689-1.104c-.023 10.562-6.771 20.767-13.414 21.287-8.001 1.015-12.356-12.758-23.314 7.014-13.089 6.85-11.177-18.032-23-7.946v3.342c10.653-11.073 8.893 13.57 22.442 7.782 1.818-.74 3.385-1.379 5.708-.087 5.536 2.837 5.516 12.465 11.036 14.882 9.573 2.353 9.647-25.785 29.398-1.729v-3.567c-6.426-7.696-12.033-10.453-16.733-8.2z"/><path fill="#eaa149" d="M214.277 168.5c-.558 2.209-1.377 3.981-2.377 4.796-.884.725-1.112.048-2.435.648-4.091 1.872-4.664 10.404-7.112 9.74-1.714-.466-1.763-3.317-3.895-4.709-3.363-2.189-5.438 3.47-10.227 2.76-3.314-.49-3.222-3.337-6.331-3.735-7.643-.352-9.48 14.304-13.52-2.082l13.964-9.161 14.639 9.602 14.639-9.602 2.657 1.743z"/><path fill="#ef5740" d="M183.502 183.522c0 3.954-5.654 12.807-5.654 12.807s-5.655-8.854-5.655-12.807c.137-9.417 11.175-9.416 11.309 0"/><path fill="#fff9f9" d="M181.193 181.911c-.081 5.572-6.611 5.57-6.691 0 .081-5.571 6.612-5.57 6.691 0"/><path fill="#fab861" d="M211.622 162.626v53.289l14.64 9.602v-53.289zm-29.278 0v53.289l14.638 9.602v-53.289zm-29.276-.001 14.638 9.603v53.289l-14.638-9.602z" opacity=".6" style="mix-blend-mode:multiply"/></g></g><g filter="url(#b)" style="mix-blend-mode:luminosity"><path fill="#00703a" d="M411.266 66.376c-1.866.892-3.913 1.017-5.764.359-1.41-.503-2.972-.403-4.403.28-1.431.685-2.608 1.895-3.32 3.412-.934 1.99-2.474 3.579-4.34 4.47-2.877 1.376-6.05.932-8.28-1.153-1.701-1.588-4.114-1.93-6.304-.883a6.8 6.8 0 0 0-1.914 1.383 8.9 8.9 0 0 1-2.519 1.819c-3.908 1.868-8.212.314-10.014-3.608-1.367-2.975-4.637-4.16-7.607-2.76-2.382 1.125-4.968 1.015-7.092-.305-2.123-1.315-3.458-3.632-3.653-6.352-.245-3.395-2.811-5.822-5.965-5.646-2.53.14-4.833-.986-6.319-3.085-1.483-2.1-1.918-4.846-1.189-7.535.907-3.354-.604-6.693-3.519-7.766-2.336-.863-4.046-2.85-4.692-5.448s-.124-5.409 1.43-7.704c1.941-2.86 1.684-6.661-.596-8.84-1.827-1.748-2.712-4.33-2.429-7.083.284-2.752 1.691-5.24 3.862-6.83 2.707-1.984 3.74-5.732 2.407-8.724-.967-2.164-1.019-4.653-.149-7.01.86-2.334 2.563-4.25 4.665-5.255a8.5 8.5 0 0 1 1.415-.526c.362-.098.725-.23 1.069-.393 2.545-1.217 4.195-4.107 4.015-7.031-.242-3.833 1.93-7.633 5.28-9.234 1.381-.66 2.884-.905 4.346-.704a5.86 5.86 0 0 0 3.312-.542c1.816-.868 3.182-2.538 3.76-4.582.753-2.682 2.548-4.871 4.925-6.008s4.963-1.04 7.094.262c1.626.996 3.598 1.066 5.414.198a6.95 6.95 0 0 0 2.694-2.329c.928-1.34 2.145-2.4 3.53-3.061 3.35-1.602 7.161-.666 9.266 2.281 1.603 2.244 4.501 2.96 7.05 1.741a6.3 6.3 0 0 0 .999-.594 9 9 0 0 1 1.326-.784c2.102-1.005 4.456-1.028 6.461-.064 2.023.975 3.464 2.8 4.057 5.142.818 3.238 3.789 5.077 6.904 4.273 2.499-.641 4.984-.014 6.822 1.724s2.737 4.31 2.467 7.064c-.338 3.43 1.735 6.364 4.824 6.82 2.475.369 4.516 1.949 5.599 4.344 1.084 2.388 1.039 5.214-.125 7.75-1.45 3.16-.548 6.794 2.093 8.448 2.118 1.328 3.438 3.651 3.623 6.371a9.76 9.76 0 0 1-2.693 7.393c-2.364 2.462-2.76 6.304-.919 8.937 1.473 2.11 1.894 4.857 1.157 7.545-.739 2.684-2.526 4.884-4.898 6.036-2.959 1.433-4.596 4.964-3.809 8.217 1.039 4.287-1.121 8.93-5.028 10.798-.92.44-1.889.696-2.884.764-.752.05-1.49.243-2.192.579-2.191 1.047-3.721 3.27-3.991 5.804-.358 3.322-2.366 6.243-5.244 7.618z"/><path fill="#008a48" d="M368.257-45.722c3.063 1.875 7.11.808 9.375-2.465 2.91-4.209 8.51-4.55 11.275-.686 2.148 3.006 6.167 3.58 9.306 1.33 4.036-2.896 9.218-1.017 10.433 3.78.945 3.732 4.391 5.865 7.98 4.941 4.618-1.19 8.683 2.654 8.181 7.743-.389 3.952 2.021 7.357 5.575 7.886 4.575.678 6.971 5.971 4.825 10.655-1.666 3.638-.624 7.858 2.421 9.769 3.918 2.455 4.322 8.48.817 12.13-2.721 2.839-3.18 7.297-1.064 10.327 2.729 3.901 1.09 9.843-3.299 11.964-3.408 1.653-5.312 5.752-4.403 9.495 1.168 4.816-2.293 9.875-6.971 10.184-3.634.24-6.724 3.43-7.15 7.38-.547 5.087-5.365 8.576-9.703 7.03-3.373-1.202-7.227.64-8.929 4.267-2.187 4.666-7.711 6.115-11.123 2.926-2.651-2.48-6.753-2.23-9.503.58-3.533 3.616-9.016 2.832-11.04-1.575-1.572-3.426-5.371-4.804-8.792-3.187-4.404 2.077-9.106-.834-9.468-5.861-.28-3.908-3.261-6.727-6.895-6.524-4.679.258-7.962-4.386-6.618-9.357 1.047-3.862-.709-7.74-4.069-8.981-4.318-1.594-5.745-7.35-2.872-11.589 2.235-3.295 1.935-7.71-.691-10.22-3.378-3.234-2.753-9.32 1.26-12.255 3.119-2.284 4.321-6.637 2.781-10.084-1.98-4.437.612-10.028 5.226-11.267 3.585-.964 6.122-4.67 5.874-8.585-.315-5.036 3.895-9.384 8.483-8.759 3.561.488 7.097-2.07 8.177-5.925 1.392-4.96 6.65-7.474 10.593-5.063z"/><path fill="#38c266" d="M398.022 58.124c24.226-11.58 36.699-41.679 27.858-67.226s-35.647-36.87-59.873-25.29c-24.226 11.582-36.699 41.68-27.858 67.227s35.646 36.87 59.873 25.289"/><path fill="#6dd38f" d="M422.528 29.475c10.145-26.792.229-56.393-22.148-66.116s-48.74 4.114-58.884 30.905c-10.145 26.792-.229 56.394 22.148 66.117s48.74-4.114 58.884-30.906"/><path fill="#008a48" d="M417.082 27.107c8.78-23.189.197-48.81-19.17-57.225s-42.186 3.56-50.966 26.75c-8.78 23.188-.198 48.809 19.17 57.225 19.367 8.415 42.185-3.561 50.966-26.75"/><path fill="#d9eae2" d="M419.762 1.106c-3.987-21.936-24.117-34.899-44.961-28.954C353.956-21.903 340.29.7 344.277 22.635c3.987 21.936 24.117 34.9 44.962 28.954 20.844-5.945 34.51-28.547 30.523-50.483"/><path fill="#008a48" d="M395.924 53.818a.69.69 0 0 1 .345-.83.526.526 0 0 1 .743.31.696.696 0 0 1-.346.836.53.53 0 0 1-.742-.316m-2.614 1.76a.532.532 0 0 1-.711-.382.69.69 0 0 1 .402-.806l.003-.002c.306-.118.628.052.711.383a.69.69 0 0 1-.36.786zm5.849-3.414a.69.69 0 0 1 .282-.857.525.525 0 0 1 .768.242.69.69 0 0 1-.281.857l-.046.022a.526.526 0 0 1-.724-.268zm-9.283 4.559c-.315.09-.621-.111-.678-.445-.059-.337.149-.686.461-.774.316-.09.62.107.679.445a.7.7 0 0 1-.371.74q-.04.021-.091.034m12.4-6.49a.686.686 0 0 1 .218-.873c.279-.195.635-.117.792.17a.7.7 0 0 1-.22.879c-.031.014-.059.037-.089.052a.524.524 0 0 1-.701-.228m-15.89 7.328c-.32.064-.604-.166-.638-.506-.03-.347.199-.672.52-.736.316-.062.604.166.634.508a.7.7 0 0 1-.375.69.6.6 0 0 1-.141.044m18.867-9.52c-.179-.271-.112-.67.156-.886.263-.215.625-.172.803.099.184.273.113.673-.15.888a.7.7 0 0 1-.128.08.53.53 0 0 1-.681-.181m-22.386 10.044c-.321.036-.586-.217-.591-.566-.009-.348.248-.658.566-.688.323-.033.588.22.592.566a.69.69 0 0 1-.38.636.5.5 0 0 1-.187.052M408.073 45.6c-.199-.252-.163-.65.087-.89.25-.242.615-.229.815.027.202.25.162.65-.084.89a.7.7 0 0 1-.168.117.526.526 0 0 1-.65-.144m-28.735 12.695c-.32.002-.563-.276-.541-.624.018-.346.293-.632.615-.64.319-.003.562.275.54.623a.69.69 0 0 1-.38.585.6.6 0 0 1-.234.056m31.374-15.363c-.219-.233-.211-.636.02-.892.23-.26.597-.28.819-.049.223.231.219.632-.016.89a.7.7 0 0 1-.205.154.53.53 0 0 1-.618-.103M375.829 58.18c-.318-.02-.535-.325-.49-.67.048-.352.341-.609.66-.588.316.027.536.33.487.677a.69.69 0 0 1-.372.53.54.54 0 0 1-.285.051m37.327-18.133c-.238-.21-.263-.606-.049-.886.212-.275.578-.333.817-.12.241.21.263.607.051.882a.64.64 0 0 1-.234.196.53.53 0 0 1-.585-.072m-40.792 17.708c-.313-.057-.508-.377-.436-.72.072-.345.387-.58.699-.527s.506.372.43.718a.68.68 0 0 1-.363.479.54.54 0 0 1-.33.05m43.022-20.786c-.256-.187-.311-.578-.119-.872.192-.293.558-.379.814-.192.254.183.31.574.118.868a.66.66 0 0 1-.265.239.53.53 0 0 1-.548-.043m-46.423 20.043c-.304-.08-.471-.422-.374-.76.099-.342.424-.549.732-.467.304.08.471.423.374.76a.7.7 0 0 1-.355.427.55.55 0 0 1-.377.04m48.425-23.293c-.27-.162-.353-.544-.183-.85.168-.31.528-.427.801-.267.27.162.352.54.184.85a.64.64 0 0 1-.295.282.54.54 0 0 1-.507-.015m-51.736 22.245c-.296-.108-.434-.468-.312-.798.125-.332.464-.509.759-.401.296.107.438.466.312.798a.68.68 0 0 1-.336.377.53.53 0 0 1-.423.024m53.499-25.644c-.283-.137-.397-.504-.249-.823.146-.324.499-.474.782-.337.287.135.397.505.251.828a.68.68 0 0 1-.319.326.53.53 0 0 1-.465.006m-56.696 24.297c-.287-.135-.398-.508-.251-.827.146-.323.499-.473.782-.337.287.135.397.505.251.828a.7.7 0 0 1-.317.33.55.55 0 0 1-.465.006m58.206-27.823c-.295-.108-.437-.467-.315-.797l.004-.002c.121-.33.46-.506.756-.399.295.108.437.467.315.797a.7.7 0 0 1-.336.377.54.54 0 0 1-.424.024m-61.274 26.18c-.269-.162-.353-.544-.183-.85.168-.31.527-.43.797-.269.274.165.356.543.188.853a.67.67 0 0 1-.294.281.53.53 0 0 1-.508-.015m62.523-29.807c-.307-.078-.474-.42-.374-.76.097-.336.424-.549.729-.465.303.08.471.422.374.76a.67.67 0 0 1-.355.427.53.53 0 0 1-.374.038m-65.432 27.891c-.26-.185-.311-.578-.119-.871s.553-.382.813-.196c.256.187.306.576.115.873a.64.64 0 0 1-.266.235.53.53 0 0 1-.543-.04m66.406-31.593c-.311-.052-.503-.373-.431-.718.073-.344.386-.582.698-.53.311.053.504.378.432.722a.69.69 0 0 1-.368.48.54.54 0 0 1-.331.046m-69.145 29.409c-.243-.212-.263-.606-.053-.885.214-.28.579-.332.82-.124.242.212.263.606.052.884a.64.64 0 0 1-.234.197.53.53 0 0 1-.585-.072m69.847-33.163c-.32-.025-.54-.328-.491-.675s.341-.608.661-.583c.315.023.535.326.486.673a.69.69 0 0 1-.376.531.5.5 0 0 1-.28.054m-72.39 30.725c-.222-.231-.215-.634.017-.89.23-.26.595-.284.819-.049.222.231.214.63-.017.89a.7.7 0 0 1-.2.152.53.53 0 0 1-.619-.103m72.803-34.505c-.319.002-.562-.276-.545-.626.022-.348.3-.636.619-.639.32-.002.562.276.541.624a.69.69 0 0 1-.381.585.6.6 0 0 1-.234.056m-75.138 31.832c-.199-.256-.163-.654.087-.895.251-.237.614-.228.814.028.204.254.164.653-.082.893a.7.7 0 0 1-.17.114.53.53 0 0 1-.649-.14m75.265-35.617c-.322.032-.588-.22-.593-.57-.008-.343.25-.654.567-.688.322-.032.588.22.593.57a.69.69 0 0 1-.382.633.6.6 0 0 1-.185.055m-77.37 32.721c-.178-.271-.111-.669.153-.884.266-.22.627-.178.807.097.178.271.111.67-.152.884a.7.7 0 0 1-.131.086.525.525 0 0 1-.677-.183M423.96 4.39c-.32.064-.604-.166-.638-.506-.031-.346.199-.672.52-.736.316-.062.604.166.635.512a.69.69 0 0 1-.376.687.6.6 0 0 1-.141.043m-79.065 33.386a.69.69 0 0 1 .217-.877.535.535 0 0 1 .794.174c.156.286.057.68-.222.875-.031.014-.059.037-.085.05a.526.526 0 0 1-.704-.222M423.507.69c-.316.09-.617-.113-.676-.45-.059-.338.147-.68.463-.77s.616.108.679.444a.7.7 0 0 1-.377.738l-.087.042zm-80.221 33.812a.69.69 0 0 1 .282-.857.526.526 0 0 1 .77.246.696.696 0 0 1-.286.859l-.045.022a.523.523 0 0 1-.721-.27M422.771-2.94c-.309.12-.627-.052-.714-.38a.694.694 0 0 1 .405-.809.534.534 0 0 1 .715.38.7.7 0 0 1-.358.791l-.046.022zm-80.833 34.02a.696.696 0 0 1 .346-.836.53.53 0 0 1 .745.314.695.695 0 0 1-.347.837.53.53 0 0 1-.744-.315m79.074-37.86-.013-.05s-.015-.03-.021-.046a.7.7 0 0 1 .345-.84.53.53 0 0 1 .745.315l.035.1a.695.695 0 0 1-.347.836.53.53 0 0 1-.744-.314m-79.438 34.69c-.306.118-.627-.052-.714-.38a.7.7 0 0 1 .405-.809c.31-.12.628.052.715.38a.69.69 0 0 1-.36.787zm78.091-38.116a.7.7 0 0 1 .281-.861.534.534 0 0 1 .774.244.7.7 0 0 1-.286.859l-.044.026a.53.53 0 0 1-.725-.268m-78.926 34.52c-.31.092-.616-.11-.675-.447-.061-.332.147-.68.463-.77.312-.088.616.11.675.447a.69.69 0 0 1-.369.734.4.4 0 0 1-.094.036m77.355-37.7c-.158-.29-.058-.68.222-.875a.528.528 0 0 1 .789.172.69.69 0 0 1-.218.874q-.043.031-.089.051a.53.53 0 0 1-.704-.221m-77.903 34.022c-.321.06-.604-.166-.639-.51-.033-.34.199-.672.517-.73.32-.065.603.161.638.506a.69.69 0 0 1-.377.686.4.4 0 0 1-.139.048M416.28-16.39c-.18-.275-.112-.669.15-.888.268-.217.626-.172.808.097.183.274.113.673-.151.888a.6.6 0 0 1-.132.082.53.53 0 0 1-.675-.179m-76.356 33.287c-.321.036-.588-.221-.592-.566-.005-.35.25-.654.567-.689.321-.036.588.221.592.566a.69.69 0 0 1-.38.637.5.5 0 0 1-.187.052m74.306-36.1c-.204-.255-.168-.652.082-.894.25-.241.615-.228.818.026.199.253.164.654-.087.891a.6.6 0 0 1-.164.116.524.524 0 0 1-.649-.14m-74.279 32.321c-.322.009-.566-.273-.545-.621.022-.348.297-.634.616-.637.318-.007.561.271.544.621a.7.7 0 0 1-.381.581.6.6 0 0 1-.234.056M411.957-21.8c-.222-.232-.218-.632.016-.894.23-.26.596-.28.819-.05.222.232.218.633-.016.895a.6.6 0 0 1-.2.152.53.53 0 0 1-.619-.103M340.264 9.332c-.318-.022-.539-.324-.49-.671.044-.35.34-.613.66-.588.315.024.535.326.486.673a.68.68 0 0 1-.373.53.53.53 0 0 1-.283.056m69.216-33.499c-.243-.212-.263-.606-.053-.885s.579-.333.82-.124c.241.208.263.606.051.88a.65.65 0 0 1-.234.197.53.53 0 0 1-.584-.068M340.864 5.565c-.311-.053-.508-.376-.436-.72s.387-.579.699-.526.507.372.431.718a.69.69 0 0 1-.368.48.53.53 0 0 1-.326.048m65.95-31.858c-.255-.183-.31-.574-.118-.867.191-.298.553-.382.809-.195.255.183.31.574.119.872a.7.7 0 0 1-.269.236.53.53 0 0 1-.545-.044zM341.742 1.844c-.304-.084-.47-.423-.375-.764.101-.338.425-.545.732-.467.305.084.471.422.376.763a.68.68 0 0 1-.355.428.55.55 0 0 1-.378.04m62.237-29.994c-.274-.16-.357-.542-.185-.855.17-.306.525-.424.798-.264.274.16.357.543.187.849a.65.65 0 0 1-.294.281.53.53 0 0 1-.506-.011M342.896-1.813c-.295-.107-.433-.468-.311-.798.121-.33.463-.512.759-.4.295.107.436.462.312.798a.68.68 0 0 1-.336.376.56.56 0 0 1-.424.024m58.1-27.927c-.287-.135-.398-.508-.251-.827.146-.323.495-.471.778-.335.286.131.397.505.255.826a.7.7 0 0 1-.319.326.53.53 0 0 1-.463.01M344.32-5.372c-.289-.14-.399-.509-.251-.828.146-.323.495-.471.782-.336.283.136.397.504.251.827a.68.68 0 0 1-.319.326.53.53 0 0 1-.463.01m53.559-25.678c-.295-.107-.436-.462-.311-.794.122-.33.46-.51.755-.403.295.108.437.467.316.797a.67.67 0 0 1-.337.376.53.53 0 0 1-.423.024M345.996-8.819c-.274-.16-.357-.542-.187-.848.172-.312.527-.43.8-.27.27.162.353.544.183.85a.65.65 0 0 1-.292.285.53.53 0 0 1-.504-.017m48.663-23.247c-.304-.08-.475-.42-.374-.76.096-.336.423-.549.728-.465.303.08.475.42.374.76a.68.68 0 0 1-.355.427.52.52 0 0 1-.373.038m-46.743 19.942c-.26-.185-.31-.574-.118-.867.187-.296.553-.382.809-.195.259.182.31.574.118.868a.65.65 0 0 1-.264.239.53.53 0 0 1-.545-.045m43.435-20.659c-.312-.053-.507-.372-.435-.716s.386-.583.697-.53c.312.052.508.376.432.722a.68.68 0 0 1-.363.478.54.54 0 0 1-.331.046m-41.283 17.52c-.242-.208-.263-.605-.053-.884.212-.275.579-.333.821-.12.241.208.263.605.051.88a.65.65 0 0 1-.238.198.525.525 0 0 1-.581-.074m37.912-17.93c-.32-.025-.54-.328-.491-.675.045-.345.341-.608.655-.585.32.025.539.324.492.675a.69.69 0 0 1-.377.531.56.56 0 0 1-.279.054m-35.541 14.977c-.222-.231-.215-.633.017-.89.23-.26.595-.284.819-.049.222.232.217.628-.017.89a.7.7 0 0 1-.201.152.53.53 0 0 1-.618-.103M384.563-33.3c-.318.007-.561-.27-.544-.621.022-.348.297-.634.616-.637.322-.008.564.27.544.622a.69.69 0 0 1-.382.58.5.5 0 0 1-.234.056M355.01-20.964c-.202-.25-.164-.654.084-.89.25-.24.615-.227.817.023.204.254.164.653-.082.893a.7.7 0 0 1-.169.118.52.52 0 0 1-.65-.144m26.121-12.126c-.318.03-.584-.222-.593-.57-.003-.345.25-.654.567-.688.323-.032.588.22.597.568a.7.7 0 0 1-.381.633.6.6 0 0 1-.19.057m-23.36 9.605c-.183-.273-.113-.673.151-.888.266-.22.625-.172.807.097.18.275.112.67-.15.888a.7.7 0 0 1-.132.082.526.526 0 0 1-.676-.179m19.937-9.089c-.317.062-.605-.166-.636-.512-.033-.34.195-.67.517-.73.316-.062.603.162.638.506a.7.7 0 0 1-.38.688.6.6 0 0 1-.139.048m-17.012 6.81a.696.696 0 0 1 .22-.88.532.532 0 0 1 .791.176.69.69 0 0 1-.218.873c-.031.015-.059.038-.089.052a.53.53 0 0 1-.704-.222m13.621-5.991c-.315.09-.619-.107-.678-.445-.063-.336.146-.684.461-.774s.616.109.679.445a.7.7 0 0 1-.371.74 1 1 0 0 1-.091.034m-10.549 3.969a.7.7 0 0 1 .284-.863.53.53 0 0 1 .77.246.696.696 0 0 1-.282.857s-.029.019-.044.026a.53.53 0 0 1-.728-.266m7.206-2.85c-.306.119-.628-.051-.715-.38a.7.7 0 0 1 .406-.808c.309-.12.627.052.714.38a.69.69 0 0 1-.36.787zm-4.01 1.097a.7.7 0 0 1 .345-.84.53.53 0 0 1 .745.314.696.696 0 0 1-.347.837.532.532 0 0 1-.743-.311"/><path fill="#41d171" d="M376.106 81.915c-7.623 6.368-14.658 13.739-20.909 22.024-.539-5.14-.787-10.44-.735-15.856-4.984.282-10.087.924-15.282 1.95 7.403-9.808 15.732-18.535 24.761-26.079l12.161 17.963z"/><path fill="#38c266" d="M442.754 48.19c-30.181 1.661-59.566 15.365-82.254 38.36-4.604-5.208-9.212-10.413-13.816-15.62 26.634-26.994 61.14-43.086 96.569-45.036z"/><path fill="#fcfcfc" d="M360.071 72.185c.592-.279.895-1.017.676-1.65-.22-.632-.877-.92-1.47-.64-.592.278-.895 1.017-.676 1.65.219.632.877.919 1.47.64m20.13-18.596.48.982c.759 1.559.308 2.631-.865 3.373l-.49.312 1.505 3.094-1.656 1.045-4.087-8.399 1.656-1.045.49-.313c1.176-.743 2.207-.613 2.97.944zm-1.656 1.045c-.227-.468-.43-.515-.667-.362l-.375.238 1.063 2.183.375-.238c.241-.155.311-.371.084-.839z"/><g style="mix-blend-mode:luminosity"><path fill="#f6733d" d="M375.54 23.294c7.213-.523 14.228-.985 21.441-1.508-.335-10.98-.665-21.958-1-32.938-7.123.686-14.248 1.367-21.367 2.052-.188 4.72 1.198 26.31.926 32.394"/><mask id="c" width="23" height="36" x="374" y="-12" maskUnits="userSpaceOnUse" style="mask-type:luminance"><path fill="#fff" d="M375.319 23.393c7.261-.68 14.322-1.293 21.583-1.972-.234-10.888-.463-21.772-.697-32.66-7.172.839-14.345 1.673-21.513 2.51-.233 4.688.959 26.08.627 32.122"/></mask><g mask="url(#c)"><path fill="#e56538" d="M372.152 23.37c1.938-.05 3.822-.057 5.76-.108-.205-11.06-.403-22.118-.607-33.18-1.909.219-3.824.433-5.733.651-.003 4.739.593 26.53.583 32.63z"/></g><path fill="#ffce55" d="M392.87-.362c-.213-2.232-1.312-3.953-3.268-5.116-1.28-.76-2.741-.926-4.213-.531l-.008-.03q-.057.034-.105.071a7.7 7.7 0 0 0-2.395 1.197c-1.27.925-2.194 2.257-2.532 3.656a7.4 7.4 0 0 0-.188 1.547c-.04 1.67.327 3.221 1.066 4.488.787 1.355 2.019 2.357 3.375 2.74.976.277 1.987.237 2.789.16l.147-.013c.933-.098 2.799-.998 3.714-1.98.57-.606 1.887-3.343 1.619-6.184zm-3.404 5.106a2.8 2.8 0 0 1 1.168.742c-.562.521-1.426 1.023-2.171 1.324.369-.608.667-1.315.9-2.088.033.008.064.011.098.024zm.214-.683c-.044-.014-.086-.018-.129-.027a13.4 13.4 0 0 0 .32-2.256c.014-.249.01-.495.012-.75l2.36-.226c-.077 1.765-.708 3.362-1.162 4.135a3.4 3.4 0 0 0-1.401-.876m-5.423 1.13a8 8 0 0 1 2.079-.568l.071 2.53a7 7 0 0 1-.992-.066c-.458-.494-.847-1.14-1.16-1.9zm.069 1.612a4.9 4.9 0 0 1-1.373-.867q.339-.248.699-.449c.197.48.422.92.677 1.31zm-.308-2.262a11.7 11.7 0 0 1-.471-2.222 14 14 0 0 1-.051-.68l2.741-.262.074 2.539a8.6 8.6 0 0 0-2.293.624m-.327-6.358c.033.008.061.018.093.026.812.151 1.645.122 2.37.072l.069 2.39-2.746.263c-.01-.908.055-1.82.217-2.725-.002-.005.004-.018.003-.023zm1.842-3.508c.177-.047.355-.073.537-.105l-.004.665.066 2.331c-.683.054-1.458.076-2.2-.061-.031-.004-.055-.015-.087-.023.121-.494.266-.91.451-1.28.266-.532.739-1.178 1.243-1.524zm2.595 1.16c.212.349.388.76.548 1.266l-.067.028a8.2 8.2 0 0 1-1.824.38l-.068-2.32.005-.677c.547.225 1.097.821 1.406 1.323m-1.327 2.386c.624-.067 1.305-.18 1.969-.414l.085-.036c.203.85.319 1.724.357 2.61l-2.344.225zm.089 3.099 2.339-.223c-.001.227.002.452-.012.685-.041.74-.14 1.457-.298 2.128a6 6 0 0 0-.478-.049 12 12 0 0 0-1.477-.002zm2.975-.997a14.3 14.3 0 0 0-.391-2.816 4.9 4.9 0 0 0 1.382-1.037c.778.9 1.239 1.997 1.358 3.28q.013.17.019.343l-2.374.227zm.53-4.324a4.2 4.2 0 0 1-1.107.83 6 6 0 0 0-.611-1.407 4.7 4.7 0 0 0-.563-.741c.396.11.78.262 1.147.475q.636.38 1.138.84zm-7.185-.184c.288-.213.582-.39.875-.55a6 6 0 0 0-.367.629 7.2 7.2 0 0 0-.501 1.413 3.6 3.6 0 0 1-1.019-.567 6 6 0 0 1 1.012-.925M380.967-.97a5.3 5.3 0 0 1 .796-1.736c.37.304.804.554 1.299.725-.005.034-.012.059-.021.095a15.5 15.5 0 0 0-.23 2.882l-1.983.187a8 8 0 0 1-.03-.775 6.4 6.4 0 0 1 .165-1.376zm.806 5.483c-.438-.762-.723-1.663-.865-2.624l1.934-.183c.015.248.03.495.055.744.094.851.269 1.658.51 2.4a7.3 7.3 0 0 0-.945.616 6 6 0 0 1-.692-.947zm5.729 2.58a10 10 0 0 1-.447.036l-.073-2.567a11 11 0 0 1 1.382.005c.113.007.239.024.364.037-.283.923-.675 1.735-1.158 2.363l.103.092c-.056.013-.122.03-.171.034"/><path fill="#1bb287" d="M374.962 31.439c5.959-4.76 11.771-9.346 17.732-14.101-5.789-8.77-11.573-17.55-17.364-26.325-5.799 4.829-11.6 9.665-17.398 14.494 2.203 3.975 14.216 20.788 17.028 25.927z"/><mask id="d" width="36" height="41" x="357" y="-9" maskUnits="userSpaceOnUse" style="mask-type:luminance"><path fill="#fff" d="M374.912 31.43c5.976-4.779 11.806-9.384 17.785-14.159C386.923 8.526 381.156-.23 375.38-8.98c-5.816 4.848-11.635 9.703-17.452 14.55 2.197 3.966 14.18 20.729 16.981 25.856z"/></mask><g mask="url(#d)"><path fill="#0d9974" d="M372.541 33.6c1.656-1.164 3.282-2.259 4.94-3.418q-8.76-13.3-17.521-26.587-2.322 1.923-4.635 3.849c2.422 3.847 14.103 21.2 17.219 26.16z"/></g><path fill="#ffce55" d="M378.259 1.808c-1.3-1.697-3.112-2.447-5.379-2.221-1.485.15-2.825.882-3.896 2.093l-.027-.018-.054.116a9.1 9.1 0 0 0-1.466 2.412c-.631 1.515-.761 3.157-.352 4.508.134.447.337.898.611 1.379.799 1.386 1.895 2.435 3.169 3.03 1.359.638 2.915.714 4.277.219.978-.361 1.831-.995 2.484-1.538.044-.031.08-.068.122-.103.757-.639 1.911-2.494 2.209-3.844.189-.838-.048-3.866-1.702-6.03zm-.374 6.219a2.8 2.8 0 0 1 1.381-.096c-.218.762-.716 1.688-1.205 2.38a9 9 0 0 0-.27-2.243c.033-.01.061-.03.094-.041m-.158-.688c-.043.013-.079.038-.127.053a11.5 11.5 0 0 0-.858-2.034 11 11 0 0 0-.364-.616l1.918-1.6c.82 1.485 1.074 3.171 1.072 4.077a3.4 3.4 0 0 0-1.645.123zm-4.107 4.174a9.3 9.3 0 0 1 1.504-1.708l1.33 2.023a8 8 0 0 1-.886.543c-.642-.13-1.305-.424-1.948-.858m.868 1.278c-.524.13-1.07.168-1.615.115a6 6 0 0 1 .379-.784q.612.411 1.24.666zm-1.398-1.665a9.4 9.4 0 0 1-1.517-1.535 9 9 0 0 1-.382-.525l2.229-1.858 1.335 2.032a10.3 10.3 0 0 0-1.665 1.886m-3.467-5.003c.031-.016.06-.024.093-.035.776-.364 1.476-.88 2.074-1.36l1.258 1.911-2.237 1.864a13 13 0 0 1-1.18-2.356l-.012-.021zm-.17-3.972c.132-.146.268-.276.41-.405l.326.546 1.223 1.865c-.563.45-1.219.936-1.93 1.267-.031.016-.056.02-.086.036a6.3 6.3 0 0 1-.256-1.314c-.041-.594.049-1.411.305-1.99zm2.815-.612c.357.16.718.388 1.106.706l-.043.066c-.416.54-.911 1.003-1.378 1.405l-1.218-1.856-.333-.56c.582-.146 1.355.012 1.872.24zm.05 2.744c.504-.427 1.035-.928 1.49-1.519.019-.025.032-.052.052-.078a12 12 0 0 1 1.618 1.92l-1.908 1.587zm1.628 2.476 1.904-1.585c.111.187.228.375.331.567.338.628.606 1.274.808 1.92-.151.08-.3.165-.434.246-.402.244-.838.54-1.275.885zm2.064-2.6a12.6 12.6 0 0 0-1.748-2.07 5.5 5.5 0 0 0 .668-1.673c1.122.27 2.07.888 2.817 1.867.068.085.127.175.187.266l-1.93 1.608zM374.302.3a4.7 4.7 0 0 1-.539 1.345A5.5 5.5 0 0 0 372.53.86a4.5 4.5 0 0 0-.855-.27 5 5 0 0 1 1.227-.3 7 7 0 0 1 1.402.004zm-6.281 4.16a9 9 0 0 1 .482-.975 5 5 0 0 0 .001.736c.029.459.125.938.276 1.456a3.4 3.4 0 0 1-1.16.146c.088-.457.22-.914.405-1.366zm-.323 3.974a5.2 5.2 0 0 1-.184-1.897 4.2 4.2 0 0 0 1.483-.185c.014.027.02.058.03.087q.507 1.33 1.249 2.494l-1.615 1.348c-.141-.202-.29-.397-.414-.617a5.8 5.8 0 0 1-.546-1.226zm3.441 4.002c-.757-.355-1.456-.924-2.06-1.625l1.573-1.312q.202.29.418.572c.51.64 1.064 1.197 1.641 1.652a8 8 0 0 0-.508 1.071 5.3 5.3 0 0 1-1.07-.36zm6.229-1.327c-.114.098-.239.196-.366.302l-1.35-2.052c.411-.32.818-.597 1.19-.825.099-.063.219-.129.332-.189.216.922.287 1.82.186 2.626l.136.014c-.044.042-.09.092-.132.127z"/><path fill="#0d9974" d="m378.843 24.63 8.655-7.226-1.354-1.841c-.328.368-8.519 7.173-8.519 7.173z"/></g></g><g filter="url(#e)" style="mix-blend-mode:luminosity"><path fill="#00703a" d="M11.384 427.557c-1.142-.406-2.133-1.244-2.79-2.356-.501-.849-1.258-1.486-2.134-1.797-.877-.312-1.798-.27-2.596.117-1.048.506-2.255.564-3.398.158-1.762-.625-3.1-2.217-3.493-4.152-.302-1.475-1.318-2.688-2.66-3.164a3.5 3.5 0 0 0-1.316-.201 4.6 4.6 0 0 1-1.732-.265c-2.393-.85-3.916-3.447-3.544-6.04.282-1.967-.873-3.942-2.686-4.597-1.454-.524-2.623-1.706-3.203-3.243-.582-1.534-.488-3.183.26-4.52.934-1.669.49-3.908-1.031-5.207a5.7 5.7 0 0 1-1.987-4.183c-.042-1.615.603-3.069 1.771-3.987 1.457-1.147 1.784-3.344.76-5.113-.82-1.418-1.003-3.08-.502-4.558.502-1.478 1.611-2.543 3.041-2.919 1.785-.467 2.838-2.328 2.45-4.328-.31-1.603.075-3.179 1.056-4.321.98-1.142 2.402-1.671 3.902-1.453 1.87.271 3.507-1.001 3.81-2.961.218-1.419.962-2.586 2.093-3.29 1.12-.698 2.502-.835 3.79-.377.278.098.554.226.82.376.199.114.408.212.618.287 1.56.553 3.218-.054 4.036-1.479 1.07-1.869 3.252-2.667 5.304-1.939.846.301 1.62.846 2.237 1.578.47.554 1.06.969 1.708 1.199 1.112.395 2.262.224 3.161-.464 1.177-.904 2.687-1.126 4.143-.609s2.629 1.692 3.218 3.223c.449 1.169 1.344 2.064 2.457 2.459a3.4 3.4 0 0 0 1.97.107 4.5 4.5 0 0 1 2.586.136c2.052.729 3.535 2.826 3.605 5.103.053 1.733 1.18 3.33 2.741 3.885.21.074.43.131.648.163.29.047.58.12.858.219 1.288.458 2.39 1.476 3.024 2.797.64 1.333.747 2.803.3 4.14-.618 1.848.196 3.994 1.893 4.986 1.36.798 2.322 2.174 2.64 3.777s-.057 3.18-1.032 4.33c-1.215 1.43-1.156 3.687.14 5.247a5.68 5.68 0 0 1 1.263 4.448c-.232 1.573-1.125 2.854-2.448 3.511-1.649.819-2.35 2.886-1.633 4.802.575 1.538.472 3.184-.28 4.516-.754 1.333-2.043 2.144-3.534 2.224-1.858.098-3.227 1.693-3.183 3.709.034 1.615-.617 3.064-1.79 3.978-1.17.911-2.68 1.142-4.139.635-1.818-.635-3.668.273-4.305 2.114-.84 2.427-3.276 3.618-5.669 2.768a5.1 5.1 0 0 1-1.577-.91 3.9 3.9 0 0 0-1.197-.692c-1.342-.477-2.739-.123-3.646.925-1.191 1.372-3.026 1.837-4.788 1.211z"/><path fill="#008a48" d="M25.962 357.17c.846 2.202 3.057 3.482 5.12 2.967 2.651-.664 5.361 1.629 5.455 4.616.07 2.323 1.762 4.344 3.916 4.682 2.77.433 4.6 3.565 3.685 6.304-.712 2.13.233 4.618 2.187 5.763 2.514 1.473 3.219 5.019 1.415 7.141-1.4 1.648-1.33 4.269.16 6.067 1.918 2.313 1.4 5.796-1.042 7.012-1.898.945-2.715 3.342-1.889 5.554 1.065 2.843-.606 5.792-3.36 5.938-2.142.116-3.73 1.966-3.681 4.286.065 2.988-2.53 5.005-5.225 4.061-2.094-.73-4.244.323-4.976 2.443-.942 2.726-4.112 3.54-6.382 1.636-1.764-1.479-4.185-1.363-5.6.268-1.824 2.101-5.141 1.599-6.68-1.01-1.199-2.028-3.559-2.866-5.47-1.942-2.456 1.19-5.471-.56-6.074-3.52-.467-2.3-2.452-3.98-4.597-3.89-2.759.119-5.066-2.64-4.648-5.553.326-2.264-1.015-4.559-3.105-5.312-2.688-.971-3.977-4.367-2.594-6.838 1.075-1.921.558-4.522-1.194-6.018-2.255-1.927-2.35-5.5-.191-7.199 1.678-1.32 2.058-3.872.878-5.912-1.516-2.622-.404-5.895 2.24-6.588 2.055-.539 3.277-2.701 2.83-5.005-.573-2.965 1.595-5.492 4.367-5.087 2.154.314 4.056-1.164 4.403-3.423.448-2.907 3.378-4.346 5.905-2.898 1.964 1.125 4.287.529 5.38-1.38 1.407-2.455 4.705-2.614 6.645-.319 1.506 1.782 3.939 2.152 5.63.851 2.178-1.674 5.398-.53 6.488 2.303z"/><path fill="#38c266" d="M7.772 417.967c14.836 5.27 29.92-3.122 33.689-18.744s-5.203-32.556-20.04-37.825-29.92 3.122-33.689 18.744 5.203 32.556 20.04 37.825"/><path fill="#6dd38f" d="M27.9 417.137c12.64-7.281 16.93-25.475 9.582-40.637S13.93 354.949 1.29 362.23s-16.93 25.475-9.582 40.637c7.348 15.163 23.552 21.552 36.193 14.27"/><path fill="#008a48" d="M26.11 413.446c10.941-6.302 14.655-22.05 8.295-35.173S14.02 359.62 3.079 365.922s-14.654 22.049-8.294 35.173c6.36 13.123 20.385 18.653 31.326 12.351"/><path fill="#d9eae2" d="M35.236 401.179c4.947-12.005-.283-26.883-11.68-33.23-11.399-6.347-24.65-1.76-29.597 10.246s.283 26.884 11.681 33.231c11.398 6.346 24.649 1.759 29.596-10.247"/><path fill="#008a48" d="M8.125 415.07a.313.313 0 0 1 .416-.232.404.404 0 0 1 .25.468.316.316 0 0 1-.42.233.405.405 0 0 1-.246-.469m-1.76-.334a.41.41 0 0 1-.211-.487.313.313 0 0 1 .435-.195l.002.001a.4.4 0 0 1 .213.486.31.31 0 0 1-.41.205zm3.774.987c.03-.2.21-.321.395-.271a.4.4 0 0 1 .283.448c-.03.2-.21.321-.395.271l-.028-.01a.405.405 0 0 1-.254-.44zm-5.722-1.962a.41.41 0 0 1-.179-.502.316.316 0 0 1 .454-.154c.174.097.255.32.178.501a.313.313 0 0 1-.453.155m7.767 2.437c.016-.202.18-.339.37-.306s.332.225.317.425c-.019.202-.184.341-.374.308-.019-.007-.039-.008-.057-.015a.405.405 0 0 1-.256-.412m-9.649-3.578a.405.405 0 0 1-.14-.513.32.32 0 0 1 .468-.111c.167.11.23.341.138.511a.312.312 0 0 1-.466.113m11.71 3.872c0-.203.154-.356.345-.339.189.016.344.194.343.397.001.206-.155.359-.344.342a.3.3 0 0 1-.084-.019.41.41 0 0 1-.26-.381M.737 411.321a.397.397 0 0 1-.101-.519c.103-.164.318-.194.476-.069.16.126.205.359.1.519a.31.31 0 0 1-.373.127.3.3 0 0 1-.102-.058m15.57 5.282c-.014-.203.125-.37.316-.372.19-.001.356.164.37.369.017.204-.125.37-.313.373a.3.3 0 0 1-.115-.02.4.4 0 0 1-.258-.35m-17.276-6.729c-.15-.139-.177-.373-.06-.523.116-.152.332-.163.484-.026.15.138.176.372.059.523a.31.31 0 0 1-.357.103.4.4 0 0 1-.126-.077m19.326 6.655c-.03-.203.098-.384.285-.401.187-.019.364.132.396.336s-.093.386-.282.402a.34.34 0 0 1-.143-.019.4.4 0 0 1-.256-.318m-20.923-8.243c-.141-.149-.148-.384-.02-.523.13-.14.346-.131.487.019.139.15.148.386.018.524a.31.31 0 0 1-.336.081.4.4 0 0 1-.149-.101m22.95 7.985c-.046-.2.064-.394.25-.429.183-.034.372.1.417.303.048.201-.065.394-.248.428a.3.3 0 0 1-.17-.013.4.4 0 0 1-.25-.289m-24.43-9.696c-.127-.163-.12-.396.02-.522.14-.127.358-.098.487.063s.121.393-.021.519a.31.31 0 0 1-.317.061.37.37 0 0 1-.168-.121m26.416 9.256c-.061-.198.034-.402.213-.454.18-.051.377.07.438.268.062.196-.033.4-.213.451a.3.3 0 0 1-.196-.006.4.4 0 0 1-.242-.259m-27.768-11.086c-.116-.169-.088-.4.06-.513.152-.114.367-.067.485.106.116.169.089.4-.06.513a.32.32 0 0 1-.297.041.4.4 0 0 1-.188-.147m29.701 10.466c-.075-.193.004-.405.177-.471.174-.07.377.035.455.228.076.192-.003.402-.177.471a.3.3 0 0 1-.223.001.4.4 0 0 1-.232-.229m-30.917-12.396c-.104-.179-.057-.405.101-.504.16-.098.373-.031.477.148.104.178.06.406-.101.503a.32.32 0 0 1-.273.027.4.4 0 0 1-.204-.174m32.786 11.603c-.09-.186-.03-.405.138-.487.167-.085.378 0 .467.187.092.187.029.406-.139.49a.32.32 0 0 1-.248.011.4.4 0 0 1-.218-.201m-33.857-13.621c-.092-.188-.029-.409.138-.491.168-.085.378.001.468.187.092.188.029.406-.139.491a.32.32 0 0 1-.25.013.4.4 0 0 1-.217-.2m35.647 12.66c-.105-.179-.06-.406.098-.505l.003.001c.158-.099.37-.031.474.147.104.179.06.406-.099.505a.32.32 0 0 1-.272.026.4.4 0 0 1-.205-.174m-36.567-14.758c-.075-.193.004-.405.177-.472.174-.069.378.033.453.225.077.196-.001.406-.175.475a.32.32 0 0 1-.224.001.4.4 0 0 1-.231-.229m38.266 13.635c-.119-.17-.091-.401.06-.513.15-.112.366-.067.482.105.117.17.089.4-.06.513a.3.3 0 0 1-.297.041.36.36 0 0 1-.185-.146m-39.028-15.789c-.063-.199.034-.402.214-.453s.374.066.438.265c.061.198-.035.399-.216.452a.3.3 0 0 1-.196-.008.4.4 0 0 1-.24-.256m40.622 14.512c-.128-.16-.118-.392.021-.518.14-.127.36-.1.488.061.129.16.118.394-.022.521a.31.31 0 0 1-.319.06.37.37 0 0 1-.168-.124m-41.222-16.716c-.047-.203.065-.393.249-.43.186-.035.371.1.42.302.047.203-.065.393-.25.43a.3.3 0 0 1-.169-.012.4.4 0 0 1-.25-.29m42.707 15.296c-.141-.152-.15-.387-.02-.525.13-.139.346-.131.487.02.139.149.148.384.018.523a.31.31 0 0 1-.339.079.35.35 0 0 1-.146-.097m-43.137-17.53c-.032-.203.096-.385.282-.402.188-.018.365.13.396.336.032.204-.095.383-.282.402a.3.3 0 0 1-.14-.018.4.4 0 0 1-.256-.318M34.1 408.078a.4.4 0 0 1-.06-.526c.117-.151.335-.161.484-.023.15.139.177.373.06.523a.31.31 0 0 1-.358.103.4.4 0 0 1-.126-.077m-44.756-18.222c-.014-.205.125-.372.316-.374.19.001.356.164.37.369.016.207-.125.373-.313.375a.3.3 0 0 1-.114-.022.4.4 0 0 1-.259-.348m45.982 16.537a.403.403 0 0 1-.1-.522c.102-.161.318-.192.476-.069.16.126.205.359.1.522a.31.31 0 0 1-.373.124.4.4 0 0 1-.103-.055m-46.068-18.79c.001-.203.155-.356.344-.34.192.015.347.193.345.398 0 .203-.154.356-.343.34a.4.4 0 0 1-.087-.018.4.4 0 0 1-.259-.38m47.15 16.989a.404.404 0 0 1-.14-.512.318.318 0 0 1 .468-.112c.166.11.23.341.137.514a.31.31 0 0 1-.386.151.4.4 0 0 1-.08-.041m-47.062-19.226c.016-.202.182-.341.372-.309s.331.225.315.428c-.015.2-.183.338-.373.305l-.055-.014a.41.41 0 0 1-.259-.41m47.992 17.325a.406.406 0 0 1-.175-.503.314.314 0 0 1 .452-.152.41.41 0 0 1 .179.502.315.315 0 0 1-.403.175l-.053-.019zm-47.73-19.535a.317.317 0 0 1 .395-.271.4.4 0 0 1 .282.451.318.318 0 0 1-.397.27l-.028-.01a.404.404 0 0 1-.252-.44m48.508 17.543a.406.406 0 0 1-.215-.487.316.316 0 0 1 .438-.195.41.41 0 0 1 .214.488.316.316 0 0 1-.41.207l-.028-.01zm-48.08-19.707a.316.316 0 0 1 .42-.233.41.41 0 0 1 .249.471.316.316 0 0 1-.42.233.41.41 0 0 1-.249-.471m48.445 17.171.01-.029s.002-.02.005-.03a.318.318 0 0 1 .42-.236.41.41 0 0 1 .249.471l-.008.032-.007.029a.316.316 0 0 1-.42.234.41.41 0 0 1-.249-.471m-47.636-18.788a.41.41 0 0 1-.214-.488.317.317 0 0 1 .437-.194c.181.08.276.298.215.487a.31.31 0 0 1-.41.205zm48.068 16.622c.03-.2.209-.321.395-.273a.41.41 0 0 1 .285.451.32.32 0 0 1-.398.27l-.028-.007a.41.41 0 0 1-.254-.441m-47.347-18.642a.405.405 0 0 1-.176-.501.315.315 0 0 1 .453-.152c.172.096.253.32.176.501a.31.31 0 0 1-.398.177q-.028-.01-.055-.025m47.596 16.492c.016-.202.183-.338.373-.305.189.029.33.221.314.424-.015.2-.18.339-.37.306a.2.2 0 0 1-.058-.015.41.41 0 0 1-.259-.41m-46.716-18.424a.41.41 0 0 1-.14-.514c.09-.172.3-.223.466-.11.168.11.23.338.14.512a.31.31 0 0 1-.387.151.3.3 0 0 1-.08-.039m46.8 16.247c.001-.205.155-.356.344-.342.191.017.344.194.346.398 0 .206-.156.359-.344.342a.3.3 0 0 1-.087-.02.41.41 0 0 1-.259-.378m-45.77-18.085c-.161-.124-.206-.359-.101-.519.105-.163.318-.192.476-.069.16.124.205.359.1.519a.31.31 0 0 1-.373.127.3.3 0 0 1-.103-.058m45.685 15.894c-.016-.206.123-.373.314-.375.19-.002.356.164.372.37.015.203-.125.372-.315.372a.3.3 0 0 1-.113-.019.4.4 0 0 1-.258-.348M-5.35 371.858c-.152-.137-.179-.374-.061-.524s.333-.162.483-.024c.15.136.177.37.061.524a.31.31 0 0 1-.357.101.4.4 0 0 1-.126-.077m44.252 15.433c-.032-.204.093-.386.283-.405.187-.019.364.132.396.336s-.094.386-.283.405a.3.3 0 0 1-.14-.018.4.4 0 0 1-.256-.318m-42.939-17.037c-.141-.149-.15-.385-.02-.523.127-.142.346-.133.487.018.14.148.149.384.019.522a.31.31 0 0 1-.337.081.36.36 0 0 1-.149-.098m42.516 14.865c-.047-.204.065-.394.249-.43.184-.037.372.099.42.301s-.065.394-.248.427a.3.3 0 0 1-.17-.012.4.4 0 0 1-.25-.286m-41.075-16.336c-.129-.16-.12-.395.02-.522.14-.126.358-.097.487.064.128.16.12.393-.021.518a.31.31 0 0 1-.32.061.37.37 0 0 1-.166-.121m40.492 14.191c-.062-.195.033-.399.212-.45.18-.054.375.066.437.264.061.196-.033.4-.214.453a.34.34 0 0 1-.198-.009.4.4 0 0 1-.24-.258zm-38.936-15.519c-.116-.172-.088-.4.061-.515.152-.112.366-.065.485.105.116.172.088.4-.061.516a.31.31 0 0 1-.297.041.4.4 0 0 1-.188-.147m38.19 13.425c-.078-.194.002-.406.178-.474.173-.067.375.034.453.227.077.194-.002.406-.175.473a.3.3 0 0 1-.224 0 .4.4 0 0 1-.232-.226M.627 366.278c-.104-.179-.057-.405.1-.504.16-.099.374-.033.478.148.104.179.06.403-.102.504a.32.32 0 0 1-.272.026.4.4 0 0 1-.204-.174m35.629 12.565c-.092-.187-.029-.408.138-.49.168-.085.376 0 .465.187.093.185.03.405-.136.491a.32.32 0 0 1-.249.01.4.4 0 0 1-.218-.198m-33.87-13.58c-.09-.19-.028-.409.139-.491.168-.085.376 0 .467.187.09.187.03.406-.138.491a.32.32 0 0 1-.249.01.4.4 0 0 1-.219-.197m32.824 11.614c-.104-.178-.06-.403.1-.501.16-.099.372-.034.476.145.104.178.06.406-.099.504a.31.31 0 0 1-.273.026.38.38 0 0 1-.204-.174M4.23 364.41c-.078-.193.001-.405.174-.472.177-.068.378.033.456.226.075.192-.004.404-.177.471a.3.3 0 0 1-.224.003.4.4 0 0 1-.23-.228m29.797 10.591c-.116-.17-.09-.401.06-.513.15-.113.367-.068.483.105.116.169.09.4-.06.512a.31.31 0 0 1-.297.042.37.37 0 0 1-.186-.146M6.141 363.729c-.064-.198.033-.399.213-.45.178-.055.375.066.436.264.064.197-.033.4-.213.451a.3.3 0 0 1-.196-.006.4.4 0 0 1-.24-.259m26.568 9.495c-.128-.16-.12-.393.02-.519.139-.127.358-.1.487.061.128.16.12.395-.022.521a.31.31 0 0 1-.317.061.37.37 0 0 1-.168-.124m-24.6-9.998c-.047-.201.065-.393.249-.43.183-.033.372.1.419.304.048.201-.065.394-.248.428a.33.33 0 0 1-.172-.013.4.4 0 0 1-.247-.289m23.16 8.335c-.141-.152-.15-.387-.02-.525.127-.14.345-.131.485.017.14.152.15.385.02.525a.31.31 0 0 1-.339.08.4.4 0 0 1-.146-.097m-21.146-8.656c-.032-.204.096-.385.282-.402.188-.019.365.129.396.336.032.203-.092.384-.282.402a.3.3 0 0 1-.14-.018.4.4 0 0 1-.256-.318m19.59 7.112a.4.4 0 0 1-.062-.524c.118-.15.334-.162.483-.023.152.137.18.371.061.524a.31.31 0 0 1-.356.1.34.34 0 0 1-.126-.077m-17.547-7.252c-.017-.204.126-.372.313-.372.191-.002.357.164.374.367.016.207-.126.373-.314.375a.4.4 0 0 1-.115-.019.4.4 0 0 1-.258-.351m15.886 5.848a.41.41 0 0 1-.1-.522.322.322 0 0 1 .476-.069c.16.127.205.359.102.523a.31.31 0 0 1-.372.124.4.4 0 0 1-.106-.056m-13.824-5.8c-.001-.206.155-.359.344-.342.192.014.344.194.345.398-.001.205-.154.356-.344.342a.3.3 0 0 1-.086-.02.405.405 0 0 1-.26-.378m12.073 4.539a.4.4 0 0 1-.137-.513.314.314 0 0 1 .465-.11c.166.11.23.338.14.512a.31.31 0 0 1-.388.15.3.3 0 0 1-.08-.039m-10.01-4.308c.016-.203.183-.341.373-.308.19.032.33.223.314.426-.016.2-.181.339-.371.307-.019-.007-.039-.009-.057-.015a.41.41 0 0 1-.26-.41m8.181 3.202a.406.406 0 0 1-.178-.501.314.314 0 0 1 .453-.155c.175.097.253.32.178.502a.314.314 0 0 1-.453.154m-6.13-2.789c.034-.199.21-.321.399-.272.186.05.315.25.282.45a.318.318 0 0 1-.395.271s-.02-.004-.029-.008a.41.41 0 0 1-.256-.441m4.23 1.842a.41.41 0 0 1-.215-.488.32.32 0 0 1 .438-.195.41.41 0 0 1 .215.488.31.31 0 0 1-.41.205zm-2.203-1.25a.32.32 0 0 1 .42-.236.41.41 0 0 1 .25.471.316.316 0 0 1-.42.233.41.41 0 0 1-.25-.468"/><path fill="#38c266" d="M31.341 432.216c-14.629-11.965-32.663-18.103-50.478-17.182l-1.562-12.945c20.915-1.082 42.091 6.126 59.265 20.171z"/><g style="mix-blend-mode:luminosity"><path fill="#f6733d" d="M8.09 392.118c3.528 2.853 6.944 5.65 10.472 8.503 3.261-5.268 6.524-10.531 9.785-15.799l-10.606-8.218c-1.557 2.122-7.63 12.792-9.65 15.514"/><mask id="f" width="21" height="25" x="8" y="376" maskUnits="userSpaceOnUse" style="mask-type:luminance"><path fill="#fff" d="M8.058 391.834c3.578 2.915 7.043 5.771 10.622 8.686 3.23-5.137 6.463-10.27 9.694-15.407q-5.38-4.204-10.754-8.407c-1.547 2.064-7.555 12.482-9.562 15.128"/></mask><g mask="url(#f)"><path fill="#e56538" d="M6.526 390.903c.92.833 1.8 1.663 2.718 2.496 3.284-5.227 6.57-10.449 9.855-15.675-.957-.743-1.915-1.49-2.872-2.232-1.449 2.199-7.829 12.581-9.697 15.409z"/></g><path fill="#ffce55" d="M23.594 388.477c.596-1.132.62-2.407.07-3.789a4 4 0 0 0-1.8-2.055l.005-.017q-.036-.009-.07-.012a4.4 4.4 0 0 0-1.49-.47c-.881-.113-1.727.112-2.321.62a3.5 3.5 0 0 0-.57.641 4.9 4.9 0 0 0-.9 2.551c-.056.97.206 1.966.72 2.726.369.548.852.963 1.25 1.272l.073.057c.466.354 1.617.735 2.35.669.454-.037 1.921-.75 2.682-2.19zm-3.18.922c.16.253.27.547.314.847-.424.003-.984-.134-1.425-.313a4 4 0 0 0 1.07-.588q.02.024.039.053zm.314-.227-.052-.068a6.3 6.3 0 0 0 .852-.915c.084-.11.159-.227.24-.345l1.17.907c-.585.791-1.377 1.265-1.83 1.431a2.7 2.7 0 0 0-.38-1.01m-2.882-1.8c.414.159.802.378 1.146.628l-.755 1.21c-.15-.138-.3-.289-.442-.456a4.3 4.3 0 0 1 .052-1.384zm-.47.782a4 4 0 0 1-.37-.993q.235.03.465.09a5 5 0 0 0-.092.901zm.561-1.188c.112-.413.269-.832.473-1.238a8 8 0 0 1 .188-.339l1.36 1.054-.757 1.216a5.4 5.4 0 0 0-1.264-.693m1.829-3.106.035.052c.332.419.73.763 1.083 1.051l-.712 1.144-1.363-1.055c.278-.428.592-.826.95-1.179 0-.002.008-.006.009-.009zm1.952-.846c.097.054.189.118.283.181l-.209.309-.695 1.116c-.336-.268-.704-.59-1.007-.973-.014-.015-.021-.03-.034-.048.21-.178.408-.31.61-.403.289-.135.71-.233 1.054-.178zm.85 1.655a3.7 3.7 0 0 1-.14.825l-.04-.015a5.4 5.4 0 0 1-.97-.606l.692-1.111.214-.314c.185.34.255.854.243 1.221m-1.364.543c.313.237.665.477 1.048.652l.05.02a7.4 7.4 0 0 1-.646 1.37l-1.163-.9zm-.924 1.484 1.161.9c-.071.105-.14.212-.22.314-.25.328-.519.62-.801.865a4 4 0 0 0-.208-.228 9 9 0 0 0-.688-.635zm1.699.812q.42-.694.695-1.482.504.154.968.109a3.6 3.6 0 0 1-.39 2.113q-.046.085-.097.169l-1.178-.913zm1.594-1.79a2.2 2.2 0 0 1-.775-.088c.094-.332.143-.63.154-.919a3.4 3.4 0 0 0-.032-.587c.15.221.282.457.387.714q.179.45.269.881zm-3.293-3.169c.2.024.392.068.58.119a2.4 2.4 0 0 0-.368.136 3.2 3.2 0 0 0-.674.444 3 3 0 0 1-.299-.702c.246-.03.501-.032.76.003m-2.049.538a2.4 2.4 0 0 1 .912-.469c.078.301.202.604.38.896-.013.014-.024.022-.04.035a7.5 7.5 0 0 0-1.004 1.246l-.984-.763c.072-.128.144-.255.228-.375.168-.239.334-.425.505-.571zm-1.333 2.904a4.5 4.5 0 0 1 .414-1.595l.96.744q-.106.182-.206.371a6.8 6.8 0 0 0-.51 1.338 4 4 0 0 0-.633-.118 4.3 4.3 0 0 1-.028-.739zm1.869 3.661q-.108-.081-.22-.175l.766-1.228c.24.199.455.401.643.595.05.052.104.114.158.173-.42.309-.855.52-1.277.606l.02.087c-.03-.018-.066-.039-.09-.058"/><path fill="#e56538" d="m12.232 393.385 5.323 4.044.665-1.183c-.249-.137-5.268-3.97-5.268-3.97l-.717 1.11z"/><path fill="#1bb287" d="M5.175 396.005c4.249.266 8.375.552 12.623.821.054-6.541.114-13.084.168-19.628l-12.59-.495c-.22 2.788.1 15.71-.2 19.299z"/><mask id="g" width="13" height="21" x="5" y="376" maskUnits="userSpaceOnUse" style="mask-type:luminance"><path fill="#fff" d="M5.18 395.546c4.259.428 8.395.871 12.654 1.303.04-6.396.088-12.794.129-19.193l-12.621-.985c-.214 2.719.133 15.372-.161 18.872z"/></mask><g mask="url(#g)"><path fill="#0d9974" d="M3.286 396.03c1.15.18 2.265.378 3.415.561q.025-9.84.045-19.677-1.705-.118-3.405-.232c-.06 2.798.026 15.746-.055 19.351z"/></g><path fill="#ffce55" d="M15.987 383.508c-.072-1.341-.68-2.452-1.802-3.297a3.3 3.3 0 0 0-2.464-.652l-.007-.019-.061.031c-.479.076-.96.242-1.435.517-.767.447-1.34 1.162-1.574 1.967a4.2 4.2 0 0 0-.147.903c-.063.985.118 1.936.524 2.749.43.869 1.13 1.557 1.916 1.895.567.241 1.162.301 1.635.321.03.004.058.001.089.003.551.017 1.667-.369 2.227-.877.35-.314 1.188-1.833 1.096-3.542zm-2.119 2.759c.255.118.486.306.672.534-.34.266-.86.492-1.304.612.228-.331.424-.727.576-1.166.019.009.038.012.056.02m.142-.388c-.024-.013-.049-.016-.075-.029a7.3 7.3 0 0 0 .261-1.755l1.391.054c-.084 1.04-.493 1.937-.778 2.361a2.3 2.3 0 0 0-.801-.631zm-3.212.235c.413-.121.833-.17 1.233-.17l-.016 1.506a4 4 0 0 1-.581-.117 4.2 4.2 0 0 1-.636-1.219m.003.964a3.2 3.2 0 0 1-.786-.624c.14-.082.277-.152.422-.209q.155.45.367.833zm-.128-1.367a7 7 0 0 1-.225-1.356c-.01-.136-.01-.271-.013-.407l1.617.064-.016 1.512a4.8 4.8 0 0 0-1.363.187m-.045-3.8c.02.006.035.014.054.023.474.154.96.206 1.388.231l-.013 1.424-1.622-.064a8.4 8.4 0 0 1 .19-1.599v-.015zm1.163-1.934c.108-.013.211-.017.317-.018l-.019.393-.016 1.387c-.402-.025-.858-.072-1.292-.215-.019-.005-.032-.013-.051-.019.084-.283.179-.521.292-.723.167-.296.464-.642.764-.806zm1.498.893c.117.225.213.483.293.795l-.04.013a4.7 4.7 0 0 1-1.08.081l.015-1.381.02-.402c.317.175.626.574.795.898zm-.834 1.308c.367.011.77-.001 1.166-.088.017-.003.032-.011.049-.014.1.519.147 1.047.151 1.578l-1.382-.055zm-.019 1.844 1.38.055c-.007.134-.011.271-.024.404-.04.436-.117.852-.225 1.239a6.5 6.5 0 0 0-1.147-.186zm1.772-.354a9 9 0 0 0-.165-1.704c.32-.118.602-.291.834-.504.436.597.683 1.284.724 2.056q.006.101.003.203l-1.399-.055zm.413-2.526a2.2 2.2 0 0 1-.67.405 4.2 4.2 0 0 0-.327-.885 3.4 3.4 0 0 0-.313-.485c.229.096.452.216.664.373q.363.278.65.59zm-4.217-.682q.262-.15.529-.255c-.089.117-.17.234-.23.346a3.8 3.8 0 0 0-.327.798 2.3 2.3 0 0 1-.585-.418 3.3 3.3 0 0 1 .616-.47zm-1.393 1.728c.1-.345.275-.673.508-.966.21.21.46.394.746.535q-.003.027-.013.053a9 9 0 0 0-.2 1.693l-1.171-.045c-.003-.153-.01-.308 0-.463.02-.307.061-.571.13-.804zm.346 3.32a4.8 4.8 0 0 1-.448-1.626l1.14.044q.004.221.016.444c.036.514.12 1.007.245 1.462a3.7 3.7 0 0 0-.571.29 4 4 0 0 1-.384-.617zm3.307 1.989-.264-.012.015-1.528c.29.021.566.062.81.111.066.012.142.032.213.051-.187.523-.435.974-.734 1.31l.058.063c-.033.001-.07.005-.1.004z"/><path fill="#0d9974" d="m9.04 394.352 6.336.213-.052-1.413c-.27.035-6.255-.182-6.255-.182z"/></g></g><g filter="url(#h)" style="mix-blend-mode:luminosity"><path fill="#00703a" d="M359.976 339.825c1.004-.719 2.192-1.008 3.344-.818.877.146 1.783-.078 2.553-.629.77-.552 1.337-1.384 1.601-2.347.346-1.264 1.088-2.357 2.092-3.076 1.547-1.109 3.453-1.184 4.971-.199 1.159.75 2.608.696 3.786-.148a4 4 0 0 0 .982-1.012 5.4 5.4 0 0 1 1.293-1.33c2.102-1.506 4.783-1.051 6.237 1.055 1.104 1.597 3.141 1.946 4.741.812 1.282-.909 2.809-1.118 4.189-.57 1.378.547 2.396 1.762 2.786 3.334.488 1.962 2.238 3.112 4.069 2.676 1.47-.35 2.934.067 4.019 1.139 1.082 1.073 1.615 2.635 1.461 4.285-.192 2.06 1.033 3.855 2.851 4.176 1.456.258 2.661 1.241 3.303 2.694s.621 3.153-.058 4.661c-.848 1.879-.311 4.078 1.246 5.113 1.249.83 2.03 2.249 2.142 3.89a5.8 5.8 0 0 1-1.572 4.407c-1.386 1.446-1.611 3.75-.526 5.361.786 1.165 1.069 2.616.798 4.088-.268 1.457-1.072 2.758-2.203 3.569a5 5 0 0 1-.776.457 4 4 0 0 0-.587.343c-1.369.981-2.044 2.847-1.641 4.54.53 2.219-.358 4.672-2.16 5.964a4.6 4.6 0 0 1-2.477.87c-.666.03-1.319.26-1.887.667-.977.7-1.608 1.822-1.74 3.08-.17 1.649-1 3.12-2.279 4.036-1.278.917-2.804 1.133-4.186.596-1.054-.411-2.218-.244-3.195.456a4.2 4.2 0 0 0-1.343 1.647 5.5 5.5 0 0 1-1.759 2.165c-1.803 1.291-4.132 1.146-5.665-.358-1.167-1.144-2.939-1.257-4.31-.275a4 4 0 0 0-.526.454 5.4 5.4 0 0 1-.698.599c-1.13.81-2.508 1.072-3.782.719-1.285-.357-2.314-1.273-2.899-2.582-.809-1.81-2.737-2.573-4.482-1.773-1.4.639-2.921.535-4.175-.289s-2.041-2.234-2.163-3.876c-.149-2.043-1.662-3.542-3.519-3.483-1.489.045-2.846-.664-3.724-1.952-.878-1.284-1.138-2.943-.713-4.55.53-2.003-.367-4.036-2.083-4.726-1.377-.553-2.386-1.774-2.77-3.347a5.82 5.82 0 0 1 .829-4.613c1.136-1.69.979-3.981-.367-5.328-1.077-1.08-1.603-2.644-1.443-4.296.161-1.649.985-3.125 2.259-4.05 1.59-1.152 2.192-3.392 1.401-5.213-1.044-2.4-.248-5.346 1.853-6.852a4.8 4.8 0 0 1 1.614-.752c.436-.108.849-.3 1.227-.57 1.178-.844 1.849-2.307 1.751-3.819-.127-1.983.755-3.905 2.302-5.014z"/><path fill="#008a48" d="M396.56 400.912c-1.986-.774-4.251.278-5.247 2.433-1.28 2.772-4.529 3.563-6.542 1.592-1.564-1.533-3.978-1.445-5.591.204-2.073 2.121-5.302 1.568-6.501-1.113-.932-2.085-3.169-2.969-5.18-2.05-2.587 1.184-5.36-.637-5.581-3.669-.173-2.355-1.932-4.094-4.069-4.029-2.751.086-4.693-2.76-3.91-5.728.609-2.306-.43-4.666-2.409-5.464-2.546-1.024-3.394-4.508-1.709-7.015 1.308-1.949 1.124-4.608-.424-6.159-1.995-1.995-1.636-5.647.722-7.352 1.831-1.327 2.532-3.928 1.619-6.024-1.173-2.695.343-6.023 3.055-6.697 2.107-.525 3.595-2.718 3.444-5.075-.195-3.036 2.277-5.588 4.977-5.14 2.099.347 4.172-1.138 4.802-3.441.81-2.962 3.902-4.394 6.226-2.887 1.806 1.172 4.186.593 5.513-1.342 1.705-2.49 5-2.61 6.633-.244 1.269 1.84 3.636 2.246 5.478.938 2.372-1.681 5.424-.473 6.146 2.432.561 2.259 2.595 3.594 4.705 3.091 2.717-.644 5.113 1.728 4.829 4.78-.223 2.372 1.2 4.457 3.296 4.829 2.693.477 4.114 3.696 2.859 6.481-.976 2.165-.353 4.718 1.441 5.911 2.309 1.536 2.559 5.165.504 7.307-1.597 1.666-1.86 4.342-.608 6.197 1.611 2.389.658 5.936-1.922 7.148-2.004.943-3.116 3.381-2.574 5.646.695 2.915-1.332 5.905-4.086 6.023-2.138.091-3.951 1.961-4.194 4.332-.313 3.051-3.141 5.078-5.698 4.082z"/><path fill="#38c266" d="M368.58 343.26c-13.031 9.337-17.293 28.273-9.519 42.296s24.639 17.821 37.669 8.485c13.031-9.337 17.293-28.273 9.519-42.296s-24.638-17.821-37.669-8.485"/><path fill="#6dd38f" d="M357.151 362.804c-3.493 16.51 5.095 32.51 19.181 35.738 14.085 3.227 28.336-7.54 31.828-24.05s-5.095-32.51-19.181-35.737-28.336 7.54-31.828 24.049"/><path fill="#008a48" d="M360.58 363.59c-3.022 14.29 4.41 28.138 16.602 30.932s24.525-6.526 27.548-20.816-4.41-28.138-16.601-30.931c-12.192-2.794-24.526 6.526-27.549 20.815"/><path fill="#d9eae2" d="M361.716 378.945c4.599 12.46 17.701 17.951 29.264 12.264 11.562-5.686 17.207-20.397 12.607-32.858s-17.702-17.951-29.264-12.264c-11.563 5.687-17.207 20.398-12.607 32.858"/><path fill="#008a48" d="M370.246 345.559a.41.41 0 0 1-.118.523.312.312 0 0 1-.467-.103.416.416 0 0 1 .118-.527.315.315 0 0 1 .467.107m1.354-1.307a.316.316 0 0 1 .456.149.414.414 0 0 1-.154.515l-.002.001a.31.31 0 0 1-.455-.149.41.41 0 0 1 .131-.498zm-3.083 2.617a.41.41 0 0 1-.079.531.312.312 0 0 1-.475-.06.41.41 0 0 1 .078-.532l.025-.017a.313.313 0 0 1 .452.08zm4.98-3.649a.317.317 0 0 1 .443.189.41.41 0 0 1-.192.502c-.176.086-.374.003-.443-.189a.415.415 0 0 1 .192-.502m-6.612 5.108a.41.41 0 0 1-.039.535c-.144.143-.361.135-.482-.016a.42.42 0 0 1 .04-.538q.023-.02.047-.04a.31.31 0 0 1 .434.059m8.574-5.967c.181-.071.371.034.425.229.053.2-.049.415-.23.486-.179.07-.371-.033-.423-.231a.41.41 0 0 1 .15-.443.3.3 0 0 1 .078-.041m-10.097 7.565c.132.14.133.38-.002.535-.133.154-.349.167-.481.027-.135-.141-.134-.382-.002-.536a.4.4 0 0 1 .067-.06.314.314 0 0 1 .418.034m12.107-8.243c.184-.055.366.065.404.269.041.203-.079.411-.262.463-.186.053-.367-.067-.405-.269a.42.42 0 0 1 .159-.413.3.3 0 0 1 .104-.05m-13.513 9.969c.142.127.161.363.039.531s-.338.198-.481.07c-.144-.126-.161-.363-.041-.53a.4.4 0 0 1 .087-.086.314.314 0 0 1 .396.015m15.561-10.464c.187-.035.358.102.38.308.025.204-.107.401-.295.44-.187.035-.358-.102-.38-.308a.42.42 0 0 1 .163-.383.34.34 0 0 1 .132-.057m-16.838 12.305c.152.113.188.35.078.524-.108.177-.321.227-.475.115s-.192-.347-.08-.522a.4.4 0 0 1 .104-.112.315.315 0 0 1 .373-.005m18.907-12.609c.189-.021.347.135.355.341.008.211-.138.393-.327.414-.188.017-.348-.137-.354-.345a.41.41 0 0 1 .164-.349.33.33 0 0 1 .162-.061m-20.048 14.556c.161.098.216.327.119.513-.096.184-.306.256-.467.156-.163-.096-.216-.327-.12-.51a.4.4 0 0 1 .118-.14.31.31 0 0 1 .35-.019m22.123-14.672c.189 0 .336.167.328.376-.007.209-.168.379-.356.381s-.335-.164-.325-.375a.41.41 0 0 1 .164-.318.32.32 0 0 1 .189-.064m-23.118 16.709c.169.083.241.306.158.498s-.289.281-.458.198c-.168-.08-.24-.303-.157-.495a.4.4 0 0 1 .131-.168.32.32 0 0 1 .326-.033m25.187-16.633c.186.015.319.197.296.405-.023.211-.192.366-.381.35-.187-.014-.319-.197-.297-.405a.42.42 0 0 1 .165-.287.33.33 0 0 1 .217-.063m-26.031 18.747c.174.066.262.281.193.478-.067.2-.266.306-.443.241-.174-.066-.261-.279-.194-.479a.4.4 0 0 1 .144-.195.32.32 0 0 1 .3-.045m28.079-18.483c.184.032.302.228.264.434-.04.208-.221.347-.405.315s-.304-.227-.264-.434a.4.4 0 0 1 .159-.257.32.32 0 0 1 .246-.058m-28.769 20.659c.18.05.284.253.23.456s-.245.329-.424.279c-.182-.049-.284-.253-.231-.458a.4.4 0 0 1 .153-.224.32.32 0 0 1 .272-.053m30.78-20.208c.182.048.285.255.231.458s-.245.329-.425.279c-.181-.049-.283-.253-.23-.458a.4.4 0 0 1 .152-.226.33.33 0 0 1 .272-.053m-31.308 22.432c.184.031.304.227.266.433l-.002.001c-.038.206-.219.345-.403.313s-.303-.226-.266-.433a.42.42 0 0 1 .16-.256.32.32 0 0 1 .245-.058m33.273-21.794c.175.066.262.281.194.478-.067.2-.266.308-.44.241-.178-.067-.264-.28-.197-.479a.4.4 0 0 1 .144-.196.32.32 0 0 1 .299-.044m-33.637 24.049c.188.013.32.196.296.405-.023.207-.193.366-.38.349-.186-.015-.319-.198-.296-.405a.4.4 0 0 1 .164-.288.3.3 0 0 1 .216-.061m35.537-23.235c.171.081.241.306.158.498s-.285.282-.456.2c-.169-.082-.238-.304-.156-.499a.4.4 0 0 1 .131-.165.32.32 0 0 1 .323-.034m-35.733 25.504c.188-.002.333.166.325.375-.007.209-.167.382-.355.384s-.334-.168-.326-.377a.41.41 0 0 1 .166-.32.32.32 0 0 1 .19-.062m37.561-24.514c.163.099.215.327.12.512-.097.187-.305.256-.468.16-.163-.099-.215-.327-.12-.513a.4.4 0 0 1 .117-.139.32.32 0 0 1 .351-.02m-37.592 26.786c.19-.019.35.135.356.344s-.138.392-.328.411c-.187.019-.347-.134-.353-.343a.41.41 0 0 1 .166-.351.3.3 0 0 1 .159-.061m39.33-25.627c.154.112.19.348.08.522-.109.177-.32.23-.475.116-.154-.112-.189-.346-.081-.523a.4.4 0 0 1 .103-.11.31.31 0 0 1 .373-.005m-39.189 27.884c.187-.035.358.102.383.309.023.206-.111.404-.298.439s-.358-.102-.38-.308a.41.41 0 0 1 .163-.383.34.34 0 0 1 .132-.057m40.829-26.566c.143.129.162.365.04.533-.123.166-.337.199-.481.07-.145-.128-.162-.365-.042-.532a.4.4 0 0 1 .088-.084.315.315 0 0 1 .395.013m-40.52 28.795c.186-.053.367.067.406.271.039.2-.08.409-.263.463-.186.053-.367-.068-.405-.271a.42.42 0 0 1 .159-.411.3.3 0 0 1 .103-.052m42.047-27.322c.133.14.134.38.001.534-.134.157-.35.17-.483.028a.407.407 0 0 1 .067-.597.31.31 0 0 1 .415.035m-41.569 29.504c.182-.072.372.033.426.229a.41.41 0 0 1-.23.485c-.179.07-.371-.033-.425-.232a.42.42 0 0 1 .151-.442.3.3 0 0 1 .078-.04m42.974-27.89a.41.41 0 0 1-.038.536c-.144.144-.361.135-.483-.018a.41.41 0 0 1 .042-.535c.016-.012.03-.028.044-.039a.313.313 0 0 1 .435.056m-42.333 30.008c.176-.086.373.001.442.192a.41.41 0 0 1-.193.5c-.176.086-.372.001-.443-.189a.42.42 0 0 1 .146-.472l.047-.034zm43.609-28.262c.109.162.075.4-.079.532a.312.312 0 0 1-.476-.063.414.414 0 0 1 .08-.533l.025-.018a.31.31 0 0 1 .45.082m-42.81 30.309a.314.314 0 0 1 .458.147.416.416 0 0 1-.156.516.316.316 0 0 1-.457-.147.42.42 0 0 1 .13-.501l.024-.017zm43.947-28.448a.414.414 0 0 1-.118.526.315.315 0 0 1-.469-.105.416.416 0 0 1 .118-.527.315.315 0 0 1 .469.106m-42.525 30.51s.007.019.012.028l.017.025a.42.42 0 0 1-.117.528.314.314 0 0 1-.469-.106l-.016-.028-.014-.027a.415.415 0 0 1 .118-.526.314.314 0 0 1 .469.106m43.059-28.692c.168-.102.373-.036.458.147a.42.42 0 0 1-.156.516c-.169.103-.373.036-.457-.148a.41.41 0 0 1 .131-.498zm-41.923 30.556a.414.414 0 0 1-.077.533.316.316 0 0 1-.478-.061.42.42 0 0 1 .08-.533l.023-.02a.314.314 0 0 1 .452.081m42.778-28.539c.173-.087.372-.001.441.19a.41.41 0 0 1-.194.5c-.174.084-.372.001-.441-.191a.41.41 0 0 1 .142-.468q.024-.02.052-.031m-41.534 30.234a.41.41 0 0 1-.041.536.314.314 0 0 1-.48-.017.41.41 0 0 1 .086-.574.313.313 0 0 1 .435.055m42.228-28.139c.182-.069.371.033.426.231.054.196-.048.415-.229.482-.181.071-.37-.031-.425-.229a.41.41 0 0 1 .151-.441c.025-.018.049-.036.077-.043m-40.859 29.708a.41.41 0 0 1 .001.535c-.135.156-.349.167-.483.029-.135-.141-.134-.382-.002-.536a.5.5 0 0 1 .069-.062.315.315 0 0 1 .415.034m41.395-27.546c.184-.055.367.067.404.269.039.204-.08.409-.262.463-.185.055-.367-.068-.405-.269a.41.41 0 0 1 .159-.413.3.3 0 0 1 .104-.05m-39.908 28.977c.145.127.164.363.042.531s-.337.199-.482.071c-.142-.127-.163-.365-.039-.531a.3.3 0 0 1 .084-.085.31.31 0 0 1 .395.014m40.275-26.762c.188-.039.36.1.382.306s-.109.403-.296.438c-.186.037-.356-.1-.382-.307a.42.42 0 0 1 .165-.38.34.34 0 0 1 .131-.057m-38.68 28.041c.154.112.193.347.082.525-.109.176-.322.227-.475.115-.154-.112-.193-.347-.082-.525a.4.4 0 0 1 .102-.11.31.31 0 0 1 .373-.005m38.88-25.793c.189-.021.349.133.355.341.01.209-.136.395-.327.414-.187.02-.347-.134-.353-.343a.41.41 0 0 1 .165-.349.3.3 0 0 1 .16-.063m-37.187 26.917c.164.098.215.327.12.512s-.305.256-.468.159c-.162-.096-.215-.327-.119-.51a.4.4 0 0 1 .118-.14.32.32 0 0 1 .349-.021m37.217-24.648c.188-.002.336.166.329.375s-.168.38-.356.382-.335-.164-.326-.375a.41.41 0 0 1 .167-.32.32.32 0 0 1 .186-.062m-35.439 25.611c.168.08.24.303.157.495-.081.194-.285.282-.454.199-.168-.08-.24-.303-.158-.497a.4.4 0 0 1 .134-.167.31.31 0 0 1 .323-.032zm35.302-23.34c.187.017.318.197.297.407-.025.209-.194.364-.382.351-.187-.017-.319-.197-.297-.407a.4.4 0 0 1 .164-.288.33.33 0 0 1 .218-.063m-33.451 24.128c.177.065.264.28.195.48-.069.198-.265.304-.441.239-.177-.065-.264-.279-.196-.477a.4.4 0 0 1 .144-.195.31.31 0 0 1 .298-.047m33.145-21.866c.184.032.301.229.263.435s-.219.348-.404.314c-.184-.031-.303-.224-.264-.434a.4.4 0 0 1 .159-.256.33.33 0 0 1 .246-.059m-31.235 22.482c.182.048.285.255.231.457-.053.205-.243.329-.422.278-.181-.046-.284-.253-.233-.456a.4.4 0 0 1 .154-.224.31.31 0 0 1 .27-.055m30.761-20.248c.183.051.285.256.231.458-.053.205-.243.328-.424.28-.18-.05-.284-.254-.231-.458a.4.4 0 0 1 .153-.225.32.32 0 0 1 .271-.055m-28.8 20.685c.184.032.302.225.262.432-.038.207-.217.348-.401.316s-.304-.227-.266-.433a.4.4 0 0 1 .159-.256.32.32 0 0 1 .246-.059m28.167-18.49c.176.065.264.28.195.477-.069.201-.265.307-.442.242-.174-.066-.262-.281-.193-.478a.4.4 0 0 1 .143-.198.31.31 0 0 1 .297-.043m-26.176 18.746c.186.014.321.195.296.405-.023.207-.193.366-.38.349-.186-.015-.321-.196-.296-.405a.4.4 0 0 1 .165-.288.3.3 0 0 1 .215-.061m25.385-16.609c.171.081.24.304.157.496-.08.193-.286.281-.455.199-.17-.079-.24-.303-.157-.496a.4.4 0 0 1 .131-.167.31.31 0 0 1 .324-.032m-23.373 16.679c.188-.002.335.164.327.373-.007.209-.166.382-.355.384s-.336-.166-.326-.377a.4.4 0 0 1 .165-.318.32.32 0 0 1 .189-.062m22.43-14.614c.162.096.215.327.12.512-.096.183-.305.256-.469.157-.163-.096-.216-.326-.119-.51a.4.4 0 0 1 .119-.141.32.32 0 0 1 .349-.018m-20.412 14.498c.19-.019.35.135.356.344.009.206-.138.392-.325.411-.19.019-.349-.132-.356-.343a.41.41 0 0 1 .167-.351.34.34 0 0 1 .158-.061m19.321-12.519c.153.112.19.348.08.523-.109.176-.32.229-.475.115-.154-.112-.191-.345-.081-.523a.4.4 0 0 1 .103-.11.31.31 0 0 1 .373-.005m-17.307 12.221c.186-.037.356.1.382.307.023.206-.109.402-.296.437-.188.039-.359-.098-.382-.306a.41.41 0 0 1 .164-.381.3.3 0 0 1 .132-.057m16.078-10.341c.144.126.162.366.041.53-.123.167-.338.198-.482.073-.145-.127-.162-.365-.042-.531a.4.4 0 0 1 .087-.087.31.31 0 0 1 .396.015m-14.087 9.856c.184-.052.365.069.406.271.037.202-.081.409-.263.463-.186.053-.367-.067-.408-.27a.42.42 0 0 1 .16-.41.4.4 0 0 1 .105-.054m12.723-8.089a.41.41 0 0 1 .002.536c-.134.158-.349.167-.484.029a.41.41 0 0 1 .068-.598.31.31 0 0 1 .414.033m-10.768 7.426c.179-.07.371.033.425.232.054.196-.047.413-.229.482-.18.07-.37-.031-.426-.229a.42.42 0 0 1 .153-.443.4.4 0 0 1 .077-.042m9.284-5.782a.41.41 0 0 1-.04.538c-.144.143-.359.133-.481-.02a.41.41 0 0 1 .039-.534q.024-.02.047-.04c.14-.1.326-.079.435.056m-7.379 4.944c.176-.085.374-.002.443.189a.41.41 0 0 1-.192.502c-.176.086-.372.001-.443-.189a.42.42 0 0 1 .142-.472q.026-.017.05-.03m5.783-3.437a.42.42 0 0 1-.079.536c-.153.127-.367.102-.476-.063a.415.415 0 0 1 .078-.532l.023-.02a.317.317 0 0 1 .454.079m-3.936 2.429a.314.314 0 0 1 .457.147.42.42 0 0 1-.155.516c-.17.103-.373.036-.458-.147a.41.41 0 0 1 .131-.498zm2.24-1.065a.42.42 0 0 1-.117.528.315.315 0 0 1-.469-.105.416.416 0 0 1 .119-.526.315.315 0 0 1 .467.103"/><path fill="#41d171" d="M379.376 326.855a80.7 80.7 0 0 0 10.056-15.152 83 83 0 0 1 2.024 9.216 67 67 0 0 0 8.771-2.782 95.6 95.6 0 0 1-11.909 17.942l-8.94-9.225zm-28.894 20.201a63.7 63.7 0 0 1-16.372 3.766 68 68 0 0 0 6.445 6.051 82 82 0 0 1-5.994 7.789c6.645-.619 13.147-2.135 19.386-4.462l-3.467-13.143z"/><path fill="#38c266" d="M343.571 354.191c17.589-4.199 33.45-15.498 44.398-31.628l9.765 7.85c-12.852 18.935-31.477 32.203-52.125 37.133z"/><path fill="#fcfcfc" d="M349.256 359.371a.82.82 0 0 0-.232 1.038.62.62 0 0 0 .925.211.82.82 0 0 0 .232-1.038.62.62 0 0 0-.925-.211m30.496-15.294-.378-.519c-.599-.825-.443-1.498.168-2.055l.255-.234-1.187-1.638.862-.786 3.226 4.446-.863.786-.255.234c-.613.558-1.228.594-1.829-.23zm.863-.786c.179.248.303.253.426.139l.195-.178-.839-1.156-.195.179c-.125.116-.145.249.035.497zm-.966 2.749-.856.728-3.099-4.602.854-.727 3.099 4.603zm-4.735 2.168-1.547-2.488c-.545-.874-.347-1.531.329-2.07s1.291-.525 1.836.349l1.55 2.486c.545.874.347 1.531-.329 2.07-.677.537-1.291.525-1.836-.349zm.86-.723c.164.263.286.276.418.172.131-.104.16-.238-.004-.5l-1.515-2.433c-.163-.262-.285-.276-.415-.173-.132.104-.16.237.004.5l1.515 2.433zm-2.594 3.6-.868.631-2.733-4.852.881-.641 1.975 2.238-1.525-2.566.881-.64 2.734 4.852-.927.673-1.912-2.205zm-4.989-2.026-1.07.71-.492-.963 2.027-1.346 2.545 4.99-1.993 1.321-.491-.962 1.037-.687-.48-.941-1.004.666-.472-.928 1.004-.666-.611-1.198zm-2.99 1.861-1.09.66-.456-.984 2.067-1.255 2.354 5.102-2.033 1.234-.456-.984 1.058-.643-.444-.963-1.024.622-.438-.947 1.024-.623-.565-1.223zm-4.097 3.395-.783-1.9.995-.547.753 1.825c.119.29.236.326.381.248l.192-.105-.906-2.197.994-.547 2.15 5.216-1.227.674c-.707.389-1.276.337-1.614-.483l-.138-.335c-.27-.655-.277-1.065.074-1.374-.423.121-.713-.093-.869-.473zm1.838 1.411c.119.291.235.327.381.249l.165-.092-.476-1.156-.163.091c-.144.081-.192.206-.073.496l.17.409z"/><g style="mix-blend-mode:luminosity"><path fill="#f6733d" d="M385.353 361.285c-4.182 1.124-8.253 2.19-12.435 3.314l3.774 19.077q6.17-1.813 12.338-3.622c-.346-2.771-3.249-15.193-3.677-18.769"/><mask id="i" width="18" height="23" x="372" y="361" maskUnits="userSpaceOnUse" style="mask-type:luminance"><path fill="#fff" d="M385.395 361.271c-4.191 1.144-8.271 2.229-12.462 3.373 1.24 6.347 2.476 12.694 3.716 19.041l12.366-3.68c-.338-2.768-3.203-15.164-3.62-18.734"/></mask><g mask="url(#i)"><path fill="#e56538" d="M387.205 360.838c-1.123.229-2.22.427-3.343.656l3.723 19.214 3.272-.968c-.48-2.754-3.039-15.353-3.653-18.898z"/></g><path fill="#ffce55" d="M377.467 377.044c.341 1.278 1.153 2.157 2.414 2.613.824.298 1.698.229 2.523-.168l.008.016.055-.053a4.8 4.8 0 0 0 1.29-.97c.655-.684 1.068-1.565 1.132-2.42.02-.282.007-.584-.04-.924-.138-.977-.504-1.841-1.06-2.496-.593-.701-1.413-1.145-2.246-1.215-.6-.05-1.189.087-1.653.223l-.085.025c-.538.163-1.546.9-1.988 1.576-.276.418-.783 2.164-.351 3.791zm1.504-3.364a1.64 1.64 0 0 1-.758-.3c.279-.368.738-.759 1.146-1.019a5.5 5.5 0 0 0-.326 1.32c-.02-.001-.039.001-.06-.003zm-.06.423q.04.003.078.001c-.027.436-.02.889.031 1.351.016.147.042.291.065.44l-1.363.399c-.126-1.038.09-2.041.282-2.544.272.193.579.313.907.353m3.073-1.275c-.377.25-.775.438-1.165.567l-.286-1.467q.284-.057.588-.075c.317.237.608.57.865.978zm-.196-.933c.306.062.607.182.889.35a4 4 0 0 1-.366.342 4.4 4.4 0 0 0-.524-.687zm.399 1.285c.195.375.363.793.492 1.242q.053.195.096.391l-1.584.464-.289-1.472a5.3 5.3 0 0 0 1.285-.625m.808 3.671-.057-.004c-.492.003-.977.115-1.398.227l-.272-1.386 1.586-.466c.094.529.145 1.068.137 1.614v.014zm-.741 2.255c-.1.047-.202.083-.305.122l-.062-.388-.265-1.352c.396-.109.848-.21 1.297-.214.019-.002.034.003.054.003a3.7 3.7 0 0 1-.141.798c-.105.34-.32.771-.582 1.03zm-1.636-.382a3.3 3.3 0 0 1-.444-.676l.037-.024a5 5 0 0 1 1.033-.429l.265 1.345.062.396c-.342-.069-.723-.354-.953-.612m.548-1.542c-.36.11-.748.253-1.115.465l-.047.03a8 8 0 0 1-.462-1.481l1.354-.397zm-.352-1.797-1.352.395c-.021-.132-.045-.263-.059-.401a7.3 7.3 0 0 1-.031-1.275c.098-.004.198-.013.286-.026.265-.034.559-.087.867-.166zm-1.65.919q.172.83.502 1.598c-.288.22-.526.477-.71.761-.544-.436-.921-1.024-1.115-1.759q-.024-.097-.044-.198l1.371-.401zm.108 2.582c.148-.223.338-.431.569-.61.154.305.315.548.495.751.107.122.246.251.403.369a3 3 0 0 1-.72-.147q-.41-.15-.749-.362zm4.234-.708a5 5 0 0 1-.46.42q.097-.218.155-.409c.078-.264.13-.553.157-.881q.36.06.653.215c-.142.233-.31.454-.505.655m1.005-2.131a3.2 3.2 0 0 1-.298 1.103 2.4 2.4 0 0 0-.833-.275c-.001-.021.001-.036.003-.058a9 9 0 0 0-.144-1.707l1.146-.334c.035.148.07.295.092.449.044.306.056.574.037.821zm-1.003-3.106c.331.394.585.888.762 1.432l-1.118.326c-.033-.143-.065-.285-.104-.427a7 7 0 0 0-.532-1.342q.259-.209.495-.467c.177.139.347.297.498.474zm-3.613-.854q.125-.038.259-.072l.292 1.488a7 7 0 0 1-.812.154c-.067.009-.143.013-.217.02.077-.57.228-1.088.451-1.509l-.07-.042c.032-.014.069-.031.097-.039"/><path fill="#e56538" d="m381.762 364.126-6.172 1.83.336 1.375c.254-.121 6.087-1.834 6.087-1.834l-.253-1.369z"/><path fill="#1bb287" d="M384.73 356.412c-2.978 3.41-5.888 6.703-8.867 10.11 4.282 4.486 8.562 8.978 12.846 13.467l8.632-10.304c-1.696-2.078-10.438-10.58-12.609-13.271z"/><path fill="#0d9974" d="m383.26 360.834-4.331 5.209.991.941c.154-.253 4.256-5.163 4.256-5.163z"/></g></g><g filter="url(#j)" style="mix-blend-mode:luminosity"><path fill="#00703a" d="M-8.993 83.43c-1.236-.718-2.21-1.896-2.748-3.314-.408-1.081-1.154-1.978-2.101-2.528s-2.016-.707-3.012-.441c-1.308.347-2.708.146-3.943-.572-1.906-1.106-3.132-3.224-3.202-5.524-.056-1.754-.986-3.367-2.436-4.21a4.2 4.2 0 0 0-1.477-.52 5.5 5.5 0 0 1-1.942-.687c-2.587-1.503-3.826-4.812-2.885-7.696.713-2.188-.226-4.704-2.184-5.855-1.57-.922-2.683-2.532-3.047-4.42-.366-1.883.068-3.75 1.194-5.113 1.405-1.704 1.336-4.363-.159-6.186a6.74 6.74 0 0 1-1.46-5.227c.271-1.857 1.302-3.377 2.828-4.169 1.904-.99 2.715-3.43 1.885-5.681-.663-1.805-.545-3.747.325-5.327s2.357-2.552 4.078-2.666c2.147-.139 3.728-2.036 3.677-4.41-.04-1.903.714-3.62 2.07-4.71s3.096-1.38 4.78-.798c2.1.725 4.237-.369 4.973-2.544.531-1.575 1.618-2.746 3.06-3.301 1.428-.55 3.047-.4 4.439.408.3.174.593.382.87.612.206.174.428.333.655.465 1.685.979 3.715.65 4.939-.798 1.602-1.901 4.272-2.332 6.49-1.043.915.53 1.699 1.325 2.265 2.3a4.84 4.84 0 0 0 1.728 1.75c1.203.699 2.561.757 3.732.17 1.535-.774 3.317-.694 4.891.22s2.692 2.518 3.068 4.401c.286 1.437 1.14 2.66 2.342 3.358.7.406 1.48.6 2.248.558a5.3 5.3 0 0 1 2.95.728c2.219 1.288 3.512 4.016 3.142 6.637-.281 1.995.7 4.072 2.388 5.052.228.132.47.245.714.33.325.119.644.267.945.441 1.392.809 2.458 2.218 2.929 3.87.473 1.667.306 3.373-.473 4.803-1.078 1.978-.565 4.613 1.192 6.124 1.409 1.215 2.244 3.001 2.294 4.907.05 1.905-.695 3.625-2.045 4.725-1.682 1.367-2.06 3.962-.877 6.034.947 1.663 1.158 3.619.576 5.369-.58 1.749-1.86 3.016-3.514 3.475-2.06.572-3.277 2.782-2.83 5.133.359 1.886-.085 3.747-1.216 5.105-1.13 1.358-2.775 2-4.507 1.761-2.16-.298-4.051 1.223-4.4 3.54-.28 1.855-1.316 3.368-2.846 4.154-1.53.784-3.313.713-4.892-.19-1.968-1.13-4.278-.5-5.376 1.466-1.446 2.59-4.487 3.414-7.074 1.911a6.2 6.2 0 0 1-1.635-1.39A4.7 4.7 0 0 0 1.15 82.86c-1.45-.842-3.128-.747-4.38.251-1.643 1.306-3.848 1.432-5.753.326z"/><path fill="#008a48" d="M21.713 6.125c.539 2.708 2.831 4.661 5.308 4.529 3.185-.172 5.851 3.05 5.368 6.49-.377 2.673 1.17 5.36 3.584 6.224 3.104 1.11 4.591 5.097 2.996 8.028-1.24 2.28-.645 5.336 1.378 7.08 2.604 2.24 2.714 6.454.218 8.482-1.937 1.576-2.375 4.59-1.015 6.977 1.75 3.072.465 6.942-2.588 7.793-2.371.66-3.786 3.223-3.272 5.936.663 3.489-1.843 6.493-5.044 6.05-2.489-.342-4.683 1.423-5.086 4.089-.515 3.433-3.902 5.166-6.818 3.49-2.268-1.3-4.95-.572-6.213 1.692-1.624 2.91-5.435 3.14-7.672.458-1.74-2.082-4.549-2.486-6.502-.934-2.515 2-6.235.691-7.492-2.635-.978-2.585-3.53-4.067-5.912-3.433-3.064.817-6.19-1.852-6.299-5.372-.083-2.735-2.036-5.097-4.524-5.469-3.2-.475-5.311-4.143-4.253-7.383.823-2.518-.268-5.442-2.525-6.766-2.903-1.706-3.716-5.877-1.635-8.398 1.618-1.96 1.537-5.05-.185-7.15-2.215-2.705-1.617-6.813 1.204-8.28 2.193-1.137 3.135-3.973 2.18-6.569-1.227-3.336.7-6.834 3.881-7.041 2.474-.162 4.308-2.365 4.25-5.1-.074-3.52 2.922-5.93 6.033-4.853 2.419.836 4.9-.433 5.747-2.942 1.09-3.227 4.749-4.224 7.373-2.007C-3.763.833-.971.665.665-1.277 2.77-3.774 6.599-3.225 8.38-.171c1.381 2.373 4.11 3.335 6.314 2.22 2.838-1.432 6.32.59 7.014 4.074z"/><path fill="#38c266" d="M-11.253 71.656c16.041 9.315 35.067 3.054 42.496-13.984 7.429-17.037.447-38.4-15.594-47.714S-19.418 6.904-26.847 23.94c-7.429 17.038-.447 38.4 15.594 47.715"/><path fill="#6dd38f" d="M12.484 74.943C28.349 69.6 36.604 49.987 30.92 31.135 25.24 12.284 7.771 1.333-8.095 6.675c-15.865 5.344-24.12 24.957-18.437 43.809s23.15 29.802 39.016 24.459"/><path fill="#008a48" d="M11.1 70.352c13.732-4.624 20.877-21.6 15.959-37.917C22.14 16.12 7.02 6.641-6.711 11.265c-13.732 4.625-20.876 21.6-15.958 37.917 4.919 16.316 20.038 25.794 33.77 21.17"/><path fill="#d9eae2" d="M23.746 58.527c8.031-12.597 4.894-30.74-7.007-40.524-11.901-9.783-28.06-7.502-36.091 5.095s-4.895 30.74 7.006 40.524c11.902 9.783 28.06 7.502 36.092-5.095"/><path fill="#008a48" d="M-10.273 68.42a.36.36 0 0 1 .524-.173c.2.116.288.379.196.59a.364.364 0 0 1-.53.175.48.48 0 0 1-.19-.592m-1.96-.772a.48.48 0 0 1-.148-.604.363.363 0 0 1 .54-.127l.002.002c.19.13.259.402.148.604a.36.36 0 0 1-.512.143zm4.15 1.966a.362.362 0 0 1 .508-.223.476.476 0 0 1 .237.575.362.362 0 0 1-.509.223l-.03-.018a.48.48 0 0 1-.206-.56zm-6.201-3.513a.48.48 0 0 1-.107-.614.367.367 0 0 1 .553-.076c.182.15.23.423.106.614a.36.36 0 0 1-.497.115.3.3 0 0 1-.056-.04m8.46 4.51c.059-.23.276-.349.488-.27a.48.48 0 0 1 .28.557c-.06.227-.279.349-.491.27-.02-.012-.043-.019-.063-.03a.48.48 0 0 1-.213-.528m-10.401-6.233a.47.47 0 0 1-.06-.616c.14-.178.389-.188.56-.024.17.162.198.44.059.615a.36.36 0 0 1-.476.09.4.4 0 0 1-.083-.064m12.716 7.024c.04-.231.248-.373.465-.311.214.06.358.298.317.53-.04.236-.25.376-.464.316a.4.4 0 0 1-.093-.04.485.485 0 0 1-.225-.495m-14.53-8.907c-.16-.177-.166-.453-.012-.616.15-.165.404-.152.561.026.16.18.165.456.013.617a.36.36 0 0 1-.454.062.4.4 0 0 1-.107-.09m16.885 9.491c.023-.235.216-.395.436-.355s.378.266.354.504c-.021.237-.217.396-.435.357a.4.4 0 0 1-.128-.047.48.48 0 0 1-.227-.459m-18.562-11.525c-.145-.191-.13-.465.035-.612.163-.147.414-.113.562.078.144.191.13.465-.036.611a.36.36 0 0 1-.431.039.5.5 0 0 1-.13-.116M1.22 72.356c.006-.238.188-.418.407-.396.219.02.393.232.39.472s-.184.421-.405.397a.4.4 0 0 1-.16-.052.48.48 0 0 1-.232-.42m-22.46-14.065c-.134-.203-.095-.473.079-.604.178-.132.424-.073.558.13.13.203.094.474-.083.604a.36.36 0 0 1-.404.018.44.44 0 0 1-.15-.148M3.605 72.51c-.013-.24.152-.437.373-.436.218.002.408.197.42.439.015.24-.152.436-.37.434a.4.4 0 0 1-.193-.051.48.48 0 0 1-.23-.386m-26.21-16.505c-.116-.215-.061-.479.125-.593s.432-.031.548.18c.116.213.062.477-.127.59a.36.36 0 0 1-.377 0 .45.45 0 0 1-.17-.177m28.584 16.44c-.031-.24.118-.452.335-.47.217-.02.42.162.451.403.033.237-.117.45-.334.468a.37.37 0 0 1-.225-.05.48.48 0 0 1-.227-.35m-29.78-18.832c-.1-.22-.023-.478.17-.574.198-.097.436.004.538.228.1.22.023.478-.171.574a.38.38 0 0 1-.35-.019.47.47 0 0 1-.187-.21m32.13 18.552c-.05-.237.084-.463.297-.5.214-.041.427.123.478.362.05.236-.083.46-.297.5a.37.37 0 0 1-.257-.049.48.48 0 0 1-.221-.313m-33.148-21.03c-.085-.228.014-.477.216-.554.204-.077.435.047.52.274.084.228-.012.478-.216.554a.37.37 0 0 1-.32-.03.46.46 0 0 1-.2-.245m35.456 20.537c-.067-.234.046-.47.255-.528.21-.06.435.085.5.318.07.235-.046.47-.256.53-.1.026-.2.009-.288-.043a.46.46 0 0 1-.211-.277m-36.29-23.084c-.069-.235.048-.473.256-.53.21-.06.435.084.502.318.068.235-.047.47-.257.53a.38.38 0 0 1-.29-.04.48.48 0 0 1-.211-.278m38.54 22.38c-.084-.228.013-.478.214-.556l.003.002c.202-.078.433.046.517.273s-.012.478-.214.556a.38.38 0 0 1-.319-.03.47.47 0 0 1-.2-.245m-39.184-24.984c-.05-.236.084-.462.297-.5.214-.04.428.121.477.358.05.241-.082.464-.296.505a.38.38 0 0 1-.257-.05.47.47 0 0 1-.221-.312M15.065 70.06c-.103-.221-.025-.479.171-.573.194-.096.435.004.535.226.1.22.023.478-.171.574a.36.36 0 0 1-.35-.019.45.45 0 0 1-.185-.208m-41.814-26.708c-.034-.242.118-.453.335-.472s.418.16.452.4c.032.241-.12.45-.338.47a.37.37 0 0 1-.224-.052.48.48 0 0 1-.225-.346m43.903 25.6c-.117-.212-.06-.474.127-.589.185-.114.433-.034.549.178.116.213.058.478-.128.592a.36.36 0 0 1-.38-.002.45.45 0 0 1-.168-.179m-44.159-28.254c-.014-.244.153-.437.371-.437.222 0 .409.197.424.437.014.244-.152.437-.371.437a.4.4 0 0 1-.193-.051.49.49 0 0 1-.23-.386m46.149 26.958c-.133-.205-.097-.476.08-.606.177-.129.425-.073.557.132.131.2.095.472-.082.602a.36.36 0 0 1-.406.016.4.4 0 0 1-.15-.144m-46.202-29.61c.003-.24.186-.42.404-.397.22.02.394.23.39.472-.004.24-.185.417-.405.398a.4.4 0 0 1-.158-.052.48.48 0 0 1-.231-.42m48.074 28.128c-.145-.192-.13-.466.034-.616.165-.147.418-.11.563.081.144.192.13.466-.036.612a.36.36 0 0 1-.432.038.5.5 0 0 1-.13-.115m-47.93-30.76c.025-.239.218-.399.438-.359a.464.464 0 0 1 .353.505c-.022.24-.218.398-.435.359a.4.4 0 0 1-.127-.05.48.48 0 0 1-.229-.456M22.76 64.517c-.16-.18-.165-.456-.012-.62.15-.161.404-.148.561.027.16.18.166.456.012.62a.36.36 0 0 1-.453.059.4.4 0 0 1-.108-.086m-49.328-31.7c.041-.232.249-.374.463-.314.218.06.361.297.319.532-.041.232-.248.374-.463.313a.4.4 0 0 1-.096-.04.48.48 0 0 1-.223-.492m50.93 29.879a.47.47 0 0 1-.061-.617c.14-.178.389-.188.561-.024a.47.47 0 0 1 .057.618.36.36 0 0 1-.475.087.4.4 0 0 1-.083-.064m-50.386-32.42c.058-.228.276-.35.488-.27.213.08.338.33.28.558a.368.368 0 0 1-.49.267l-.061-.028a.48.48 0 0 1-.217-.526m51.832 30.451a.48.48 0 0 1-.102-.614c.124-.19.37-.223.551-.073a.48.48 0 0 1 .106.613.364.364 0 0 1-.498.11l-.058-.033zm-51.094-32.92a.364.364 0 0 1 .509-.223.476.476 0 0 1 .236.577.365.365 0 0 1-.512.221l-.03-.017a.48.48 0 0 1-.203-.559M27.1 58.62a.48.48 0 0 1-.151-.606c.106-.2.35-.258.542-.126a.48.48 0 0 1 .15.606.364.364 0 0 1-.512.146l-.03-.018zm-51.463-33.196a.364.364 0 0 1 .529-.174.48.48 0 0 1 .194.594.364.364 0 0 1-.529.174.48.48 0 0 1-.194-.594M28.021 55.8l.017-.03.011-.035a.366.366 0 0 1 .53-.176.48.48 0 0 1 .194.594l-.015.034-.014.033a.364.364 0 0 1-.529.174.48.48 0 0 1-.194-.594m-51.134-32.046a.48.48 0 0 1-.15-.606.366.366 0 0 1 .542-.125.48.48 0 0 1 .15.605.36.36 0 0 1-.511.144zm52.059 29.664a.366.366 0 0 1 .51-.226c.206.1.313.357.238.58a.367.367 0 0 1-.511.22l-.032-.014a.48.48 0 0 1-.205-.56m-50.83-31.816a.475.475 0 0 1-.103-.611c.12-.19.37-.223.551-.074.18.148.228.422.104.612a.357.357 0 0 1-.493.114.3.3 0 0 1-.058-.04m51.543 29.41c.058-.228.277-.346.49-.267.21.076.336.326.277.555-.057.225-.275.348-.487.268a.3.3 0 0 1-.063-.03.48.48 0 0 1-.217-.526m-50.147-31.426a.476.476 0 0 1-.06-.62c.137-.175.39-.187.558-.022a.47.47 0 0 1 .06.617.36.36 0 0 1-.475.087q-.047-.023-.083-.062m50.674 28.954c.042-.234.248-.374.463-.316a.475.475 0 0 1 .32.532c-.04.236-.25.376-.464.316a.4.4 0 0 1-.096-.042.49.49 0 0 1-.223-.49M-18.94 17.712c-.16-.177-.166-.456-.013-.616.153-.163.403-.15.561.026.16.178.165.456.013.617a.36.36 0 0 1-.454.062.4.4 0 0 1-.107-.089m49.46 28.303c.022-.24.215-.4.435-.36s.378.267.356.506c-.024.236-.218.399-.437.356a.3.3 0 0 1-.125-.046.48.48 0 0 1-.23-.456m-47.763-30.018c-.148-.19-.132-.467.033-.613s.416-.111.56.08c.146.189.132.463-.032.613a.365.365 0 0 1-.43.036.5.5 0 0 1-.13-.116m47.9 27.458c.004-.24.184-.422.406-.4.22.02.393.231.39.471s-.184.422-.406.4a.4.4 0 0 1-.158-.05.48.48 0 0 1-.231-.421m-46.07-29.002c-.134-.202-.098-.474.079-.603.175-.134.425-.076.558.129.13.2.095.472-.082.601a.36.36 0 0 1-.404.018.44.44 0 0 1-.152-.145m46.014 26.423c-.014-.244.152-.436.37-.437.22 0 .41.197.424.438.016.24-.152.436-.37.434a.4.4 0 0 1-.192-.051.48.48 0 0 1-.232-.384M-13.463 13.09c-.116-.213-.06-.48.126-.594s.432-.031.548.181.062.476-.127.589a.36.36 0 0 1-.38-.002.44.44 0 0 1-.167-.175m43.817 25.204c-.033-.238.117-.45.334-.469.218-.021.418.159.45.4.032.237-.118.449-.336.47a.4.4 0 0 1-.226-.054.47.47 0 0 1-.225-.349zm-41.762-26.38c-.1-.222-.023-.477.172-.575.196-.095.434.006.537.227.1.223.023.478-.172.576a.37.37 0 0 1-.35-.018.47.47 0 0 1-.187-.21m41.318 23.82c-.052-.238.081-.464.298-.503.213-.038.425.122.476.36.051.239-.082.464-.295.502a.37.37 0 0 1-.257-.048.47.47 0 0 1-.223-.311M-9.26 10.936c-.084-.227.015-.476.217-.554.202-.077.436.045.52.275.084.228-.011.475-.216.554a.37.37 0 0 1-.32-.03.48.48 0 0 1-.2-.245m38.54 22.268c-.069-.235.048-.474.256-.53.21-.06.433.082.499.316.07.232-.047.47-.254.532a.38.38 0 0 1-.289-.044.47.47 0 0 1-.212-.274m-36.312-23.04c-.068-.237.048-.473.256-.53.21-.06.433.083.501.318.066.233-.046.47-.256.53-.1.026-.2.009-.289-.043a.47.47 0 0 1-.212-.275m35.497 20.559c-.085-.228.01-.475.215-.552.202-.078.434.044.518.271s-.012.478-.213.555a.37.37 0 0 1-.32-.03.46.46 0 0 1-.2-.244M-4.743 9.597c-.05-.238.082-.464.295-.501.217-.04.429.12.48.359.049.237-.084.462-.297.5-.09.018-.18 0-.259-.046a.47.47 0 0 1-.219-.312m32.216 18.717c-.1-.22-.026-.48.17-.574.194-.096.436.004.535.227.1.22.026.479-.17.573a.37.37 0 0 1-.35-.018.45.45 0 0 1-.185-.208M-2.406 9.242c-.034-.242.117-.45.334-.469.216-.022.419.16.45.4.035.239-.117.45-.334.468a.37.37 0 0 1-.225-.05.47.47 0 0 1-.225-.349m28.714 16.747c-.117-.212-.062-.476.124-.59s.433-.035.55.178c.116.212.06.479-.128.591a.36.36 0 0 1-.377 0 .45.45 0 0 1-.17-.179M-.04 9.102c-.015-.24.152-.436.371-.437.218.002.408.197.422.44.016.242-.152.437-.37.435a.4.4 0 0 1-.195-.053.48.48 0 0 1-.228-.385m25.018 14.665c-.133-.204-.097-.476.08-.605.174-.131.425-.073.556.127.132.205.097.474-.08.606a.36.36 0 0 1-.407.016.5.5 0 0 1-.15-.144M2.342 9.181c.003-.24.186-.42.404-.398.22.02.395.23.39.472-.003.24-.182.419-.404.397a.4.4 0 0 1-.158-.051.48.48 0 0 1-.232-.42m21.15 12.476c-.146-.19-.131-.463.032-.614.166-.146.416-.111.56.08.15.19.134.464-.032.613a.36.36 0 0 1-.43.036.4.4 0 0 1-.13-.115M4.721 9.473c.021-.237.218-.398.435-.356.22.04.377.266.356.503-.022.24-.218.398-.435.36a.4.4 0 0 1-.128-.048.48.48 0 0 1-.228-.459m17.135 10.209c-.156-.178-.163-.455-.012-.62.153-.16.404-.148.562.027.159.18.165.456.014.621a.364.364 0 0 1-.453.06.5.5 0 0 1-.11-.088M7.087 9.985c.039-.236.249-.377.463-.316.218.06.358.298.32.532-.043.234-.25.373-.465.316a.4.4 0 0 1-.095-.042.48.48 0 0 1-.224-.49m13.003 7.867a.47.47 0 0 1-.056-.618c.137-.176.386-.19.557-.023.17.163.199.438.06.617a.36.36 0 0 1-.477.086.5.5 0 0 1-.084-.062M9.416 10.705c.059-.228.28-.349.491-.27.213.08.335.33.277.558-.058.226-.276.348-.488.268-.02-.011-.043-.018-.063-.03a.49.49 0 0 1-.217-.526m8.787 5.476a.476.476 0 0 1-.106-.613c.121-.192.37-.226.552-.076a.48.48 0 0 1 .107.613.363.363 0 0 1-.497.115zm-6.506-4.548a.368.368 0 0 1 .512-.224.48.48 0 0 1 .236.578.365.365 0 0 1-.509.222l-.031-.015a.486.486 0 0 1-.208-.561m4.506 3.043a.48.48 0 0 1-.151-.605.368.368 0 0 1 .542-.126.48.48 0 0 1 .151.606.36.36 0 0 1-.512.143zm-2.29-1.917a.367.367 0 0 1 .53-.177.48.48 0 0 1 .194.594.364.364 0 0 1-.528.174.484.484 0 0 1-.195-.591"/><path fill="#41d171" d="M2.54 89.362a92.4 92.4 0 0 1 13.168 16.255 95 95 0 0 0 1.33-10.804 77 77 0 0 1 10.363 2.203c-4.558-7.13-9.805-13.573-15.594-19.247L2.543 89.363z"/><path fill="#38c266" d="M12.959 93.195C-1.3 76.06-20.655 64.977-41.218 62.172l.888-15.434c24.14 3.293 46.867 16.307 63.606 36.422z"/><path fill="#fcfcfc" d="M14.015 83.622a.718.718 0 0 0 1.038-.35.94.94 0 0 0-.377-1.166.718.718 0 0 0-1.038.35.94.94 0 0 0 .377 1.166M1.334 72.741.19 74.766l-1.088-.788 1.1-1.945c.174-.309.135-.462-.024-.575l-.21-.154-1.326 2.34-1.088-.788 3.144-5.553 1.34.974c.772.559 1.08 1.231.584 2.103l-.201.356c-.395.7-.74.953-1.225.746.365.398.36.855.132 1.259zm.074-2.912c.174-.309.135-.462-.024-.575l-.181-.13-.695 1.23.181.129c.158.116.298.09.472-.218zm1.483 5.461 1.183.936-.649 1.04-2.24-1.77L4.55 70.11l2.203 1.74-.649 1.041-1.145-.906L4.323 73l1.109.878-.625 1.001-1.109-.877-.81 1.293zm5.261 2.966L6.85 80.15l-1.025-.883 1.25-1.822c.2-.29.172-.444.023-.573l-.2-.172-1.504 2.194-1.025-.882 3.572-5.208 1.266 1.088c.73.628.986 1.32.424 2.14l-.23.336c-.45.653-.813.873-1.282.623.335.43.296.88.035 1.261zm.298-2.878c.2-.29.171-.445.022-.573l-.171-.145-.79 1.154.17.148c.148.128.288.118.487-.173l.281-.409z"/><g style="mix-blend-mode:luminosity"><path fill="#807295" d="M7.143 30.107c-3.461-2.098-.365-9.212 3.154-7.248 3.461 2.098.365 9.212-3.154 7.248m2.702-6.21c-2.228-1.21-4.419 3.826-2.25 5.172 2.227 1.21 4.419-3.826 2.25-5.172"/><path fill="#60527c" d="m8.197 36.374-6.12-3.556C4.814 26.992 3.4 26.35 9.44 30.012c.674.392.97 1.289.658 2.003z"/><path fill="#807295" d="M11.852 46.943C5.74 60.34-13.246 49.297-7.57 35.649c6.11-13.397 25.097-2.354 19.422 11.294"/><path fill="#fff9f9" d="M10.288 46.033C5.16 57.273-10.77 48.008-6.007 36.558c5.127-11.24 21.057-1.975 16.295 9.475"/><path fill="#ef5740" d="m3.843 40.741.16 6.232L.44 41.854l-.16-6.232z"/><path fill="#6e9f9c" d="M3.788 40.74.384 41.854l3.564 5.12z"/><path fill="#807295" d="m5.93 33.398-.458-.264-.549 1.258.458.263zm3.473 11.678-1.146-.656-.208.474 1.146.657z"/><path fill="#807295" d="M11.738 47.002c-5.449 12.577-23.71 3.447-19.845-9.774.725 12.51 17.546 15.947 20.793 4.024.145 1.945-.151 3.922-.949 5.749" opacity=".45" style="mix-blend-mode:multiply"/></g></g></g><defs><filter id="b" width="144.038" height="162.553" x="319.725" y="-55.614" color-interpolation-filters="sRGB" filterUnits="userSpaceOnUse"><feFlood flood-opacity="0" result="BackgroundImageFix"/><feBlend in="SourceGraphic" in2="BackgroundImageFix" result="shape"/><feGaussianBlur result="effect1_foregroundBlur_11917_52351" stdDeviation="1.5"/></filter><filter id="e" width="82.142" height="92.291" x="-31.499" y="350.778" color-interpolation-filters="sRGB" filterUnits="userSpaceOnUse"><feFlood flood-opacity="0" result="BackgroundImageFix"/><feBlend in="SourceGraphic" in2="BackgroundImageFix" result="shape"/><feGaussianBlur result="effect1_foregroundBlur_11917_52351" stdDeviation=".5"/></filter><filter id="h" width="85.488" height="97.367" x="333.11" y="310.703" color-interpolation-filters="sRGB" filterUnits="userSpaceOnUse"><feFlood flood-opacity="0" result="BackgroundImageFix"/><feBlend in="SourceGraphic" in2="BackgroundImageFix" result="shape"/><feGaussianBlur result="effect1_foregroundBlur_11917_52351" stdDeviation=".5"/></filter><filter id="j" width="97.858" height="111.18" x="-53.827" y="-4.563" color-interpolation-filters="sRGB" filterUnits="userSpaceOnUse"><feFlood flood-opacity="0" result="BackgroundImageFix"/><feBlend in="SourceGraphic" in2="BackgroundImageFix" result="shape"/><feGaussianBlur result="effect1_foregroundBlur_11917_52351" stdDeviation=".5"/></filter><clipPath id="a"><rect width="380" height="400" fill="#fff" rx="18"/></clipPath></defs></svg>