<svg xmlns="http://www.w3.org/2000/svg" width="160" height="47" fill="none" viewBox="0 0 160 47"><path fill="#000" d="M154.074 46.222H5.926C2.668 46.222 0 43.621 0 40.444V5.778C0 2.6 2.668 0 5.926 0h148.148C157.332 0 160 2.601 160 5.778v34.666c0 3.177-2.668 5.778-5.926 5.778"/><path fill="url(#a)" d="M12.367 8.711c-.348.356-.55.909-.55 1.625v25.555c0 .717.202 1.27.55 1.625l.086.078L27.141 23.28v-.338L12.453 8.627z"/><path fill="url(#b)" d="m32.031 28.054-4.89-4.774v-.338l4.896-4.774.11.062 5.798 3.217c1.655.913 1.655 2.415 0 3.334l-5.798 3.21z"/><path fill="url(#c)" d="M32.147 27.992 27.14 23.11 12.367 37.516c.55.564 1.446.631 2.466.068z"/><path fill="url(#d)" d="M32.147 18.23 14.833 8.638c-1.02-.558-1.916-.49-2.466.073l14.774 14.4z"/><path fill="#fff" stroke="#fff" stroke-miterlimit="10" stroke-width=".16" d="M56.199 11.837c0 .965-.297 1.738-.88 2.314q-1.01 1.026-2.617 1.027c-1.023 0-1.897-.35-2.614-1.039-.719-.699-1.078-1.557-1.078-2.584q0-1.54 1.078-2.578 1.077-1.043 2.614-1.044c.51 0 .996.102 1.46.293.462.192.838.452 1.11.773l-.618.61c-.476-.548-1.123-.818-1.952-.818q-1.12-.001-1.943.767-.816.771-.817 1.997c0 .818.273 1.49.817 2.004.55.507 1.197.767 1.943.767.793 0 1.46-.26 1.986-.773q.518-.509.595-1.405h-2.58v-.835h3.442c.042.18.054.355.054.524Zm5.461-2.894h-3.233v2.195h2.915v.835h-2.915v2.196h3.234v.85h-4.15V8.092h4.15zm3.856 6.077H64.6V8.942h-1.984v-.851h4.885v.85h-1.986v6.077Zm5.52 0V8.091h.914v6.927zm4.966 0h-.909V8.942h-1.99v-.851h4.89v.85H76zm11.238-.892q-1.05 1.05-2.604 1.05-1.561 0-2.61-1.05t-1.048-2.573 1.047-2.572q1.05-1.05 2.61-1.05 1.546-.002 2.6 1.056 1.054 1.054 1.052 2.566 0 1.524-1.047 2.573Zm-4.538-.58c.528.518 1.17.778 1.934.778.758 0 1.406-.26 1.927-.779.526-.518.793-1.184.793-1.992q-.002-1.212-.793-1.992c-.522-.518-1.169-.778-1.927-.778-.765 0-1.406.26-1.934.778q-.79.78-.792 1.992.001 1.213.792 1.992Zm6.87 1.472V8.091h1.11l3.456 5.388h.04l-.04-1.332V8.092h.914v6.927h-.954L90.48 9.366h-.04l.04 1.337v4.316h-.908Z"/><path fill="#fff" d="M80.753 25.136c-2.784 0-5.058 2.066-5.058 4.916 0 2.827 2.274 4.914 5.058 4.914 2.79 0 5.063-2.087 5.063-4.914 0-2.85-2.274-4.916-5.064-4.916m0 7.894c-1.528 0-2.842-1.23-2.842-2.978 0-1.773 1.314-2.98 2.841-2.98s2.848 1.207 2.848 2.98c0 1.749-1.32 2.978-2.847 2.978m-11.036-7.894c-2.79 0-5.058 2.066-5.058 4.916 0 2.827 2.268 4.914 5.058 4.914 2.788 0 5.058-2.087 5.058-4.914 0-2.85-2.27-4.916-5.058-4.916m0 7.894c-1.529 0-2.847-1.23-2.847-2.978 0-1.773 1.318-2.98 2.847-2.98 1.527 0 2.841 1.207 2.841 2.98 0 1.749-1.314 2.978-2.841 2.978m-13.132-6.387v2.089H61.7c-.15 1.167-.55 2.025-1.163 2.623-.747.722-1.91 1.524-3.953 1.524-3.148 0-5.613-2.478-5.613-5.547 0-3.07 2.465-5.547 5.613-5.547 1.702 0 2.94.649 3.855 1.49l1.51-1.473c-1.279-1.19-2.98-2.104-5.365-2.104-4.317 0-7.945 3.425-7.945 7.634s3.628 7.634 7.945 7.634c2.333 0 4.086-.746 5.464-2.144 1.412-1.376 1.852-3.312 1.852-4.875 0-.485-.042-.931-.116-1.304zm53.698 1.619c-.416-1.1-1.701-3.126-4.317-3.126-2.593 0-4.751 1.992-4.751 4.916 0 2.753 2.136 4.914 5 4.914a5.03 5.03 0 0 0 4.201-2.178l-1.718-1.117c-.574.818-1.354 1.36-2.483 1.36-1.122 0-1.926-.502-2.442-1.49l6.742-2.72zm-6.874 1.637a2.727 2.727 0 0 1 2.632-2.866c.88 0 1.627.429 1.876 1.043zm-5.48 4.768h2.216V20.222h-2.216zm-3.63-8.436h-.074c-.498-.575-1.447-1.095-2.65-1.095-2.525 0-4.833 2.161-4.833 4.932 0 2.754 2.308 4.898 4.833 4.898 1.203 0 2.152-.525 2.65-1.117h.074v.705c0 1.88-1.03 2.889-2.69 2.889-1.354 0-2.194-.953-2.541-1.755l-1.927.784c.555 1.303 2.026 2.907 4.468 2.907 2.598 0 4.79-1.491 4.79-5.118v-8.826h-2.1zm-2.535 6.8c-1.527 0-2.806-1.247-2.806-2.963 0-1.732 1.279-2.996 2.806-2.996 1.505 0 2.692 1.264 2.692 2.996 0 1.716-1.187 2.962-2.692 2.962m28.895-12.809h-5.301v14.445h2.211v-5.473h3.09c2.455 0 4.862-1.732 4.862-4.487 0-2.753-2.413-4.485-4.862-4.485m.058 6.962h-3.148V22.23h3.148a2.54 2.54 0 0 1 2.592 2.476c0 1.118-.942 2.477-2.592 2.477m13.664-2.075c-1.597 0-3.258.687-3.941 2.211l1.961.802c.423-.802 1.199-1.062 2.02-1.062 1.146 0 2.309.672 2.327 1.858v.152c-.4-.226-1.256-.56-2.31-.56-2.112 0-4.265 1.134-4.265 3.25 0 1.936 1.731 3.183 3.676 3.183 1.487 0 2.308-.655 2.823-1.416h.076v1.117h2.135v-5.541c0-2.561-1.962-3.994-4.502-3.994m-.267 7.915c-.723 0-1.73-.35-1.73-1.223 0-1.118 1.256-1.547 2.343-1.547.974 0 1.43.21 2.021.485-.173 1.338-1.354 2.285-2.634 2.285m12.547-7.599-2.541 6.262h-.076l-2.626-6.262h-2.384l3.947 8.75-2.252 4.87h2.309l6.082-13.62zm-19.925 9.242h2.216V20.222h-2.216z"/><defs><linearGradient id="a" x1="25.837" x2="6.45" y1="36.157" y2="16.273" gradientUnits="userSpaceOnUse"><stop stop-color="#00a0ff"/><stop offset=".007" stop-color="#00a1ff"/><stop offset=".26" stop-color="#00beff"/><stop offset=".512" stop-color="#00d2ff"/><stop offset=".76" stop-color="#00dfff"/><stop offset="1" stop-color="#00e3ff"/></linearGradient><linearGradient id="b" x1="40.1" x2="11.422" y1="23.109" y2="23.109" gradientUnits="userSpaceOnUse"><stop stop-color="#ffe000"/><stop offset=".409" stop-color="#ffbd00"/><stop offset=".775" stop-color="orange"/><stop offset="1" stop-color="#ff9c00"/></linearGradient><linearGradient id="c" x1="29.425" x2="3.135" y1="20.457" y2="-6.507" gradientUnits="userSpaceOnUse"><stop stop-color="#ff3a44"/><stop offset="1" stop-color="#c31162"/></linearGradient><linearGradient id="d" x1="8.649" x2="20.388" y1="46.018" y2="33.978" gradientUnits="userSpaceOnUse"><stop stop-color="#32a071"/><stop offset=".069" stop-color="#2da771"/><stop offset=".476" stop-color="#15cf74"/><stop offset=".801" stop-color="#06e775"/><stop offset="1" stop-color="#00f076"/></linearGradient></defs></svg>