<svg xmlns="http://www.w3.org/2000/svg" width="43" height="40" fill="none" viewBox="0 0 43 40"><g clip-path="url(#a)"><path fill="#22b573" d="M39.653 19.987c0 2.809-.576 5.48-1.615 7.906-2.824 6.627-9.1 11.408-16.544 12.028A18 18 0 0 1 19.82 40C9.086 40 .34 31.4 0 20.652.346 9.904 8.543 1.174 19.003.105q.194-.029.398-.04c.033-.006.072-.006.105-.006.327-.033.654-.046.98-.059 10.427.336 18.82 8.81 19.147 19.327.013.218.02.442.02.66"/><path fill="#09683e" d="M43 19.987C43 9.192 34.535.402 23.932 0h-3.445q.564.02 1.12.071-.057.003-.113.008c7.445.62 13.72 5.401 16.544 12.028q.576 1.343.953 2.777l.037.147a20 20 0 0 1 .548 3.288l.004.063q.038.47.053.945.013.244.014.49c0 .062.005.122.005.183l-.005.182q-.002.247-.014.49-.015.476-.053.946l-.004.063a20 20 0 0 1-.3 2.17q-.036.195-.077.389-.08.367-.17.729l-.038.147q-.377 1.434-.953 2.777c-2.824 6.627-9.1 11.408-16.544 12.028l.113.008q-.555.051-1.12.071h3.445C34.535 39.598 43 30.808 43 20.013z"/><path fill="#09683e" d="M19.826 35.762c8.63 0 15.625-7.057 15.625-15.762S28.455 4.238 19.826 4.238C11.196 4.238 4.2 11.295 4.2 20s6.995 15.762 15.625 15.762"/><path fill="#38c266" d="M22.33 17.616h-.784c-.162 0-.313.1-.365.256a.793.793 0 0 1-1.507 0 .38.38 0 0 0-.365-.256h-.784a.87.87 0 0 0-.866.875v1.864c0 .291.044.574.125.84.357 1.168 1.433 2.032 2.698 2.008a2.74 2.74 0 0 0 1.88-.796 2.8 2.8 0 0 0 .836-1.998v-1.918a.87.87 0 0 0-.868-.875m-1.903 2.195a.51.51 0 0 1 .225.968v.564a.226.226 0 1 1-.45 0v-.564a.51.51 0 0 1 .224-.968m9.124-4.05a4.5 4.5 0 0 1-2.719.999h-.236a4.53 4.53 0 0 1-2.94-1.189l-.001-.001a4 4 0 0 0-.282-.283 4.6 4.6 0 0 1-1.208-3.115 4.6 4.6 0 0 1 .61-2.295c3.21.71 5.644 2.813 6.775 5.884"/><path fill="#38c266" d="M23.654 15.57a5 5 0 0 1-.282-.282q.146.133.282.282m3.177 1.19-.118.001-.118-.002zm2.704 7.546v.001c-1.142 3.057-3.584 5.133-6.8 5.826a4.6 4.6 0 0 1-.57-2.226c0-2.292 1.665-4.194 3.842-4.535q.346-.054.706-.055c1.065 0 2.046.37 2.822.989m-8.997-13.773a4.59 4.59 0 0 1-2.26 3.965 4.5 4.5 0 0 0-.634.31 4.53 4.53 0 0 1-5.326-1.567c1.807-2.272 4.602-3.63 7.953-3.63l.177.002q.09.447.09.92"/><path fill="#38c266" d="M18.278 14.498a4.6 4.6 0 0 1-.634.31q.303-.179.634-.31m2.26 15.048q0 .43-.077.84l-.19.002c-3.337 0-6.123-1.337-7.93-3.583a4.53 4.53 0 0 1 3.649-1.848c2.512 0 4.548 2.054 4.548 4.589m-5.409-10.027a8 8 0 0 0-.002.97v.002c-.229 2.172-1.96 3.89-4.126 4.08-.583-1.349-.899-2.883-.899-4.556s.32-3.23.91-4.586c2.163.194 3.892 1.915 4.117 4.088z"/><path fill="#38c266" d="M15.153 20q0 .249-.026.49a9 9 0 0 1 .001-.971q.025.237.025.48"/></g><defs><clipPath id="a"><path fill="#fff" d="M0 0h43v40H0z"/></clipPath></defs></svg>