<svg xmlns="http://www.w3.org/2000/svg" width="12" height="12" fill="none" viewBox="0 0 12 12"><path fill="#09683e" d="M5.91 11.822A5.91 5.91 0 1 0 5.91 0a5.91 5.91 0 0 0 0 11.822"/><path fill="#38c266" d="M6.858 5.017h-.296a.145.145 0 0 0-.138.096.3.3 0 0 1-.57 0 .145.145 0 0 0-.138-.096h-.297a.33.33 0 0 0-.328.328v.7q0 .163.048.314c.135.438.542.762 1.02.753a1.04 1.04 0 0 0 .712-.299c.194-.19.316-.455.316-.749v-.72a.33.33 0 0 0-.329-.327m-.72.823a.192.192 0 0 1 .086.363v.211a.085.085 0 1 1-.17 0v-.211a.191.191 0 0 1 .084-.363m3.45-1.519c-.284.226-.64.365-1.028.375h-.09a1.72 1.72 0 0 1-1.112-.446 2 2 0 0 0-.107-.106 1.72 1.72 0 0 1-.226-2.03c1.214.267 2.135 1.056 2.563 2.207"/><path fill="#38c266" d="M7.36 4.25a2 2 0 0 1-.107-.106q.056.05.107.107m1.2.445h-.089zm1.022 2.829v.001C9.15 8.672 8.227 9.451 7.01 9.711a1.72 1.72 0 0 1 2.572-2.185M6.18 2.36a1.72 1.72 0 0 1-.854 1.488 2 2 0 0 0-.24.116 1.72 1.72 0 0 1-2.015-.587c.684-.853 1.741-1.362 3.008-1.362h.067q.035.169.035.346"/><path fill="#38c266" d="M5.325 3.847a2 2 0 0 1-.24.117q.115-.067.24-.117M6.18 9.49q0 .162-.029.316H6.08c-1.262 0-2.316-.501-3-1.344a1.72 1.72 0 0 1 3.1 1.028M4.134 5.73a3 3 0 0 0 0 .364v.001a1.72 1.72 0 0 1-1.561 1.53 4.25 4.25 0 0 1-.34-1.709c0-.627.12-1.211.343-1.72A1.72 1.72 0 0 1 4.134 5.73"/><path fill="#38c266" d="M4.143 5.91q0 .094-.01.184a3 3 0 0 1 0-.364q.01.09.01.18"/></svg>