<svg xmlns="http://www.w3.org/2000/svg" width="24" height="24" fill="none" viewBox="0 0 24 24"><circle cx="12" cy="12" r="11.7" fill="#075430" stroke="#fff" stroke-width=".6"/><path fill="#fff" d="M9.984 7.2h4.032A2.786 2.786 0 0 1 16.8 9.982v4.032a2.784 2.784 0 0 1-2.784 2.784H9.984A2.786 2.786 0 0 1 7.2 14.015V9.983A2.784 2.784 0 0 1 9.984 7.2m-.096.96A1.73 1.73 0 0 0 8.16 9.886v4.224c0 .955.773 1.728 1.728 1.728h4.224a1.73 1.73 0 0 0 1.728-1.728V9.887c0-.955-.773-1.728-1.728-1.728zm4.632.72a.6.6 0 1 1 0 1.2.6.6 0 0 1 0-1.2M12 9.6a2.4 2.4 0 1 1 0 4.8 2.4 2.4 0 0 1 0-4.8m0 .96a1.44 1.44 0 1 0 0 2.879 1.44 1.44 0 0 0 0-2.88"/></svg>