<svg xmlns="http://www.w3.org/2000/svg" width="32" height="32" fill="none" viewBox="0 0 32 32"><circle cx="16" cy="16" r="15.6" fill="#131d0e" stroke="#fcfcfc" stroke-width=".8"/><path fill="#fcfcfc" d="M12.286 11.023c0 .377-.141.739-.393 1.005a1.3 1.3 0 0 1-.95.416c-.357 0-.698-.15-.95-.417a1.47 1.47 0 0 1-.393-1.006c0-.377.142-.739.394-1.005.252-.267.594-.416.95-.416s.698.15.95.417c.251.267.393.629.392 1.006m.04 2.474H9.64V22.4h2.687zm4.245 0h-2.673V22.4h2.646v-4.672c0-2.602 3.203-2.844 3.203 0V22.4H22.4v-5.64c0-4.387-4.741-4.224-5.856-2.07z"/></svg>