<svg xmlns="http://www.w3.org/2000/svg" width="24" height="24" fill="none" viewBox="0 0 24 24"><circle cx="12" cy="12.001" r="11.7" fill="#075430" stroke="#fff" stroke-width=".6"/><path fill="#fff" d="M9.215 8.268a1.1 1.1 0 0 1-.296.754.98.98 0 0 1-.712.312.98.98 0 0 1-.712-.313 1.1 1.1 0 0 1-.295-.754 1.1 1.1 0 0 1 .295-.755.98.98 0 0 1 .713-.312.98.98 0 0 1 .712.313c.189.2.295.472.295.755m.03 1.855H7.23V16.8h2.015zm3.183 0h-2.005V16.8h1.985v-3.503c0-1.952 2.402-2.134 2.402 0V16.8h1.99v-4.229c0-3.29-3.556-3.167-4.392-1.552z"/></svg>