<svg width="335" height="299" viewBox="0 0 335 299" fill="none" xmlns="http://www.w3.org/2000/svg">
<path d="M230.805 299C228.815 299 227.202 297.296 227.202 295.194C227.202 293.092 228.815 291.387 230.805 291.387C232.795 291.387 234.409 293.092 234.409 295.194C234.409 297.296 232.795 299 230.805 299Z" fill="#B90C82"/>
<path d="M216.394 208.602C215.343 208.602 214.492 207.703 214.492 206.594C214.492 205.484 215.343 204.585 216.394 204.585C217.444 204.585 218.295 205.484 218.295 206.594C218.295 207.703 217.444 208.602 216.394 208.602Z" fill="#F58F2D"/>
<path d="M286.056 155.105C284.563 155.105 283.353 153.827 283.353 152.25C283.353 150.673 284.563 149.395 286.056 149.395C287.548 149.395 288.758 150.673 288.758 152.25C288.758 153.827 287.548 155.105 286.056 155.105Z" fill="#2498C1"/>
<path d="M254.427 95.3676C252.824 95.3676 251.524 93.9949 251.524 92.3015C251.524 90.6081 252.824 89.2354 254.427 89.2354C256.03 89.2354 257.33 90.6081 257.33 92.3015C257.33 93.9949 256.03 95.3676 254.427 95.3676Z" fill="#2498C1"/>
<path d="M127.314 36.7937C125.932 36.7937 124.811 36.0836 124.811 35.2078C124.811 34.3319 125.932 33.6218 127.314 33.6218C128.696 33.6218 129.816 34.3319 129.816 35.2078C129.816 36.0836 128.696 36.7937 127.314 36.7937Z" fill="#BF0946"/>
<path d="M90.9817 80.7768C89.3786 80.7768 88.0791 79.83 88.0791 78.6622C88.0791 77.4943 89.3786 76.5476 90.9817 76.5476C92.5847 76.5476 93.8843 77.4943 93.8843 78.6622C93.8843 79.83 92.5847 80.7768 90.9817 80.7768Z" fill="#BF0946"/>
<path d="M19.8166 188.514C18.7663 188.514 17.9149 187.615 17.9149 186.505C17.9149 185.396 18.7663 184.497 19.8166 184.497C20.8668 184.497 21.7183 185.396 21.7183 186.505C21.7183 187.615 20.8668 188.514 19.8166 188.514Z" fill="#F4892B"/>
<path d="M63.8568 294.877L54.6486 291.071C54.6486 291.071 57.2509 289.908 57.0507 284.198C56.9507 278.489 65.7585 269.079 65.7585 269.079L68.561 269.925C68.561 269.925 60.3537 277.96 61.0543 281.978C61.7549 285.996 63.8568 294.877 63.8568 294.877Z" fill="#B90C82"/>
<path d="M51.5466 160.496C50.7458 161.236 53.2481 154.787 50.1453 150.452C47.0425 146.117 45.8415 145.588 45.8415 145.588L51.8468 138.716C51.8468 138.822 58.4527 154.152 51.5466 160.496Z" fill="#D3D323"/>
<path d="M7.00635 100.443C6.5059 99.9141 8.10623e-05 97.6938 8.10623e-05 97.6938V109.218L7.00635 100.443Z" fill="#D20D81"/>
<path d="M51.8462 105.306C51.3458 105.094 45.8409 99.1734 45.8409 99.1734C45.8409 99.1734 57.2511 92.3011 56.4504 85.0058C55.5496 77.6048 60.8543 69.1465 60.8543 69.1465L64.4575 77.8162C64.4575 77.8162 61.5549 81.0938 61.7551 84.7943C61.9553 88.6006 64.3574 90.5037 59.8534 93.9927C55.3494 97.4818 51.8462 105.306 51.8462 105.306Z" fill="#F7A02F"/>
<path d="M124.811 111.967C124.611 111.756 97.9875 107.632 102.592 96.002C107.196 84.2661 112.5 81.1999 112.1 76.5479C111.7 71.8958 110.799 74.962 110.799 74.962C110.799 74.962 122.509 66.2922 122.509 66.8208C122.509 67.3495 123.71 78.8739 117.205 83.2088C110.699 87.5437 107.996 99.1738 117.405 101.183C126.813 103.192 129.816 102.663 129.816 102.663L124.811 111.967Z" fill="#5ABCD5"/>
<path d="M210.788 116.829C210.188 117.358 203.682 111.754 203.682 111.754C203.682 111.754 206.985 108.159 207.986 100.547C208.987 93.0402 209.487 91.1371 209.487 91.1371L216.794 90.0798C216.894 90.1856 216.894 111.437 210.788 116.829Z" fill="#EE1A57"/>
<path d="M211.69 47.1555L200.48 45.041C200.48 45.041 205.384 38.1686 204.183 30.979C202.982 23.7895 202.282 21.0405 202.282 21.0405L213.492 23.8952C213.492 24.0009 215.193 35.5254 211.69 47.1555Z" fill="#D3D323"/>
<path d="M322.388 25.5868C322.388 25.5868 313.68 17.4456 312.98 19.243C312.279 21.0404 308.676 38.9086 309.276 38.9086C309.777 38.9086 322.388 25.5868 322.388 25.5868Z" fill="#F7A02F"/>
<path d="M335 124.019C333.598 125.076 328.994 130.151 328.994 130.151C328.994 130.151 327.293 120.953 322.388 122.433C317.484 123.913 312.379 123.385 310.778 121.165C309.277 119.05 309.176 119.579 309.176 119.579L313.28 110.063C313.28 110.063 316.483 116.407 320.587 117.253C324.69 118.204 329.795 117.041 331.196 120.107C332.597 123.173 335 124.019 335 124.019Z" fill="#EE1A57"/>
<path d="M276.748 56.882C276.547 58.3622 274.846 65.8689 274.846 65.8689C274.846 65.8689 268.34 58.6794 261.034 63.0143C253.727 67.3491 251.325 68.0892 249.623 63.2257C247.922 58.3622 247.922 56.882 247.922 56.882L252.326 51.4898C252.326 51.4898 252.025 56.0362 257.33 56.0362C262.635 56.0362 264.737 48.5294 270.742 51.4898C276.748 54.4502 276.748 56.882 276.748 56.882Z" fill="#D20D81"/>
<path d="M174.356 59.4199L177.559 51.4902C177.559 51.4902 168.651 51.7017 165.448 55.4022C162.245 59.2084 159.143 60.6886 156.24 58.5741C153.337 56.4595 151.135 54.2392 151.135 54.2392V64.1777C151.135 64.1777 155.439 66.2923 161.144 62.3803C167.05 58.5741 166.349 56.1423 174.356 59.4199Z" fill="#F7A02F"/>
<path d="M123.409 9.9385L122.508 0C122.508 0 119.405 6.44945 115.902 8.14111C112.399 9.83277 110.597 6.87237 110.697 13.5333C110.797 20.1942 112.099 18.9254 112.099 18.9254C112.099 18.9254 113.8 12.5817 117.704 11.5244C121.707 10.4671 119.705 14.802 123.409 9.9385Z" fill="#D20D81"/>
<path d="M36.1327 20.9339C35.6323 20.7225 27.4249 17.022 27.4249 17.022C27.4249 17.022 28.3257 23.8943 22.1202 33.6214C16.0147 43.4542 20.9191 53.1812 20.9191 53.1812C20.9191 53.1812 27.2247 51.1724 27.525 50.4323C27.8253 49.6922 21.4195 41.7625 29.0263 33.6214C36.8333 25.3745 36.1327 20.9339 36.1327 20.9339Z" fill="#EE1A57"/>
<path d="M260.933 194.964C260.933 194.964 256.529 197.713 256.029 197.713C255.528 197.713 243.918 194.541 242.717 191.475L241.516 188.409L246.921 178.153C246.921 178.153 245.419 183.862 252.025 187.986C258.631 192.109 260.933 194.964 260.933 194.964Z" fill="#6CC9DB"/>
<path d="M186.119 142.922C186.119 142.922 193.564 126.343 185.327 116.786C181.367 112.193 180.734 111.77 180.734 111.77C180.734 111.77 179.994 107.705 176.615 106.015C175.348 105.381 174.45 104.959 173.817 104.748C173.183 104.484 172.497 104.853 172.286 105.487L172.18 105.804L169.382 105.329C168.906 105.223 168.431 105.487 168.22 105.909L167.534 107.124C167.534 107.124 153.331 104.22 145.305 114.357C137.28 124.442 135.484 129.405 135.484 129.405C135.484 129.405 123.077 133.946 126.667 145.931C130.257 157.917 145.252 163.513 145.252 163.513L149.635 162.035L149.476 162.774C149.476 162.774 160.511 169.955 177.249 164.2C187.809 160.451 186.858 145.72 186.119 142.922Z" fill="#38C266"/>
<path d="M185.433 117.42C185.433 117.42 185.908 117.948 188.443 122.7C187.862 120.64 186.911 118.634 185.433 116.892V117.42Z" fill="#38C266"/>
<path d="M178.252 163.725C186.33 160.187 186.858 149.574 186.436 144.823C185.01 147.41 183.796 149.046 183.796 149.046C183.849 151.053 182.74 158.814 178.252 163.725Z" fill="#38C266"/>
<path d="M150.374 112.087C160.459 104.009 173.658 109.975 173.658 109.975L174.609 108.972C174.926 108.602 175.454 108.497 175.876 108.708L178.463 109.764L178.622 109.447C178.833 109.077 179.202 108.866 179.625 108.866C178.991 107.81 178.041 106.701 176.615 105.962C175.348 105.329 174.45 104.906 173.817 104.695C173.183 104.431 172.497 104.801 172.286 105.434L172.18 105.751L169.382 105.276C168.906 105.17 168.431 105.434 168.22 105.857L167.534 107.071C167.534 107.071 153.331 104.167 145.305 114.305C143.088 117.103 141.345 119.479 139.972 121.485C141.979 119.373 145.252 116.205 150.374 112.087Z" fill="#38C266"/>
<path d="M126.192 143.767C126.298 144.4 126.456 145.087 126.667 145.773C130.257 157.758 145.252 163.355 145.252 163.355L145.411 163.302C141.609 161.507 139.392 159.923 139.392 159.923C139.392 159.923 129.518 153.534 126.192 143.767Z" fill="#38C266"/>
<path d="M164.155 137.326C165.053 138.329 165.845 139.385 166.425 140.388C166.531 140.546 166.584 140.705 166.689 140.863C167.64 142.553 168.59 143.609 169.435 144.19C170.702 142.922 173.817 138.962 174.451 136.322C175.19 133.154 174.556 128.297 170.596 129.406C170.385 129.458 170.174 129.564 169.963 129.617C166.901 130.99 164.789 135.742 164.155 137.326Z" fill="white"/>
<path d="M163.838 136.956C163.996 136.428 164.26 135.583 164.841 134.21C166.161 131.042 169.065 127.716 172.127 128.033C175.19 128.402 176.668 132.785 175.031 136.956C173.659 140.388 170.596 143.397 169.593 144.295L169.435 144.189C170.702 142.922 173.817 138.962 174.451 136.322C175.19 133.154 174.556 128.297 170.596 129.405C167.27 130.356 164.894 135.636 164.208 137.325L163.838 136.956Z" fill="#0A6127"/>
<path d="M139.181 129.775C140.395 129.088 141.504 128.771 142.56 128.666C144.619 128.507 146.256 129.194 147.206 129.722C147.417 129.352 147.84 128.455 148.421 126.184C148.79 124.706 148.685 123.439 148.262 122.594C147.576 121.274 146.045 120.957 144.091 122.435C141.873 124.178 140.078 127.768 139.181 129.775Z" fill="white"/>
<path d="M138.705 130.039C138.811 128.877 140.923 123.809 143.616 121.538C146.308 119.268 149.74 119.268 149.582 123.333C149.476 126.449 148.103 128.877 147.47 129.881L147.206 129.722C147.417 129.353 147.839 128.455 148.42 126.185C149.371 122.489 147.312 120.007 144.091 122.436C141.873 124.125 140.025 127.769 139.18 129.775L138.705 130.039Z" fill="#0A6127"/>
<path d="M151.483 119.479C151.166 118.265 150.691 116.47 149.318 116.1C147.945 115.836 146.361 116.364 145.675 117.579C146.15 117.103 146.731 116.839 147.364 116.681C148.209 116.523 149.265 116.364 149.899 116.998C150.532 117.737 151.007 118.635 151.483 119.479Z" fill="#0A6127"/>
<path d="M179.519 125.392C178.516 123.597 176.615 122.172 174.451 122.224C172.391 122.33 170.332 123.122 168.907 124.6C169.751 124.019 170.649 123.597 171.599 123.28C174.767 122.172 177.355 122.805 179.519 125.392Z" fill="#0A6127"/>
<path d="M164.155 137.325C165.052 138.328 165.844 139.384 166.425 140.388C168.484 140.44 170.543 139.12 171.652 136.903C172.972 134.157 172.233 130.936 169.963 129.616C166.9 130.989 164.788 135.741 164.155 137.325Z" fill="#00371D"/>
<path d="M142.56 128.666C144.619 128.507 146.256 129.194 147.206 129.722C147.417 129.352 147.84 128.455 148.421 126.184C148.79 124.706 148.685 123.439 148.262 122.594C146.203 122.541 144.091 124.072 143.088 126.448C142.771 127.187 142.613 127.927 142.56 128.666Z" fill="#00371D"/>
<path d="M100.214 141.074C100.214 141.074 111.196 163.514 120.912 172.543C122.522 174.037 123.763 175.23 124.713 176.186C127.533 179.016 127.828 179.723 127.828 179.723C127.828 179.723 121.862 192.026 122.971 203.008C123.71 210.189 126.931 213.726 126.931 213.726C126.931 213.726 127.036 223.441 133.478 226.292C139.919 229.196 144.83 226.662 144.83 226.662C144.83 226.662 153.7 227.982 159.402 226.504C165.105 224.972 163.785 225.606 163.785 225.606C163.785 225.606 173.869 229.988 183.637 219.956C193.405 209.872 185.696 197.939 180.944 193.293C176.34 188.794 175.158 187.86 175.089 187.807H175.084C175.084 187.807 177.127 188.134 181.034 187.638C183.891 187.268 187.734 186.455 192.507 184.739C203.807 180.674 215.053 173.968 218.115 171.17C221.178 168.371 221.917 166.787 221.917 166.787L214.894 168.424C214.894 168.424 220.016 164.042 220.808 162.828C221.6 161.666 218.643 163.62 218.485 163.725L222.55 157.97C222.55 157.97 216.954 160.399 214.472 160.98L211.938 161.56C211.938 161.56 214.525 157.231 214.736 154.38L214.894 151.528C214.894 151.528 202.381 160.504 187.597 164.306C182.74 165.52 178.78 165.995 175.664 166.048C173.922 166.048 172.391 165.995 171.124 165.837C167.797 165.415 166.213 164.57 166.213 164.57C166.213 164.57 155.918 163.408 149.793 162.88C149.001 162.828 148.262 162.775 147.628 162.722C146.519 162.669 145.727 162.616 145.463 162.669C143.985 162.933 132.686 153.588 132.686 153.588C132.686 153.588 122.865 146.671 120.172 141.549L117.48 136.428V141.18C117.48 141.18 109.824 135.319 108.926 133.946C108.187 132.837 108.081 132.626 108.028 132.573C108.081 132.837 108.873 137.378 109.665 139.121L110.457 140.916L102.115 137.484C102.115 137.484 102.854 139.226 104.121 141.549C105.389 143.873 105.653 144.717 105.653 144.717L100.214 141.074Z" fill="#38C266"/>
<path opacity="0.5" d="M124.713 176.186C127.533 179.016 127.829 179.723 127.829 179.723C127.829 179.723 128.357 177.717 129.518 175.235C130.664 172.791 138.251 165.335 138.489 165.103C126.208 173.857 124.713 176.154 124.713 176.186Z" fill="#00371D"/>
<path opacity="0.5" d="M166.747 178.778C166.916 179.015 172.296 186.629 175.084 187.801C175.084 187.801 177.128 188.134 181.035 187.638C181.035 187.638 174.451 184.686 170.596 181.729C166.985 178.957 166.758 178.783 166.747 178.778Z" fill="#00371D"/>
<path d="M186.753 215.574C186.753 215.574 191.241 204.38 191.61 198.995L191.98 193.609L189.393 195.774C189.393 195.774 190.66 192.289 190.924 190.124L191.188 187.96C191.188 187.96 188.865 194.348 182.634 193.82C176.457 193.292 180.839 193.345 182.634 195.985C184.429 198.572 187.756 209.66 187.756 209.66L186.753 215.574Z" fill="#38C266"/>
<path d="M154.545 224.983C154.645 224.983 157.053 224.888 162.027 221.223C166.684 217.828 166.773 207.765 166.758 206.175C166.858 206.286 167.022 206.408 167.212 206.381C167.655 206.323 168.051 205.531 168.389 204.026C168.801 202.184 168.215 199.359 167.655 197.31C167.264 195.88 166.826 194.623 166.567 193.905C166.937 194.475 167.365 195.045 167.56 194.956C167.655 194.913 167.835 194.829 167.122 192.801C165.601 188.403 160.876 182.754 160.828 182.696L160.728 182.78C160.775 182.838 165.49 188.472 167 192.844C167.613 194.602 167.528 194.813 167.502 194.839C167.365 194.839 166.784 194.032 166.33 193.266L166.214 193.324C166.24 193.398 169.049 200.526 168.268 204.005C167.845 205.896 167.418 206.228 167.201 206.26C166.942 206.292 166.752 205.948 166.752 205.943L166.62 205.695L166.631 205.975C166.631 206.091 166.942 217.49 161.958 221.128C157.027 224.761 154.577 224.861 154.55 224.866V224.998L154.545 224.983Z" fill="#0A6127"/>
<path d="M125.331 198.736L125.463 198.725C125.036 193.493 125.981 189.797 126.335 188.635V190.826L127.834 187.194C129.186 183.92 134.777 179.818 134.835 179.776L134.756 179.67C134.756 179.67 133.32 180.721 131.752 182.151C130.3 183.477 128.425 185.414 127.707 187.146L126.461 190.166V187.864L126.335 188.202C126.335 188.202 125.944 189.248 125.632 191.053C125.342 192.717 125.057 195.404 125.326 198.741L125.331 198.736Z" fill="#0A6127"/>
<path d="M133.594 221.482L133.679 221.381C133.637 221.344 129.175 217.437 126.936 213.688L126.826 213.757C129.075 217.522 133.552 221.445 133.6 221.482H133.594Z" fill="#0A6127"/>
<path d="M146.778 226.989L146.789 226.857C144.085 226.598 139.566 224.819 139.518 224.803L139.471 224.924C139.518 224.94 144.054 226.725 146.773 226.989H146.778Z" fill="#0A6127"/>
<path d="M160.047 226.355C165.485 225.521 169.952 223.045 169.994 223.023L169.931 222.907C169.889 222.934 165.443 225.394 160.026 226.228L160.047 226.36V226.355Z" fill="#0A6127"/>
<path d="M198.263 236.747C198.263 236.747 189.551 235.849 185.327 238.7C181.103 241.551 181.579 241.551 181.579 241.551C181.579 241.551 177.83 239.545 175.295 239.07C172.761 238.595 170.016 239.07 170.016 239.07C170.016 239.07 171.6 229.566 180.998 227.665C190.343 225.764 198.263 236.747 198.263 236.747Z" fill="#F7AB1E"/>
<path d="M139.498 236.166C139.498 236.166 131.155 236.641 127.301 237.855L123.447 239.123C123.447 239.123 121.493 234.529 117.85 234.159C114.259 233.79 111.567 234.899 111.567 234.899C111.567 234.899 136.963 220.537 139.498 236.166Z" fill="#F7AB1E"/>
<path d="M162.502 166.64C164.899 166.64 167.45 166.466 170.089 166.022C170.195 165.996 170.285 165.985 170.375 165.975C170.485 165.959 170.591 165.943 170.691 165.911L170.607 165.663C170.533 165.689 170.438 165.7 170.343 165.711C170.243 165.721 170.142 165.737 170.037 165.763C159.498 167.516 150.406 165.056 146.984 163.915C145.897 163.551 145.311 163.287 145.305 163.287C130.242 156.756 126.667 145.932 126.667 145.932C130.237 157.843 145.057 163.477 145.205 163.53C145.221 163.535 145.797 163.799 146.9 164.164C149.482 165.024 155.279 166.635 162.502 166.635V166.64Z" fill="#0A6127"/>
<path d="M170.776 165.916C172.819 165.568 175.237 164.945 177.592 164.074C177.592 164.074 172.761 165.309 170.728 165.658L170.77 165.916H170.776Z" fill="#0A6127"/>
<path d="M135.696 139.331C138.388 143.239 140.923 145.456 140.764 148.888C140.659 152.32 138.811 161.718 143.616 163.25C148.42 164.781 154.756 161.613 162.518 155.066C168.273 150.261 171.652 151.211 173.183 149.311C174.714 147.41 174.028 145.245 172.127 145.087C172.127 145.087 171.018 145.245 169.54 144.242C169.487 144.189 169.434 144.189 169.382 144.136C168.537 143.503 167.586 142.499 166.636 140.81C166.003 139.648 165.105 138.434 164.102 137.272C163.996 137.167 163.891 137.061 163.785 136.955C160.617 133.471 156.129 130.514 152.75 130.461L148.104 130.356C148.104 130.356 147.892 130.144 147.47 129.88C147.364 129.828 147.312 129.775 147.206 129.722C145.728 128.877 142.718 127.716 139.18 129.775C139.128 129.775 139.128 129.828 139.075 129.828C138.969 129.88 138.811 129.986 138.705 130.039C134.006 132.943 133.109 135.53 135.696 139.331Z" fill="#F7AB1E"/>
<path d="M118.214 159.163L118.33 159.1C117.755 157.986 116.741 154.818 116.34 153.535L116.789 154.305C117.528 155.573 119.883 156.861 119.983 156.919L120.479 157.188L119.054 155.91C118.241 155.14 116.889 151.222 116.556 150.245L118.014 151.47C119.634 152.832 124.571 156.037 124.619 156.069L124.693 155.958C124.645 155.926 119.714 152.721 118.098 151.37L116.287 149.849L116.356 150.071C116.424 150.277 118.008 155.113 118.959 156.011L119.465 156.465C118.705 155.995 117.396 155.097 116.894 154.242L115.87 152.489L116.034 153.028C116.049 153.075 117.47 157.748 118.204 159.163H118.214Z" fill="#0A6127"/>
<path d="M138.388 139.754C140.87 142.5 142.876 142.288 142.771 147.41C142.771 148.255 142.665 149.1 142.559 149.997C142.084 154.696 141.134 160.029 145.252 160.715C150.11 161.507 153.858 159.818 160.617 153.64C161.514 152.796 162.306 152.109 162.94 151.528C163.046 151.476 163.098 151.37 163.151 151.317C166.319 148.572 167.111 148.255 167.27 148.255C166.794 147.991 163.785 146.196 160.67 142.605C157.29 138.645 147.523 132.415 142.771 133.365C138.124 134.421 135.96 137.008 138.388 139.754Z" fill="#560226"/>
<path d="M147.274 168.756C147.364 168.756 147.417 168.756 147.422 168.756H147.517L146.678 166.824L147.38 167.32C148.146 167.859 150.083 168.392 151.018 168.646C151.192 168.693 151.329 168.73 151.409 168.756L151.446 168.63C151.361 168.603 151.224 168.566 151.05 168.519C150.126 168.265 148.198 167.737 147.454 167.215L146.361 166.444L147.311 168.63C146.852 168.63 144.814 168.588 143.489 167.584L143.41 167.69C144.724 168.688 146.715 168.762 147.264 168.762L147.274 168.756Z" fill="#0A6127"/>
<path d="M145.252 160.715C150.11 161.507 153.858 159.817 160.617 153.64C161.514 152.795 162.306 152.109 162.94 151.528C162.201 150.736 160.406 149.099 158.188 148.941C155.284 148.677 154.281 148.782 153.489 147.99C152.697 147.198 147.892 146.67 144.619 148.518C143.721 148.994 143.087 149.522 142.559 149.997C142.084 154.749 141.187 160.081 145.252 160.715Z" fill="#B52D51"/>
<path d="M158.082 134.949C158.082 134.949 158.505 133.787 157.818 133.576C157.132 133.365 156.446 133.576 156.446 133.576C156.446 133.576 157.818 133.787 158.082 134.949Z" fill="#00371D"/>
<path opacity="0.5" d="M146.995 164.042C152.644 166.417 160.934 168.793 170.491 167.737C172.444 167.526 174.186 166.893 175.612 165.942C173.87 165.942 172.339 165.889 171.071 165.731C170.966 165.731 170.807 165.784 170.702 165.784C170.491 165.837 170.279 165.837 170.121 165.889C159.614 167.632 150.638 165.203 146.995 164.042Z" fill="#00371D"/>
<path d="M169.872 132.728C169.609 131.924 169.732 131.162 170.147 131.026C170.563 130.89 171.114 131.43 171.377 132.234C171.641 133.037 171.518 133.799 171.102 133.936C170.687 134.072 170.136 133.531 169.872 132.728Z" fill="white"/>
<path d="M145.378 124.766C145.187 124.372 145.649 123.754 146.41 123.384C147.17 123.015 147.942 123.034 148.133 123.428C148.324 123.821 147.862 124.44 147.102 124.809C146.341 125.179 145.57 125.159 145.378 124.766Z" fill="white"/>
</svg>
