<svg xmlns="http://www.w3.org/2000/svg" width="335" height="299" fill="none" viewBox="0 0 335 299"><path fill="#b90c82" d="M230.805 299c-1.99 0-3.603-1.704-3.603-3.806s1.613-3.807 3.603-3.807 3.604 1.705 3.604 3.807-1.614 3.806-3.604 3.806"/><path fill="#f58f2d" d="M216.394 208.602c-1.051 0-1.902-.899-1.902-2.008 0-1.11.851-2.009 1.902-2.009s1.901.899 1.901 2.009-.851 2.008-1.901 2.008"/><path fill="#2498c1" d="M286.056 155.105c-1.493 0-2.703-1.278-2.703-2.855s1.21-2.855 2.703-2.855 2.702 1.278 2.702 2.855-1.21 2.855-2.702 2.855m-31.629-59.737c-1.603 0-2.903-1.373-2.903-3.066 0-1.694 1.3-3.067 2.903-3.067s2.903 1.373 2.903 3.067c0 1.693-1.3 3.066-2.903 3.066"/><path fill="#bf0946" d="M127.314 36.794c-1.382 0-2.503-.71-2.503-1.586s1.121-1.586 2.503-1.586 2.502.71 2.502 1.586-1.12 1.586-2.502 1.586M90.982 80.777c-1.603 0-2.903-.947-2.903-2.115s1.3-2.114 2.903-2.114 2.902.946 2.902 2.114-1.3 2.115-2.902 2.115"/><path fill="#f4892b" d="M19.817 188.514c-1.05 0-1.902-.899-1.902-2.009s.851-2.008 1.902-2.008 1.901.899 1.901 2.008c0 1.11-.851 2.009-1.901 2.009"/><path fill="#b90c82" d="m63.857 294.877-9.208-3.806s2.602-1.163 2.402-6.873c-.1-5.709 8.707-15.119 8.707-15.119l2.803.846s-8.207 8.035-7.507 12.053 2.803 12.899 2.803 12.899"/><path fill="#d3d323" d="M51.547 160.496c-.801.74 1.701-5.709-1.402-10.044s-4.303-4.864-4.303-4.864l6.005-6.872c0 .106 6.606 15.436-.3 21.78"/><path fill="#d20d81" d="M7.006 100.443c-.5-.529-7.006-2.75-7.006-2.75v11.525z"/><path fill="#f7a02f" d="M51.846 105.306c-.5-.212-6.005-6.133-6.005-6.133s11.41-6.872 10.61-14.167c-.901-7.401 4.403-15.86 4.403-15.86l3.603 8.67s-2.902 3.278-2.702 6.978c.2 3.807 2.602 5.71-1.902 9.199s-8.007 11.313-8.007 11.313"/><path fill="#5abcd5" d="M124.811 111.967c-.2-.211-26.824-4.335-22.219-15.965 4.604-11.736 9.908-14.802 9.508-19.454s-1.301-1.586-1.301-1.586 11.71-8.67 11.71-8.141 1.201 12.053-5.304 16.388-9.209 15.965.2 17.974 12.411 1.48 12.411 1.48z"/><path fill="#ee1a57" d="M210.788 116.829c-.6.529-7.106-5.075-7.106-5.075s3.303-3.595 4.304-11.207c1.001-7.507 1.501-9.41 1.501-9.41l7.307-1.057c.1.106.1 21.357-6.006 26.749"/><path fill="#d3d323" d="m211.69 47.156-11.21-2.115s4.904-6.872 3.703-14.062-1.901-9.938-1.901-9.938l11.21 2.854c0 .106 1.701 11.63-1.802 23.26"/><path fill="#f7a02f" d="M322.388 25.587s-8.708-8.141-9.408-6.344c-.701 1.797-4.304 19.666-3.704 19.666.501 0 13.112-13.322 13.112-13.322"/><path fill="#ee1a57" d="M335 124.019c-1.402 1.057-6.006 6.132-6.006 6.132s-1.701-9.198-6.606-7.718-10.009.952-11.61-1.268c-1.501-2.115-1.602-1.586-1.602-1.586l4.104-9.516s3.203 6.344 7.307 7.19c4.103.951 9.208-.212 10.609 2.854s3.804 3.912 3.804 3.912"/><path fill="#d20d81" d="M276.748 56.882c-.201 1.48-1.902 8.987-1.902 8.987s-6.506-7.19-13.812-2.855c-7.307 4.335-9.709 5.075-11.411.212s-1.701-6.344-1.701-6.344l4.404-5.392s-.301 4.546 5.004 4.546 7.407-7.507 13.412-4.546 6.006 5.392 6.006 5.392"/><path fill="#f7a02f" d="m174.356 59.42 3.203-7.93s-8.908.212-12.111 3.912c-3.203 3.806-6.305 5.287-9.208 3.172s-5.105-4.335-5.105-4.335v9.939s4.304 2.114 10.009-1.798c5.906-3.806 5.205-6.238 13.212-2.96"/><path fill="#d20d81" d="M123.409 9.939 122.508 0s-3.103 6.45-6.606 8.141c-3.503 1.692-5.305-1.269-5.205 5.392s1.402 5.392 1.402 5.392 1.701-6.343 5.605-7.4c4.003-1.058 2.001 3.277 5.705-1.587"/><path fill="#ee1a57" d="M36.133 20.934c-.5-.212-8.708-3.912-8.708-3.912s.9 6.872-5.305 16.6c-6.105 9.832-1.2 19.56-1.2 19.56s6.305-2.01 6.605-2.75-6.105-8.67 1.501-16.81c7.807-8.247 7.107-12.688 7.107-12.688"/><path fill="#6cc9db" d="M260.933 194.964s-4.404 2.749-4.904 2.749c-.501 0-12.111-3.172-13.312-6.238l-1.201-3.066 5.405-10.256s-1.502 5.709 5.104 9.833c6.606 4.123 8.908 6.978 8.908 6.978"/><path fill="#38c266" d="M186.119 142.922s7.445-16.579-.792-26.136c-3.96-4.593-4.593-5.016-4.593-5.016s-.74-4.065-4.119-5.755c-1.267-.634-2.165-1.056-2.798-1.267-.634-.264-1.32.105-1.531.739l-.106.317-2.798-.475c-.476-.106-.951.158-1.162.58l-.686 1.215s-14.203-2.904-22.229 7.233c-8.025 10.085-9.821 15.048-9.821 15.048s-12.407 4.541-8.817 16.526c3.59 11.986 18.585 17.582 18.585 17.582l4.383-1.478-.159.739s11.035 7.181 27.773 1.426c10.56-3.749 9.609-18.48 8.87-21.278"/><path fill="#38c266" d="M185.433 117.42s.475.528 3.01 5.28c-.581-2.06-1.532-4.066-3.01-5.808zm-7.181 46.305c8.078-3.538 8.606-14.151 8.184-18.902-1.426 2.587-2.64 4.223-2.64 4.223.053 2.007-1.056 9.768-5.544 14.679m-27.878-51.638c10.085-8.078 23.284-2.112 23.284-2.112l.951-1.003c.317-.37.845-.475 1.267-.264l2.587 1.056.159-.317a1.13 1.13 0 0 1 1.003-.581c-.634-1.056-1.584-2.165-3.01-2.904-1.267-.633-2.165-1.056-2.798-1.267-.634-.264-1.32.106-1.531.739l-.106.317-2.798-.475c-.476-.106-.951.158-1.162.581l-.686 1.214s-14.203-2.904-22.229 7.234c-2.217 2.798-3.96 5.174-5.333 7.18 2.007-2.112 5.28-5.28 10.402-9.398m-24.182 31.68c.106.633.264 1.32.475 2.006 3.59 11.985 18.585 17.582 18.585 17.582l.159-.053c-3.802-1.795-6.019-3.379-6.019-3.379s-9.874-6.389-13.2-16.156"/><path fill="#fff" d="M164.155 137.326c.898 1.003 1.69 2.059 2.27 3.062.106.158.159.317.264.475.951 1.69 1.901 2.746 2.746 3.327 1.267-1.268 4.382-5.228 5.016-7.868.739-3.168.105-8.025-3.855-6.916-.211.052-.422.158-.633.211-3.062 1.373-5.174 6.125-5.808 7.709"/><path fill="#0a6127" d="M163.838 136.956c.158-.528.422-1.373 1.003-2.746 1.32-3.168 4.224-6.494 7.286-6.177 3.063.369 4.541 4.752 2.904 8.923-1.372 3.432-4.435 6.441-5.438 7.339l-.158-.106c1.267-1.267 4.382-5.227 5.016-7.867.739-3.168.105-8.025-3.855-6.917-3.326.951-5.702 6.231-6.388 7.92z"/><path fill="#fff" d="M139.181 129.775c1.214-.687 2.323-1.004 3.379-1.109 2.059-.159 3.696.528 4.646 1.056.211-.37.634-1.267 1.215-3.538.369-1.478.264-2.745-.159-3.59-.686-1.32-2.217-1.637-4.171-.159-2.218 1.743-4.013 5.333-4.91 7.34"/><path fill="#0a6127" d="M138.705 130.039c.106-1.162 2.218-6.23 4.911-8.501s6.124-2.27 5.966 1.795c-.106 3.116-1.479 5.544-2.112 6.548l-.264-.159c.211-.369.633-1.267 1.214-3.537.951-3.696-1.108-6.178-4.329-3.749-2.218 1.689-4.066 5.333-4.911 7.339zm12.778-10.56c-.317-1.214-.792-3.009-2.165-3.379-1.373-.264-2.957.264-3.643 1.479.475-.476 1.056-.74 1.689-.898.845-.158 1.901-.317 2.535.317.633.739 1.108 1.637 1.584 2.481m28.036 5.913c-1.003-1.795-2.904-3.22-5.068-3.168-2.06.106-4.119.898-5.544 2.376a10.6 10.6 0 0 1 2.692-1.32c3.168-1.108 5.756-.475 7.92 2.112"/><path fill="#00371d" d="M164.155 137.325c.897 1.003 1.689 2.059 2.27 3.063 2.059.052 4.118-1.268 5.227-3.485 1.32-2.746.581-5.967-1.689-7.287-3.063 1.373-5.175 6.125-5.808 7.709m-21.595-8.659c2.059-.159 3.696.528 4.646 1.056.211-.37.634-1.267 1.215-3.538.369-1.478.264-2.745-.159-3.59-2.059-.053-4.171 1.478-5.174 3.854a6.8 6.8 0 0 0-.528 2.218"/><path fill="#38c266" d="M100.214 141.074s10.982 22.44 20.698 31.469a133 133 0 0 1 3.801 3.643c2.82 2.83 3.115 3.537 3.115 3.537s-5.966 12.303-4.857 23.285c.739 7.181 3.96 10.718 3.96 10.718s.105 9.715 6.547 12.566c6.441 2.904 11.352.37 11.352.37s8.87 1.32 14.572-.158c5.703-1.532 4.383-.898 4.383-.898s10.084 4.382 19.852-5.65c9.768-10.084 2.059-22.017-2.693-26.663-4.604-4.499-5.786-5.433-5.855-5.486h-.005s2.043.327 5.95-.169c2.857-.37 6.7-1.183 11.473-2.899 11.3-4.065 22.546-10.771 25.608-13.569s3.802-4.383 3.802-4.383l-7.023 1.637s5.122-4.382 5.914-5.596c.792-1.162-2.165.792-2.323.897l4.065-5.755s-5.596 2.429-8.078 3.01l-2.534.58s2.587-4.329 2.798-7.18l.158-2.852s-12.513 8.976-27.297 12.778c-4.857 1.214-8.817 1.689-11.933 1.742-1.742 0-3.273-.053-4.54-.211-3.327-.422-4.911-1.267-4.911-1.267s-10.295-1.162-16.42-1.69c-.792-.052-1.531-.105-2.165-.158-1.109-.053-1.901-.106-2.165-.053-1.478.264-12.777-9.081-12.777-9.081s-9.821-6.917-12.514-12.039l-2.692-5.121v4.752s-7.656-5.861-8.554-7.234c-.739-1.109-.845-1.32-.898-1.373.053.264.845 4.805 1.637 6.548l.792 1.795-8.342-3.432s.739 1.742 2.006 4.065c1.268 2.324 1.532 3.168 1.532 3.168z"/><path fill="#00371d" d="M124.713 176.186c2.82 2.83 3.116 3.537 3.116 3.537s.528-2.006 1.689-4.488c1.146-2.444 8.733-9.9 8.971-10.132-12.281 8.754-13.776 11.051-13.776 11.083m42.034 2.592c.169.237 5.549 7.851 8.337 9.023 0 0 2.044.333 5.951-.163 0 0-6.584-2.952-10.439-5.909a725 725 0 0 0-3.849-2.951" opacity=".5"/><path fill="#38c266" d="M186.753 215.574s4.488-11.194 4.857-16.579l.37-5.386-2.587 2.165s1.267-3.485 1.531-5.65l.264-2.164s-2.323 6.388-8.554 5.86c-6.177-.528-1.795-.475 0 2.165 1.795 2.587 5.122 13.675 5.122 13.675z"/><path fill="#0a6127" d="M154.545 224.983c.1 0 2.508-.095 7.482-3.76 4.657-3.395 4.746-13.458 4.731-15.048.1.111.264.233.454.206.443-.058.839-.85 1.177-2.355.412-1.842-.174-4.667-.734-6.716a46 46 0 0 0-1.088-3.405c.37.57.798 1.14.993 1.051.095-.043.275-.127-.438-2.155-1.521-4.398-6.246-10.047-6.294-10.105l-.1.084c.047.058 4.762 5.692 6.272 10.064.613 1.758.528 1.969.502 1.995-.137 0-.718-.807-1.172-1.573l-.116.058c.026.074 2.835 7.202 2.054 10.681-.423 1.891-.85 2.223-1.067 2.255-.259.032-.449-.312-.449-.317l-.132-.248.011.28c0 .116.311 11.515-4.673 15.153-4.931 3.633-7.381 3.733-7.408 3.738v.132zm-29.214-26.247.132-.011c-.427-5.232.518-8.928.872-10.09v2.191l1.499-3.632c1.352-3.274 6.943-7.376 7.001-7.418l-.079-.106s-1.436 1.051-3.004 2.481c-1.452 1.326-3.327 3.263-4.045 4.995l-1.246 3.02v-2.302l-.126.338s-.391 1.046-.703 2.851c-.29 1.664-.575 4.351-.306 7.688zm8.263 22.746.085-.101c-.042-.037-4.504-3.944-6.743-7.693l-.11.069c2.249 3.765 6.726 7.688 6.774 7.725zm13.184 5.507.011-.132c-2.704-.259-7.223-2.038-7.271-2.054l-.047.121c.047.016 4.583 1.801 7.302 2.065zm13.269-.634c5.438-.834 9.905-3.31 9.947-3.332l-.063-.116c-.042.027-4.488 2.487-9.905 3.321l.021.132z"/><path fill="#f7ab1e" d="M198.263 236.747s-8.712-.898-12.936 1.953-3.748 2.851-3.748 2.851-3.749-2.006-6.284-2.481-5.279 0-5.279 0 1.584-9.504 10.982-11.405c9.345-1.901 17.265 9.082 17.265 9.082m-58.765-.581s-8.343.475-12.197 1.689l-3.854 1.268s-1.954-4.594-5.597-4.964c-3.591-.369-6.283.74-6.283.74s25.396-14.362 27.931 1.267"/><path fill="#0a6127" d="M162.502 166.64c2.397 0 4.948-.174 7.587-.618a2 2 0 0 1 .286-.047c.11-.016.216-.032.316-.064l-.084-.248c-.074.026-.169.037-.264.048q-.15.014-.306.052c-10.539 1.753-19.631-.707-23.053-1.848-1.087-.364-1.673-.628-1.679-.628-15.063-6.531-18.638-17.355-18.638-17.355 3.57 11.911 18.39 17.545 18.538 17.598.016.005.592.269 1.695.634 2.582.86 8.379 2.471 15.602 2.471zm8.274-.724a39 39 0 0 0 6.816-1.842s-4.831 1.235-6.864 1.584l.042.258z"/><path fill="#f7ab1e" d="M135.696 139.331c2.692 3.908 5.227 6.125 5.068 9.557-.105 3.432-1.953 12.83 2.852 14.362 4.804 1.531 11.14-1.637 18.902-8.184 5.755-4.805 9.134-3.855 10.665-5.755 1.531-1.901.845-4.066-1.056-4.224 0 0-1.109.158-2.587-.845-.053-.053-.106-.053-.158-.106-.845-.633-1.796-1.637-2.746-3.326-.633-1.162-1.531-2.376-2.534-3.538l-.317-.317c-3.168-3.484-7.656-6.441-11.035-6.494l-4.646-.105s-.212-.212-.634-.476c-.106-.052-.158-.105-.264-.158-1.478-.845-4.488-2.006-8.026.053-.052 0-.052.053-.105.053-.106.052-.264.158-.37.211-4.699 2.904-5.596 5.491-3.009 9.292"/><path fill="#0a6127" d="m118.214 159.163.116-.063c-.575-1.114-1.589-4.282-1.99-5.565l.449.77c.739 1.268 3.094 2.556 3.194 2.614l.496.269-1.425-1.278c-.813-.77-2.165-4.688-2.498-5.665l1.458 1.225c1.62 1.362 6.557 4.567 6.605 4.599l.074-.111c-.048-.032-4.979-3.237-6.595-4.588l-1.811-1.521.069.222c.068.206 1.652 5.042 2.603 5.94l.506.454c-.76-.47-2.069-1.368-2.571-2.223l-1.024-1.753.164.539c.015.047 1.436 4.72 2.17 6.135z"/><path fill="#560226" d="M138.388 139.754c2.482 2.746 4.488 2.534 4.383 7.656 0 .845-.106 1.69-.212 2.587-.475 4.699-1.425 10.032 2.693 10.718 4.858.792 8.606-.897 15.365-7.075.897-.844 1.689-1.531 2.323-2.112.106-.052.158-.158.211-.211 3.168-2.745 3.96-3.062 4.119-3.062-.476-.264-3.485-2.059-6.6-5.65-3.38-3.96-13.147-10.19-17.899-9.24-4.647 1.056-6.811 3.643-4.383 6.389"/><path fill="#0a6127" d="M147.274 168.756h.243l-.839-1.932.702.496c.766.539 2.703 1.072 3.638 1.326.174.047.311.084.391.11l.037-.126c-.085-.027-.222-.064-.396-.111-.924-.254-2.852-.782-3.596-1.304l-1.093-.771.95 2.186c-.459 0-2.497-.042-3.822-1.046l-.079.106c1.314.998 3.305 1.072 3.854 1.072z"/><path fill="#b52d51" d="M145.252 160.715c4.858.792 8.606-.898 15.365-7.075.897-.845 1.689-1.531 2.323-2.112-.739-.792-2.534-2.429-4.752-2.587-2.904-.264-3.907-.159-4.699-.951s-5.597-1.32-8.87.528c-.898.476-1.532 1.004-2.06 1.479-.475 4.752-1.372 10.084 2.693 10.718"/><path fill="#00371d" d="M158.082 134.949s.423-1.162-.264-1.373c-.686-.211-1.372 0-1.372 0s1.372.211 1.636 1.373"/><path fill="#00371d" d="M146.995 164.042c5.649 2.375 13.939 4.751 23.496 3.695 1.953-.211 3.695-.844 5.121-1.795-1.742 0-3.273-.053-4.541-.211-.105 0-.264.053-.369.053-.211.053-.423.053-.581.105-10.507 1.743-19.483-.686-23.126-1.847" opacity=".5"/><path fill="#fff" d="M169.872 132.728c-.263-.804-.14-1.566.275-1.702s.967.404 1.23 1.208c.264.803.141 1.565-.275 1.702-.415.136-.966-.405-1.23-1.208m-24.494-7.962c-.191-.394.271-1.012 1.032-1.382.76-.369 1.532-.35 1.723.044s-.271 1.012-1.031 1.381c-.761.37-1.532.35-1.724-.043"/></svg>