<svg width="380" height="400" viewBox="0 0 380 400" fill="none" xmlns="http://www.w3.org/2000/svg">
<g clip-path="url(#clip0_11917_52577)">
<rect width="380" height="400" rx="18" fill="#B4F26A"/>
<path d="M322.609 402.851C320.533 401.027 320.098 400.675 318.149 399.166C318.776 400.879 320.401 405.479 318.165 410.89C317.168 410.099 312.718 405.844 312.718 406.215C311.226 403.909 309.541 401.565 307.635 399.215C299.947 389.755 291.857 384.307 286.597 381.351C289.726 384.412 292.947 387.899 296.147 391.869C302.943 400.322 308.026 408.973 311.843 416.981C302.458 423.715 283.37 436.076 257.348 442.989C243.586 446.65 227.884 448.783 210.652 447.763C197.154 446.959 185.049 444.362 174.607 441.054C163.989 437.696 155.078 433.602 148.145 429.929C158.526 405.609 166.225 376.243 178.842 358.026C179.96 353.908 181.618 347.063 183.848 339.556C180.098 322.31 174.315 301.904 169.513 271.809C167.128 273.157 164.716 274.758 160.343 276.718C158.493 277.553 156.802 278.221 155.365 278.747C157.182 266.645 163.929 256.449 165.162 254.631C164.991 250.104 165.074 243.556 166.357 235.87C167.128 231.257 170.576 212.829 184.261 195.219C189.807 188.089 198.002 177.546 212.112 172.883C218.23 170.868 223.6 170.571 227.229 170.651C227.097 167.677 224.883 163.744 226.833 161.716C229.184 159.273 233.304 162.606 236.487 163.052C237.093 160.436 237.423 155.94 239.962 155.019C247.198 152.397 256.208 164.993 267.014 173.335C267.069 173.378 267.118 173.421 267.173 173.459C267.179 173.459 267.179 173.465 267.179 173.465C283.948 186.401 294.021 194.198 301.23 206.392C305.003 212.774 315.142 232.462 309.981 266.695C311.171 269.824 312.581 274.406 313.164 280.095C315.279 300.841 304.314 316.361 302.42 318.959C294.891 329.273 285.815 333.645 277.356 337.72C270.043 341.244 263.583 343.019 259.056 343.977C257.728 349.932 256.401 355.887 255.079 361.842C259.188 363.926 263.302 366.009 267.41 368.1C272.521 367.203 280.919 366.455 290.882 368.99C301.318 371.649 308.874 376.744 313.164 380.158C318.149 383.837 324.779 395.53 322.609 402.851Z" fill="#38C266"/>
<path d="M281.878 267.616C280.094 277.151 277.269 285.839 273.799 293.142H273.794C272.731 292.864 271.646 292.79 270.153 292.604C269.454 292.517 268.771 292.419 268.105 292.307C272.031 285.375 275.247 276.483 277.12 266.491C281.867 241.175 276.195 218.401 264.453 215.624C252.706 212.848 239.34 231.121 234.593 256.442C233.613 261.655 233.078 266.757 232.946 271.598C232.131 270.541 231.184 269.366 230.099 268.166C230.413 264.129 230.958 259.979 231.751 255.768C237.346 225.926 253.103 204.383 266.948 207.654C280.788 210.931 287.474 237.774 281.878 267.616Z" fill="#0A6127"/>
<path d="M264.453 215.625C252.706 212.848 239.34 231.121 234.593 256.443C233.612 261.655 233.078 266.757 232.946 271.599C233.502 272.31 233.998 272.965 234.433 273.546C236.091 275.748 237.016 277.38 239.384 279.699C243.564 283.793 247.623 285.518 252.293 287.441C256.335 289.111 261.452 291.225 268.104 292.308C272.031 285.376 275.247 276.484 277.12 266.491C281.867 241.175 276.195 218.401 264.453 215.625ZM266.441 260.821C263.555 274.14 256.214 283.564 250.035 281.876C243.861 280.194 241.19 268.031 244.076 254.717C246.957 241.404 254.303 231.974 260.477 233.662C266.656 235.35 269.322 247.507 266.441 260.821Z" fill="white"/>
<path d="M260.476 233.662C254.302 231.973 246.955 241.403 244.075 254.717C241.189 268.03 243.86 280.193 250.034 281.875C256.213 283.563 263.554 274.139 266.44 260.82C269.32 247.507 266.655 235.35 260.476 233.662ZM259.374 247.618C257.485 251.804 254.379 254.302 252.435 253.196C250.491 252.095 250.447 247.803 252.342 243.617C254.231 239.431 257.337 236.926 259.275 238.033C261.219 239.14 261.263 243.432 259.374 247.618Z" fill="#00371D"/>
<path d="M253.157 199.281L252.645 199.059C253.201 197.445 254.562 194.421 257.453 192.343C262.393 188.788 267.768 190.748 268.793 191.181L268.6 191.762C267.614 191.354 262.465 189.474 257.75 192.869C254.991 194.854 253.686 197.741 253.157 199.287V199.281Z" fill="#6DD38F"/>
<path d="M198.372 194.984C197.705 194.508 196.995 194.131 196.257 193.871C193.299 192.807 190.54 193.76 189.164 194.415L188.949 193.846C190.403 193.154 193.299 192.158 196.428 193.277C197.21 193.556 197.964 193.958 198.669 194.458L198.372 194.978V194.984Z" fill="#6DD38F"/>
<path d="M200.53 225.753C200.15 232.03 198.977 239.228 196.983 246.691C196.857 247.173 196.724 247.656 196.587 248.132C198.729 239.605 199.698 231.541 199.55 225.092C199.373 217.381 197.595 211.983 194.307 210.876C188.106 208.792 178.886 222.798 173.715 242.165C170.73 253.351 169.744 263.882 170.642 271.184C170.262 271.388 169.887 271.592 169.513 271.809C168.114 263.869 169.083 251.589 172.586 238.479C178.203 217.437 188.216 202.219 194.957 204.488C199.302 205.954 201.224 214.339 200.53 225.753Z" fill="#0A6127"/>
<path d="M199.55 225.092C199.153 224.869 198.735 224.696 198.299 224.579C192.126 222.891 184.785 232.321 181.899 245.634C179.971 254.551 180.528 262.954 182.962 268.031C184.234 268 185.589 268.043 187.043 268.185C187.902 267.202 189.025 266.027 190.441 264.815C192.715 260.048 194.813 254.433 196.548 248.287C196.548 248.274 196.548 248.256 196.559 248.243C196.57 248.206 196.581 248.169 196.587 248.132C198.729 239.605 199.698 231.541 199.55 225.092ZM196.592 234.033C195.871 237.366 194.031 239.728 192.484 239.308C190.936 238.888 190.264 235.839 190.986 232.5C191.713 229.167 193.552 226.799 195.1 227.225C196.647 227.646 197.314 230.694 196.592 234.033Z" fill="#00371D"/>
<path d="M199.55 225.092C199.154 224.869 198.735 224.696 198.3 224.578C192.127 222.89 184.785 232.32 181.9 245.633C179.972 254.55 180.528 262.954 182.963 268.03C178.766 268.129 175.555 269.045 173.253 269.972C172.301 270.356 171.458 270.757 170.643 271.184C169.745 263.881 170.731 253.351 173.716 242.164C178.887 222.797 188.106 208.792 194.308 210.876C197.595 211.982 199.374 217.381 199.55 225.092Z" fill="white"/>
<path d="M196.592 234.033C195.871 237.366 194.031 239.728 192.484 239.307C190.936 238.887 190.264 235.838 190.986 232.499C191.713 229.166 193.552 226.798 195.1 227.225C196.647 227.645 197.314 230.694 196.592 234.033Z" fill="white"/>
<path d="M259.374 247.618C257.485 251.805 254.379 254.303 252.435 253.196C250.491 252.095 250.447 247.804 252.342 243.618C254.231 239.431 257.337 236.927 259.275 238.034C261.219 239.141 261.263 243.432 259.374 247.618Z" fill="white"/>
<path d="M178.841 358.027C168.609 381.994 158.376 405.962 148.144 429.93C139.949 425.564 133.021 420.988 127.47 416.907C127.167 416.684 126.864 416.462 126.572 416.245C130.631 413.834 133.539 411.255 135.323 409.641C140.511 404.948 149.829 396.532 148.32 387.306C147.698 383.497 145.423 380.721 143.545 378.965C145.131 378.699 147.433 378.086 149.912 376.584C153.376 374.488 155.48 371.693 156.542 370.035C155.882 368.737 154.951 367.259 153.624 365.861C149.196 361.199 143.617 360.828 141.689 360.803C145.847 360.302 150 359.808 154.158 359.313C149.3 352.641 144.597 347.651 140.896 344.126C135.73 339.204 126.748 330.8 113.046 325.365C108.778 323.671 104.857 322.582 101.519 321.871C101.492 321.717 101.459 321.556 101.426 321.383C101.117 319.788 100.671 317.376 100.22 314.705C99.9112 312.893 99.6028 310.964 99.3385 309.084C97.5046 296.043 96.0892 285.988 98.6336 275.334C99.7901 270.48 101.112 261.631 110.48 253.097C124.98 257.438 129.045 267.344 131.523 271.957C134.921 278.283 136.38 285.901 139.305 301.144C142.009 315.243 140.858 314.606 142.664 319.404C146.811 330.46 151.454 330.009 159.285 344.225C164.098 352.969 164.385 356.852 168.3 358.515C171.649 359.944 175.339 359.4 178.841 358.027Z" fill="#38C266"/>
<path d="M98.1044 321.525C99.7676 319.293 100.021 316.609 99.5198 314.742L100.214 314.705C100.649 317.308 101.431 321.364 101.541 321.921C100.698 321.766 98.0989 321.525 98.0989 321.525H98.1044Z" fill="#0A6127"/>
<path d="M176.616 317.883C176.385 317.79 176.148 317.704 175.906 317.617C172.26 315.743 165.161 311.372 159.99 302.43C159.692 301.917 157.296 297.718 156.013 293.05C155.947 292.815 155.887 292.58 155.832 292.345C157.087 293.179 158.343 293.569 159.108 293.798C161.108 294.391 162.831 294.323 164.885 293.816C164.759 293.86 164.627 293.903 164.5 293.946C165.282 294.812 166.383 296.098 167.617 297.743C170.057 301.002 174.039 306.301 175.972 313.523C176.197 314.371 176.126 314.235 176.616 317.883Z" fill="#38C266"/>
<path d="M239.829 301.972H239.823C237.923 301.267 235.671 300.401 232.961 299.338C231.876 298.917 230.72 298.459 229.48 297.965C214.17 291.868 215.828 292.01 211.268 290.619C202.638 287.984 194.531 285.616 184.921 287.638C181.05 288.454 175.46 290.297 174.49 290.619C173.301 291.008 172.216 291.385 171.225 291.738C174.132 294.83 176.264 297.816 177.762 300.197C179.238 302.541 181.22 305.688 182.801 310.27C183.561 312.49 183.836 313.881 184.023 315.025C184.789 314.135 185.665 313.146 186.645 312.107C191.585 306.875 195.302 302.943 200.969 300.642C203.706 299.535 209.082 297.359 214.627 299.9C216.709 300.853 218.202 302.188 219.138 303.178C219.694 302.936 220.443 302.64 221.357 302.361C221.374 302.355 221.396 302.349 221.412 302.343C221.484 302.318 221.555 302.299 221.627 302.275C221.847 302.207 222.051 302.157 222.266 302.102C222.415 302.064 222.563 302.021 222.718 301.984C223.131 301.885 223.538 301.799 223.94 301.731C223.984 301.718 224.028 301.712 224.067 301.706C224.188 301.687 224.309 301.663 224.43 301.65C225.267 301.533 226.011 301.477 226.611 301.415C229.497 301.248 232.036 301.663 233.969 302.145C235.505 302.528 236.662 302.955 237.306 303.178C238.589 303.617 240.087 304.012 241.861 304.284H241.866C243.629 304.569 245.65 304.73 247.985 304.711C246.278 304.235 243.854 303.456 239.829 301.972Z" stroke="#231F20" stroke-miterlimit="10"/>
<path d="M316.66 413.005C315.68 413.864 314.644 414.742 313.554 415.626C312.998 416.078 312.425 416.529 311.841 416.981C308.025 408.973 302.942 400.322 296.146 391.869C292.946 387.899 289.724 384.412 286.596 381.351C291.855 384.307 299.946 389.754 307.634 399.215C309.539 401.565 311.23 403.915 312.717 406.221C314.22 408.546 315.526 410.828 316.66 413.005Z" fill="#0A6127"/>
<path d="M102.522 322.093C100.572 321.734 99.9609 321.679 98.105 321.524L98.5951 320.813C100.44 320.992 100.737 321.06 102.61 321.382L102.522 322.093Z" fill="#0A6127"/>
<path d="M145.692 379.7C147.57 381.456 149.162 383.33 149.635 387.164C152.422 400.267 131.527 414.495 127.468 416.907C127.166 416.684 126.863 416.462 126.571 416.245C130.63 413.834 133.537 411.255 135.322 409.641C140.51 404.948 149.828 396.532 148.319 387.306C147.697 383.497 145.422 380.721 143.544 378.964C145.13 378.699 147.432 378.086 149.911 376.584C153.375 374.487 155.478 371.693 156.541 370.035C155.88 368.737 154.95 367.259 153.622 365.861C149.195 361.199 143.616 360.828 141.688 360.803C145.846 360.302 149.999 359.808 154.157 359.313C149.299 352.641 144.596 347.651 140.895 344.126C135.729 339.204 126.747 330.8 113.045 325.365C108.777 323.671 104.856 322.582 101.518 321.871C101.491 321.717 101.458 321.556 101.425 321.383C102.085 321.358 102.498 321.358 102.609 321.383C105.946 322.094 109.515 322.805 113.783 324.499C127.485 329.935 136.732 337.967 141.897 342.889C145.598 346.414 151.684 353.494 156.541 360.166C152.791 360.853 152.466 360.809 148.143 361.193C151.645 361.502 157.081 367.352 158.21 369.436C157.147 371.093 155.093 377.771 145.692 379.7Z" fill="#0A6127"/>
<path d="M156.541 370.036C155.478 371.693 153.375 374.488 149.911 376.584C147.432 378.087 145.13 378.699 143.544 378.965C145.422 380.721 147.697 383.497 148.319 387.306C149.828 396.532 140.51 404.948 135.322 409.642C133.537 411.255 130.63 413.834 126.571 416.246C123.211 418.243 119.064 420.123 114.102 421.254C110.6 422.052 89.942 426.745 76.708 411.725C71.6303 405.962 69.466 399.364 68.4857 395.345C67.5109 395.147 66.5416 394.949 65.5668 394.751V375.694C63.441 373.307 59.2059 367.884 57.6088 359.61C54.8332 345.184 62.3561 333.911 63.9752 331.617C69.8735 323.251 77.5616 320.431 84.3962 317.92C90.4927 315.682 95.295 314.946 99.5246 314.742C100.224 316.591 99.7119 319.887 98.1092 321.525C98.9464 321.538 99.3814 321.507 101.518 321.872C104.856 322.583 108.777 323.671 113.045 325.365C126.747 330.801 135.729 339.204 140.895 344.126C144.596 347.651 149.299 352.641 154.157 359.313C149.999 359.808 145.846 360.303 141.688 360.803C143.616 360.828 149.195 361.199 153.622 365.862C154.95 367.259 155.88 368.737 156.541 370.036Z" fill="#38C266"/>
<path d="M229.601 348.943L228.076 348.776C232.25 348.312 240.065 347.415 244.218 346.76C249.163 345.974 254.153 345.041 259.054 343.983L258.79 345.171C253.877 346.234 249.136 347.112 244.179 347.897C240.021 348.559 234.002 348.794 229.601 348.943Z" fill="#0A6127"/>
<path d="M275.763 293.946C275.058 293.557 274.43 293.315 273.796 293.142H273.791C272.728 292.864 271.643 292.79 270.151 292.604C269.451 292.518 268.768 292.419 268.102 292.307C261.449 291.225 256.333 289.111 252.291 287.441C247.62 285.518 243.562 283.793 239.382 279.699C237.013 277.38 236.088 275.748 234.431 273.546C233.995 272.965 233.5 272.31 232.944 271.599C232.129 270.541 231.181 269.366 230.096 268.167C226.588 264.24 221.731 259.98 215.513 258.254C210.678 256.913 206.096 257.395 202.318 258.477C197.697 259.788 194.277 261.989 193.054 262.824C192.372 263.288 191.738 263.764 191.143 264.24C190.901 264.432 190.664 264.63 190.439 264.815C189.023 266.027 187.9 267.202 187.041 268.185C185.587 268.043 184.232 268 182.96 268.031C178.763 268.13 175.552 269.045 173.25 269.972C172.298 270.356 171.455 270.758 170.64 271.184C170.26 271.388 169.885 271.592 169.511 271.809C167.126 273.157 164.714 274.758 160.341 276.719C158.491 277.553 156.8 278.221 155.363 278.747C154.278 279.143 153.331 279.452 152.565 279.699C152.317 280.429 150.742 285.301 153.094 289.426C153.859 290.768 154.845 291.689 155.831 292.345C157.087 293.179 158.342 293.569 159.108 293.798C161.107 294.391 162.831 294.323 164.885 293.816C164.758 293.86 164.626 293.903 164.499 293.946C165.281 294.812 166.383 296.098 167.616 297.743C170.056 301.002 174.038 306.301 175.971 313.523C176.197 314.371 176.125 314.235 176.615 317.883C176.863 319.713 177.254 322.502 177.893 326.849C178.763 332.754 178.857 333.125 179.088 333.7C180.101 336.248 181.858 338.134 183.846 339.556C186.903 341.758 190.499 342.846 192.746 343.526C200.544 345.888 206.938 344.942 212.682 344.027C221.692 342.592 228.207 339.779 235.846 336.483C238.759 335.222 243.92 332.6 254.235 327.35C257.578 325.649 260.662 324.054 264.621 321.642C266.207 320.678 270.382 318.087 275.366 314.043C279.838 310.419 282.085 308.564 282.526 306.449C283.511 301.768 279.821 296.197 275.763 293.946ZM264.363 307.81C261.669 309.016 258.481 310.506 254.945 312.262C252.269 313.591 249.939 314.803 247.819 315.935C239.729 320.257 234.667 323.436 225.063 327.548C215.651 331.573 210.65 332.748 205.077 332.309C198.375 331.784 194.321 329.205 193.054 328.339C191.248 327.109 187.553 324.518 185.273 319.602C184.359 317.623 184.265 316.56 184.023 315.026C183.835 313.882 183.56 312.491 182.8 310.271C181.219 305.689 179.237 302.541 177.761 300.198C176.263 297.817 174.132 294.83 171.224 291.739C172.215 291.386 173.3 291.009 174.49 290.619C175.459 290.298 181.049 288.455 184.92 287.639C194.53 285.617 202.637 287.985 211.267 290.619C215.827 292.011 214.169 291.868 229.48 297.965C230.719 298.46 231.875 298.918 232.96 299.338C235.67 300.402 237.922 301.267 239.822 301.972H239.828C243.854 303.456 246.277 304.236 247.984 304.712H248.028C249.135 305.009 249.939 305.176 250.699 305.312C252.39 305.615 254.036 305.831 255.645 305.973C259.318 306.307 262.771 306.251 265.938 305.961C267.21 305.843 268.438 305.689 269.616 305.509C268.207 306.109 266.433 306.87 264.363 307.81Z" fill="#F7931E"/>
<path d="M247.985 304.711C245.65 304.73 243.628 304.569 241.866 304.285H241.861C240.087 304.013 238.589 303.617 237.306 303.178C236.662 302.955 235.505 302.529 233.969 302.145C232.036 301.663 229.497 301.249 226.611 301.416C225.906 301.453 225.179 301.527 224.43 301.651C224.309 301.663 224.188 301.688 224.067 301.706C224.028 301.712 223.984 301.719 223.94 301.731C223.218 301.842 222.442 302.015 221.627 302.275C221.555 302.3 221.484 302.318 221.412 302.343C221.396 302.349 221.374 302.355 221.357 302.362C220.443 302.64 219.694 302.937 219.138 303.178C218.201 302.188 216.709 300.853 214.627 299.901C209.081 297.359 203.706 299.536 200.969 300.643C195.302 302.943 191.585 306.876 186.645 312.107C185.664 313.146 184.789 314.135 184.023 315.026C183.836 313.882 183.561 312.49 182.801 310.27C181.22 305.688 179.237 302.541 177.761 300.197C176.264 297.817 174.132 294.83 171.224 291.738C172.216 291.386 173.301 291.009 174.49 290.619C175.459 290.297 181.049 288.455 184.921 287.638C194.531 285.616 202.638 287.985 211.268 290.619C215.828 292.01 214.17 291.868 229.48 297.965C230.719 298.46 231.876 298.917 232.961 299.338C235.67 300.401 237.923 301.267 239.823 301.972H239.828C243.854 303.456 246.277 304.235 247.985 304.711Z" fill="#753024"/>
<path d="M269.616 305.51C268.206 306.11 266.433 306.87 264.362 307.81C261.669 309.016 258.48 310.506 254.945 312.262C252.268 313.592 249.938 314.804 247.818 315.935C239.728 320.258 234.667 323.436 225.062 327.548C215.65 331.574 210.65 332.749 205.076 332.31C198.374 331.784 194.321 329.205 193.054 328.34C191.248 327.109 187.552 324.518 185.272 319.602C184.358 317.623 184.264 316.56 184.022 315.026C184.787 314.136 185.663 313.147 186.643 312.108C191.583 306.876 195.301 302.944 200.968 300.643C203.705 299.536 209.08 297.36 214.626 299.901C216.708 300.854 218.2 302.189 219.136 303.179C219.693 302.937 220.442 302.641 221.356 302.362C221.372 302.356 221.394 302.35 221.411 302.344C221.482 302.319 221.554 302.301 221.626 302.276C221.967 302.177 222.331 302.078 222.716 301.985C223.129 301.886 223.537 301.8 223.939 301.732C223.983 301.719 224.027 301.713 224.065 301.707C224.186 301.688 224.308 301.664 224.429 301.651C225.266 301.534 226.009 301.478 226.61 301.416C229.495 301.249 232.034 301.664 233.967 302.146C235.504 302.529 236.66 302.956 237.305 303.179C238.588 303.618 240.086 304.013 241.859 304.285H241.865C243.627 304.57 245.648 304.731 247.983 304.712H248.027C249.134 305.009 249.938 305.176 250.698 305.312C252.389 305.615 254.036 305.831 255.644 305.974C259.317 306.307 262.77 306.252 265.937 305.961C267.209 305.844 268.437 305.689 269.616 305.51Z" fill="url(#paint0_linear_11917_52577)"/>
<path d="M210.364 314.482L209.868 314.216C211.383 310.686 213.591 307.396 216.284 304.916C217.744 303.574 219.517 302.993 221.356 302.369L222.265 302.109C220.475 302.715 218.08 304.205 216.659 305.51C214.026 307.934 211.851 311.038 210.364 314.488V314.482Z" fill="#F76B5E"/>
<path d="M257.347 442.624V442.989C243.584 446.65 227.883 448.783 210.651 447.763C197.153 446.959 185.048 444.362 174.606 441.054C172.034 440.089 169.49 439.044 166.978 437.925C166.257 435.05 165.756 430.975 166.901 426.683C169.049 418.675 169.622 422.361 169.622 422.361C169.622 422.361 172.799 407.65 179.353 401.918C184.844 397.107 182.795 399.321 181.986 400.174C186.639 396.019 192.356 393.663 192.356 393.663C199.625 390.67 214.688 384.455 227.905 389.316C227.905 389.316 234.475 391.733 239.107 396.952C239.525 397.416 241.343 399.63 241.541 400.545C241.563 400.65 241.64 401.083 241.949 401.466C242.042 401.578 242.119 401.652 242.362 401.831C243.001 402.332 243.325 402.579 243.419 402.53C243.496 402.481 243.557 402.32 243.513 401.868C243.474 401.51 243.386 400.99 243.193 400.205C243.193 400.205 252.126 410.872 255.568 424.29C257.27 430.925 257.308 436.979 257.347 442.624Z" fill="#6DD38F"/>
<rect x="47" y="37" width="227" height="59" rx="8" fill="white"/>
<path d="M100.744 80V53.8182H112.045C113.988 53.8182 115.689 54.2017 117.146 54.9688C118.604 55.7358 119.737 56.8139 120.547 58.2031C121.356 59.5923 121.761 61.2159 121.761 63.0739C121.761 64.9489 121.344 66.5724 120.508 67.9446C119.682 69.3168 118.518 70.3736 117.018 71.1151C115.527 71.8565 113.784 72.2273 111.79 72.2273H105.04V66.7045H110.358C111.193 66.7045 111.905 66.5597 112.493 66.2699C113.089 65.9716 113.545 65.5497 113.861 65.0043C114.184 64.4588 114.346 63.8153 114.346 63.0739C114.346 62.3239 114.184 61.6847 113.861 61.1562C113.545 60.6193 113.089 60.2102 112.493 59.929C111.905 59.6392 111.193 59.4943 110.358 59.4943H107.852V80H100.744ZM127.901 80H120.23L128.872 53.8182H138.588L147.23 80H139.56L133.833 61.0284H133.628L127.901 80ZM126.469 69.6705H140.889V74.9886H126.469V69.6705ZM156.86 53.8182V80H149.752V53.8182H156.86ZM170.302 80H160.229V53.8182H170.2C172.893 53.8182 175.22 54.3423 177.18 55.3906C179.149 56.4304 180.666 57.9304 181.731 59.8906C182.805 61.8423 183.342 64.1818 183.342 66.9091C183.342 69.6364 182.809 71.9801 181.744 73.9403C180.679 75.892 179.17 77.392 177.219 78.4403C175.267 79.4801 172.961 80 170.302 80ZM167.336 73.9659H170.047C171.342 73.9659 172.446 73.7571 173.358 73.3395C174.278 72.9219 174.977 72.2017 175.454 71.179C175.94 70.1562 176.183 68.733 176.183 66.9091C176.183 65.0852 175.936 63.6619 175.442 62.6392C174.956 61.6165 174.24 60.8963 173.294 60.4787C172.356 60.0611 171.206 59.8523 169.842 59.8523H167.336V73.9659Z" fill="#38C266"/>
</g>
<defs>
<linearGradient id="paint0_linear_11917_52577" x1="184.022" y1="315.558" x2="269.616" y2="315.558" gradientUnits="userSpaceOnUse">
<stop stop-color="#FF5547"/>
<stop offset="1" stop-color="#FF4444"/>
</linearGradient>
<clipPath id="clip0_11917_52577">
<rect width="380" height="400" rx="18" fill="white"/>
</clipPath>
</defs>
</svg>
