<svg xmlns="http://www.w3.org/2000/svg" width="380" height="400" fill="none" viewBox="0 0 380 400"><g clip-path="url(#a)"><rect width="380" height="400" fill="#b4f26a" rx="18"/><path fill="#38c266" d="M322.609 402.851c-2.076-1.824-2.511-2.176-4.46-3.685.627 1.713 2.252 6.313.016 11.724-.997-.791-5.447-5.046-5.447-4.675a81 81 0 0 0-5.083-7c-7.688-9.46-15.778-14.908-21.038-17.864a120 120 0 0 1 9.55 10.518c6.796 8.453 11.879 17.104 15.696 25.112-9.385 6.734-28.473 19.095-54.495 26.008-13.762 3.661-29.464 5.794-46.696 4.774-13.498-.804-25.603-3.401-36.045-6.709-10.618-3.358-19.529-7.452-26.462-11.125 10.381-24.32 18.08-53.686 30.697-71.903 1.118-4.118 2.776-10.963 5.006-18.47-3.75-17.246-9.533-37.652-14.335-67.747-2.385 1.348-4.797 2.949-9.17 4.909a74 74 0 0 1-4.978 2.029c1.817-12.102 8.564-22.298 9.797-24.116a93 93 0 0 1 1.195-18.761c.771-4.613 4.219-23.041 17.904-40.651 5.546-7.13 13.741-17.673 27.851-22.336a45 45 0 0 1 15.117-2.232c-.132-2.974-2.346-6.907-.396-8.935 2.351-2.443 6.471.89 9.654 1.336.606-2.616.936-7.112 3.475-8.033 7.236-2.622 16.246 9.974 27.052 18.316.055.043.104.086.159.124.006 0 .006.006.006.006 16.769 12.936 26.842 20.733 34.051 32.927 3.773 6.382 13.912 26.07 8.751 60.303a52.8 52.8 0 0 1 3.183 13.4c2.115 20.746-8.85 36.266-10.744 38.864-7.529 10.314-16.605 14.686-25.064 18.761a80.5 80.5 0 0 1-18.3 6.257q-1.993 8.933-3.977 17.865c4.109 2.084 8.223 4.167 12.331 6.258a55.9 55.9 0 0 1 23.472.89c10.436 2.659 17.992 7.754 22.282 11.168 4.985 3.679 11.615 15.372 9.445 22.693"/><path fill="#0a6127" d="M281.878 267.616c-1.784 9.535-4.609 18.223-8.079 25.526h-.005c-1.063-.278-2.148-.352-3.641-.538a48 48 0 0 1-2.048-.297c3.926-6.932 7.142-15.824 9.015-25.816 4.747-25.316-.925-48.09-12.667-50.867-11.747-2.776-25.113 15.497-29.86 40.818-.98 5.213-1.515 10.315-1.647 15.156a57 57 0 0 0-2.847-3.432c.314-4.037.859-8.187 1.652-12.398 5.595-29.842 21.352-51.385 35.197-48.114 13.84 3.277 20.526 30.12 14.93 59.962"/><path fill="#fff" d="M264.453 215.625c-11.747-2.777-25.113 15.496-29.86 40.818a96.5 96.5 0 0 0-1.647 15.156 116 116 0 0 1 1.487 1.947c1.658 2.202 2.583 3.834 4.951 6.153 4.18 4.094 8.239 5.819 12.909 7.742 4.042 1.67 9.159 3.784 15.811 4.867 3.927-6.932 7.143-15.824 9.016-25.817 4.747-25.316-.925-48.09-12.667-50.866m1.988 45.196c-2.886 13.319-10.227 22.743-16.406 21.055-6.174-1.682-8.845-13.845-5.959-27.159 2.881-13.313 10.227-22.743 16.401-21.055 6.179 1.688 8.845 13.845 5.964 27.159"/><path fill="#00371d" d="M260.476 233.662c-6.174-1.689-13.521 7.741-16.401 21.055-2.886 13.313-.215 25.476 5.959 27.158 6.179 1.688 13.52-7.736 16.406-21.055 2.88-13.313.215-25.47-5.964-27.158m-1.102 13.956c-1.889 4.186-4.995 6.684-6.939 5.578-1.944-1.101-1.988-5.393-.093-9.579 1.889-4.186 4.995-6.691 6.933-5.584 1.944 1.107 1.988 5.399.099 9.585"/><path fill="#6dd38f" d="m253.157 199.281-.512-.222c.556-1.614 1.917-4.638 4.808-6.716 4.94-3.555 10.315-1.595 11.34-1.162l-.193.581c-.986-.408-6.135-2.288-10.85 1.107-2.759 1.985-4.064 4.872-4.593 6.418zm-54.785-4.297a8.5 8.5 0 0 0-2.115-1.113c-2.958-1.064-5.717-.111-7.093.544l-.215-.569c1.454-.692 4.35-1.688 7.479-.569a9.3 9.3 0 0 1 2.241 1.181l-.297.52z"/><path fill="#0a6127" d="M200.53 225.753c-.38 6.277-1.553 13.475-3.547 20.938-.126.482-.259.965-.396 1.441 2.142-8.527 3.111-16.591 2.963-23.04-.177-7.711-1.955-13.109-5.243-14.216-6.201-2.084-15.421 11.922-20.592 31.289-2.985 11.186-3.971 21.717-3.073 29.019-.38.204-.755.408-1.129.625-1.399-7.94-.43-20.22 3.073-33.33 5.617-21.042 15.63-36.26 22.371-33.991 4.345 1.466 6.267 9.851 5.573 21.265"/><path fill="#00371d" d="M199.55 225.092a5.4 5.4 0 0 0-1.251-.513c-6.173-1.688-13.514 7.742-16.4 21.055-1.928 8.917-1.371 17.32 1.063 22.397a34 34 0 0 1 4.081.154 33 33 0 0 1 3.398-3.37c2.274-4.767 4.372-10.382 6.107-16.528 0-.013 0-.031.011-.044q.018-.056.028-.111c2.142-8.527 3.111-16.591 2.963-23.04m-2.958 8.941c-.721 3.333-2.561 5.695-4.108 5.275-1.548-.42-2.22-3.469-1.498-6.808.727-3.333 2.566-5.701 4.114-5.275 1.547.421 2.214 3.469 1.492 6.808"/><path fill="#fff" d="M199.55 225.092a5.5 5.5 0 0 0-1.25-.514c-6.173-1.688-13.515 7.742-16.4 21.055-1.928 8.917-1.372 17.321 1.063 22.397-4.197.099-7.408 1.015-9.71 1.942-.952.384-1.795.785-2.61 1.212-.898-7.303.088-17.833 3.073-29.02 5.171-19.367 14.39-33.372 20.592-31.288 3.287 1.106 5.066 6.505 5.242 14.216"/><path fill="#fff" d="M196.592 234.033c-.721 3.333-2.561 5.695-4.108 5.274-1.548-.42-2.22-3.469-1.498-6.808.727-3.333 2.566-5.701 4.114-5.274 1.547.42 2.214 3.469 1.492 6.808m62.782 13.585c-1.889 4.187-4.995 6.685-6.939 5.578-1.944-1.101-1.988-5.392-.093-9.578 1.889-4.187 4.995-6.691 6.933-5.584 1.944 1.107 1.988 5.398.099 9.584"/><path fill="#38c266" d="m178.841 358.027-30.697 71.903a170 170 0 0 1-20.674-13.023c-.303-.223-.606-.445-.898-.662 4.059-2.411 6.967-4.99 8.751-6.604 5.188-4.693 14.506-13.109 12.997-22.335-.622-3.809-2.897-6.585-4.775-8.341a18 18 0 0 0 6.367-2.381c3.464-2.096 5.568-4.891 6.63-6.549a17.7 17.7 0 0 0-2.918-4.174c-4.428-4.662-10.007-5.033-11.935-5.058 4.158-.501 8.311-.995 12.469-1.49-4.858-6.672-9.561-11.662-13.262-15.187-5.166-4.922-14.148-13.326-27.85-18.761a72 72 0 0 0-11.527-3.494q-.042-.23-.093-.488a294 294 0 0 1-1.206-6.678 198 198 0 0 1-.882-5.621c-1.833-13.041-3.249-23.096-.704-33.75 1.156-4.854 2.478-13.703 11.846-22.237 14.5 4.341 18.565 14.247 21.043 18.86 3.398 6.326 4.857 13.944 7.782 29.187 2.704 14.099 1.553 13.462 3.359 18.26 4.147 11.056 8.79 10.605 16.621 24.821 4.813 8.744 5.1 12.627 9.015 14.29 3.349 1.429 7.039.885 10.541-.488"/><path fill="#0a6127" d="M98.104 321.525c1.664-2.232 1.917-4.916 1.416-6.783l.694-.037c.435 2.603 1.217 6.659 1.327 7.216-.843-.155-3.442-.396-3.442-.396z"/><path fill="#38c266" d="M176.616 317.883a20 20 0 0 0-.71-.266 38.9 38.9 0 0 1-15.916-15.187c-.298-.513-2.694-4.712-3.977-9.38q-.099-.353-.181-.705c1.255.834 2.511 1.224 3.276 1.453 2 .593 3.723.525 5.777.018-.126.044-.258.087-.385.13a55 55 0 0 1 3.117 3.797c2.44 3.259 6.422 8.558 8.355 15.78.225.848.154.712.644 4.36"/><path stroke="#231f20" stroke-miterlimit="10" d="M239.829 301.972h-.006c-1.9-.705-4.152-1.571-6.862-2.634a422 422 0 0 1-3.481-1.373c-15.31-6.097-13.652-5.955-18.212-7.346-8.63-2.635-16.737-5.003-26.347-2.981-3.871.816-9.461 2.659-10.431 2.981a132 132 0 0 0-3.265 1.119 55.6 55.6 0 0 1 6.537 8.459c1.476 2.344 3.458 5.491 5.039 10.073.76 2.22 1.035 3.611 1.222 4.755a86 86 0 0 1 2.622-2.918c4.94-5.232 8.657-9.164 14.324-11.465 2.737-1.107 8.113-3.283 13.658-.742 2.082.953 3.575 2.288 4.511 3.278a21 21 0 0 1 2.219-.817l.055-.018c.072-.025.143-.044.215-.068.22-.068.424-.118.639-.173.149-.038.297-.081.452-.118q.62-.15 1.222-.253.067-.018.127-.025c.121-.019.242-.043.363-.056.837-.117 1.581-.173 2.181-.235 2.886-.167 5.425.248 7.358.73 1.536.383 2.693.81 3.337 1.033 1.283.439 2.781.834 4.555 1.106h.005c1.763.285 3.784.446 6.119.427-1.707-.476-4.131-1.255-8.156-2.739Z"/><path fill="#0a6127" d="M316.66 413.005a106 106 0 0 1-3.106 2.621q-.836.678-1.713 1.355c-3.816-8.008-8.899-16.659-15.695-25.112-3.2-3.97-6.422-7.457-9.55-10.518 5.259 2.956 13.35 8.403 21.038 17.864a80 80 0 0 1 5.083 7.006 84 84 0 0 1 3.943 6.784m-214.138-90.912c-1.95-.359-2.561-.414-4.417-.569l.49-.711c1.845.179 2.142.247 4.015.569z"/><path fill="#0a6127" d="M145.692 379.7c1.878 1.756 3.47 3.63 3.943 7.464 2.787 13.103-18.108 27.331-22.167 29.743-.302-.223-.605-.445-.897-.662 4.059-2.411 6.966-4.99 8.751-6.604 5.188-4.693 14.506-13.109 12.997-22.335-.622-3.809-2.897-6.585-4.775-8.342a18 18 0 0 0 6.367-2.38c3.464-2.097 5.567-4.891 6.63-6.549-.661-1.298-1.591-2.776-2.919-4.174-4.427-4.662-10.006-5.033-11.934-5.058 4.158-.501 8.311-.995 12.469-1.49-4.858-6.672-9.561-11.662-13.262-15.187-5.166-4.922-14.148-13.326-27.85-18.761a72 72 0 0 0-11.527-3.494q-.042-.23-.093-.488c.66-.025 1.073-.025 1.184 0 3.337.711 6.906 1.422 11.174 3.116 13.702 5.436 22.949 13.468 28.114 18.39 3.701 3.525 9.787 10.605 14.644 17.277-3.75.687-4.075.643-8.398 1.027 3.502.309 8.938 6.159 10.067 8.243-1.063 1.657-3.117 8.335-12.518 10.264"/><path fill="#38c266" d="M156.541 370.036c-1.063 1.657-3.166 4.452-6.63 6.548a18 18 0 0 1-6.367 2.381c1.878 1.756 4.153 4.532 4.775 8.341 1.509 9.226-7.809 17.642-12.997 22.336-1.785 1.613-4.692 4.192-8.751 6.604-3.36 1.997-7.507 3.877-12.469 5.008-3.502.798-24.16 5.491-37.394-9.529-5.078-5.763-7.242-12.361-8.222-16.38l-2.92-.594v-19.057c-2.125-2.387-6.36-7.81-7.957-16.084-2.776-14.426 4.747-25.699 6.366-27.993 5.899-8.366 13.587-11.186 20.421-13.697 6.097-2.238 10.899-2.974 15.129-3.178.699 1.849.187 5.145-1.416 6.783.837.013 1.272-.018 3.409.347a72 72 0 0 1 11.527 3.493c13.702 5.436 22.684 13.839 27.85 18.761 3.701 3.525 8.404 8.515 13.262 15.187-4.158.495-8.311.99-12.469 1.49 1.928.025 7.507.396 11.934 5.059 1.328 1.397 2.258 2.875 2.919 4.174"/><path fill="#0a6127" d="m229.601 348.943-1.525-.167c4.174-.464 11.989-1.361 16.142-2.016a276 276 0 0 0 14.836-2.777l-.264 1.188a262 262 0 0 1-14.611 2.726c-4.158.662-10.177.897-14.578 1.046"/><path fill="#f7931e" d="M275.763 293.946a8.7 8.7 0 0 0-1.967-.804h-.005c-1.063-.278-2.148-.352-3.64-.538q-1.05-.129-2.049-.297c-6.653-1.082-11.769-3.196-15.811-4.866-4.671-1.923-8.729-3.648-12.909-7.742-2.369-2.319-3.294-3.951-4.951-6.153-.436-.581-.931-1.236-1.487-1.947a56 56 0 0 0-2.848-3.432c-3.508-3.927-8.365-8.187-14.583-9.913-4.835-1.341-9.417-.859-13.195.223-4.621 1.311-8.041 3.512-9.264 4.347-.682.464-1.316.94-1.911 1.416-.242.192-.479.39-.704.575a33 33 0 0 0-3.398 3.37 34 34 0 0 0-4.081-.154c-4.197.099-7.408 1.014-9.71 1.941a29 29 0 0 0-3.739 1.837c-2.385 1.348-4.797 2.949-9.17 4.91a74 74 0 0 1-4.978 2.028 75 75 0 0 1-2.798.952c-.248.73-1.823 5.602.529 9.727a8.55 8.55 0 0 0 2.737 2.919c1.256.834 2.511 1.224 3.277 1.453 1.999.593 3.723.525 5.777.018-.127.044-.259.087-.386.13a54 54 0 0 1 3.117 3.797c2.44 3.259 6.422 8.558 8.355 15.78.226.848.154.712.644 4.36.248 1.83.639 4.619 1.278 8.966.87 5.905.964 6.276 1.195 6.851 1.013 2.548 2.77 4.434 4.758 5.856 3.057 2.202 6.653 3.29 8.9 3.97 7.798 2.362 14.192 1.416 19.936.501 9.01-1.435 15.525-4.248 23.164-7.544 2.913-1.261 8.074-3.883 18.389-9.133 3.343-1.701 6.427-3.296 10.386-5.708 1.586-.964 5.761-3.555 10.745-7.599 4.472-3.624 6.719-5.479 7.16-7.594.985-4.681-2.705-10.252-6.763-12.503m-11.4 13.864a268 268 0 0 0-16.544 8.125c-8.09 4.322-13.152 7.501-22.756 11.613-9.412 4.025-14.413 5.2-19.986 4.761-6.702-.525-10.756-3.104-12.023-3.97-1.806-1.23-5.501-3.821-7.781-8.737-.914-1.979-1.008-3.042-1.25-4.576-.188-1.144-.463-2.535-1.223-4.755-1.581-4.582-3.563-7.73-5.039-10.073a55.5 55.5 0 0 0-6.537-8.459c.991-.353 2.076-.73 3.266-1.12.969-.321 6.559-2.164 10.43-2.98 9.61-2.022 17.717.346 26.347 2.98 4.56 1.392 2.902 1.249 18.213 7.346 1.239.495 2.395.953 3.48 1.373a398 398 0 0 0 6.862 2.634h.006c4.026 1.484 6.449 2.264 8.156 2.74h.044a31 31 0 0 0 2.671.6c1.691.303 3.337.519 4.946.661 3.673.334 7.126.278 10.293-.012 1.272-.118 2.5-.272 3.678-.452a235 235 0 0 0-5.253 2.301"/><path fill="#753024" d="M247.985 304.711c-2.335.019-4.357-.142-6.119-.426h-.005a26.3 26.3 0 0 1-4.555-1.107c-.644-.223-1.801-.649-3.337-1.033-1.933-.482-4.472-.896-7.358-.729-.705.037-1.432.111-2.181.235-.121.012-.242.037-.363.055a1 1 0 0 0-.127.025c-.722.111-1.498.284-2.313.544-.072.025-.143.043-.215.068-.016.006-.038.012-.055.019-.914.278-1.663.575-2.219.816-.937-.99-2.429-2.325-4.511-3.277-5.546-2.542-10.921-.365-13.658.742-5.667 2.3-9.384 6.233-14.324 11.464a84 84 0 0 0-2.622 2.919c-.187-1.144-.462-2.536-1.222-4.756-1.581-4.582-3.564-7.729-5.04-10.073a55.5 55.5 0 0 0-6.537-8.459 142 142 0 0 1 3.266-1.119c.969-.322 6.559-2.164 10.431-2.981 9.61-2.022 17.717.347 26.347 2.981 4.56 1.391 2.902 1.249 18.212 7.346a378 378 0 0 0 3.481 1.373 403 403 0 0 0 6.862 2.634h.005c4.026 1.484 6.449 2.263 8.157 2.739"/><path fill="url(#b)" d="M269.616 305.51c-1.41.6-3.183 1.36-5.254 2.3a262 262 0 0 0-9.417 4.452 273 273 0 0 0-7.127 3.673c-8.09 4.323-13.151 7.501-22.756 11.613-9.412 4.026-14.412 5.201-19.986 4.762-6.702-.526-10.755-3.105-12.022-3.97-1.806-1.231-5.502-3.822-7.782-8.738-.914-1.979-1.008-3.042-1.25-4.576a85 85 0 0 1 2.621-2.918c4.94-5.232 8.658-9.164 14.325-11.465 2.737-1.107 8.112-3.283 13.658-.742 2.082.953 3.574 2.288 4.51 3.278a21 21 0 0 1 2.22-.817l.055-.018c.071-.025.143-.043.215-.068q.512-.15 1.09-.291.62-.15 1.223-.253.068-.018.126-.025c.121-.019.243-.043.364-.056.837-.117 1.58-.173 2.181-.235 2.885-.167 5.424.248 7.357.73 1.537.383 2.693.81 3.338 1.033 1.283.439 2.781.834 4.554 1.106h.006c1.762.285 3.783.446 6.118.427h.044a31 31 0 0 0 2.671.6 56 56 0 0 0 4.946.662c3.673.333 7.126.278 10.293-.013 1.272-.117 2.5-.272 3.679-.451"/><path fill="#f76b5e" d="m210.364 314.482-.496-.266c1.515-3.53 3.723-6.82 6.416-9.3 1.46-1.342 3.233-1.923 5.072-2.547l.909-.26c-1.79.606-4.185 2.096-5.606 3.401-2.633 2.424-4.808 5.528-6.295 8.978z"/><path fill="#6dd38f" d="M257.347 442.624v.365c-13.763 3.661-29.464 5.794-46.696 4.774-13.498-.804-25.603-3.401-36.045-6.709a137 137 0 0 1-7.628-3.129c-.721-2.875-1.222-6.95-.077-11.242 2.148-8.008 2.721-4.322 2.721-4.322s3.177-14.711 9.731-20.443c5.491-4.811 3.442-2.597 2.633-1.744 4.653-4.155 10.37-6.511 10.37-6.511 7.269-2.993 22.332-9.208 35.549-4.347 0 0 6.57 2.417 11.202 7.636.418.464 2.236 2.678 2.434 3.593.022.105.099.538.408.921.093.112.17.186.413.365.639.501.963.748 1.057.699.077-.049.138-.21.094-.662-.039-.358-.127-.878-.32-1.663 0 0 8.933 10.667 12.375 24.085 1.702 6.635 1.74 12.689 1.779 18.334"/><rect width="227" height="59" x="47" y="37" fill="#fff" rx="8"/><path fill="#38c266" d="M100.744 80V53.818h11.301q2.915 0 5.101 1.15 2.187 1.152 3.401 3.235 1.214 2.085 1.214 4.87 0 2.814-1.253 4.872-1.24 2.058-3.49 3.17-2.237 1.112-5.228 1.112h-6.75v-5.523h5.318q1.253 0 2.135-.434a3.2 3.2 0 0 0 1.368-1.266q.485-.818.485-1.93 0-1.126-.485-1.918a3.05 3.05 0 0 0-1.368-1.227q-.882-.435-2.135-.435h-2.506V80zm27.157 0h-7.671l8.642-26.182h9.716L147.23 80h-7.67l-5.727-18.972h-.205zm-1.432-10.33h14.42v5.319h-14.42zm30.391-15.852V80h-7.108V53.818zM170.302 80h-10.073V53.818h9.971q4.04 0 6.98 1.573a10.83 10.83 0 0 1 4.551 4.5q1.611 2.926 1.611 7.018 0 4.09-1.598 7.031a10.97 10.97 0 0 1-4.525 4.5Q174.291 80 170.302 80m-2.966-6.034h2.711q1.943 0 3.311-.626 1.38-.627 2.096-2.161.729-1.534.729-4.27t-.741-4.27q-.729-1.535-2.148-2.16-1.406-.627-3.452-.627h-2.506z"/></g><defs><linearGradient id="b" x1="184.022" x2="269.616" y1="315.558" y2="315.558" gradientUnits="userSpaceOnUse"><stop stop-color="#ff5547"/><stop offset="1" stop-color="#f44"/></linearGradient><clipPath id="a"><rect width="380" height="400" fill="#fff" rx="18"/></clipPath></defs></svg>