<svg xmlns="http://www.w3.org/2000/svg" width="335" height="315" fill="none" viewBox="0 0 335 315"><g clip-path="url(#a)"><rect width="335" height="314.062" fill="#b4f26a" rx="18.844"/><path fill="#38c266" d="M284.406 316.301c-1.83-1.432-2.214-1.709-3.932-2.893.553 1.345 1.985 4.957.014 9.205-.879-.622-4.802-3.962-4.802-3.671a64 64 0 0 0-4.481-5.496 63.8 63.8 0 0 0-18.546-14.026 100 100 0 0 1 8.418 8.259 99.2 99.2 0 0 1 13.837 19.716c-8.273 5.287-25.1 14.993-48.041 20.421-12.133 2.874-25.974 4.549-41.166 3.748a145.3 145.3 0 0 1-31.776-5.268 150 150 0 0 1-23.329-8.734c9.152-19.095 15.939-42.152 27.062-56.455.986-3.234 2.447-8.608 4.413-14.502-3.306-13.541-8.404-29.563-12.637-53.193-2.103 1.059-4.229 2.316-8.084 3.855a69 69 0 0 1-4.389 1.593c1.602-9.502 7.549-17.508 8.637-18.935a65 65 0 0 1 1.054-14.731c.679-3.621 3.719-18.09 15.783-31.917 4.89-5.598 12.114-13.876 24.553-17.536 5.394-1.583 10.127-1.816 13.327-1.753-.117-2.335-2.068-5.423-.35-7.016 2.073-1.918 5.705.699 8.511 1.049.534-2.054.826-5.583 3.064-6.307 6.379-2.058 14.322 7.831 23.848 14.381.049.034.092.068.141.097.005 0 .005.005.005.005 14.783 10.157 23.663 16.279 30.019 25.853 3.325 5.011 12.264 20.469 7.714 47.347a37.8 37.8 0 0 1 2.807 10.521c1.864 16.289-7.802 28.475-9.473 30.514-6.636 8.099-14.638 11.531-22.095 14.731a77.2 77.2 0 0 1-16.134 4.913q-1.756 7.013-3.505 14.026c3.622 1.636 7.249 3.273 10.871 4.914a55.2 55.2 0 0 1 20.692.699 55.2 55.2 0 0 1 19.644 8.768c4.394 2.889 10.239 12.07 8.326 17.818"/><path fill="#0a6127" d="M248.5 210.121c-1.573 7.486-4.064 14.307-7.122 20.041h-.005c-.937-.218-1.894-.276-3.209-.422a49 49 0 0 1-1.806-.233c3.461-5.443 6.297-12.424 7.947-20.27 4.185-19.877-.815-37.758-11.166-39.938-10.356-2.18-22.14 12.167-26.325 32.048a68 68 0 0 0-1.451 11.9 46 46 0 0 0-2.51-2.694 81 81 0 0 1 1.456-9.735c4.933-23.43 18.823-40.346 31.029-37.777 12.201 2.573 18.095 23.649 13.162 47.08"/><path fill="#fff" d="M233.135 169.299c-10.356-2.18-22.139 12.167-26.324 32.048a68 68 0 0 0-1.452 11.9c.491.559.928 1.073 1.311 1.53 1.462 1.728 2.277 3.01 4.365 4.83 3.685 3.214 7.263 4.569 11.38 6.079 3.564 1.311 8.074 2.971 13.939 3.821 3.462-5.443 6.297-12.424 7.948-20.27 4.185-19.877-.816-37.758-11.167-39.938m1.753 35.486c-2.544 10.458-9.016 17.857-14.463 16.531-5.443-1.32-7.798-10.87-5.253-21.323 2.539-10.453 9.015-17.857 14.458-16.532 5.447 1.326 7.797 10.871 5.258 21.324"/><path fill="#00371d" d="M229.631 183.461c-5.443-1.326-11.919 6.078-14.458 16.531-2.544 10.453-.19 20.003 5.253 21.324 5.447 1.325 11.919-6.074 14.463-16.532 2.539-10.453.189-19.998-5.258-21.323m-.971 10.958c-1.665 3.287-4.404 5.248-6.117 4.379-1.714-.864-1.753-4.234-.083-7.52 1.665-3.287 4.404-5.254 6.113-4.385 1.713.87 1.752 4.239.087 7.526"/><path fill="#6dd38f" d="m223.178 156.467-.451-.175c.49-1.267 1.689-3.641 4.238-5.273 4.355-2.791 9.094-1.252 9.997-.912l-.17.456c-.869-.32-5.409-1.796-9.565.869-2.432 1.559-3.583 3.826-4.049 5.04zm-48.299-3.374a8 8 0 0 0-1.865-.874c-2.607-.835-5.039-.087-6.253.427l-.189-.446c1.282-.544 3.835-1.326 6.593-.447a8.6 8.6 0 0 1 1.976.927l-.262.408z"/><path fill="#0a6127" d="M176.784 177.252c-.335 4.927-1.369 10.579-3.127 16.439q-.167.57-.349 1.131c1.888-6.695 2.743-13.026 2.612-18.09-.156-6.054-1.724-10.293-4.622-11.162-5.467-1.636-13.595 9.361-18.153 24.567-2.632 8.783-3.501 17.051-2.71 22.785-.335.16-.665.32-.995.49-1.233-6.234-.379-15.876 2.709-26.169 4.952-16.522 13.779-28.47 19.722-26.688 3.83 1.151 5.525 7.734 4.913 16.697"/><path fill="#00371d" d="M175.921 176.733a5.2 5.2 0 0 0-1.102-.403c-5.443-1.326-11.915 6.078-14.459 16.531-1.699 7.001-1.209 13.599.937 17.585a33 33 0 0 1 3.598.122 28 28 0 0 1 2.996-2.646c2.005-3.744 3.855-8.152 5.384-12.978 0-.01 0-.024.01-.034q.015-.043.024-.087c1.888-6.696 2.743-13.027 2.612-18.09m-2.607 7.02c-.636 2.617-2.258 4.472-3.622 4.141-1.364-.33-1.957-2.723-1.321-5.345.641-2.617 2.263-4.476 3.627-4.141 1.364.33 1.952 2.723 1.316 5.345"/><path fill="#fff" d="M175.919 176.732a5.2 5.2 0 0 0-1.102-.403c-5.443-1.325-11.915 6.079-14.459 16.532-1.699 7.001-1.209 13.599.937 17.585-3.699.077-6.53.796-8.559 1.524a27 27 0 0 0-2.301.952c-.792-5.734.077-14.002 2.709-22.785 4.559-15.206 12.686-26.203 18.153-24.567 2.898.869 4.467 5.108 4.622 11.162"/><path fill="#fff" d="M173.312 183.752c-.636 2.617-2.258 4.472-3.622 4.142-1.365-.33-1.957-2.724-1.321-5.346.641-2.616 2.263-4.476 3.627-4.141 1.364.33 1.952 2.724 1.316 5.345m55.346 10.667c-1.665 3.287-4.404 5.249-6.117 4.38-1.714-.865-1.753-4.234-.083-7.521 1.665-3.287 4.404-5.253 6.113-4.384 1.714.869 1.752 4.238.087 7.525"/><path fill="#38c266" d="m157.664 281.107-27.063 56.455a153 153 0 0 1-19.017-10.744c3.578-1.894 6.142-3.918 7.715-5.185 4.573-3.685 12.788-10.293 11.458-17.537-.549-2.991-2.554-5.171-4.21-6.549a17.2 17.2 0 0 0 5.613-1.87 17.4 17.4 0 0 0 5.845-5.141 14 14 0 0 0-2.573-3.277c-3.903-3.661-8.822-3.952-10.521-3.972 3.666-.393 7.326-.782 10.992-1.17a91.7 91.7 0 0 0-11.691-11.924c-4.554-3.865-12.473-10.463-24.552-14.73a69 69 0 0 0-10.162-2.744q-.037-.18-.083-.383a213 213 0 0 1-1.063-5.244 140 140 0 0 1-.776-4.413c-1.617-10.239-2.865-18.134-.622-26.499 1.02-3.811 2.185-10.759 10.443-17.459 12.784 3.408 16.367 11.186 18.552 14.808 2.995 4.967 4.282 10.948 6.86 22.916 2.384 11.07 1.369 10.57 2.961 14.337 3.656 8.681 7.749 8.327 14.653 19.489 4.243 6.865 4.496 9.914 7.948 11.22 2.952 1.121 6.205.694 9.293-.384"/><path fill="#0a6127" d="M86.487 252.448c1.466-1.753 1.69-3.86 1.248-5.326l.611-.03a239 239 0 0 0 1.17 5.666c-.743-.121-3.034-.31-3.034-.31z"/><path fill="#38c266" d="M155.701 249.588a18 18 0 0 0-.627-.209c-3.214-1.471-9.472-4.904-14.031-11.924-.262-.403-2.374-3.7-3.505-7.365a12 12 0 0 1-.16-.554c1.107.656 2.214.962 2.888 1.141 1.763.466 3.282.413 5.093.015l-.339.102c.689.679 1.66 1.689 2.748 2.981 2.15 2.558 5.661 6.719 7.365 12.39.199.665.136.558.568 3.423"/><path stroke="#231f20" stroke-miterlimit="10" stroke-width="1.047" d="M211.426 237.095h-.005a377 377 0 0 1-6.049-2.068c-.957-.33-1.976-.69-3.069-1.078-13.497-4.787-12.035-4.675-16.055-5.768-7.608-2.068-14.755-3.928-23.227-2.34-3.413.641-8.341 2.088-9.196 2.34-1.048.306-2.005.602-2.879.879a44.5 44.5 0 0 1 5.763 6.642c1.301 1.84 3.049 4.311 4.443 7.909.67 1.743.912 2.835 1.078 3.733a68 68 0 0 1 2.311-2.291c4.355-4.108 7.632-7.196 12.628-9.002 2.413-.869 7.151-2.578 12.04-.582a12.9 12.9 0 0 1 3.977 2.573c.49-.19 1.15-.423 1.956-.641l.049-.015c.063-.019.126-.034.189-.053.194-.053.374-.092.563-.136.131-.029.262-.063.398-.092q.546-.118 1.078-.199.06-.014.112-.02c.107-.014.213-.034.32-.043.738-.093 1.394-.136 1.923-.185 2.544-.131 4.782.194 6.486.573 1.355.301 2.374.636 2.942.811a25.6 25.6 0 0 0 4.016.869h.004c1.554.223 3.336.349 5.395.335-1.506-.374-3.642-.986-7.191-2.151Z"/><path fill="#0a6127" d="M279.161 324.273a91 91 0 0 1-2.739 2.059q-.736.532-1.51 1.063a99.2 99.2 0 0 0-13.837-19.716 100 100 0 0 0-8.418-8.259 63.8 63.8 0 0 1 18.546 14.026 63 63 0 0 1 4.481 5.501 65 65 0 0 1 3.477 5.326M90.38 252.893c-1.72-.281-2.258-.325-3.894-.446l.432-.559c1.626.141 1.889.195 3.54.447z"/><path fill="#0a6127" d="M128.439 298.124c1.656 1.379 3.059 2.85 3.476 5.86 2.457 10.288-15.963 21.46-19.541 23.353-.267-.174-.535-.349-.792-.519 3.578-1.894 6.142-3.918 7.715-5.185 4.573-3.685 12.788-10.293 11.458-17.537-.549-2.991-2.554-5.171-4.209-6.549a17.2 17.2 0 0 0 5.612-1.87 17.4 17.4 0 0 0 5.846-5.141 14 14 0 0 0-2.574-3.277c-3.903-3.661-8.821-3.952-10.521-3.972 3.666-.393 7.327-.781 10.992-1.17a91.7 91.7 0 0 0-11.691-11.924c-4.554-3.865-12.472-10.463-24.552-14.73a69 69 0 0 0-10.162-2.743q-.037-.181-.082-.384c.582-.019.947-.019 1.044 0 2.942.558 6.088 1.117 9.851 2.447 12.079 4.268 20.231 10.574 24.785 14.439 3.262 2.767 8.627 8.326 12.91 13.565-3.307.539-3.593.505-7.404.806 3.087.243 7.879 4.836 8.875 6.472-.937 1.301-2.748 6.545-11.036 8.059"/><path fill="#38c266" d="M138.004 290.536a17.4 17.4 0 0 1-5.846 5.141 17.2 17.2 0 0 1-5.612 1.87c1.655 1.378 3.66 3.558 4.209 6.549 1.33 7.244-6.885 13.852-11.458 17.537-1.573 1.267-4.137 3.291-7.715 5.185a40.7 40.7 0 0 1-10.992 3.932c-3.088.627-21.3 4.312-32.966-7.481-4.476-4.525-6.384-9.706-7.248-12.861l-2.574-.466v-14.964c-1.874-1.874-5.607-6.132-7.015-12.628-2.447-11.327 4.185-20.178 5.612-21.979 5.2-6.569 11.978-8.783 18.003-10.754 5.374-1.757 9.608-2.335 13.337-2.495.616 1.451.165 4.039-1.248 5.326.738.009 1.122-.015 3.005.271a69 69 0 0 1 10.162 2.744c12.079 4.267 19.998 10.865 24.552 14.73a91.7 91.7 0 0 1 11.691 11.924c-3.665.388-7.326.777-10.992 1.17 1.7.02 6.618.311 10.521 3.972a14 14 0 0 1 2.574 3.277"/><path fill="#0a6127" d="m202.41 273.974-1.345-.131c3.681-.364 10.57-1.068 14.231-1.583a268 268 0 0 0 13.079-2.18l-.233.933c-4.33.835-8.511 1.524-12.88 2.141-3.666.519-8.973.704-12.852.82"/><path fill="#f7931e" d="M243.107 230.794a8.2 8.2 0 0 0-1.733-.631h-.005c-.937-.219-1.894-.277-3.209-.423a47 47 0 0 1-1.806-.233c-5.865-.849-10.376-2.51-13.939-3.821-4.117-1.51-7.696-2.864-11.381-6.078-2.087-1.821-2.903-3.103-4.364-4.831a96 96 0 0 0-1.311-1.53 47 47 0 0 0-2.51-2.694c-3.093-3.083-7.375-6.428-12.857-7.783-4.262-1.053-8.302-.675-11.632.175a30.5 30.5 0 0 0-8.167 3.413c-.602.364-1.16.738-1.684 1.112-.214.15-.423.306-.622.451a28 28 0 0 0-2.995 2.646 33 33 0 0 0-3.598-.121c-3.7.078-6.53.796-8.56 1.525a27 27 0 0 0-3.296 1.442c-2.102 1.058-4.229 2.315-8.084 3.854a69 69 0 0 1-4.389 1.593c-.956.311-1.791.553-2.466.748-.219.573-1.607 4.398.466 7.637.675 1.053 1.544 1.777 2.413 2.291 1.107.656 2.214.962 2.889 1.141 1.762.466 3.282.413 5.093.015l-.34.102c.689.679 1.66 1.689 2.748 2.981 2.151 2.558 5.661 6.719 7.365 12.39.199.665.136.558.568 3.423a566 566 0 0 0 1.126 7.04c.767 4.636.85 4.928 1.054 5.379.893 2 2.442 3.481 4.195 4.598 2.694 1.728 5.865 2.583 7.845 3.117 6.875 1.855 12.512 1.112 17.576.393 7.943-1.126 13.686-3.335 20.42-5.923 2.569-.991 7.118-3.049 16.212-7.171 2.947-1.335 5.665-2.588 9.156-4.481a87 87 0 0 0 9.473-5.967c3.942-2.845 5.923-4.302 6.311-5.962.869-3.676-2.384-8.05-5.962-9.817m-10.05 10.885a250 250 0 0 0-14.585 6.379c-7.132 3.394-11.594 5.89-20.061 9.118-8.297 3.161-12.706 4.083-17.619 3.739-5.909-.413-9.482-2.438-10.599-3.117-1.592-.966-4.85-3.001-6.86-6.86-.806-1.554-.888-2.389-1.102-3.593-.165-.898-.408-1.991-1.078-3.734-1.393-3.597-3.141-6.069-4.442-7.909a44.7 44.7 0 0 0-5.763-6.642c.874-.276 1.83-.572 2.879-.878.854-.253 5.782-1.7 9.195-2.34 8.473-1.588 15.619.271 23.227 2.34 4.02 1.092 2.559.98 16.056 5.768 1.092.388 2.112.747 3.068 1.077 2.389.835 4.375 1.515 6.05 2.069h.005c3.549 1.165 5.685 1.777 7.19 2.15h.039c.976.234 1.685.365 2.355.471a56 56 0 0 0 13.434.51 62 62 0 0 0 3.243-.354 221 221 0 0 0-4.632 1.806"/><path fill="#753024" d="M218.617 239.247c-2.058.014-3.84-.112-5.394-.335h-.005a25.5 25.5 0 0 1-4.015-.87c-.568-.174-1.587-.509-2.942-.81-1.704-.379-3.942-.704-6.486-.573-.622.029-1.263.087-1.923.184-.107.01-.214.029-.32.044q-.052.006-.112.019c-.636.088-1.321.224-2.039.428l-.19.053-.048.015c-.806.218-1.466.451-1.957.64a13 13 0 0 0-3.976-2.573c-4.889-1.995-9.628-.286-12.041.583-4.996 1.806-8.273 4.894-12.628 9.001a70 70 0 0 0-2.311 2.292c-.165-.898-.408-1.991-1.078-3.734-1.393-3.597-3.141-6.069-4.442-7.909a44.6 44.6 0 0 0-5.763-6.641c.874-.277 1.83-.573 2.879-.879.855-.253 5.782-1.699 9.196-2.34 8.472-1.588 15.618.272 23.226 2.34 4.02 1.092 2.559.981 16.056 5.768 1.093.388 2.112.747 3.069 1.077 2.388.836 4.374 1.515 6.049 2.069h.005c3.549 1.165 5.685 1.777 7.19 2.151"/><path fill="url(#b)" d="M237.687 239.873a219 219 0 0 0-4.631 1.806 244 244 0 0 0-8.303 3.496 253 253 0 0 0-6.282 2.884c-7.132 3.394-11.594 5.889-20.061 9.118-8.298 3.161-12.706 4.083-17.619 3.738-5.909-.412-9.482-2.437-10.599-3.117-1.593-.966-4.85-3-6.86-6.86-.806-1.554-.889-2.389-1.103-3.593a69 69 0 0 1 2.312-2.291c4.355-4.108 7.632-7.195 12.628-9.002 2.413-.869 7.151-2.578 12.04-.582a12.9 12.9 0 0 1 3.977 2.573 20 20 0 0 1 1.956-.641l.049-.014c.063-.02.126-.034.189-.054q.451-.118.961-.228.546-.118 1.078-.199.06-.014.112-.02c.107-.014.213-.034.32-.043.738-.092 1.394-.136 1.923-.185 2.544-.131 4.782.194 6.486.573 1.355.301 2.374.636 2.942.811a25.6 25.6 0 0 0 4.016.869h.004c1.554.223 3.336.35 5.394.335h.039c.976.233 1.685.364 2.355.471a55 55 0 0 0 4.36.519c3.238.263 6.282.219 9.074-.009a61 61 0 0 0 3.243-.355"/><path fill="#f76b5e" d="m185.452 246.918-.437-.208c1.336-2.773 3.282-5.356 5.657-7.303 1.286-1.053 2.85-1.509 4.471-2l.801-.204c-1.578.476-3.69 1.646-4.942 2.671a21 21 0 0 0-5.55 7.049z"/><path fill="#6dd38f" d="M226.871 347.529v.287c-12.133 2.874-25.975 4.549-41.167 3.748a145.3 145.3 0 0 1-31.776-5.268 129 129 0 0 1-6.724-2.456c-.636-2.258-1.078-5.458-.068-8.827 1.893-6.287 2.398-3.394 2.398-3.394s2.801-11.55 8.579-16.051c4.84-3.777 3.034-2.039 2.321-1.369 4.102-3.262 9.142-5.112 9.142-5.112 6.409-2.35 19.687-7.229 31.339-3.413 0 0 5.793 1.898 9.876 5.996.369.364 1.971 2.102 2.146 2.821.019.082.087.422.359.723.082.087.15.146.364.286.563.394.85.588.932.549.068-.039.122-.165.083-.519-.034-.282-.112-.69-.282-1.306 0 0 7.875 8.375 10.909 18.91 1.501 5.21 1.535 9.963 1.569 14.395"/><rect width="237.641" height="61.766" x="49.203" y="38.734" fill="#fff" rx="8.375"/><path fill="#38c266" d="M105.467 83.484V56.075h11.83q3.053 0 5.34 1.205 2.29 1.204 3.56 3.386 1.272 2.181 1.272 5.099 0 2.944-1.312 5.099-1.298 2.155-3.653 3.319-2.342 1.164-5.474 1.164h-7.067v-5.781h5.568q1.311 0 2.235-.455a3.33 3.33 0 0 0 1.432-1.325q.508-.857.508-2.021 0-1.177-.508-2.008a3.2 3.2 0 0 0-1.432-1.285q-.924-.455-2.235-.455h-2.623v21.467zm28.429 0h-8.03l9.047-27.409h10.172l9.047 27.41h-8.03l-5.996-19.861h-.214zm-1.499-10.813h15.097v5.567h-15.097zm31.816-16.596v27.41h-7.441v-27.41zm14.072 27.41h-10.546v-27.41h10.439q4.23 0 7.308 1.646a11.33 11.33 0 0 1 4.764 4.711q1.686 3.066 1.686 7.348 0 4.283-1.673 7.36a11.5 11.5 0 0 1-4.737 4.712q-3.065 1.632-7.241 1.632m-3.105-6.318h2.838q2.034 0 3.466-.655 1.446-.656 2.195-2.262.763-1.605.763-4.47t-.777-4.47q-.762-1.606-2.248-2.262-1.472-.656-3.613-.656h-2.624z"/></g><defs><linearGradient id="b" x1="162.229" x2="237.687" y1="247.763" y2="247.763" gradientUnits="userSpaceOnUse"><stop stop-color="#ff5547"/><stop offset="1" stop-color="#f44"/></linearGradient><clipPath id="a"><rect width="335" height="314.062" fill="#fff" rx="18.844"/></clipPath></defs></svg>