<svg width="335" height="315" viewBox="0 0 335 315" fill="none" xmlns="http://www.w3.org/2000/svg">
<g clip-path="url(#clip0_11917_54705)">
<rect width="335" height="314.062" rx="18.8438" fill="#B4F26A"/>
<path d="M284.406 316.301C282.576 314.869 282.192 314.592 280.474 313.408C281.027 314.753 282.459 318.365 280.488 322.613C279.609 321.991 275.686 318.651 275.686 318.942C274.371 317.131 272.885 315.291 271.205 313.446C264.427 306.018 257.295 301.741 252.659 299.42C255.416 301.823 258.257 304.562 261.077 307.679C267.069 314.316 271.55 321.108 274.914 327.395C266.641 332.682 249.814 342.388 226.873 347.816C214.74 350.69 200.899 352.365 185.707 351.564C173.807 350.933 163.136 348.893 153.931 346.296C144.57 343.66 136.714 340.446 130.602 337.562C139.754 318.467 146.541 295.41 157.664 281.107C158.65 277.873 160.111 272.499 162.077 266.605C158.771 253.064 153.673 237.042 149.44 213.412C147.337 214.471 145.211 215.728 141.356 217.267C139.725 217.923 138.234 218.447 136.967 218.86C138.569 209.358 144.516 201.352 145.604 199.925C145.454 196.371 145.526 191.229 146.658 185.194C147.337 181.573 150.377 167.104 162.441 153.277C167.331 147.679 174.555 139.401 186.994 135.741C192.388 134.158 197.121 133.925 200.321 133.988C200.204 131.653 198.253 128.565 199.971 126.972C202.044 125.054 205.676 127.671 208.482 128.021C209.016 125.967 209.308 122.438 211.546 121.714C217.925 119.656 225.868 129.545 235.394 136.095C235.443 136.129 235.486 136.163 235.535 136.192C235.54 136.192 235.54 136.197 235.54 136.197C250.323 146.354 259.203 152.476 265.559 162.05C268.884 167.061 277.823 182.519 273.273 209.397C274.322 211.854 275.565 215.451 276.08 219.918C277.944 236.207 268.278 248.393 266.607 250.432C259.971 258.531 251.969 261.963 244.512 265.163C238.064 267.93 232.369 269.323 228.378 270.076C227.208 274.751 226.038 279.427 224.873 284.102C228.495 285.738 232.122 287.375 235.744 289.016C240.249 288.312 247.653 287.724 256.436 289.715C265.636 291.803 272.298 295.803 276.08 298.483C280.474 301.372 286.319 310.553 284.406 316.301Z" fill="#38C266"/>
<path d="M248.5 210.121C246.927 217.607 244.436 224.428 241.378 230.162H241.373C240.436 229.944 239.479 229.886 238.164 229.74C237.547 229.672 236.945 229.594 236.358 229.507C239.819 224.064 242.655 217.083 244.305 209.237C248.49 189.36 243.49 171.479 233.139 169.299C222.783 167.119 210.999 181.466 206.814 201.347C205.95 205.44 205.479 209.446 205.363 213.247C204.644 212.417 203.809 211.494 202.853 210.553C203.129 207.382 203.61 204.124 204.309 200.818C209.242 177.388 223.132 160.472 235.338 163.041C247.539 165.614 253.433 186.69 248.5 210.121Z" fill="#0A6127"/>
<path d="M233.135 169.299C222.779 167.119 210.996 181.466 206.811 201.347C205.947 205.44 205.476 209.446 205.359 213.247C205.85 213.806 206.287 214.32 206.67 214.777C208.132 216.505 208.947 217.787 211.035 219.607C214.72 222.821 218.298 224.176 222.415 225.686C225.979 226.997 230.489 228.657 236.354 229.507C239.816 224.064 242.651 217.083 244.302 209.237C248.487 189.36 243.486 171.479 233.135 169.299ZM234.888 204.785C232.344 215.243 225.872 222.642 220.425 221.316C214.982 219.996 212.627 210.446 215.172 199.993C217.711 189.54 224.187 182.136 229.63 183.461C235.077 184.787 237.427 194.332 234.888 204.785Z" fill="white"/>
<path d="M229.631 183.461C224.188 182.135 217.712 189.539 215.173 199.992C212.629 210.445 214.983 219.995 220.426 221.316C225.873 222.641 232.345 215.242 234.889 204.784C237.428 194.331 235.078 184.786 229.631 183.461ZM228.66 194.419C226.995 197.706 224.256 199.667 222.543 198.798C220.829 197.934 220.79 194.564 222.46 191.278C224.125 187.991 226.864 186.024 228.573 186.893C230.286 187.763 230.325 191.132 228.66 194.419Z" fill="#00371D"/>
<path d="M223.178 156.467L222.727 156.292C223.217 155.025 224.416 152.651 226.965 151.019C231.32 148.228 236.059 149.767 236.962 150.107L236.792 150.563C235.923 150.243 231.383 148.767 227.227 151.432C224.795 152.991 223.644 155.258 223.178 156.472V156.467Z" fill="#6DD38F"/>
<path d="M174.879 153.093C174.291 152.719 173.665 152.423 173.014 152.219C170.407 151.384 167.975 152.132 166.761 152.646L166.572 152.2C167.854 151.656 170.407 150.874 173.165 151.753C173.854 151.972 174.52 152.287 175.141 152.68L174.879 153.088V153.093Z" fill="#6DD38F"/>
<path d="M176.784 177.252C176.449 182.179 175.415 187.831 173.657 193.691C173.546 194.07 173.429 194.448 173.308 194.822C175.196 188.127 176.051 181.796 175.92 176.732C175.764 170.678 174.196 166.439 171.298 165.57C165.831 163.934 157.703 174.931 153.145 190.137C150.513 198.92 149.644 207.188 150.435 212.922C150.1 213.082 149.77 213.242 149.44 213.412C148.207 207.178 149.061 197.536 152.149 187.243C157.101 170.721 165.928 158.773 171.871 160.555C175.701 161.706 177.396 168.289 176.784 177.252Z" fill="#0A6127"/>
<path d="M175.921 176.733C175.571 176.558 175.202 176.422 174.819 176.33C169.376 175.004 162.904 182.408 160.36 192.861C158.661 199.862 159.151 206.46 161.297 210.446C162.419 210.422 163.613 210.456 164.895 210.568C165.652 209.796 166.643 208.873 167.891 207.922C169.896 204.178 171.746 199.77 173.275 194.944C173.275 194.934 173.275 194.92 173.285 194.91C173.294 194.881 173.304 194.852 173.309 194.823C175.197 188.127 176.052 181.796 175.921 176.733ZM173.314 183.753C172.678 186.37 171.056 188.225 169.692 187.894C168.328 187.564 167.735 185.171 168.371 182.549C169.012 179.932 170.634 178.073 171.998 178.408C173.362 178.738 173.95 181.131 173.314 183.753Z" fill="#00371D"/>
<path d="M175.919 176.732C175.569 176.557 175.2 176.421 174.817 176.329C169.374 175.004 162.902 182.408 160.358 192.861C158.659 199.862 159.149 206.46 161.295 210.446C157.596 210.523 154.765 211.242 152.736 211.97C151.896 212.271 151.153 212.587 150.435 212.922C149.643 207.188 150.512 198.92 153.144 190.137C157.703 174.931 165.83 163.934 171.297 165.57C174.195 166.439 175.764 170.678 175.919 176.732Z" fill="white"/>
<path d="M173.312 183.752C172.676 186.369 171.054 188.224 169.69 187.894C168.325 187.564 167.733 185.17 168.369 182.548C169.01 179.932 170.632 178.072 171.996 178.407C173.36 178.737 173.948 181.131 173.312 183.752Z" fill="white"/>
<path d="M228.658 194.419C226.993 197.706 224.254 199.668 222.541 198.799C220.827 197.934 220.788 194.565 222.458 191.278C224.123 187.991 226.862 186.025 228.571 186.894C230.285 187.763 230.323 191.132 228.658 194.419Z" fill="white"/>
<path d="M157.664 281.107C148.643 299.926 139.622 318.744 130.601 337.562C123.377 334.134 117.269 330.542 112.375 327.337C112.108 327.163 111.841 326.988 111.584 326.818C115.162 324.924 117.726 322.9 119.299 321.633C123.872 317.948 132.087 311.34 130.757 304.096C130.208 301.105 128.203 298.925 126.547 297.547C127.946 297.338 129.975 296.857 132.16 295.677C135.214 294.031 137.068 291.837 138.005 290.536C137.423 289.516 136.602 288.356 135.432 287.259C131.529 283.598 126.61 283.307 124.911 283.287C128.577 282.894 132.237 282.505 135.903 282.117C131.621 276.878 127.475 272.96 124.212 270.193C119.658 266.328 111.739 259.73 99.6598 255.463C95.8971 254.132 92.4403 253.278 89.4981 252.719C89.4738 252.598 89.4447 252.472 89.4155 252.336C89.1437 251.083 88.7504 249.19 88.3523 247.092C88.0804 245.67 87.8085 244.155 87.5755 242.679C85.9587 232.44 84.711 224.545 86.954 216.18C87.9736 212.369 89.1388 205.421 97.3973 198.721C110.181 202.129 113.764 209.907 115.949 213.529C118.944 218.496 120.231 224.477 122.809 236.445C125.193 247.515 124.178 247.015 125.77 250.782C129.426 259.463 133.519 259.109 140.423 270.271C144.666 277.136 144.919 280.185 148.371 281.491C151.323 282.612 154.576 282.185 157.664 281.107Z" fill="#38C266"/>
<path d="M86.4868 252.448C87.953 250.695 88.1764 248.588 87.7345 247.122L88.3463 247.092C88.7298 249.136 89.4193 252.321 89.5164 252.758C88.7735 252.637 86.4819 252.448 86.4819 252.448H86.4868Z" fill="#0A6127"/>
<path d="M155.701 249.588C155.497 249.515 155.288 249.447 155.074 249.379C151.86 247.908 145.602 244.475 141.043 237.455C140.781 237.052 138.669 233.755 137.538 230.09C137.48 229.905 137.426 229.721 137.378 229.536C138.485 230.192 139.592 230.498 140.266 230.677C142.029 231.143 143.548 231.09 145.359 230.692C145.248 230.726 145.131 230.76 145.02 230.794C145.709 231.473 146.68 232.483 147.768 233.775C149.918 236.333 153.429 240.494 155.133 246.165C155.332 246.83 155.269 246.723 155.701 249.588Z" fill="#38C266"/>
<path d="M211.426 237.095H211.421C209.746 236.542 207.761 235.862 205.372 235.027C204.415 234.697 203.396 234.337 202.303 233.949C188.806 229.162 190.268 229.274 186.248 228.181C178.64 226.113 171.493 224.253 163.021 225.841C159.608 226.482 154.68 227.929 153.825 228.181C152.777 228.487 151.82 228.783 150.946 229.06C153.51 231.487 155.389 233.832 156.709 235.702C158.01 237.542 159.758 240.013 161.152 243.611C161.822 245.354 162.064 246.446 162.23 247.344C162.904 246.645 163.676 245.868 164.541 245.053C168.896 240.945 172.173 237.857 177.169 236.051C179.582 235.182 184.32 233.473 189.209 235.469C191.044 236.216 192.36 237.265 193.186 238.042C193.676 237.852 194.336 237.619 195.142 237.401C195.157 237.396 195.176 237.391 195.191 237.386C195.254 237.367 195.317 237.352 195.38 237.333C195.574 237.28 195.754 237.241 195.943 237.197C196.074 237.168 196.205 237.134 196.341 237.105C196.705 237.027 197.065 236.959 197.419 236.906C197.458 236.896 197.497 236.891 197.531 236.886C197.638 236.872 197.744 236.852 197.851 236.843C198.589 236.75 199.245 236.707 199.774 236.658C202.318 236.527 204.556 236.852 206.26 237.231C207.615 237.532 208.634 237.867 209.202 238.042C210.334 238.387 211.654 238.697 213.218 238.911H213.222C214.776 239.134 216.558 239.26 218.617 239.246C217.111 238.872 214.975 238.26 211.426 237.095Z" stroke="#231F20" stroke-width="1.04688" stroke-miterlimit="10"/>
<path d="M279.161 324.273C278.296 324.948 277.384 325.638 276.422 326.332C275.932 326.686 275.427 327.041 274.912 327.395C271.548 321.108 267.067 314.315 261.075 307.679C258.255 304.562 255.414 301.823 252.657 299.42C257.293 301.741 264.425 306.018 271.203 313.446C272.883 315.291 274.374 317.136 275.684 318.947C277.01 320.773 278.161 322.564 279.161 324.273Z" fill="#0A6127"/>
<path d="M90.3796 252.893C88.6609 252.612 88.122 252.568 86.4858 252.447L86.9179 251.888C88.5444 252.029 88.8066 252.083 90.4573 252.335L90.3796 252.893Z" fill="#0A6127"/>
<path d="M128.439 298.124C130.095 299.503 131.498 300.974 131.915 303.984C134.372 314.272 115.952 325.444 112.374 327.337C112.107 327.163 111.839 326.988 111.582 326.818C115.16 324.924 117.724 322.9 119.297 321.633C123.87 317.948 132.085 311.34 130.755 304.096C130.206 301.105 128.201 298.925 126.546 297.547C127.944 297.338 129.973 296.857 132.158 295.677C135.212 294.031 137.067 291.837 138.004 290.536C137.421 289.516 136.6 288.356 135.43 287.259C131.527 283.598 126.609 283.307 124.909 283.287C128.575 282.894 132.236 282.506 135.901 282.117C131.619 276.878 127.473 272.96 124.21 270.193C119.656 266.328 111.738 259.73 99.6581 255.463C95.8954 254.132 92.4385 253.278 89.4964 252.72C89.4721 252.598 89.4429 252.472 89.4138 252.336C89.9964 252.317 90.3606 252.317 90.4577 252.336C93.3998 252.894 96.5459 253.453 100.309 254.783C112.388 259.051 120.54 265.357 125.094 269.222C128.356 271.989 133.721 277.548 138.004 282.787C134.697 283.326 134.411 283.292 130.6 283.593C133.687 283.836 138.479 288.429 139.475 290.065C138.538 291.366 136.727 296.61 128.439 298.124Z" fill="#0A6127"/>
<path d="M138.004 290.536C137.066 291.837 135.212 294.031 132.158 295.677C129.973 296.857 127.944 297.338 126.546 297.547C128.201 298.925 130.206 301.105 130.755 304.096C132.085 311.34 123.87 317.948 119.297 321.633C117.724 322.9 115.16 324.924 111.582 326.818C108.621 328.386 104.965 329.862 100.59 330.75C97.5024 331.377 79.2909 335.062 67.6242 323.269C63.1478 318.744 61.2397 313.563 60.3755 310.408C59.5162 310.252 58.6617 310.097 57.8023 309.942V294.978C55.9283 293.104 52.1947 288.846 50.7867 282.35C48.3398 271.023 54.9718 262.172 56.3992 260.371C61.599 253.802 68.3767 251.588 74.4019 249.617C79.7765 247.86 84.0101 247.282 87.7388 247.122C88.3554 248.573 87.9039 251.161 86.491 252.448C87.229 252.457 87.6126 252.433 89.4963 252.719C92.4385 253.278 95.8953 254.132 99.658 255.463C111.737 259.73 119.656 266.328 124.21 270.193C127.473 272.96 131.619 276.878 135.901 282.117C132.236 282.505 128.575 282.894 124.909 283.287C126.609 283.307 131.527 283.598 135.43 287.259C136.6 288.356 137.421 289.516 138.004 290.536Z" fill="#38C266"/>
<path d="M202.41 273.974L201.065 273.843C204.746 273.479 211.635 272.775 215.296 272.26C219.656 271.644 224.054 270.911 228.375 270.08L228.142 271.013C223.812 271.848 219.631 272.537 215.262 273.154C211.596 273.673 206.289 273.858 202.41 273.974Z" fill="#0A6127"/>
<path d="M243.107 230.794C242.486 230.488 241.932 230.299 241.374 230.163H241.369C240.432 229.944 239.475 229.886 238.16 229.74C237.543 229.672 236.941 229.595 236.354 229.507C230.489 228.658 225.978 226.997 222.415 225.686C218.298 224.176 214.719 222.822 211.034 219.608C208.947 217.787 208.131 216.505 206.67 214.777C206.286 214.32 205.849 213.806 205.359 213.247C204.64 212.417 203.805 211.495 202.849 210.553C199.756 207.47 195.474 204.125 189.992 202.77C185.73 201.717 181.69 202.095 178.36 202.945C174.286 203.974 171.271 205.703 170.193 206.358C169.591 206.722 169.033 207.096 168.509 207.47C168.295 207.62 168.086 207.776 167.887 207.921C166.639 208.873 165.649 209.796 164.892 210.567C163.61 210.456 162.416 210.422 161.294 210.446C157.594 210.524 154.764 211.242 152.734 211.971C151.895 212.272 151.152 212.587 150.433 212.922C150.098 213.082 149.768 213.243 149.438 213.413C147.336 214.471 145.209 215.728 141.354 217.267C139.723 217.923 138.232 218.447 136.965 218.86C136.009 219.171 135.174 219.413 134.499 219.608C134.28 220.181 132.892 224.006 134.965 227.245C135.64 228.298 136.509 229.022 137.378 229.536C138.485 230.192 139.592 230.498 140.267 230.677C142.029 231.143 143.549 231.09 145.36 230.692C145.248 230.726 145.131 230.76 145.02 230.794C145.709 231.473 146.68 232.483 147.768 233.775C149.919 236.333 153.429 240.494 155.133 246.165C155.332 246.83 155.269 246.723 155.701 249.588C155.919 251.025 156.264 253.215 156.827 256.628C157.594 261.264 157.677 261.556 157.881 262.007C158.774 264.007 160.323 265.488 162.076 266.605C164.77 268.333 167.941 269.188 169.921 269.722C176.796 271.577 182.433 270.834 187.497 270.115C195.44 268.989 201.183 266.78 207.917 264.192C210.486 263.201 215.035 261.143 224.129 257.021C227.076 255.686 229.794 254.433 233.285 252.54C234.683 251.782 238.364 249.748 242.758 246.573C246.7 243.728 248.681 242.271 249.069 240.611C249.938 236.935 246.685 232.561 243.107 230.794ZM233.057 241.679C230.683 242.626 227.872 243.796 224.755 245.175C222.395 246.218 220.342 247.17 218.472 248.058C211.34 251.452 206.878 253.948 198.411 257.176C190.114 260.337 185.705 261.259 180.792 260.915C174.883 260.502 171.31 258.477 170.193 257.798C168.601 256.832 165.343 254.797 163.333 250.938C162.527 249.384 162.445 248.549 162.231 247.345C162.066 246.447 161.823 245.354 161.153 243.611C159.76 240.014 158.012 237.542 156.711 235.702C155.39 233.833 153.511 231.488 150.948 229.06C151.822 228.784 152.778 228.488 153.827 228.182C154.681 227.929 159.609 226.482 163.022 225.842C171.495 224.254 178.641 226.113 186.249 228.182C190.269 229.274 188.808 229.162 202.305 233.95C203.397 234.338 204.417 234.697 205.373 235.027C207.762 235.862 209.748 236.542 211.423 237.096H211.428C214.977 238.261 217.113 238.873 218.618 239.246H218.657C219.633 239.48 220.342 239.611 221.012 239.717C222.502 239.955 223.954 240.125 225.371 240.237C228.61 240.499 231.654 240.455 234.446 240.227C235.567 240.135 236.65 240.014 237.689 239.873C236.446 240.344 234.883 240.941 233.057 241.679Z" fill="#F7931E"/>
<path d="M218.617 239.247C216.559 239.261 214.777 239.135 213.223 238.912H213.218C211.655 238.698 210.334 238.387 209.203 238.042C208.635 237.868 207.616 237.533 206.261 237.232C204.557 236.853 202.319 236.528 199.775 236.659C199.153 236.688 198.512 236.746 197.852 236.843C197.745 236.853 197.638 236.872 197.532 236.887C197.498 236.892 197.459 236.897 197.42 236.906C196.784 236.994 196.099 237.13 195.381 237.334C195.318 237.353 195.255 237.368 195.191 237.387C195.177 237.392 195.157 237.397 195.143 237.402C194.337 237.62 193.677 237.853 193.186 238.042C192.361 237.266 191.045 236.217 189.21 235.469C184.321 233.474 179.582 235.183 177.169 236.052C172.173 237.858 168.896 240.946 164.541 245.053C163.677 245.869 162.905 246.646 162.23 247.345C162.065 246.447 161.822 245.354 161.152 243.611C159.759 240.014 158.011 237.542 156.71 235.702C155.389 233.833 153.511 231.488 150.947 229.061C151.821 228.784 152.777 228.488 153.826 228.182C154.681 227.929 159.608 226.483 163.022 225.842C171.494 224.254 178.64 226.114 186.248 228.182C190.268 229.274 188.807 229.163 202.304 233.95C203.397 234.338 204.416 234.697 205.373 235.027C207.761 235.863 209.747 236.542 211.422 237.096H211.427C214.976 238.261 217.112 238.873 218.617 239.247Z" fill="#753024"/>
<path d="M237.687 239.873C236.444 240.344 234.881 240.941 233.056 241.679C230.681 242.626 227.87 243.796 224.753 245.175C222.394 246.219 220.34 247.171 218.471 248.059C211.339 251.453 206.877 253.948 198.41 257.177C190.112 260.338 185.704 261.26 180.791 260.915C174.882 260.503 171.309 258.478 170.192 257.798C168.599 256.832 165.342 254.798 163.332 250.938C162.526 249.384 162.443 248.549 162.229 247.345C162.904 246.646 163.676 245.869 164.541 245.054C168.896 240.946 172.173 237.859 177.169 236.052C179.582 235.183 184.32 233.474 189.209 235.47C191.044 236.217 192.36 237.266 193.186 238.043C193.676 237.854 194.336 237.621 195.142 237.402C195.157 237.397 195.176 237.392 195.191 237.388C195.254 237.368 195.317 237.354 195.38 237.334C195.681 237.256 196.001 237.179 196.341 237.106C196.705 237.028 197.065 236.96 197.419 236.907C197.458 236.897 197.497 236.892 197.531 236.887C197.638 236.873 197.744 236.853 197.851 236.844C198.589 236.752 199.245 236.708 199.774 236.659C202.318 236.528 204.556 236.853 206.26 237.232C207.615 237.533 208.634 237.868 209.202 238.043C210.334 238.388 211.654 238.698 213.218 238.912H213.222C214.776 239.135 216.558 239.262 218.616 239.247H218.655C219.631 239.48 220.34 239.611 221.01 239.718C222.501 239.956 223.952 240.126 225.37 240.237C228.608 240.5 231.652 240.456 234.444 240.228C235.566 240.136 236.648 240.014 237.687 239.873Z" fill="url(#paint0_linear_11917_54705)"/>
<path d="M185.452 246.918L185.015 246.71C186.351 243.937 188.297 241.354 190.672 239.407C191.958 238.354 193.522 237.898 195.143 237.407L195.944 237.203C194.366 237.679 192.254 238.849 191.002 239.874C188.681 241.777 186.763 244.214 185.452 246.923V246.918Z" fill="#F76B5E"/>
<path d="M226.871 347.529V347.816C214.738 350.69 200.896 352.365 185.704 351.564C173.805 350.933 163.133 348.894 153.928 346.296C151.661 345.539 149.417 344.718 147.204 343.84C146.568 341.582 146.126 338.382 147.136 335.013C149.029 328.726 149.534 331.619 149.534 331.619C149.534 331.619 152.335 320.069 158.113 315.568C162.953 311.791 161.147 313.529 160.434 314.199C164.536 310.937 169.576 309.087 169.576 309.087C175.985 306.737 189.263 301.858 200.915 305.674C200.915 305.674 206.708 307.572 210.791 311.67C211.16 312.034 212.762 313.772 212.937 314.491C212.956 314.573 213.024 314.913 213.296 315.214C213.378 315.301 213.446 315.36 213.66 315.5C214.223 315.894 214.51 316.088 214.592 316.049C214.66 316.01 214.714 315.884 214.675 315.53C214.641 315.248 214.563 314.84 214.393 314.224C214.393 314.224 222.268 322.599 225.302 333.134C226.803 338.344 226.837 343.097 226.871 347.529Z" fill="#6DD38F"/>
<rect x="49.2031" y="38.7344" width="237.641" height="61.7656" rx="8.375" fill="white"/>
<path d="M105.467 83.4844V56.0753H117.297C119.332 56.0753 121.112 56.4768 122.637 57.2798C124.163 58.0828 125.35 59.2114 126.197 60.6658C127.045 62.1201 127.469 63.8198 127.469 65.7648C127.469 67.7277 127.032 69.4274 126.157 70.8639C125.292 72.3004 124.074 73.4067 122.504 74.1829C120.942 74.9592 119.118 75.3473 117.03 75.3473H109.963V69.5657H115.531C116.405 69.5657 117.15 69.414 117.766 69.1107C118.39 68.7984 118.868 68.3567 119.198 67.7857C119.537 67.2147 119.706 66.5411 119.706 65.7648C119.706 64.9797 119.537 64.3105 119.198 63.7573C118.868 63.1952 118.39 62.767 117.766 62.4725C117.15 62.1692 116.405 62.0175 115.531 62.0175H112.908V83.4844H105.467ZM133.896 83.4844H125.866L134.913 56.0753H145.085L154.132 83.4844H146.102L140.106 63.6235H139.892L133.896 83.4844ZM132.397 72.6706H147.494V78.2381H132.397V72.6706ZM164.213 56.0753V83.4844H156.772V56.0753H164.213ZM178.285 83.4844H167.739V56.0753H178.178C180.998 56.0753 183.433 56.624 185.486 57.7214C187.547 58.8099 189.135 60.3803 190.25 62.4324C191.374 64.4756 191.936 66.9247 191.936 69.7798C191.936 72.6349 191.379 75.0886 190.263 77.1407C189.148 79.1839 187.569 80.7542 185.526 81.8516C183.483 82.9401 181.069 83.4844 178.285 83.4844ZM175.18 77.1674H178.018C179.374 77.1674 180.529 76.9488 181.484 76.5117C182.448 76.0745 183.179 75.3205 183.679 74.2499C184.187 73.1792 184.442 71.6892 184.442 69.7798C184.442 67.8705 184.183 66.3805 183.665 65.3098C183.157 64.2391 182.407 63.4852 181.417 63.048C180.436 62.6108 179.231 62.3922 177.804 62.3922H175.18V77.1674Z" fill="#38C266"/>
</g>
<defs>
<linearGradient id="paint0_linear_11917_54705" x1="162.229" y1="247.763" x2="237.687" y2="247.763" gradientUnits="userSpaceOnUse">
<stop stop-color="#FF5547"/>
<stop offset="1" stop-color="#FF4444"/>
</linearGradient>
<clipPath id="clip0_11917_54705">
<rect width="335" height="314.062" rx="18.8438" fill="white"/>
</clipPath>
</defs>
</svg>
