<svg xmlns="http://www.w3.org/2000/svg" width="40" height="40" fill="none" viewBox="0 0 40 40"><path fill="#6563ff" d="M30.512 20.368A8.28 8.28 0 0 1 25 22.5c-.453 0-.895-.042-1.327-.113-.045-.04-.098-.069-.143-.109A13.27 13.27 0 0 1 28.333 32.5a1.667 1.667 0 0 1-1.666 1.667h10a1.667 1.667 0 0 0 1.666-1.667 13.33 13.33 0 0 0-7.821-12.132"/><path fill="#d8d8ff" d="M15 22.5a8.333 8.333 0 1 1 0-16.667A8.333 8.333 0 0 1 15 22.5"/><path fill="#d8d8ff" d="M15 22.5a8.333 8.333 0 1 1 0-16.667A8.333 8.333 0 0 1 15 22.5"/><path fill="#b2b1ff" d="M20.512 20.368A8.28 8.28 0 0 1 15 22.5a8.27 8.27 0 0 1-5.515-2.128A13.33 13.33 0 0 0 1.667 32.5a1.667 1.667 0 0 0 1.666 1.667h23.334a1.667 1.667 0 0 0 1.666-1.667 13.33 13.33 0 0 0-7.821-12.132"/><path fill="#8c8aff" d="M25 5.833c-1.883 0-3.603.65-5 1.705.58.44 1.099.954 1.545 1.529.39.49.721 1.025.99 1.591.07.152.142.302.203.459q.243.6.389 1.25c.021.1.036.205.056.308.089.483.15.98.15 1.492 0 .525-.06 1.033-.155 1.528-.015.073-.021.15-.038.222q-.141.622-.378 1.215c-.06.156-.119.313-.189.466-.14.3-.3.587-.471.867a8.3 8.3 0 0 1-1.592 1.905 13.2 13.2 0 0 1 3.163 2.017c.434.071.874.113 1.327.113a8.334 8.334 0 0 0 0-16.667"/></svg>