<svg xmlns="http://www.w3.org/2000/svg" width="18" height="18" fill="none" viewBox="0 0 18 18"><path fill="#6563ff" d="M13.73 9.166a3.73 3.73 0 0 1-2.48.959q-.306-.002-.597-.051c-.02-.018-.044-.03-.064-.049a5.97 5.97 0 0 1 2.161 4.6.75.75 0 0 1-.75.75h4.5a.75.75 0 0 0 .75-.75 6 6 0 0 0-3.52-5.46"/><path fill="#d8d8ff" d="M6.75 10.125a3.75 3.75 0 1 1 0-7.5 3.75 3.75 0 0 1 0 7.5"/><path fill="#d8d8ff" d="M6.75 10.125a3.75 3.75 0 1 1 0-7.5 3.75 3.75 0 0 1 0 7.5"/><path fill="#b2b1ff" d="M9.23 9.166a3.73 3.73 0 0 1-2.48.959 3.72 3.72 0 0 1-2.481-.958A6 6 0 0 0 .75 14.625a.75.75 0 0 0 .75.75H12a.75.75 0 0 0 .75-.75 6 6 0 0 0-3.52-5.46"/><path fill="#8c8aff" d="M11.25 2.625c-.848 0-1.621.293-2.25.767.26.198.495.43.695.688q.264.333.446.716.048.101.091.207.11.27.175.562.014.068.025.139c.04.217.068.44.068.671 0 .236-.027.465-.07.688l-.017.1q-.064.28-.17.546-.039.106-.085.21a4 4 0 0 1-.212.39 3.7 3.7 0 0 1-.716.857 6 6 0 0 1 1.423.908q.292.05.597.051a3.75 3.75 0 0 0 0-7.5"/></svg>