<svg width="13" height="13" viewBox="0 0 13 13" fill="none" xmlns="http://www.w3.org/2000/svg">
<path d="M6.61 0.282459L8.23 3.52246C8.32 3.61246 8.41 3.70246 8.59 3.79246L12.1 4.33246C12.46 4.42246 12.64 4.87246 12.37 5.14246L9.85 7.66246C9.76 7.75246 9.67 7.93246 9.76 8.02246L10.39 11.5325C10.48 11.8925 10.03 12.1625 9.76 11.9825L6.61 10.3625C6.52 10.2725 6.34 10.2725 6.16 10.3625L3.01 11.9825C2.65 12.1625 2.29 11.8925 2.38 11.5325L3.01 8.02246C3.01 7.84246 3.01 7.75246 2.92 7.66246L0.13 4.96246C-0.14 4.69246 0.04 4.24246 0.4 4.24246L3.91 3.70246C4.09 3.70246 4.18 3.61246 4.27 3.43246L5.89 0.19246C5.98 -0.0775405 6.52 -0.0775406 6.61 0.282459Z" fill="url(#paint0_linear_11917_54051)"/>
<defs>
<linearGradient id="paint0_linear_11917_54051" x1="0.0067" y1="5.95246" x2="12.4933" y2="5.95246" gradientUnits="userSpaceOnUse">
<stop stop-color="#FFC80B"/>
<stop offset="1" stop-color="#E89318"/>
</linearGradient>
</defs>
</svg>
