<svg xmlns="http://www.w3.org/2000/svg" width="13" height="13" fill="none" viewBox="0 0 13 13"><path fill="url(#a)" d="m6.61.282 1.62 3.24c.09.09.18.18.36.27l3.51.54c.36.09.54.54.27.81l-2.52 2.52c-.09.09-.18.27-.09.36l.63 3.51c.09.36-.36.63-.63.45l-3.15-1.62c-.09-.09-.27-.09-.45 0l-3.15 1.62c-.36.18-.72-.09-.63-.45l.63-3.51c0-.18 0-.27-.09-.36l-2.79-2.7c-.27-.27-.09-.72.27-.72l3.51-.54c.18 0 .27-.09.36-.27L5.89.192c.09-.27.63-.27.72.09"/><defs><linearGradient id="a" x1=".007" x2="12.493" y1="5.952" y2="5.952" gradientUnits="userSpaceOnUse"><stop stop-color="#ffc80b"/><stop offset="1" stop-color="#e89318"/></linearGradient></defs></svg>