<svg xmlns="http://www.w3.org/2000/svg" width="335" height="315" fill="none" viewBox="0 0 335 315"><g clip-path="url(#a)"><rect width="335" height="314.062" fill="#2fd566" fill-opacity=".2" rx="18.844"/><path fill="#52b46d" d="M303.979 158.288h22.713l-72.255-100.71h-41.594l2.22 93.425v158.996l88.766 11.133z"/><path fill="#3e8452" d="M303.98 158.289h-41.596l-.395 93.234.258 73.138 41.583-3.529z"/><path fill="#51d776" d="M262.382 158.288h22.714l-72.254-100.71-59.998 92.996 20.624.429v175.616l88.778 14.662z"/><path fill="#075430" d="M103.641 336.047c52.035 0 94.218-47.573 94.218-106.258s-42.183-106.258-94.218-106.258-94.22 47.573-94.22 106.258 42.184 106.258 94.22 106.258"/><path fill="#38c266" d="M121.438 336.047c52.035 0 94.218-47.573 94.218-106.258s-42.183-106.258-94.218-106.258-94.22 47.573-94.22 106.258 42.184 106.258 94.22 106.258"/><path fill="#fff" d="m81.746 286.398 69.282-108.429h18.476l-69.282 108.429zm7.748-51.761q-7.599 0-12.813-3.569-5.216-3.719-8.046-10.114-2.682-6.397-2.682-14.725 0-8.627 2.98-14.874 2.98-6.248 8.344-9.519 5.512-3.421 12.813-3.421 7.599 0 12.813 3.718 5.215 3.57 7.897 9.966t2.682 14.576q0 8.923-2.98 15.171t-8.492 9.519q-5.364 3.272-12.516 3.272m.15-15.171q1.34 0 2.681-.446 1.342-.446 2.086-3.123.894-2.826.894-9.371 0-6.544-.894-9.222-.745-2.677-2.086-3.123a8.5 8.5 0 0 0-2.682-.446q-1.191 0-2.533.446-1.191.446-2.086 3.123-.894 2.529-.894 9.222 0 4.908.447 7.586.597 2.678 1.341 3.867.894 1.041 1.788 1.338 1.043.15 1.937.149m71.665 67.378q-7.599 0-12.814-3.719t-8.045-10.114q-2.682-6.396-2.682-14.576 0-8.776 2.98-15.022 3.13-6.248 8.492-9.519 5.513-3.421 12.665-3.421 7.599 0 12.813 3.718 5.215 3.57 7.897 9.965 2.682 6.396 2.682 14.577 0 8.924-2.98 15.319-2.98 6.247-8.344 9.52t-12.664 3.272m.298-15.32q1.34 0 2.533-.446 1.34-.447 2.086-3.124.894-2.826.894-9.37t-.894-9.222q-.745-2.678-2.086-3.123a7.2 7.2 0 0 0-2.533-.446q-1.192 0-2.533.446-1.341.445-2.235 3.123-.894 2.529-.894 9.222 0 6.544.894 9.37.894 2.677 2.235 3.124 1.34.446 2.533.446"/><path fill="#d7f7f6" d="m204.141 262.533 21.536-5.892 23.983 3.866-21.534 4.977z"/><path fill="#dceeed" d="m204.141 262.533 23.985 2.951v52.618l-23.985-3.882z"/><path fill="#c2e1dc" d="m228.125 234.27 23.983 2.951v84.766l-23.983-3.885z"/><path fill="#dceeed" d="m252.109 262.533 23.983 2.951v60.325l-23.983-3.885z"/><path fill="#63a099" d="m297.627 260.507-21.534 4.977v60.325l21.534-5.891z"/><path fill="#d7f7f6" d="m252.109 262.533 21.534-5.892 23.983 3.866-21.534 4.977z"/><path fill="#63a099" d="m273.643 232.244-21.534 4.977v25.312l21.534-5.893z"/><path fill="#d7f7f6" d="m228.125 234.27 22.757-4.87 22.76 2.844-21.534 4.977z"/></g><defs><clipPath id="a"><rect width="335" height="314.062" fill="#fff" rx="18.844"/></clipPath></defs></svg>