<svg xmlns="http://www.w3.org/2000/svg" width="380" height="400" fill="none" viewBox="0 0 380 400"><g clip-path="url(#a)"><rect width="380" height="400" fill="#2fd566" fill-opacity=".2" rx="18"/><path fill="#52b46d" d="M344.812 201.601h25.764L288.615 73.333h-47.181l2.518 118.989v202.502l100.69 14.18z"/><path fill="#3e8452" d="M344.811 201.601h-47.183l-.448 118.747.293 93.15 47.169-4.494z"/><path fill="#51d776" d="M297.628 201.601h25.764L241.433 73.333l-68.058 118.443 23.395.546v223.671l100.703 18.674z"/><path fill="#075430" d="M117.562 428c59.026 0 106.876-60.591 106.876-135.333 0-74.743-47.85-135.334-106.876-135.334-59.025 0-106.874 60.591-106.874 135.334S58.538 428 117.562 428"/><path fill="#38c266" d="M137.75 428c59.025 0 106.875-60.591 106.875-135.333 0-74.743-47.85-135.334-106.875-135.334S30.875 217.924 30.875 292.667 78.725 428 137.75 428"/><path fill="#fff" d="M78.086 273.574 144.266 170h17.648l-66.18 103.574zm7.4-49.443q-7.257 0-12.239-3.41-4.98-3.552-7.685-9.661Q63 204.95 63 196.995q0-8.241 2.846-14.208t7.97-9.093q5.266-3.268 12.24-3.268 7.26 0 12.24 3.552 4.981 3.41 7.543 9.519 2.562 6.11 2.562 13.924 0 8.524-2.847 14.492-2.845 5.967-8.112 9.092-5.123 3.126-11.955 3.126m.143-14.492q1.281 0 2.562-.426t1.992-2.983q.854-2.7.854-8.951t-.854-8.809q-.711-2.558-1.992-2.984a8.1 8.1 0 0 0-2.562-.426q-1.138 0-2.42.426-1.137.426-1.992 2.984-.854 2.415-.854 8.809 0 4.688.427 7.246.57 2.557 1.281 3.694.855.995 1.708 1.278.996.142 1.85.142M154.086 274q-7.259 0-12.24-3.552t-7.685-9.661q-2.562-6.11-2.562-13.924 0-8.382 2.847-14.349 2.988-5.967 8.112-9.093 5.266-3.268 12.097-3.268 7.258 0 12.24 3.552 4.981 3.41 7.543 9.519 2.562 6.11 2.562 13.924 0 8.525-2.846 14.633-2.847 5.969-7.97 9.093Q161.06 274 154.086 274m.285-14.634q1.28 0 2.419-.426 1.28-.426 1.993-2.984.854-2.699.854-8.951 0-6.25-.854-8.808-.712-2.558-1.993-2.984a6.8 6.8 0 0 0-2.419-.426q-1.139 0-2.42.426t-2.135 2.984q-.853 2.415-.853 8.808 0 6.252.853 8.951.855 2.558 2.135 2.984 1.281.426 2.42.426"/><path fill="#d7f7f6" d="m231.562 334.371 24.429-7.505 27.205 4.924-24.427 6.339z"/><path fill="#dceeed" d="m231.562 334.37 27.207 3.759v67.016l-27.207-4.945z"/><path fill="#c2e1dc" d="m258.77 298.374 27.204 3.758v107.96l-27.204-4.947z"/><path fill="#dceeed" d="m285.973 334.37 27.205 3.759v76.832l-27.205-4.948z"/><path fill="#63a099" d="m337.606 331.79-24.427 6.339v76.832l24.427-7.503z"/><path fill="#d7f7f6" d="m285.973 334.371 24.427-7.505 27.205 4.924-24.427 6.339z"/><path fill="#63a099" d="m310.4 295.793-24.427 6.339v32.238l24.427-7.505z"/><path fill="#d7f7f6" d="m258.77 298.374 25.814-6.203 25.817 3.622-24.427 6.339z"/></g><defs><clipPath id="a"><rect width="380" height="400" fill="#fff" rx="18"/></clipPath></defs></svg>